M48
;DRILL file {KiCad 4.0.2+e4-6225~38~ubuntu14.04.1-stable} date Wed 18 May 2016 01:22:13 PM EAT
;FORMAT={-:-/ absolute / metric / decimal}
FMAT,2
METRIC,TZ
T1C0.500
T2C0.550
T3C0.599
T4C0.600
T5C0.800
T6C0.998
T7C1.000
%
G90
G05
M71
T3
X67.412Y-47.447
X67.412Y-48.946
T4
X51.73Y-92.568
X54.661Y-75.54
X58.303Y-31.455
X60.32Y-69.418
X60.757Y-62.789
X60.909Y-82.448
X61.275Y-59.426
X61.824Y-72.847
X63.144Y-44.348
X63.449Y-29.413
X63.851Y-68.402
X64.008Y-47.371
X64.872Y-81.178
X64.912Y-62.941
X64.973Y-89.611
X65.044Y-76.784
X66.802Y-70.815
X68.159Y-37.702
X69.647Y-43.891
X70.46Y-65.583
X70.968Y-27.686
X72.339Y-63.551
X72.426Y-43.724
X72.912Y-41.346
X73.152Y-66.294
X74.117Y-37.592
X74.219Y-39.726
X74.371Y-44.907
X74.574Y-42.774
X75.946Y-63.602
X75.997Y-65.583
X77.28Y-68.313
X77.409Y-73.553
X77.673Y-81.077
X77.953Y-28.651
X78.181Y-63.957
X78.892Y-61.519
X79.183Y-59.247
X79.248Y-36.881
X79.604Y-91.994
X79.959Y-75.692
X80.594Y-45.964
X82.194Y-83.566
X82.52Y-55.474
X83.16Y-62.332
X83.175Y-74.122
X83.21Y-36.322
X83.668Y-70.764
X83.769Y-76.149
X83.82Y-53.238
X83.972Y-60.604
X84.887Y-56.947
X87.401Y-74.905
T5
X61.265Y-25.756
X61.265Y-35.916
T6
X61.392Y-38.837
X61.392Y-41.377
X61.417Y-76.657
X61.417Y-79.197
X67.767Y-76.657
X67.767Y-79.197
T7
X55.321Y-55.067
X55.423Y-32.106
X55.423Y-34.646
X55.423Y-37.186
X55.423Y-39.726
X55.423Y-42.266
X55.423Y-44.806
X55.423Y-47.346
X55.423Y-49.886
X55.423Y-52.426
X55.423Y-57.506
X55.423Y-60.046
X55.423Y-62.586
X55.423Y-65.126
X55.423Y-67.666
X55.423Y-70.206
X62.179Y-33.223
X64.465Y-84.023
X64.465Y-86.563
X87.325Y-26.111
X87.351Y-23.525
X88.189Y-32.106
X88.189Y-34.646
X88.189Y-37.186
X88.189Y-39.726
X88.189Y-42.266
X88.189Y-44.806
X88.189Y-47.346
X88.189Y-49.886
X88.189Y-52.426
X88.189Y-54.966
X88.189Y-57.506
X88.189Y-60.046
X88.189Y-62.586
X88.189Y-65.126
X88.189Y-67.666
X88.189Y-70.206
T1
X72.553Y-21.748G85X72.553Y-22.398
G05
X79.553Y-21.748G85X79.553Y-22.398
G05
T2
X73.703Y-24.773G85X73.403Y-24.773
G05
X78.703Y-24.773G85X78.403Y-24.773
G05
T0
M30
