M48
;DRILL file {KiCad 4.0.2+e4-6225~38~ubuntu16.04.1-stable} date Wed 01 Jun 2016 07:07:46 PM EAT
;FORMAT={-:-/ absolute / metric / decimal}
FMAT,2
METRIC,TZ
T1C0.500
T2C0.550
T3C0.599
T4C0.600
T5C0.650
T6C0.800
T7C0.998
T8C1.001
%
G90
G05
M71
T3
X67.589Y-56.566
X67.589Y-58.064
T4
X58.445Y-70.523
X60.338Y-59.385
X60.693Y-33.299
X61.125Y-54.28
X63.284Y-89.408
X66.053Y-81.026
X69.24Y-34.696
X70.142Y-81.293
X70.358Y-46.418
X73.99Y-79.261
X74.358Y-62.636
X75.095Y-46.164
X75.667Y-51.244
X76.175Y-83.274
X76.251Y-60.808
X76.251Y-62.611
X77.564Y-71.846
X77.61Y-99.454
X78.041Y-41.161
X79.228Y-69.536
X80.975Y-66.103
X81.521Y-61.087
X81.966Y-68.402
X82.131Y-76.187
X82.132Y-87.235
X82.144Y-51.956
X82.423Y-81.066
X83.363Y-72.301
X83.502Y-79.997
X84.417Y-41.77
X89.599Y-61.201
X89.802Y-75.806
T5
X72.644Y-74.295
X72.644Y-75.565
X73.914Y-74.295
X73.914Y-75.565
X75.184Y-74.295
X75.184Y-75.565
X76.454Y-74.295
X76.454Y-75.565
X77.724Y-74.295
X77.724Y-75.565
T6
X86.296Y-38.798
X86.296Y-48.959
T7
X61.341Y-73.787
X61.341Y-76.327
X61.455Y-80.137
X61.455Y-82.677
X86.347Y-51.841
X86.347Y-54.381
T8
X58.776Y-38.811
T1
X72.731Y-30.866G85X72.731Y-31.516
G05
X79.731Y-30.866G85X79.731Y-31.516
G05
T2
X73.881Y-33.891G85X73.581Y-33.891
G05
X78.881Y-33.891G85X78.581Y-33.891
G05
T0
M30
