G04 #@! TF.FileFunction,Copper,L2,Bot,Signal*
%FSLAX46Y46*%
G04 Gerber Fmt 4.6, Leading zero omitted, Abs format (unit mm)*
G04 Created by KiCad (PCBNEW 4.0.2+e4-6225~38~ubuntu16.04.1-stable) date Wed 01 Jun 2016 06:58:51 PM EAT*
%MOMM*%
G01*
G04 APERTURE LIST*
%ADD10C,0.100000*%
%ADD11C,0.150000*%
%ADD12C,0.300000*%
%ADD13C,0.400000*%
%ADD14O,1.250000X0.950000*%
%ADD15O,1.000000X1.550000*%
%ADD16C,1.998980*%
%ADD17O,3.014980X1.506220*%
%ADD18C,1.000760*%
%ADD19R,1.050000X1.050000*%
%ADD20C,1.050000*%
%ADD21C,2.499360*%
%ADD22C,1.200000*%
%ADD23C,1.000000*%
%ADD24C,0.250000*%
%ADD25C,0.200000*%
G04 APERTURE END LIST*
D10*
D11*
X20004800Y-115994600D02*
X20004800Y-147994600D01*
X128004800Y-147994600D01*
X128004800Y-115994600D01*
X20004800Y-115994600D01*
D10*
D11*
X10000000Y-10000000D02*
X10000000Y-149994600D01*
X130004800Y-149994600D01*
X130004800Y-10000000D01*
X10000000Y-10000000D01*
D10*
D11*
X12000000Y-12000000D02*
X12000000Y-147994600D01*
X128004800Y-147994600D01*
X128004800Y-12000000D01*
X12000000Y-12000000D01*
D10*
D11*
X60000000Y-12000000D02*
X60000000Y-10000000D01*
D10*
D11*
X110000000Y-12000000D02*
X110000000Y-10000000D01*
D10*
D11*
X35990476Y-11588095D02*
X35247619Y-11588095D01*
X35619048Y-11588095D02*
X35619048Y-10288095D01*
X35495238Y-10473810D01*
X35371429Y-10597619D01*
X35247619Y-10659524D01*
D10*
D11*
X85247619Y-10411905D02*
X85309524Y-10350000D01*
X85433333Y-10288095D01*
X85742857Y-10288095D01*
X85866667Y-10350000D01*
X85928571Y-10411905D01*
X85990476Y-10535714D01*
X85990476Y-10659524D01*
X85928571Y-10845238D01*
X85185714Y-11588095D01*
X85990476Y-11588095D01*
D10*
D11*
X60000000Y-147994600D02*
X60000000Y-149994600D01*
D10*
D11*
X110000000Y-147994600D02*
X110000000Y-149994600D01*
D10*
D11*
X35990476Y-149582695D02*
X35247619Y-149582695D01*
X35619048Y-149582695D02*
X35619048Y-148282695D01*
X35495238Y-148468410D01*
X35371429Y-148592219D01*
X35247619Y-148654124D01*
D10*
D11*
X85247619Y-148406505D02*
X85309524Y-148344600D01*
X85433333Y-148282695D01*
X85742857Y-148282695D01*
X85866667Y-148344600D01*
X85928571Y-148406505D01*
X85990476Y-148530314D01*
X85990476Y-148654124D01*
X85928571Y-148839838D01*
X85185714Y-149582695D01*
X85990476Y-149582695D01*
D10*
D11*
X10000000Y-60000000D02*
X12000000Y-60000000D01*
D10*
D11*
X10000000Y-110000000D02*
X12000000Y-110000000D01*
D10*
D11*
X10690476Y-35216667D02*
X11309524Y-35216667D01*
X10566667Y-35588095D02*
X11000000Y-34288095D01*
X11433333Y-35588095D01*
D10*
D11*
X11092857Y-84907143D02*
X11278571Y-84969048D01*
X11340476Y-85030952D01*
X11402381Y-85154762D01*
X11402381Y-85340476D01*
X11340476Y-85464286D01*
X11278571Y-85526190D01*
X11154762Y-85588095D01*
X10659524Y-85588095D01*
X10659524Y-84288095D01*
X11092857Y-84288095D01*
X11216667Y-84350000D01*
X11278571Y-84411905D01*
X11340476Y-84535714D01*
X11340476Y-84659524D01*
X11278571Y-84783333D01*
X11216667Y-84845238D01*
X11092857Y-84907143D01*
X10659524Y-84907143D01*
D10*
D11*
X11402381Y-135464286D02*
X11340476Y-135526190D01*
X11154762Y-135588095D01*
X11030952Y-135588095D01*
X10845238Y-135526190D01*
X10721429Y-135402381D01*
X10659524Y-135278571D01*
X10597619Y-135030952D01*
X10597619Y-134845238D01*
X10659524Y-134597619D01*
X10721429Y-134473810D01*
X10845238Y-134350000D01*
X11030952Y-134288095D01*
X11154762Y-134288095D01*
X11340476Y-134350000D01*
X11402381Y-134411905D01*
D10*
D11*
X130004800Y-60000000D02*
X128004800Y-60000000D01*
D10*
D11*
X130004800Y-110000000D02*
X128004800Y-110000000D01*
D10*
D11*
X128695276Y-35216667D02*
X129314324Y-35216667D01*
X128571467Y-35588095D02*
X129004800Y-34288095D01*
X129438133Y-35588095D01*
D10*
D11*
X129097657Y-84907143D02*
X129283371Y-84969048D01*
X129345276Y-85030952D01*
X129407181Y-85154762D01*
X129407181Y-85340476D01*
X129345276Y-85464286D01*
X129283371Y-85526190D01*
X129159562Y-85588095D01*
X128664324Y-85588095D01*
X128664324Y-84288095D01*
X129097657Y-84288095D01*
X129221467Y-84350000D01*
X129283371Y-84411905D01*
X129345276Y-84535714D01*
X129345276Y-84659524D01*
X129283371Y-84783333D01*
X129221467Y-84845238D01*
X129097657Y-84907143D01*
X128664324Y-84907143D01*
D10*
D11*
X129407181Y-135464286D02*
X129345276Y-135526190D01*
X129159562Y-135588095D01*
X129035752Y-135588095D01*
X128850038Y-135526190D01*
X128726229Y-135402381D01*
X128664324Y-135278571D01*
X128602419Y-135030952D01*
X128602419Y-134845238D01*
X128664324Y-134597619D01*
X128726229Y-134473810D01*
X128850038Y-134350000D01*
X129035752Y-134288095D01*
X129159562Y-134288095D01*
X129345276Y-134350000D01*
X129407181Y-134411905D01*
D10*
D11*
X43361943Y-143773171D02*
X43361943Y-142273171D01*
X43719086Y-142273171D01*
X43933371Y-142344600D01*
X44076229Y-142487457D01*
X44147657Y-142630314D01*
X44219086Y-142916029D01*
X44219086Y-143130314D01*
X44147657Y-143416029D01*
X44076229Y-143558886D01*
X43933371Y-143701743D01*
X43719086Y-143773171D01*
X43361943Y-143773171D01*
X45504800Y-143773171D02*
X45504800Y-142987457D01*
X45433371Y-142844600D01*
X45290514Y-142773171D01*
X45004800Y-142773171D01*
X44861943Y-142844600D01*
X45504800Y-143701743D02*
X45361943Y-143773171D01*
X45004800Y-143773171D01*
X44861943Y-143701743D01*
X44790514Y-143558886D01*
X44790514Y-143416029D01*
X44861943Y-143273171D01*
X45004800Y-143201743D01*
X45361943Y-143201743D01*
X45504800Y-143130314D01*
X46004800Y-142773171D02*
X46576229Y-142773171D01*
X46219086Y-142273171D02*
X46219086Y-143558886D01*
X46290514Y-143701743D01*
X46433372Y-143773171D01*
X46576229Y-143773171D01*
X47647657Y-143701743D02*
X47504800Y-143773171D01*
X47219086Y-143773171D01*
X47076229Y-143701743D01*
X47004800Y-143558886D01*
X47004800Y-142987457D01*
X47076229Y-142844600D01*
X47219086Y-142773171D01*
X47504800Y-142773171D01*
X47647657Y-142844600D01*
X47719086Y-142987457D01*
X47719086Y-143130314D01*
X47004800Y-143273171D01*
X48361943Y-143630314D02*
X48433371Y-143701743D01*
X48361943Y-143773171D01*
X48290514Y-143701743D01*
X48361943Y-143630314D01*
X48361943Y-143773171D01*
X48361943Y-142844600D02*
X48433371Y-142916029D01*
X48361943Y-142987457D01*
X48290514Y-142916029D01*
X48361943Y-142844600D01*
X48361943Y-142987457D01*
X50933372Y-142273171D02*
X50219086Y-142273171D01*
X50147657Y-142987457D01*
X50219086Y-142916029D01*
X50361943Y-142844600D01*
X50719086Y-142844600D01*
X50861943Y-142916029D01*
X50933372Y-142987457D01*
X51004800Y-143130314D01*
X51004800Y-143487457D01*
X50933372Y-143630314D01*
X50861943Y-143701743D01*
X50719086Y-143773171D01*
X50361943Y-143773171D01*
X50219086Y-143701743D01*
X50147657Y-143630314D01*
X52719085Y-142201743D02*
X51433371Y-144130314D01*
X53861943Y-142773171D02*
X53861943Y-143773171D01*
X53504800Y-142201743D02*
X53147657Y-143273171D01*
X54076229Y-143273171D01*
X55719085Y-142201743D02*
X54433371Y-144130314D01*
X56147657Y-142416029D02*
X56219086Y-142344600D01*
X56361943Y-142273171D01*
X56719086Y-142273171D01*
X56861943Y-142344600D01*
X56933372Y-142416029D01*
X57004800Y-142558886D01*
X57004800Y-142701743D01*
X56933372Y-142916029D01*
X56076229Y-143773171D01*
X57004800Y-143773171D01*
X57933371Y-142273171D02*
X58076228Y-142273171D01*
X58219085Y-142344600D01*
X58290514Y-142416029D01*
X58361943Y-142558886D01*
X58433371Y-142844600D01*
X58433371Y-143201743D01*
X58361943Y-143487457D01*
X58290514Y-143630314D01*
X58219085Y-143701743D01*
X58076228Y-143773171D01*
X57933371Y-143773171D01*
X57790514Y-143701743D01*
X57719085Y-143630314D01*
X57647657Y-143487457D01*
X57576228Y-143201743D01*
X57576228Y-142844600D01*
X57647657Y-142558886D01*
X57719085Y-142416029D01*
X57790514Y-142344600D01*
X57933371Y-142273171D01*
X59861942Y-143773171D02*
X59004799Y-143773171D01*
X59433371Y-143773171D02*
X59433371Y-142273171D01*
X59290514Y-142487457D01*
X59147656Y-142630314D01*
X59004799Y-142701743D01*
X61147656Y-142273171D02*
X60861942Y-142273171D01*
X60719085Y-142344600D01*
X60647656Y-142416029D01*
X60504799Y-142630314D01*
X60433370Y-142916029D01*
X60433370Y-143487457D01*
X60504799Y-143630314D01*
X60576227Y-143701743D01*
X60719085Y-143773171D01*
X61004799Y-143773171D01*
X61147656Y-143701743D01*
X61219085Y-143630314D01*
X61290513Y-143487457D01*
X61290513Y-143130314D01*
X61219085Y-142987457D01*
X61147656Y-142916029D01*
X61004799Y-142844600D01*
X60719085Y-142844600D01*
X60576227Y-142916029D01*
X60504799Y-142987457D01*
X60433370Y-143130314D01*
D10*
D11*
X20004800Y-144494600D02*
X128004800Y-144494600D01*
D10*
D11*
X21361943Y-146573171D02*
X21361943Y-145073171D01*
X22219086Y-146573171D02*
X21576229Y-145716029D01*
X22219086Y-145073171D02*
X21361943Y-145930314D01*
X22861943Y-146573171D02*
X22861943Y-145573171D01*
X22861943Y-145073171D02*
X22790514Y-145144600D01*
X22861943Y-145216029D01*
X22933371Y-145144600D01*
X22861943Y-145073171D01*
X22861943Y-145216029D01*
X24433372Y-146430314D02*
X24361943Y-146501743D01*
X24147657Y-146573171D01*
X24004800Y-146573171D01*
X23790515Y-146501743D01*
X23647657Y-146358886D01*
X23576229Y-146216029D01*
X23504800Y-145930314D01*
X23504800Y-145716029D01*
X23576229Y-145430314D01*
X23647657Y-145287457D01*
X23790515Y-145144600D01*
X24004800Y-145073171D01*
X24147657Y-145073171D01*
X24361943Y-145144600D01*
X24433372Y-145216029D01*
X25719086Y-146573171D02*
X25719086Y-145787457D01*
X25647657Y-145644600D01*
X25504800Y-145573171D01*
X25219086Y-145573171D01*
X25076229Y-145644600D01*
X25719086Y-146501743D02*
X25576229Y-146573171D01*
X25219086Y-146573171D01*
X25076229Y-146501743D01*
X25004800Y-146358886D01*
X25004800Y-146216029D01*
X25076229Y-146073171D01*
X25219086Y-146001743D01*
X25576229Y-146001743D01*
X25719086Y-145930314D01*
X27076229Y-146573171D02*
X27076229Y-145073171D01*
X27076229Y-146501743D02*
X26933372Y-146573171D01*
X26647658Y-146573171D01*
X26504800Y-146501743D01*
X26433372Y-146430314D01*
X26361943Y-146287457D01*
X26361943Y-145858886D01*
X26433372Y-145716029D01*
X26504800Y-145644600D01*
X26647658Y-145573171D01*
X26933372Y-145573171D01*
X27076229Y-145644600D01*
X28933372Y-145787457D02*
X29433372Y-145787457D01*
X29647658Y-146573171D02*
X28933372Y-146573171D01*
X28933372Y-145073171D01*
X29647658Y-145073171D01*
X30290515Y-146430314D02*
X30361943Y-146501743D01*
X30290515Y-146573171D01*
X30219086Y-146501743D01*
X30290515Y-146430314D01*
X30290515Y-146573171D01*
X31004801Y-146573171D02*
X31004801Y-145073171D01*
X31361944Y-145073171D01*
X31576229Y-145144600D01*
X31719087Y-145287457D01*
X31790515Y-145430314D01*
X31861944Y-145716029D01*
X31861944Y-145930314D01*
X31790515Y-146216029D01*
X31719087Y-146358886D01*
X31576229Y-146501743D01*
X31361944Y-146573171D01*
X31004801Y-146573171D01*
X32504801Y-146430314D02*
X32576229Y-146501743D01*
X32504801Y-146573171D01*
X32433372Y-146501743D01*
X32504801Y-146430314D01*
X32504801Y-146573171D01*
X33147658Y-146144600D02*
X33861944Y-146144600D01*
X33004801Y-146573171D02*
X33504801Y-145073171D01*
X34004801Y-146573171D01*
X34504801Y-146430314D02*
X34576229Y-146501743D01*
X34504801Y-146573171D01*
X34433372Y-146501743D01*
X34504801Y-146430314D01*
X34504801Y-146573171D01*
X37504801Y-146573171D02*
X37504801Y-145073171D01*
X37647658Y-146001743D02*
X38076229Y-146573171D01*
X38076229Y-145573171D02*
X37504801Y-146144600D01*
X38719087Y-146573171D02*
X38719087Y-145573171D01*
X38719087Y-145073171D02*
X38647658Y-145144600D01*
X38719087Y-145216029D01*
X38790515Y-145144600D01*
X38719087Y-145073171D01*
X38719087Y-145216029D01*
X40076230Y-146501743D02*
X39933373Y-146573171D01*
X39647659Y-146573171D01*
X39504801Y-146501743D01*
X39433373Y-146430314D01*
X39361944Y-146287457D01*
X39361944Y-145858886D01*
X39433373Y-145716029D01*
X39504801Y-145644600D01*
X39647659Y-145573171D01*
X39933373Y-145573171D01*
X40076230Y-145644600D01*
X41361944Y-146573171D02*
X41361944Y-145787457D01*
X41290515Y-145644600D01*
X41147658Y-145573171D01*
X40861944Y-145573171D01*
X40719087Y-145644600D01*
X41361944Y-146501743D02*
X41219087Y-146573171D01*
X40861944Y-146573171D01*
X40719087Y-146501743D01*
X40647658Y-146358886D01*
X40647658Y-146216029D01*
X40719087Y-146073171D01*
X40861944Y-146001743D01*
X41219087Y-146001743D01*
X41361944Y-145930314D01*
X42719087Y-146573171D02*
X42719087Y-145073171D01*
X42719087Y-146501743D02*
X42576230Y-146573171D01*
X42290516Y-146573171D01*
X42147658Y-146501743D01*
X42076230Y-146430314D01*
X42004801Y-146287457D01*
X42004801Y-145858886D01*
X42076230Y-145716029D01*
X42147658Y-145644600D01*
X42290516Y-145573171D01*
X42576230Y-145573171D01*
X42719087Y-145644600D01*
X45219087Y-145573171D02*
X45219087Y-146573171D01*
X44861944Y-145001743D02*
X44504801Y-146073171D01*
X45433373Y-146073171D01*
X46004801Y-146430314D02*
X46076229Y-146501743D01*
X46004801Y-146573171D01*
X45933372Y-146501743D01*
X46004801Y-146430314D01*
X46004801Y-146573171D01*
X47004801Y-145073171D02*
X47147658Y-145073171D01*
X47290515Y-145144600D01*
X47361944Y-145216029D01*
X47433373Y-145358886D01*
X47504801Y-145644600D01*
X47504801Y-146001743D01*
X47433373Y-146287457D01*
X47361944Y-146430314D01*
X47290515Y-146501743D01*
X47147658Y-146573171D01*
X47004801Y-146573171D01*
X46861944Y-146501743D01*
X46790515Y-146430314D01*
X46719087Y-146287457D01*
X46647658Y-146001743D01*
X46647658Y-145644600D01*
X46719087Y-145358886D01*
X46790515Y-145216029D01*
X46861944Y-145144600D01*
X47004801Y-145073171D01*
X48147658Y-146430314D02*
X48219086Y-146501743D01*
X48147658Y-146573171D01*
X48076229Y-146501743D01*
X48147658Y-146430314D01*
X48147658Y-146573171D01*
X48790515Y-145216029D02*
X48861944Y-145144600D01*
X49004801Y-145073171D01*
X49361944Y-145073171D01*
X49504801Y-145144600D01*
X49576230Y-145216029D01*
X49647658Y-145358886D01*
X49647658Y-145501743D01*
X49576230Y-145716029D01*
X48719087Y-146573171D01*
X49647658Y-146573171D01*
X50290515Y-146001743D02*
X51433372Y-146001743D01*
X50861943Y-146573171D02*
X50861943Y-145430314D01*
X52719086Y-146501743D02*
X52576229Y-146573171D01*
X52290515Y-146573171D01*
X52147658Y-146501743D01*
X52076229Y-146358886D01*
X52076229Y-145787457D01*
X52147658Y-145644600D01*
X52290515Y-145573171D01*
X52576229Y-145573171D01*
X52719086Y-145644600D01*
X52790515Y-145787457D01*
X52790515Y-145930314D01*
X52076229Y-146073171D01*
X54076229Y-145573171D02*
X54076229Y-146573171D01*
X53719086Y-145001743D02*
X53361943Y-146073171D01*
X54290515Y-146073171D01*
X54861943Y-146001743D02*
X56004800Y-146001743D01*
X57361943Y-145073171D02*
X57076229Y-145073171D01*
X56933372Y-145144600D01*
X56861943Y-145216029D01*
X56719086Y-145430314D01*
X56647657Y-145716029D01*
X56647657Y-146287457D01*
X56719086Y-146430314D01*
X56790514Y-146501743D01*
X56933372Y-146573171D01*
X57219086Y-146573171D01*
X57361943Y-146501743D01*
X57433372Y-146430314D01*
X57504800Y-146287457D01*
X57504800Y-145930314D01*
X57433372Y-145787457D01*
X57361943Y-145716029D01*
X57219086Y-145644600D01*
X56933372Y-145644600D01*
X56790514Y-145716029D01*
X56719086Y-145787457D01*
X56647657Y-145930314D01*
X58076228Y-145216029D02*
X58147657Y-145144600D01*
X58290514Y-145073171D01*
X58647657Y-145073171D01*
X58790514Y-145144600D01*
X58861943Y-145216029D01*
X58933371Y-145358886D01*
X58933371Y-145501743D01*
X58861943Y-145716029D01*
X58004800Y-146573171D01*
X58933371Y-146573171D01*
X59504799Y-145216029D02*
X59576228Y-145144600D01*
X59719085Y-145073171D01*
X60076228Y-145073171D01*
X60219085Y-145144600D01*
X60290514Y-145216029D01*
X60361942Y-145358886D01*
X60361942Y-145501743D01*
X60290514Y-145716029D01*
X59433371Y-146573171D01*
X60361942Y-146573171D01*
X61719085Y-145073171D02*
X61004799Y-145073171D01*
X60933370Y-145787457D01*
X61004799Y-145716029D01*
X61147656Y-145644600D01*
X61504799Y-145644600D01*
X61647656Y-145716029D01*
X61719085Y-145787457D01*
X61790513Y-145930314D01*
X61790513Y-146287457D01*
X61719085Y-146430314D01*
X61647656Y-146501743D01*
X61504799Y-146573171D01*
X61147656Y-146573171D01*
X61004799Y-146501743D01*
X60933370Y-146430314D01*
X62290513Y-145073171D02*
X63219084Y-145073171D01*
X62719084Y-145644600D01*
X62933370Y-145644600D01*
X63076227Y-145716029D01*
X63147656Y-145787457D01*
X63219084Y-145930314D01*
X63219084Y-146287457D01*
X63147656Y-146430314D01*
X63076227Y-146501743D01*
X62933370Y-146573171D01*
X62504798Y-146573171D01*
X62361941Y-146501743D01*
X62290513Y-146430314D01*
X64076227Y-145716029D02*
X63933369Y-145644600D01*
X63861941Y-145573171D01*
X63790512Y-145430314D01*
X63790512Y-145358886D01*
X63861941Y-145216029D01*
X63933369Y-145144600D01*
X64076227Y-145073171D01*
X64361941Y-145073171D01*
X64504798Y-145144600D01*
X64576227Y-145216029D01*
X64647655Y-145358886D01*
X64647655Y-145430314D01*
X64576227Y-145573171D01*
X64504798Y-145644600D01*
X64361941Y-145716029D01*
X64076227Y-145716029D01*
X63933369Y-145787457D01*
X63861941Y-145858886D01*
X63790512Y-146001743D01*
X63790512Y-146287457D01*
X63861941Y-146430314D01*
X63933369Y-146501743D01*
X64076227Y-146573171D01*
X64361941Y-146573171D01*
X64504798Y-146501743D01*
X64576227Y-146430314D01*
X64647655Y-146287457D01*
X64647655Y-146001743D01*
X64576227Y-145858886D01*
X64504798Y-145787457D01*
X64361941Y-145716029D01*
X62076227Y-144814600D02*
X64933369Y-144814600D01*
X65933369Y-145573171D02*
X65933369Y-146573171D01*
X65290512Y-145573171D02*
X65290512Y-146358886D01*
X65361940Y-146501743D01*
X65504798Y-146573171D01*
X65719083Y-146573171D01*
X65861940Y-146501743D01*
X65933369Y-146430314D01*
X66647655Y-146573171D02*
X66647655Y-145073171D01*
X66647655Y-145644600D02*
X66790512Y-145573171D01*
X67076226Y-145573171D01*
X67219083Y-145644600D01*
X67290512Y-145716029D01*
X67361941Y-145858886D01*
X67361941Y-146287457D01*
X67290512Y-146430314D01*
X67219083Y-146501743D01*
X67076226Y-146573171D01*
X66790512Y-146573171D01*
X66647655Y-146501743D01*
X68647655Y-145573171D02*
X68647655Y-146573171D01*
X68004798Y-145573171D02*
X68004798Y-146358886D01*
X68076226Y-146501743D01*
X68219084Y-146573171D01*
X68433369Y-146573171D01*
X68576226Y-146501743D01*
X68647655Y-146430314D01*
X69361941Y-145573171D02*
X69361941Y-146573171D01*
X69361941Y-145716029D02*
X69433369Y-145644600D01*
X69576227Y-145573171D01*
X69790512Y-145573171D01*
X69933369Y-145644600D01*
X70004798Y-145787457D01*
X70004798Y-146573171D01*
X70504798Y-145573171D02*
X71076227Y-145573171D01*
X70719084Y-145073171D02*
X70719084Y-146358886D01*
X70790512Y-146501743D01*
X70933370Y-146573171D01*
X71076227Y-146573171D01*
X72219084Y-145573171D02*
X72219084Y-146573171D01*
X71576227Y-145573171D02*
X71576227Y-146358886D01*
X71647655Y-146501743D01*
X71790513Y-146573171D01*
X72004798Y-146573171D01*
X72147655Y-146501743D01*
X72219084Y-146430314D01*
X73719084Y-146573171D02*
X72861941Y-146573171D01*
X73290513Y-146573171D02*
X73290513Y-145073171D01*
X73147656Y-145287457D01*
X73004798Y-145430314D01*
X72861941Y-145501743D01*
X75004798Y-145073171D02*
X74719084Y-145073171D01*
X74576227Y-145144600D01*
X74504798Y-145216029D01*
X74361941Y-145430314D01*
X74290512Y-145716029D01*
X74290512Y-146287457D01*
X74361941Y-146430314D01*
X74433369Y-146501743D01*
X74576227Y-146573171D01*
X74861941Y-146573171D01*
X75004798Y-146501743D01*
X75076227Y-146430314D01*
X75147655Y-146287457D01*
X75147655Y-145930314D01*
X75076227Y-145787457D01*
X75004798Y-145716029D01*
X74861941Y-145644600D01*
X74576227Y-145644600D01*
X74433369Y-145716029D01*
X74361941Y-145787457D01*
X74290512Y-145930314D01*
X75790512Y-146430314D02*
X75861940Y-146501743D01*
X75790512Y-146573171D01*
X75719083Y-146501743D01*
X75790512Y-146430314D01*
X75790512Y-146573171D01*
X76790512Y-145073171D02*
X76933369Y-145073171D01*
X77076226Y-145144600D01*
X77147655Y-145216029D01*
X77219084Y-145358886D01*
X77290512Y-145644600D01*
X77290512Y-146001743D01*
X77219084Y-146287457D01*
X77147655Y-146430314D01*
X77076226Y-146501743D01*
X76933369Y-146573171D01*
X76790512Y-146573171D01*
X76647655Y-146501743D01*
X76576226Y-146430314D01*
X76504798Y-146287457D01*
X76433369Y-146001743D01*
X76433369Y-145644600D01*
X76504798Y-145358886D01*
X76576226Y-145216029D01*
X76647655Y-145144600D01*
X76790512Y-145073171D01*
X78576226Y-145573171D02*
X78576226Y-146573171D01*
X78219083Y-145001743D02*
X77861940Y-146073171D01*
X78790512Y-146073171D01*
X79361940Y-146430314D02*
X79433368Y-146501743D01*
X79361940Y-146573171D01*
X79290511Y-146501743D01*
X79361940Y-146430314D01*
X79361940Y-146573171D01*
X80861940Y-146573171D02*
X80004797Y-146573171D01*
X80433369Y-146573171D02*
X80433369Y-145073171D01*
X80290512Y-145287457D01*
X80147654Y-145430314D01*
X80004797Y-145501743D01*
X81504797Y-146001743D02*
X82647654Y-146001743D01*
X83290511Y-146501743D02*
X83433368Y-146573171D01*
X83719083Y-146573171D01*
X83861940Y-146501743D01*
X83933368Y-146358886D01*
X83933368Y-146287457D01*
X83861940Y-146144600D01*
X83719083Y-146073171D01*
X83504797Y-146073171D01*
X83361940Y-146001743D01*
X83290511Y-145858886D01*
X83290511Y-145787457D01*
X83361940Y-145644600D01*
X83504797Y-145573171D01*
X83719083Y-145573171D01*
X83861940Y-145644600D01*
X84361940Y-145573171D02*
X84933369Y-145573171D01*
X84576226Y-145073171D02*
X84576226Y-146358886D01*
X84647654Y-146501743D01*
X84790512Y-146573171D01*
X84933369Y-146573171D01*
X86076226Y-146573171D02*
X86076226Y-145787457D01*
X86004797Y-145644600D01*
X85861940Y-145573171D01*
X85576226Y-145573171D01*
X85433369Y-145644600D01*
X86076226Y-146501743D02*
X85933369Y-146573171D01*
X85576226Y-146573171D01*
X85433369Y-146501743D01*
X85361940Y-146358886D01*
X85361940Y-146216029D01*
X85433369Y-146073171D01*
X85576226Y-146001743D01*
X85933369Y-146001743D01*
X86076226Y-145930314D01*
X86790512Y-146573171D02*
X86790512Y-145073171D01*
X86790512Y-145644600D02*
X86933369Y-145573171D01*
X87219083Y-145573171D01*
X87361940Y-145644600D01*
X87433369Y-145716029D01*
X87504798Y-145858886D01*
X87504798Y-146287457D01*
X87433369Y-146430314D01*
X87361940Y-146501743D01*
X87219083Y-146573171D01*
X86933369Y-146573171D01*
X86790512Y-146501743D01*
X88361941Y-146573171D02*
X88219083Y-146501743D01*
X88147655Y-146358886D01*
X88147655Y-145073171D01*
X89504797Y-146501743D02*
X89361940Y-146573171D01*
X89076226Y-146573171D01*
X88933369Y-146501743D01*
X88861940Y-146358886D01*
X88861940Y-145787457D01*
X88933369Y-145644600D01*
X89076226Y-145573171D01*
X89361940Y-145573171D01*
X89504797Y-145644600D01*
X89576226Y-145787457D01*
X89576226Y-145930314D01*
X88861940Y-146073171D01*
D10*
D11*
X20004800Y-141494600D02*
X128004800Y-141494600D01*
D10*
D12*
X107219086Y-143773171D02*
X106719086Y-143058886D01*
X106361943Y-143773171D02*
X106361943Y-142273171D01*
X106933371Y-142273171D01*
X107076229Y-142344600D01*
X107147657Y-142416029D01*
X107219086Y-142558886D01*
X107219086Y-142773171D01*
X107147657Y-142916029D01*
X107076229Y-142987457D01*
X106933371Y-143058886D01*
X106361943Y-143058886D01*
X108433371Y-143701743D02*
X108290514Y-143773171D01*
X108004800Y-143773171D01*
X107861943Y-143701743D01*
X107790514Y-143558886D01*
X107790514Y-142987457D01*
X107861943Y-142844600D01*
X108004800Y-142773171D01*
X108290514Y-142773171D01*
X108433371Y-142844600D01*
X108504800Y-142987457D01*
X108504800Y-143130314D01*
X107790514Y-143273171D01*
X109004800Y-142773171D02*
X109361943Y-143773171D01*
X109719085Y-142773171D01*
X110290514Y-143630314D02*
X110361942Y-143701743D01*
X110290514Y-143773171D01*
X110219085Y-143701743D01*
X110290514Y-143630314D01*
X110290514Y-143773171D01*
X110290514Y-142844600D02*
X110361942Y-142916029D01*
X110290514Y-142987457D01*
X110219085Y-142916029D01*
X110290514Y-142844600D01*
X110290514Y-142987457D01*
X112933371Y-143773171D02*
X112076228Y-143773171D01*
X112504800Y-143773171D02*
X112504800Y-142273171D01*
X112361943Y-142487457D01*
X112219085Y-142630314D01*
X112076228Y-142701743D01*
D10*
D11*
X21290514Y-143701743D02*
X21504800Y-143773171D01*
X21861943Y-143773171D01*
X22004800Y-143701743D01*
X22076229Y-143630314D01*
X22147657Y-143487457D01*
X22147657Y-143344600D01*
X22076229Y-143201743D01*
X22004800Y-143130314D01*
X21861943Y-143058886D01*
X21576229Y-142987457D01*
X21433371Y-142916029D01*
X21361943Y-142844600D01*
X21290514Y-142701743D01*
X21290514Y-142558886D01*
X21361943Y-142416029D01*
X21433371Y-142344600D01*
X21576229Y-142273171D01*
X21933371Y-142273171D01*
X22147657Y-142344600D01*
X22790514Y-143773171D02*
X22790514Y-142773171D01*
X22790514Y-142273171D02*
X22719085Y-142344600D01*
X22790514Y-142416029D01*
X22861942Y-142344600D01*
X22790514Y-142273171D01*
X22790514Y-142416029D01*
X23361943Y-142773171D02*
X24147657Y-142773171D01*
X23361943Y-143773171D01*
X24147657Y-143773171D01*
X25290514Y-143701743D02*
X25147657Y-143773171D01*
X24861943Y-143773171D01*
X24719086Y-143701743D01*
X24647657Y-143558886D01*
X24647657Y-142987457D01*
X24719086Y-142844600D01*
X24861943Y-142773171D01*
X25147657Y-142773171D01*
X25290514Y-142844600D01*
X25361943Y-142987457D01*
X25361943Y-143130314D01*
X24647657Y-143273171D01*
X26004800Y-143630314D02*
X26076228Y-143701743D01*
X26004800Y-143773171D01*
X25933371Y-143701743D01*
X26004800Y-143630314D01*
X26004800Y-143773171D01*
X26004800Y-142844600D02*
X26076228Y-142916029D01*
X26004800Y-142987457D01*
X25933371Y-142916029D01*
X26004800Y-142844600D01*
X26004800Y-142987457D01*
X27861943Y-142273171D02*
X27861943Y-143487457D01*
X27933371Y-143630314D01*
X28004800Y-143701743D01*
X28147657Y-143773171D01*
X28433371Y-143773171D01*
X28576229Y-143701743D01*
X28647657Y-143630314D01*
X28719086Y-143487457D01*
X28719086Y-142273171D01*
X29361943Y-143701743D02*
X29504800Y-143773171D01*
X29790515Y-143773171D01*
X29933372Y-143701743D01*
X30004800Y-143558886D01*
X30004800Y-143487457D01*
X29933372Y-143344600D01*
X29790515Y-143273171D01*
X29576229Y-143273171D01*
X29433372Y-143201743D01*
X29361943Y-143058886D01*
X29361943Y-142987457D01*
X29433372Y-142844600D01*
X29576229Y-142773171D01*
X29790515Y-142773171D01*
X29933372Y-142844600D01*
X31219086Y-143701743D02*
X31076229Y-143773171D01*
X30790515Y-143773171D01*
X30647658Y-143701743D01*
X30576229Y-143558886D01*
X30576229Y-142987457D01*
X30647658Y-142844600D01*
X30790515Y-142773171D01*
X31076229Y-142773171D01*
X31219086Y-142844600D01*
X31290515Y-142987457D01*
X31290515Y-143130314D01*
X30576229Y-143273171D01*
X31933372Y-143773171D02*
X31933372Y-142773171D01*
X31933372Y-143058886D02*
X32004800Y-142916029D01*
X32076229Y-142844600D01*
X32219086Y-142773171D01*
X32361943Y-142773171D01*
D10*
D11*
X106361943Y-146573171D02*
X106361943Y-145073171D01*
X107719086Y-146573171D02*
X107719086Y-145073171D01*
X107719086Y-146501743D02*
X107576229Y-146573171D01*
X107290515Y-146573171D01*
X107147657Y-146501743D01*
X107076229Y-146430314D01*
X107004800Y-146287457D01*
X107004800Y-145858886D01*
X107076229Y-145716029D01*
X107147657Y-145644600D01*
X107290515Y-145573171D01*
X107576229Y-145573171D01*
X107719086Y-145644600D01*
X108433372Y-146430314D02*
X108504800Y-146501743D01*
X108433372Y-146573171D01*
X108361943Y-146501743D01*
X108433372Y-146430314D01*
X108433372Y-146573171D01*
X108433372Y-145644600D02*
X108504800Y-145716029D01*
X108433372Y-145787457D01*
X108361943Y-145716029D01*
X108433372Y-145644600D01*
X108433372Y-145787457D01*
X111076229Y-146573171D02*
X110219086Y-146573171D01*
X110647658Y-146573171D02*
X110647658Y-145073171D01*
X110504801Y-145287457D01*
X110361943Y-145430314D01*
X110219086Y-145501743D01*
X112790514Y-145001743D02*
X111504800Y-146930314D01*
X114076229Y-146573171D02*
X113219086Y-146573171D01*
X113647658Y-146573171D02*
X113647658Y-145073171D01*
X113504801Y-145287457D01*
X113361943Y-145430314D01*
X113219086Y-145501743D01*
D10*
D11*
X20004800Y-137494600D02*
X128004800Y-137494600D01*
D10*
D13*
X21457181Y-138199362D02*
X22600038Y-138199362D01*
X21778610Y-140199362D02*
X22028610Y-138199362D01*
X23016705Y-140199362D02*
X23183371Y-138866029D01*
X23266705Y-138199362D02*
X23159562Y-138294600D01*
X23242895Y-138389838D01*
X23350039Y-138294600D01*
X23266705Y-138199362D01*
X23242895Y-138389838D01*
X23850038Y-138866029D02*
X24611943Y-138866029D01*
X24219086Y-138199362D02*
X24004800Y-139913648D01*
X24076230Y-140104124D01*
X24254801Y-140199362D01*
X24445277Y-140199362D01*
X25397658Y-140199362D02*
X25219087Y-140104124D01*
X25147657Y-139913648D01*
X25361943Y-138199362D01*
X26933372Y-140104124D02*
X26730991Y-140199362D01*
X26350039Y-140199362D01*
X26171467Y-140104124D01*
X26100038Y-139913648D01*
X26195276Y-139151743D01*
X26314324Y-138961267D01*
X26516705Y-138866029D01*
X26897657Y-138866029D01*
X27076229Y-138961267D01*
X27147657Y-139151743D01*
X27123848Y-139342219D01*
X26147657Y-139532695D01*
X27897657Y-140008886D02*
X27980992Y-140104124D01*
X27873848Y-140199362D01*
X27790515Y-140104124D01*
X27897657Y-140008886D01*
X27873848Y-140199362D01*
X28028610Y-138961267D02*
X28111944Y-139056505D01*
X28004800Y-139151743D01*
X27921467Y-139056505D01*
X28028610Y-138961267D01*
X28004800Y-139151743D01*
X30314325Y-138199362D02*
X31457182Y-138199362D01*
X30635754Y-140199362D02*
X30885754Y-138199362D01*
X31873849Y-140199362D02*
X32040515Y-138866029D01*
X32123849Y-138199362D02*
X32016706Y-138294600D01*
X32100039Y-138389838D01*
X32207183Y-138294600D01*
X32123849Y-138199362D01*
X32100039Y-138389838D01*
X32992896Y-138866029D02*
X32826230Y-140199362D01*
X32969087Y-139056505D02*
X33076231Y-138961267D01*
X33278611Y-138866029D01*
X33564325Y-138866029D01*
X33742897Y-138961267D01*
X33814325Y-139151743D01*
X33683373Y-140199362D01*
X34611944Y-138866029D02*
X34921469Y-140199362D01*
X35564325Y-138866029D02*
X34921469Y-140199362D01*
X34671469Y-140675552D01*
X34564325Y-140770790D01*
X34361944Y-140866029D01*
X37683374Y-140199362D02*
X37933374Y-138199362D01*
X38826232Y-140199362D02*
X38111946Y-139056505D01*
X39076232Y-138199362D02*
X37790517Y-139342219D01*
X39814326Y-138389838D02*
X39921469Y-138294600D01*
X40123851Y-138199362D01*
X40600041Y-138199362D01*
X40778612Y-138294600D01*
X40861945Y-138389838D01*
X40933375Y-138580314D01*
X40909565Y-138770790D01*
X40778612Y-139056505D01*
X39492898Y-140199362D01*
X40730994Y-140199362D01*
X42219089Y-138199362D02*
X42409565Y-138199362D01*
X42588136Y-138294600D01*
X42671469Y-138389838D01*
X42742898Y-138580314D01*
X42790518Y-138961267D01*
X42730994Y-139437457D01*
X42588136Y-139818410D01*
X42469088Y-140008886D01*
X42361946Y-140104124D01*
X42159565Y-140199362D01*
X41969089Y-140199362D01*
X41790518Y-140104124D01*
X41707184Y-140008886D01*
X41635755Y-139818410D01*
X41588136Y-139437457D01*
X41647660Y-138961267D01*
X41790517Y-138580314D01*
X41909565Y-138389838D01*
X42016708Y-138294600D01*
X42219089Y-138199362D01*
X45016708Y-140199362D02*
X45266708Y-138199362D01*
X46028613Y-138199362D01*
X46207184Y-138294600D01*
X46290518Y-138389838D01*
X46361947Y-138580314D01*
X46326232Y-138866029D01*
X46207185Y-139056505D01*
X46100041Y-139151743D01*
X45897660Y-139246981D01*
X45135755Y-139246981D01*
X48183375Y-140008886D02*
X48076233Y-140104124D01*
X47778613Y-140199362D01*
X47588137Y-140199362D01*
X47314328Y-140104124D01*
X47147661Y-139913648D01*
X47076232Y-139723171D01*
X47028613Y-139342219D01*
X47064327Y-139056505D01*
X47207184Y-138675552D01*
X47326233Y-138485076D01*
X47540518Y-138294600D01*
X47838137Y-138199362D01*
X48028613Y-138199362D01*
X48302423Y-138294600D01*
X48385756Y-138389838D01*
X49814327Y-139151743D02*
X50088136Y-139246981D01*
X50171471Y-139342219D01*
X50242899Y-139532695D01*
X50207185Y-139818410D01*
X50088137Y-140008886D01*
X49980994Y-140104124D01*
X49778613Y-140199362D01*
X49016708Y-140199362D01*
X49266708Y-138199362D01*
X49933375Y-138199362D01*
X50111946Y-138294600D01*
X50195279Y-138389838D01*
X50266709Y-138580314D01*
X50242899Y-138770790D01*
X50123851Y-138961267D01*
X50016708Y-139056505D01*
X49814327Y-139151743D01*
X49147660Y-139151743D01*
D10*
D11*
X21861943Y-135587457D02*
X21361943Y-135587457D01*
X21361943Y-136373171D02*
X21361943Y-134873171D01*
X22076229Y-134873171D01*
X22647657Y-136373171D02*
X22647657Y-135373171D01*
X22647657Y-134873171D02*
X22576228Y-134944600D01*
X22647657Y-135016029D01*
X22719085Y-134944600D01*
X22647657Y-134873171D01*
X22647657Y-135016029D01*
X23576229Y-136373171D02*
X23433371Y-136301743D01*
X23361943Y-136158886D01*
X23361943Y-134873171D01*
X24719085Y-136301743D02*
X24576228Y-136373171D01*
X24290514Y-136373171D01*
X24147657Y-136301743D01*
X24076228Y-136158886D01*
X24076228Y-135587457D01*
X24147657Y-135444600D01*
X24290514Y-135373171D01*
X24576228Y-135373171D01*
X24719085Y-135444600D01*
X24790514Y-135587457D01*
X24790514Y-135730314D01*
X24076228Y-135873171D01*
X25433371Y-136230314D02*
X25504799Y-136301743D01*
X25433371Y-136373171D01*
X25361942Y-136301743D01*
X25433371Y-136230314D01*
X25433371Y-136373171D01*
X25433371Y-135444600D02*
X25504799Y-135516029D01*
X25433371Y-135587457D01*
X25361942Y-135516029D01*
X25433371Y-135444600D01*
X25433371Y-135587457D01*
X27076228Y-135373171D02*
X27647657Y-135373171D01*
X27290514Y-134873171D02*
X27290514Y-136158886D01*
X27361942Y-136301743D01*
X27504800Y-136373171D01*
X27647657Y-136373171D01*
X28147657Y-136373171D02*
X28147657Y-135373171D01*
X28147657Y-134873171D02*
X28076228Y-134944600D01*
X28147657Y-135016029D01*
X28219085Y-134944600D01*
X28147657Y-134873171D01*
X28147657Y-135016029D01*
X28861943Y-135373171D02*
X28861943Y-136373171D01*
X28861943Y-135516029D02*
X28933371Y-135444600D01*
X29076229Y-135373171D01*
X29290514Y-135373171D01*
X29433371Y-135444600D01*
X29504800Y-135587457D01*
X29504800Y-136373171D01*
X30076229Y-135373171D02*
X30433372Y-136373171D01*
X30790514Y-135373171D02*
X30433372Y-136373171D01*
X30290514Y-136730314D01*
X30219086Y-136801743D01*
X30076229Y-136873171D01*
X31361943Y-136373171D02*
X31361943Y-134873171D01*
X32219086Y-136373171D02*
X31576229Y-135516029D01*
X32219086Y-134873171D02*
X31361943Y-135730314D01*
X32790514Y-135016029D02*
X32861943Y-134944600D01*
X33004800Y-134873171D01*
X33361943Y-134873171D01*
X33504800Y-134944600D01*
X33576229Y-135016029D01*
X33647657Y-135158886D01*
X33647657Y-135301743D01*
X33576229Y-135516029D01*
X32719086Y-136373171D01*
X33647657Y-136373171D01*
X34576228Y-134873171D02*
X34719085Y-134873171D01*
X34861942Y-134944600D01*
X34933371Y-135016029D01*
X35004800Y-135158886D01*
X35076228Y-135444600D01*
X35076228Y-135801743D01*
X35004800Y-136087457D01*
X34933371Y-136230314D01*
X34861942Y-136301743D01*
X34719085Y-136373171D01*
X34576228Y-136373171D01*
X34433371Y-136301743D01*
X34361942Y-136230314D01*
X34290514Y-136087457D01*
X34219085Y-135801743D01*
X34219085Y-135444600D01*
X34290514Y-135158886D01*
X34361942Y-135016029D01*
X34433371Y-134944600D01*
X34576228Y-134873171D01*
X35719085Y-136230314D02*
X35790513Y-136301743D01*
X35719085Y-136373171D01*
X35647656Y-136301743D01*
X35719085Y-136230314D01*
X35719085Y-136373171D01*
X36433371Y-136373171D02*
X36433371Y-134873171D01*
X36576228Y-135801743D02*
X37004799Y-136373171D01*
X37004799Y-135373171D02*
X36433371Y-135944600D01*
X37647657Y-136373171D02*
X37647657Y-135373171D01*
X37647657Y-134873171D02*
X37576228Y-134944600D01*
X37647657Y-135016029D01*
X37719085Y-134944600D01*
X37647657Y-134873171D01*
X37647657Y-135016029D01*
X39004800Y-136301743D02*
X38861943Y-136373171D01*
X38576229Y-136373171D01*
X38433371Y-136301743D01*
X38361943Y-136230314D01*
X38290514Y-136087457D01*
X38290514Y-135658886D01*
X38361943Y-135516029D01*
X38433371Y-135444600D01*
X38576229Y-135373171D01*
X38861943Y-135373171D01*
X39004800Y-135444600D01*
X40290514Y-136373171D02*
X40290514Y-135587457D01*
X40219085Y-135444600D01*
X40076228Y-135373171D01*
X39790514Y-135373171D01*
X39647657Y-135444600D01*
X40290514Y-136301743D02*
X40147657Y-136373171D01*
X39790514Y-136373171D01*
X39647657Y-136301743D01*
X39576228Y-136158886D01*
X39576228Y-136016029D01*
X39647657Y-135873171D01*
X39790514Y-135801743D01*
X40147657Y-135801743D01*
X40290514Y-135730314D01*
X41647657Y-136373171D02*
X41647657Y-134873171D01*
X41647657Y-136301743D02*
X41504800Y-136373171D01*
X41219086Y-136373171D01*
X41076228Y-136301743D01*
X41004800Y-136230314D01*
X40933371Y-136087457D01*
X40933371Y-135658886D01*
X41004800Y-135516029D01*
X41076228Y-135444600D01*
X41219086Y-135373171D01*
X41504800Y-135373171D01*
X41647657Y-135444600D01*
X42004800Y-136516029D02*
X43147657Y-136516029D01*
X43504800Y-135373171D02*
X43504800Y-136873171D01*
X43504800Y-135444600D02*
X43647657Y-135373171D01*
X43933371Y-135373171D01*
X44076228Y-135444600D01*
X44147657Y-135516029D01*
X44219086Y-135658886D01*
X44219086Y-136087457D01*
X44147657Y-136230314D01*
X44076228Y-136301743D01*
X43933371Y-136373171D01*
X43647657Y-136373171D01*
X43504800Y-136301743D01*
X45504800Y-136301743D02*
X45361943Y-136373171D01*
X45076229Y-136373171D01*
X44933371Y-136301743D01*
X44861943Y-136230314D01*
X44790514Y-136087457D01*
X44790514Y-135658886D01*
X44861943Y-135516029D01*
X44933371Y-135444600D01*
X45076229Y-135373171D01*
X45361943Y-135373171D01*
X45504800Y-135444600D01*
X46147657Y-136373171D02*
X46147657Y-134873171D01*
X46147657Y-135444600D02*
X46290514Y-135373171D01*
X46576228Y-135373171D01*
X46719085Y-135444600D01*
X46790514Y-135516029D01*
X46861943Y-135658886D01*
X46861943Y-136087457D01*
X46790514Y-136230314D01*
X46719085Y-136301743D01*
X46576228Y-136373171D01*
X46290514Y-136373171D01*
X46147657Y-136301743D01*
D10*
D11*
X20004800Y-131494600D02*
X128004800Y-131494600D01*
D10*
D11*
X21290514Y-133601743D02*
X21504800Y-133673171D01*
X21861943Y-133673171D01*
X22004800Y-133601743D01*
X22076229Y-133530314D01*
X22147657Y-133387457D01*
X22147657Y-133244600D01*
X22076229Y-133101743D01*
X22004800Y-133030314D01*
X21861943Y-132958886D01*
X21576229Y-132887457D01*
X21433371Y-132816029D01*
X21361943Y-132744600D01*
X21290514Y-132601743D01*
X21290514Y-132458886D01*
X21361943Y-132316029D01*
X21433371Y-132244600D01*
X21576229Y-132173171D01*
X21933371Y-132173171D01*
X22147657Y-132244600D01*
X22790514Y-133673171D02*
X22790514Y-132173171D01*
X23433371Y-133673171D02*
X23433371Y-132887457D01*
X23361942Y-132744600D01*
X23219085Y-132673171D01*
X23004800Y-132673171D01*
X22861942Y-132744600D01*
X22790514Y-132816029D01*
X24719085Y-133601743D02*
X24576228Y-133673171D01*
X24290514Y-133673171D01*
X24147657Y-133601743D01*
X24076228Y-133458886D01*
X24076228Y-132887457D01*
X24147657Y-132744600D01*
X24290514Y-132673171D01*
X24576228Y-132673171D01*
X24719085Y-132744600D01*
X24790514Y-132887457D01*
X24790514Y-133030314D01*
X24076228Y-133173171D01*
X26004799Y-133601743D02*
X25861942Y-133673171D01*
X25576228Y-133673171D01*
X25433371Y-133601743D01*
X25361942Y-133458886D01*
X25361942Y-132887457D01*
X25433371Y-132744600D01*
X25576228Y-132673171D01*
X25861942Y-132673171D01*
X26004799Y-132744600D01*
X26076228Y-132887457D01*
X26076228Y-133030314D01*
X25361942Y-133173171D01*
X26504799Y-132673171D02*
X27076228Y-132673171D01*
X26719085Y-132173171D02*
X26719085Y-133458886D01*
X26790513Y-133601743D01*
X26933371Y-133673171D01*
X27076228Y-133673171D01*
X27576228Y-133530314D02*
X27647656Y-133601743D01*
X27576228Y-133673171D01*
X27504799Y-133601743D01*
X27576228Y-133530314D01*
X27576228Y-133673171D01*
X27576228Y-132744600D02*
X27647656Y-132816029D01*
X27576228Y-132887457D01*
X27504799Y-132816029D01*
X27576228Y-132744600D01*
X27576228Y-132887457D01*
D10*
D12*
X21361943Y-130673171D02*
X21361943Y-129173171D01*
X22219086Y-130673171D02*
X21576229Y-129816029D01*
X22219086Y-129173171D02*
X21361943Y-130030314D01*
X23504800Y-130673171D02*
X23504800Y-129887457D01*
X23433371Y-129744600D01*
X23290514Y-129673171D01*
X23004800Y-129673171D01*
X22861943Y-129744600D01*
X23504800Y-130601743D02*
X23361943Y-130673171D01*
X23004800Y-130673171D01*
X22861943Y-130601743D01*
X22790514Y-130458886D01*
X22790514Y-130316029D01*
X22861943Y-130173171D01*
X23004800Y-130101743D01*
X23361943Y-130101743D01*
X23504800Y-130030314D01*
X24219086Y-130673171D02*
X24219086Y-129673171D01*
X24219086Y-129958886D02*
X24290514Y-129816029D01*
X24361943Y-129744600D01*
X24504800Y-129673171D01*
X24647657Y-129673171D01*
X25147657Y-130673171D02*
X25147657Y-129673171D01*
X25147657Y-129173171D02*
X25076228Y-129244600D01*
X25147657Y-129316029D01*
X25219085Y-129244600D01*
X25147657Y-129173171D01*
X25147657Y-129316029D01*
X25861943Y-130673171D02*
X25861943Y-129173171D01*
X25861943Y-129744600D02*
X26004800Y-129673171D01*
X26290514Y-129673171D01*
X26433371Y-129744600D01*
X26504800Y-129816029D01*
X26576229Y-129958886D01*
X26576229Y-130387457D01*
X26504800Y-130530314D01*
X26433371Y-130601743D01*
X26290514Y-130673171D01*
X26004800Y-130673171D01*
X25861943Y-130601743D01*
X27790514Y-130601743D02*
X27647657Y-130673171D01*
X27361943Y-130673171D01*
X27219086Y-130601743D01*
X27147657Y-130458886D01*
X27147657Y-129887457D01*
X27219086Y-129744600D01*
X27361943Y-129673171D01*
X27647657Y-129673171D01*
X27790514Y-129744600D01*
X27861943Y-129887457D01*
X27861943Y-130030314D01*
X27147657Y-130173171D01*
D10*
D11*
X21361943Y-127673171D02*
X21361943Y-126173171D01*
X21504800Y-127101743D02*
X21933371Y-127673171D01*
X21933371Y-126673171D02*
X21361943Y-127244600D01*
X23219086Y-127673171D02*
X23219086Y-126887457D01*
X23147657Y-126744600D01*
X23004800Y-126673171D01*
X22719086Y-126673171D01*
X22576229Y-126744600D01*
X23219086Y-127601743D02*
X23076229Y-127673171D01*
X22719086Y-127673171D01*
X22576229Y-127601743D01*
X22504800Y-127458886D01*
X22504800Y-127316029D01*
X22576229Y-127173171D01*
X22719086Y-127101743D01*
X23076229Y-127101743D01*
X23219086Y-127030314D01*
X23933372Y-127673171D02*
X23933372Y-126673171D01*
X23933372Y-126958886D02*
X24004800Y-126816029D01*
X24076229Y-126744600D01*
X24219086Y-126673171D01*
X24361943Y-126673171D01*
X24647657Y-126673171D02*
X25219086Y-126673171D01*
X24861943Y-127673171D02*
X24861943Y-126387457D01*
X24933371Y-126244600D01*
X25076229Y-126173171D01*
X25219086Y-126173171D01*
X26290514Y-127601743D02*
X26147657Y-127673171D01*
X25861943Y-127673171D01*
X25719086Y-127601743D01*
X25647657Y-127458886D01*
X25647657Y-126887457D01*
X25719086Y-126744600D01*
X25861943Y-126673171D01*
X26147657Y-126673171D01*
X26290514Y-126744600D01*
X26361943Y-126887457D01*
X26361943Y-127030314D01*
X25647657Y-127173171D01*
X26933371Y-127601743D02*
X27076228Y-127673171D01*
X27361943Y-127673171D01*
X27504800Y-127601743D01*
X27576228Y-127458886D01*
X27576228Y-127387457D01*
X27504800Y-127244600D01*
X27361943Y-127173171D01*
X27147657Y-127173171D01*
X27004800Y-127101743D01*
X26933371Y-126958886D01*
X26933371Y-126887457D01*
X27004800Y-126744600D01*
X27147657Y-126673171D01*
X27361943Y-126673171D01*
X27504800Y-126744600D01*
X29147657Y-126958886D02*
X29076229Y-126887457D01*
X28933372Y-126816029D01*
X28790514Y-126816029D01*
X28647657Y-126887457D01*
X28576229Y-126958886D01*
X28504800Y-127101743D01*
X28504800Y-127244600D01*
X28576229Y-127387457D01*
X28647657Y-127458886D01*
X28790514Y-127530314D01*
X28933372Y-127530314D01*
X29076229Y-127458886D01*
X29147657Y-127387457D01*
X29147657Y-126816029D02*
X29147657Y-127387457D01*
X29219086Y-127458886D01*
X29290514Y-127458886D01*
X29433372Y-127387457D01*
X29504800Y-127244600D01*
X29504800Y-126887457D01*
X29361943Y-126673171D01*
X29147657Y-126530314D01*
X28861943Y-126458886D01*
X28576229Y-126530314D01*
X28361943Y-126673171D01*
X28219086Y-126887457D01*
X28147657Y-127173171D01*
X28219086Y-127458886D01*
X28361943Y-127673171D01*
X28576229Y-127816029D01*
X28861943Y-127887457D01*
X29147657Y-127816029D01*
X29361943Y-127673171D01*
X30790514Y-126673171D02*
X30790514Y-127887457D01*
X30719085Y-128030314D01*
X30647657Y-128101743D01*
X30504800Y-128173171D01*
X30290514Y-128173171D01*
X30147657Y-128101743D01*
X30790514Y-127601743D02*
X30647657Y-127673171D01*
X30361943Y-127673171D01*
X30219085Y-127601743D01*
X30147657Y-127530314D01*
X30076228Y-127387457D01*
X30076228Y-126958886D01*
X30147657Y-126816029D01*
X30219085Y-126744600D01*
X30361943Y-126673171D01*
X30647657Y-126673171D01*
X30790514Y-126744600D01*
X31504800Y-127673171D02*
X31504800Y-126673171D01*
X31504800Y-126816029D02*
X31576228Y-126744600D01*
X31719086Y-126673171D01*
X31933371Y-126673171D01*
X32076228Y-126744600D01*
X32147657Y-126887457D01*
X32147657Y-127673171D01*
X32147657Y-126887457D02*
X32219086Y-126744600D01*
X32361943Y-126673171D01*
X32576228Y-126673171D01*
X32719086Y-126744600D01*
X32790514Y-126887457D01*
X32790514Y-127673171D01*
X34147657Y-127673171D02*
X34147657Y-126887457D01*
X34076228Y-126744600D01*
X33933371Y-126673171D01*
X33647657Y-126673171D01*
X33504800Y-126744600D01*
X34147657Y-127601743D02*
X34004800Y-127673171D01*
X33647657Y-127673171D01*
X33504800Y-127601743D01*
X33433371Y-127458886D01*
X33433371Y-127316029D01*
X33504800Y-127173171D01*
X33647657Y-127101743D01*
X34004800Y-127101743D01*
X34147657Y-127030314D01*
X34861943Y-127673171D02*
X34861943Y-126673171D01*
X34861943Y-126173171D02*
X34790514Y-126244600D01*
X34861943Y-126316029D01*
X34933371Y-126244600D01*
X34861943Y-126173171D01*
X34861943Y-126316029D01*
X35790515Y-127673171D02*
X35647657Y-127601743D01*
X35576229Y-127458886D01*
X35576229Y-126173171D01*
X36361943Y-127530314D02*
X36433371Y-127601743D01*
X36361943Y-127673171D01*
X36290514Y-127601743D01*
X36361943Y-127530314D01*
X36361943Y-127673171D01*
X37719086Y-127601743D02*
X37576229Y-127673171D01*
X37290515Y-127673171D01*
X37147657Y-127601743D01*
X37076229Y-127530314D01*
X37004800Y-127387457D01*
X37004800Y-126958886D01*
X37076229Y-126816029D01*
X37147657Y-126744600D01*
X37290515Y-126673171D01*
X37576229Y-126673171D01*
X37719086Y-126744600D01*
X38576229Y-127673171D02*
X38433371Y-127601743D01*
X38361943Y-127530314D01*
X38290514Y-127387457D01*
X38290514Y-126958886D01*
X38361943Y-126816029D01*
X38433371Y-126744600D01*
X38576229Y-126673171D01*
X38790514Y-126673171D01*
X38933371Y-126744600D01*
X39004800Y-126816029D01*
X39076229Y-126958886D01*
X39076229Y-127387457D01*
X39004800Y-127530314D01*
X38933371Y-127601743D01*
X38790514Y-127673171D01*
X38576229Y-127673171D01*
X39719086Y-127673171D02*
X39719086Y-126673171D01*
X39719086Y-126816029D02*
X39790514Y-126744600D01*
X39933372Y-126673171D01*
X40147657Y-126673171D01*
X40290514Y-126744600D01*
X40361943Y-126887457D01*
X40361943Y-127673171D01*
X40361943Y-126887457D02*
X40433372Y-126744600D01*
X40576229Y-126673171D01*
X40790514Y-126673171D01*
X40933372Y-126744600D01*
X41004800Y-126887457D01*
X41004800Y-127673171D01*
D10*
D11*
X40004800Y-141494600D02*
X40004800Y-144494600D01*
D10*
D11*
X104004800Y-141494600D02*
X104004800Y-147994600D01*
D10*
X56261000Y-103835200D02*
X56184800Y-29337000D01*
X91782900Y-103822500D02*
X56261000Y-103835200D01*
X91744800Y-29337000D02*
X91782900Y-103822500D01*
X56184800Y-29337000D02*
X91744800Y-29337000D01*
D14*
X78730600Y-33891200D03*
X73730600Y-33891200D03*
D15*
X79730600Y-31191200D03*
X72730600Y-31191200D03*
D16*
X86296500Y-38798500D03*
X86296500Y-48958500D03*
D17*
X86347300Y-51841400D03*
X86347300Y-54381400D03*
X61341000Y-73787000D03*
X61341000Y-76327000D03*
X61455300Y-80137000D03*
X61455300Y-82677000D03*
D18*
X67978245Y-58453245D02*
X67624423Y-58099423D01*
X67624423Y-56530777D02*
X67978245Y-56176955D01*
D19*
X72644000Y-75565000D03*
D20*
X73914000Y-75565000D03*
X75184000Y-75565000D03*
X76454000Y-75565000D03*
X77724000Y-75565000D03*
X73914000Y-74295000D03*
X75184000Y-74295000D03*
X76454000Y-74295000D03*
X77724000Y-74295000D03*
X72644000Y-74295000D03*
D21*
X58775600Y-38811200D03*
D22*
X66052700Y-81026000D03*
D23*
X76250800Y-60807600D03*
X74358500Y-62636400D03*
X76250800Y-62611000D03*
D22*
X84416900Y-41770300D03*
X78041500Y-41160700D03*
X69240400Y-34696400D03*
X70358000Y-46418500D03*
X82143599Y-51955700D03*
X75666600Y-51244500D03*
X83502499Y-79997299D03*
X60693300Y-33299400D03*
X73990200Y-79260700D03*
X60337700Y-59385200D03*
X83362800Y-72301100D03*
X77563639Y-71845663D03*
X89801700Y-75806300D03*
X61125100Y-54279800D03*
X58445400Y-70523100D03*
X77609700Y-99453700D03*
X81521300Y-61087000D03*
X82131883Y-87235393D03*
X82423321Y-81066190D03*
X70142100Y-81292700D03*
X80975200Y-66103500D03*
X81965800Y-68402200D03*
X82130900Y-76187300D03*
X63284100Y-89408000D03*
X76174600Y-83273900D03*
X79228278Y-69535914D03*
X75095100Y-46164500D03*
X89598500Y-61201300D03*
D24*
X78890028Y-41160700D02*
X82245200Y-41160700D01*
X82245200Y-41160700D02*
X83807300Y-41160700D01*
X83807300Y-41160700D02*
X84416900Y-41770300D01*
X78041500Y-41160700D02*
X78890028Y-41160700D01*
X69840399Y-35296399D02*
X69240400Y-34696400D01*
X70358000Y-35814000D02*
X69840399Y-35296399D01*
X70358000Y-46418500D02*
X70358000Y-35814000D01*
X82143599Y-58445399D02*
X82143599Y-52804228D01*
X84696300Y-69405500D02*
X84696300Y-60998100D01*
X81546700Y-72555100D02*
X84696300Y-69405500D01*
X81432399Y-51244500D02*
X81543600Y-51355701D01*
X75666600Y-51244500D02*
X81432399Y-51244500D01*
X81546700Y-72580500D02*
X81546700Y-72555100D01*
X84696300Y-60998100D02*
X82143599Y-58445399D01*
X81543600Y-51355701D02*
X82143599Y-51955700D01*
X83502499Y-79997299D02*
X84810600Y-78689198D01*
X84810600Y-75844400D02*
X81546700Y-72580500D01*
X84810600Y-78689198D02*
X84810600Y-75844400D01*
X82143599Y-52804228D02*
X82143599Y-51955700D01*
X74155300Y-50990500D02*
X71805800Y-48641000D01*
X74965001Y-51800201D02*
X74155300Y-50990500D01*
X74155300Y-50990500D02*
X75412600Y-50990500D01*
X75412600Y-50990500D02*
X75666600Y-51244500D01*
X62382400Y-39811902D02*
X62382400Y-34988500D01*
X62382400Y-34988500D02*
X60693300Y-33299400D01*
X71805800Y-48641000D02*
X71211498Y-48641000D01*
X71211498Y-48641000D02*
X62382400Y-39811902D01*
X75565000Y-52400200D02*
X74965001Y-51800201D01*
X75565000Y-52400200D02*
X75565000Y-59283600D01*
X75565000Y-59283600D02*
X71958200Y-62890400D01*
X67513200Y-62890400D02*
X64008000Y-59385200D01*
X71958200Y-62890400D02*
X67513200Y-62890400D01*
X73390201Y-78660701D02*
X73990200Y-79260700D01*
X72644000Y-77914500D02*
X73390201Y-78660701D01*
X72644000Y-75565000D02*
X72644000Y-77914500D01*
X64008000Y-59385200D02*
X60337700Y-59385200D01*
X83962799Y-72901099D02*
X83362800Y-72301100D01*
X86868000Y-75806300D02*
X83962799Y-72901099D01*
X89801700Y-75806300D02*
X86868000Y-75806300D01*
X77563639Y-71845663D02*
X77563639Y-74134639D01*
X77563639Y-74134639D02*
X77724000Y-74295000D01*
X61125100Y-54279800D02*
X58077100Y-54279800D01*
X65239900Y-73723500D02*
X69710300Y-73723500D01*
X58077100Y-54279800D02*
X57327800Y-55029100D01*
X57327800Y-55029100D02*
X57327800Y-67589400D01*
X57327800Y-67589400D02*
X58597800Y-68859400D01*
X73914000Y-71843900D02*
X73914000Y-74295000D01*
X62522100Y-71412100D02*
X63334900Y-72224900D01*
X59334400Y-68859400D02*
X60045600Y-69570600D01*
X70256400Y-73177400D02*
X70256400Y-72491600D01*
X60045600Y-69570600D02*
X60045600Y-70827900D01*
X58597800Y-68859400D02*
X59334400Y-68859400D01*
X71125862Y-71622138D02*
X73692238Y-71622138D01*
X60045600Y-70827900D02*
X60629800Y-71412100D01*
X69710300Y-73723500D02*
X70256400Y-73177400D01*
X60629800Y-71412100D02*
X62522100Y-71412100D01*
X63334900Y-72224900D02*
X63741300Y-72224900D01*
X63741300Y-72224900D02*
X65239900Y-73723500D01*
X70256400Y-72491600D02*
X71125862Y-71622138D01*
X73692238Y-71622138D02*
X73914000Y-71843900D01*
X72644000Y-74295000D02*
X64465200Y-74295000D01*
X62344300Y-72174100D02*
X59143900Y-72174100D01*
X59143900Y-72174100D02*
X58445400Y-71475600D01*
X64465200Y-74295000D02*
X62344300Y-72174100D01*
X58445400Y-71475600D02*
X58445400Y-70523100D01*
X77609700Y-99453700D02*
X77609700Y-88940511D01*
X77609700Y-88940511D02*
X81498311Y-85051900D01*
X81498311Y-85051900D02*
X81498311Y-79169389D01*
X83667600Y-77000100D02*
X83667600Y-75717400D01*
X84124800Y-69126100D02*
X84124800Y-63690500D01*
X81498311Y-79169389D02*
X83667600Y-77000100D01*
X83667600Y-75717400D02*
X80873600Y-72923400D01*
X80873600Y-72923400D02*
X80873600Y-71158100D01*
X80873600Y-71158100D02*
X81699100Y-70332600D01*
X81699100Y-70332600D02*
X82918300Y-70332600D01*
X82918300Y-70332600D02*
X84124800Y-69126100D01*
X84124800Y-63690500D02*
X81521300Y-61087000D01*
X82423321Y-86943955D02*
X82131883Y-87235393D01*
X82423321Y-81066190D02*
X82423321Y-86943955D01*
X75815901Y-81892699D02*
X70742099Y-81892699D01*
X79362300Y-71909772D02*
X79362300Y-78346300D01*
X76923900Y-69471372D02*
X79362300Y-71909772D01*
X70742099Y-81892699D02*
X70142100Y-81292700D01*
X79362300Y-78346300D02*
X75815901Y-81892699D01*
X79857600Y-67221100D02*
X80375201Y-66703499D01*
X76923900Y-68478400D02*
X78181200Y-67221100D01*
X78181200Y-67221100D02*
X79857600Y-67221100D01*
X75715028Y-69471372D02*
X76923900Y-69471372D01*
X76923900Y-69471372D02*
X76923900Y-68478400D01*
X80375201Y-66703499D02*
X80975200Y-66103500D01*
X76454000Y-74295000D02*
X76454000Y-72809100D01*
X76454000Y-72809100D02*
X75412600Y-71767700D01*
X75412600Y-71767700D02*
X75412600Y-69773800D01*
X75412600Y-69773800D02*
X75715028Y-69471372D01*
X69329300Y-79032100D02*
X69367400Y-78994000D01*
X69367400Y-78994000D02*
X70434200Y-78994000D01*
X70434200Y-78994000D02*
X72478900Y-81038700D01*
X72478900Y-81038700D02*
X74587100Y-81038700D01*
X76454000Y-79171800D02*
X76454000Y-75565000D01*
X74587100Y-81038700D02*
X76454000Y-79171800D01*
X69329300Y-79032100D02*
X68376800Y-79984600D01*
X68376800Y-79984600D02*
X68376800Y-82791300D01*
X68376800Y-82791300D02*
X71079801Y-85494301D01*
X71079801Y-85494301D02*
X76557699Y-85494301D01*
X76557699Y-85494301D02*
X80340200Y-81711800D01*
X80340200Y-81711800D02*
X80340200Y-70027800D01*
X80340200Y-70027800D02*
X81365801Y-69002199D01*
X81365801Y-69002199D02*
X81965800Y-68402200D01*
X69329300Y-79032100D02*
X63314580Y-79032100D01*
X63314580Y-79032100D02*
X62209680Y-80137000D01*
X62209680Y-80137000D02*
X61455300Y-80137000D01*
X75158600Y-89408000D02*
X81048301Y-83518299D01*
X81048301Y-77269899D02*
X81530901Y-76787299D01*
X63284100Y-89408000D02*
X75158600Y-89408000D01*
X81530901Y-76787299D02*
X82130900Y-76187300D01*
X81048301Y-83518299D02*
X81048301Y-77269899D01*
X76774599Y-82673901D02*
X76174600Y-83273900D01*
X79228278Y-69535914D02*
X79828277Y-70135913D01*
X79828277Y-79620223D02*
X76774599Y-82673901D01*
X79828277Y-70135913D02*
X79828277Y-79620223D01*
D13*
X75095100Y-46164500D02*
X79019400Y-46164500D01*
X89331800Y-60934600D02*
X89598500Y-61201300D01*
X79019400Y-46164500D02*
X84074000Y-51219100D01*
X84074000Y-51219100D02*
X84074000Y-55524400D01*
D24*
X84074000Y-55524400D02*
X84099400Y-55524400D01*
D13*
X84099400Y-55524400D02*
X84886800Y-56311800D01*
X84886800Y-56311800D02*
X89331800Y-56311800D01*
X89331800Y-56311800D02*
X89331800Y-60934600D01*
D25*
G36*
X90959000Y-103372795D02*
X56710540Y-103385039D01*
X56689360Y-82677000D01*
X59510440Y-82677000D01*
X59598215Y-83118276D01*
X59848178Y-83492372D01*
X60222274Y-83742335D01*
X60663550Y-83830110D01*
X62247050Y-83830110D01*
X62688326Y-83742335D01*
X63062422Y-83492372D01*
X63312385Y-83118276D01*
X63400160Y-82677000D01*
X63312385Y-82235724D01*
X63062422Y-81861628D01*
X62688326Y-81611665D01*
X62247050Y-81523890D01*
X60663550Y-81523890D01*
X60222274Y-81611665D01*
X59848178Y-81861628D01*
X59598215Y-82235724D01*
X59510440Y-82677000D01*
X56689360Y-82677000D01*
X56682865Y-76327000D01*
X59396140Y-76327000D01*
X59483915Y-76768276D01*
X59733878Y-77142372D01*
X60107974Y-77392335D01*
X60549250Y-77480110D01*
X62132750Y-77480110D01*
X62574026Y-77392335D01*
X62948122Y-77142372D01*
X63198085Y-76768276D01*
X63285860Y-76327000D01*
X63198085Y-75885724D01*
X62948122Y-75511628D01*
X62574026Y-75261665D01*
X62132750Y-75173890D01*
X60549250Y-75173890D01*
X60107974Y-75261665D01*
X59733878Y-75511628D01*
X59483915Y-75885724D01*
X59396140Y-76327000D01*
X56682865Y-76327000D01*
X56661080Y-55029100D01*
X56802800Y-55029100D01*
X56802800Y-67589400D01*
X56842763Y-67790309D01*
X56956569Y-67960631D01*
X58226569Y-69230631D01*
X58396891Y-69344437D01*
X58597800Y-69384400D01*
X59116938Y-69384400D01*
X59520600Y-69788062D01*
X59520600Y-70827900D01*
X59560563Y-71028809D01*
X59674369Y-71199131D01*
X60124338Y-71649100D01*
X59361362Y-71649100D01*
X59047396Y-71335134D01*
X59292664Y-71090294D01*
X59445226Y-70722885D01*
X59445573Y-70325060D01*
X59293653Y-69957386D01*
X59012594Y-69675836D01*
X58645185Y-69523274D01*
X58247360Y-69522927D01*
X57879686Y-69674847D01*
X57598136Y-69955906D01*
X57445574Y-70323315D01*
X57445227Y-70721140D01*
X57597147Y-71088814D01*
X57878206Y-71370364D01*
X57920400Y-71387885D01*
X57920400Y-71475600D01*
X57960363Y-71676509D01*
X58074169Y-71846831D01*
X58772669Y-72545331D01*
X58942991Y-72659137D01*
X59143900Y-72699100D01*
X60221416Y-72699100D01*
X60107974Y-72721665D01*
X59733878Y-72971628D01*
X59483915Y-73345724D01*
X59396140Y-73787000D01*
X59483915Y-74228276D01*
X59733878Y-74602372D01*
X60107974Y-74852335D01*
X60549250Y-74940110D01*
X62132750Y-74940110D01*
X62574026Y-74852335D01*
X62948122Y-74602372D01*
X63198085Y-74228276D01*
X63274060Y-73846322D01*
X64093969Y-74666231D01*
X64264291Y-74780037D01*
X64465200Y-74820000D01*
X71479701Y-74820000D01*
X71479701Y-74995287D01*
X71486540Y-75031633D01*
X71508020Y-75065014D01*
X71540795Y-75087408D01*
X71579701Y-75095287D01*
X71711164Y-75095287D01*
X71711164Y-76090000D01*
X71739056Y-76238231D01*
X71826660Y-76374372D01*
X71960329Y-76465704D01*
X72119000Y-76497836D01*
X72119000Y-77914500D01*
X72158963Y-78115409D01*
X72272769Y-78285731D01*
X73007268Y-79020230D01*
X72990374Y-79060915D01*
X72990027Y-79458740D01*
X73141947Y-79826414D01*
X73423006Y-80107964D01*
X73790415Y-80260526D01*
X74188240Y-80260873D01*
X74555914Y-80108953D01*
X74837464Y-79827894D01*
X74990026Y-79460485D01*
X74990373Y-79062660D01*
X74838453Y-78694986D01*
X74557394Y-78413436D01*
X74189985Y-78260874D01*
X73792160Y-78260527D01*
X73749936Y-78277974D01*
X73169000Y-77697038D01*
X73169000Y-76497836D01*
X73317231Y-76469944D01*
X73453372Y-76382340D01*
X73544704Y-76248671D01*
X73576836Y-76090000D01*
X73576836Y-75156573D01*
X73729199Y-75219839D01*
X74097187Y-75220160D01*
X74399403Y-75095287D01*
X74699243Y-75095287D01*
X74999199Y-75219839D01*
X75367187Y-75220160D01*
X75642923Y-75106228D01*
X75529161Y-75380199D01*
X75528840Y-75748187D01*
X75669366Y-76088286D01*
X75929000Y-76348374D01*
X75929000Y-78954338D01*
X74369638Y-80513700D01*
X72696362Y-80513700D01*
X70805431Y-78622769D01*
X70635109Y-78508963D01*
X70434200Y-78469000D01*
X69367400Y-78469000D01*
X69175857Y-78507100D01*
X63314580Y-78507100D01*
X63113671Y-78547063D01*
X62943349Y-78660869D01*
X62558397Y-79045821D01*
X62247050Y-78983890D01*
X60663550Y-78983890D01*
X60222274Y-79071665D01*
X59848178Y-79321628D01*
X59598215Y-79695724D01*
X59510440Y-80137000D01*
X59598215Y-80578276D01*
X59848178Y-80952372D01*
X60222274Y-81202335D01*
X60663550Y-81290110D01*
X62247050Y-81290110D01*
X62688326Y-81202335D01*
X63062422Y-80952372D01*
X63312385Y-80578276D01*
X63400160Y-80137000D01*
X63325829Y-79763313D01*
X63532042Y-79557100D01*
X68061838Y-79557100D01*
X68005569Y-79613369D01*
X67891763Y-79783691D01*
X67851800Y-79984600D01*
X67851800Y-82791300D01*
X67891763Y-82992209D01*
X68005569Y-83162531D01*
X70708570Y-85865532D01*
X70878892Y-85979338D01*
X71079801Y-86019301D01*
X76557699Y-86019301D01*
X76758608Y-85979338D01*
X76928930Y-85865532D01*
X80523301Y-82271161D01*
X80523301Y-83300837D01*
X74941138Y-88883000D01*
X64149176Y-88883000D01*
X64132353Y-88842286D01*
X63851294Y-88560736D01*
X63483885Y-88408174D01*
X63086060Y-88407827D01*
X62718386Y-88559747D01*
X62436836Y-88840806D01*
X62284274Y-89208215D01*
X62283927Y-89606040D01*
X62435847Y-89973714D01*
X62716906Y-90255264D01*
X63084315Y-90407826D01*
X63482140Y-90408173D01*
X63849814Y-90256253D01*
X64131364Y-89975194D01*
X64148885Y-89933000D01*
X75158600Y-89933000D01*
X75359509Y-89893037D01*
X75529831Y-89779231D01*
X80973311Y-84335751D01*
X80973311Y-84834438D01*
X77238469Y-88569280D01*
X77124663Y-88739602D01*
X77084700Y-88940511D01*
X77084700Y-98588624D01*
X77043986Y-98605447D01*
X76762436Y-98886506D01*
X76609874Y-99253915D01*
X76609527Y-99651740D01*
X76761447Y-100019414D01*
X77042506Y-100300964D01*
X77409915Y-100453526D01*
X77807740Y-100453873D01*
X78175414Y-100301953D01*
X78456964Y-100020894D01*
X78609526Y-99653485D01*
X78609873Y-99255660D01*
X78457953Y-98887986D01*
X78176894Y-98606436D01*
X78134700Y-98588915D01*
X78134700Y-89157973D01*
X81869542Y-85423131D01*
X81898321Y-85380060D01*
X81898321Y-86249897D01*
X81566169Y-86387140D01*
X81284619Y-86668199D01*
X81132057Y-87035608D01*
X81131710Y-87433433D01*
X81283630Y-87801107D01*
X81564689Y-88082657D01*
X81932098Y-88235219D01*
X82329923Y-88235566D01*
X82697597Y-88083646D01*
X82979147Y-87802587D01*
X83131709Y-87435178D01*
X83132056Y-87037353D01*
X82980136Y-86669679D01*
X82948321Y-86637808D01*
X82948321Y-81931266D01*
X82989035Y-81914443D01*
X83270585Y-81633384D01*
X83423147Y-81265975D01*
X83423381Y-80997230D01*
X83700539Y-80997472D01*
X84068213Y-80845552D01*
X84349763Y-80564493D01*
X84502325Y-80197084D01*
X84502672Y-79799259D01*
X84485225Y-79757035D01*
X85181831Y-79060429D01*
X85295637Y-78890107D01*
X85335600Y-78689198D01*
X85335600Y-75844400D01*
X85295637Y-75643491D01*
X85181831Y-75473169D01*
X82900640Y-73191978D01*
X83163015Y-73300926D01*
X83560840Y-73301273D01*
X83603064Y-73283826D01*
X86496769Y-76177531D01*
X86667091Y-76291337D01*
X86868000Y-76331300D01*
X88936624Y-76331300D01*
X88953447Y-76372014D01*
X89234506Y-76653564D01*
X89601915Y-76806126D01*
X89999740Y-76806473D01*
X90367414Y-76654553D01*
X90648964Y-76373494D01*
X90801526Y-76006085D01*
X90801873Y-75608260D01*
X90649953Y-75240586D01*
X90368894Y-74959036D01*
X90001485Y-74806474D01*
X89603660Y-74806127D01*
X89235986Y-74958047D01*
X88954436Y-75239106D01*
X88936915Y-75281300D01*
X87085462Y-75281300D01*
X84345732Y-72541570D01*
X84362626Y-72500885D01*
X84362973Y-72103060D01*
X84211053Y-71735386D01*
X83929994Y-71453836D01*
X83562585Y-71301274D01*
X83543005Y-71301257D01*
X85067531Y-69776731D01*
X85181337Y-69606409D01*
X85221300Y-69405500D01*
X85221300Y-60998100D01*
X85181337Y-60797191D01*
X85067531Y-60626869D01*
X82668599Y-58227937D01*
X82668599Y-52820776D01*
X82709313Y-52803953D01*
X82990863Y-52522894D01*
X83143425Y-52155485D01*
X83143772Y-51757660D01*
X82991852Y-51389986D01*
X82710793Y-51108436D01*
X82343384Y-50955874D01*
X81945559Y-50955527D01*
X81903335Y-50972974D01*
X81803630Y-50873269D01*
X81633308Y-50759463D01*
X81432399Y-50719500D01*
X76531676Y-50719500D01*
X76514853Y-50678786D01*
X76233794Y-50397236D01*
X75866385Y-50244674D01*
X75468560Y-50244327D01*
X75100886Y-50396247D01*
X75031512Y-50465500D01*
X74372762Y-50465500D01*
X72177031Y-48269769D01*
X72006709Y-48155963D01*
X71805800Y-48116000D01*
X71428960Y-48116000D01*
X70680293Y-47367333D01*
X70923714Y-47266753D01*
X71205264Y-46985694D01*
X71357826Y-46618285D01*
X71358049Y-46362540D01*
X74094927Y-46362540D01*
X74246847Y-46730214D01*
X74527906Y-47011764D01*
X74895315Y-47164326D01*
X75293140Y-47164673D01*
X75660814Y-47012753D01*
X75909501Y-46764500D01*
X78770872Y-46764500D01*
X83474000Y-51467628D01*
X83474000Y-55524400D01*
X83519672Y-55754010D01*
X83649736Y-55948664D01*
X83726284Y-55999812D01*
X84462536Y-56736064D01*
X84657190Y-56866128D01*
X84886800Y-56911800D01*
X88731800Y-56911800D01*
X88731800Y-60680913D01*
X88598674Y-61001515D01*
X88598327Y-61399340D01*
X88750247Y-61767014D01*
X89031306Y-62048564D01*
X89398715Y-62201126D01*
X89796540Y-62201473D01*
X90164214Y-62049553D01*
X90445764Y-61768494D01*
X90598326Y-61401085D01*
X90598673Y-61003260D01*
X90446753Y-60635586D01*
X90165694Y-60354036D01*
X89931800Y-60256914D01*
X89931800Y-56311800D01*
X89886128Y-56082190D01*
X89756064Y-55887536D01*
X89561410Y-55757472D01*
X89331800Y-55711800D01*
X85135328Y-55711800D01*
X84674000Y-55250472D01*
X84674000Y-55097730D01*
X84740178Y-55196772D01*
X85114274Y-55446735D01*
X85555550Y-55534510D01*
X87139050Y-55534510D01*
X87580326Y-55446735D01*
X87954422Y-55196772D01*
X88204385Y-54822676D01*
X88292160Y-54381400D01*
X88204385Y-53940124D01*
X87954422Y-53566028D01*
X87580326Y-53316065D01*
X87139050Y-53228290D01*
X85555550Y-53228290D01*
X85114274Y-53316065D01*
X84740178Y-53566028D01*
X84674000Y-53665070D01*
X84674000Y-52557730D01*
X84740178Y-52656772D01*
X85114274Y-52906735D01*
X85555550Y-52994510D01*
X87139050Y-52994510D01*
X87580326Y-52906735D01*
X87954422Y-52656772D01*
X88204385Y-52282676D01*
X88292160Y-51841400D01*
X88204385Y-51400124D01*
X87954422Y-51026028D01*
X87580326Y-50776065D01*
X87139050Y-50688290D01*
X85555550Y-50688290D01*
X85114274Y-50776065D01*
X84740178Y-51026028D01*
X84659587Y-51146641D01*
X84628328Y-50989490D01*
X84498264Y-50794836D01*
X82939083Y-49235655D01*
X84896767Y-49235655D01*
X85109378Y-49750212D01*
X85502717Y-50144238D01*
X86016903Y-50357747D01*
X86573655Y-50358233D01*
X87088212Y-50145622D01*
X87482238Y-49752283D01*
X87695747Y-49238097D01*
X87696233Y-48681345D01*
X87483622Y-48166788D01*
X87090283Y-47772762D01*
X86576097Y-47559253D01*
X86019345Y-47558767D01*
X85504788Y-47771378D01*
X85110762Y-48164717D01*
X84897253Y-48678903D01*
X84896767Y-49235655D01*
X82939083Y-49235655D01*
X79443664Y-45740236D01*
X79249010Y-45610172D01*
X79019400Y-45564500D01*
X75909127Y-45564500D01*
X75662294Y-45317236D01*
X75294885Y-45164674D01*
X74897060Y-45164327D01*
X74529386Y-45316247D01*
X74247836Y-45597306D01*
X74095274Y-45964715D01*
X74094927Y-46362540D01*
X71358049Y-46362540D01*
X71358173Y-46220460D01*
X71206253Y-45852786D01*
X70925194Y-45571236D01*
X70883000Y-45553715D01*
X70883000Y-39075655D01*
X84896767Y-39075655D01*
X85109378Y-39590212D01*
X85502717Y-39984238D01*
X86016903Y-40197747D01*
X86573655Y-40198233D01*
X87088212Y-39985622D01*
X87482238Y-39592283D01*
X87695747Y-39078097D01*
X87696233Y-38521345D01*
X87483622Y-38006788D01*
X87090283Y-37612762D01*
X86576097Y-37399253D01*
X86019345Y-37398767D01*
X85504788Y-37611378D01*
X85110762Y-38004717D01*
X84897253Y-38518903D01*
X84896767Y-39075655D01*
X70883000Y-39075655D01*
X70883000Y-35814000D01*
X70843037Y-35613091D01*
X70729231Y-35442769D01*
X70223332Y-34936870D01*
X70240226Y-34896185D01*
X70240573Y-34498360D01*
X70088653Y-34130686D01*
X69849585Y-33891200D01*
X72685519Y-33891200D01*
X72752124Y-34226048D01*
X72941801Y-34509918D01*
X73225671Y-34699595D01*
X73560519Y-34766200D01*
X73900681Y-34766200D01*
X74235529Y-34699595D01*
X74519399Y-34509918D01*
X74709076Y-34226048D01*
X74775681Y-33891200D01*
X77685519Y-33891200D01*
X77752124Y-34226048D01*
X77941801Y-34509918D01*
X78225671Y-34699595D01*
X78560519Y-34766200D01*
X78900681Y-34766200D01*
X79235529Y-34699595D01*
X79519399Y-34509918D01*
X79709076Y-34226048D01*
X79775681Y-33891200D01*
X79709076Y-33556352D01*
X79519399Y-33272482D01*
X79235529Y-33082805D01*
X78900681Y-33016200D01*
X78560519Y-33016200D01*
X78225671Y-33082805D01*
X77941801Y-33272482D01*
X77752124Y-33556352D01*
X77685519Y-33891200D01*
X74775681Y-33891200D01*
X74709076Y-33556352D01*
X74519399Y-33272482D01*
X74235529Y-33082805D01*
X73900681Y-33016200D01*
X73560519Y-33016200D01*
X73225671Y-33082805D01*
X72941801Y-33272482D01*
X72752124Y-33556352D01*
X72685519Y-33891200D01*
X69849585Y-33891200D01*
X69807594Y-33849136D01*
X69440185Y-33696574D01*
X69042360Y-33696227D01*
X68674686Y-33848147D01*
X68393136Y-34129206D01*
X68240574Y-34496615D01*
X68240227Y-34894440D01*
X68392147Y-35262114D01*
X68673206Y-35543664D01*
X69040615Y-35696226D01*
X69438440Y-35696573D01*
X69480664Y-35679126D01*
X69833000Y-36031462D01*
X69833000Y-45553424D01*
X69792286Y-45570247D01*
X69510736Y-45851306D01*
X69409080Y-46096120D01*
X62907400Y-39594440D01*
X62907400Y-34988500D01*
X62867437Y-34787591D01*
X62753631Y-34617269D01*
X61676232Y-33539870D01*
X61693126Y-33499185D01*
X61693473Y-33101360D01*
X61541553Y-32733686D01*
X61260494Y-32452136D01*
X60893085Y-32299574D01*
X60495260Y-32299227D01*
X60127586Y-32451147D01*
X59846036Y-32732206D01*
X59693474Y-33099615D01*
X59693127Y-33497440D01*
X59845047Y-33865114D01*
X60126106Y-34146664D01*
X60493515Y-34299226D01*
X60891340Y-34299573D01*
X60933564Y-34282126D01*
X61857400Y-35205962D01*
X61857400Y-39811902D01*
X61897363Y-40012811D01*
X62011169Y-40183133D01*
X70840267Y-49012231D01*
X71010589Y-49126037D01*
X71211498Y-49166000D01*
X71588338Y-49166000D01*
X75040000Y-52617662D01*
X75040000Y-59066138D01*
X72483040Y-61623098D01*
X72477298Y-60603837D01*
X72470461Y-60568054D01*
X72448981Y-60534673D01*
X72416206Y-60512279D01*
X72377300Y-60504400D01*
X65869662Y-60504400D01*
X64379231Y-59013969D01*
X64208909Y-58900163D01*
X64008000Y-58860200D01*
X61202776Y-58860200D01*
X61185953Y-58819486D01*
X60904894Y-58537936D01*
X60537485Y-58385374D01*
X60139660Y-58385027D01*
X59771986Y-58536947D01*
X59490436Y-58818006D01*
X59337874Y-59185415D01*
X59337527Y-59583240D01*
X59489447Y-59950914D01*
X59770506Y-60232464D01*
X60137915Y-60385026D01*
X60535740Y-60385373D01*
X60903414Y-60233453D01*
X61184964Y-59952394D01*
X61202485Y-59910200D01*
X63790538Y-59910200D01*
X64384738Y-60504400D01*
X61463758Y-60504400D01*
X61458636Y-60500689D01*
X61419963Y-60491738D01*
X61380854Y-60498539D01*
X61347473Y-60520019D01*
X61325079Y-60552794D01*
X61317200Y-60591700D01*
X61317200Y-67398900D01*
X61319252Y-67419056D01*
X61334811Y-67455575D01*
X64906248Y-72647386D01*
X64112531Y-71853669D01*
X63942209Y-71739863D01*
X63741300Y-71699900D01*
X63552362Y-71699900D01*
X62893331Y-71040869D01*
X62723009Y-70927063D01*
X62522100Y-70887100D01*
X60847262Y-70887100D01*
X60570600Y-70610438D01*
X60570600Y-69570600D01*
X60530637Y-69369691D01*
X60416831Y-69199369D01*
X59705631Y-68488169D01*
X59535309Y-68374363D01*
X59334400Y-68334400D01*
X58815262Y-68334400D01*
X57852800Y-67371938D01*
X57852800Y-55397400D01*
X65965400Y-55397400D01*
X65965400Y-58343800D01*
X65971860Y-58379159D01*
X65992986Y-58412766D01*
X67262986Y-59746266D01*
X67296494Y-59769421D01*
X67335400Y-59777300D01*
X72009000Y-59777300D01*
X72044431Y-59770813D01*
X72078021Y-59749661D01*
X72100736Y-59717107D01*
X72108995Y-59678280D01*
X72121695Y-58382880D01*
X72114861Y-58345554D01*
X72093381Y-58312173D01*
X72060606Y-58289779D01*
X72021700Y-58281900D01*
X69380239Y-58281900D01*
X69391185Y-57647024D01*
X69391200Y-57645300D01*
X69391200Y-55346600D01*
X69383777Y-55308792D01*
X69361774Y-55275753D01*
X69328650Y-55253877D01*
X69289625Y-55246612D01*
X68023890Y-55266545D01*
X67994184Y-55260636D01*
X67959370Y-55267561D01*
X66063825Y-55297412D01*
X66029054Y-55304239D01*
X65995673Y-55325719D01*
X65973279Y-55358494D01*
X65965400Y-55397400D01*
X57852800Y-55397400D01*
X57852800Y-55246562D01*
X58294562Y-54804800D01*
X60260024Y-54804800D01*
X60276847Y-54845514D01*
X60557906Y-55127064D01*
X60925315Y-55279626D01*
X61323140Y-55279973D01*
X61690814Y-55128053D01*
X61972364Y-54846994D01*
X62124926Y-54479585D01*
X62125273Y-54081760D01*
X61973353Y-53714086D01*
X61692294Y-53432536D01*
X61324885Y-53279974D01*
X60927060Y-53279627D01*
X60559386Y-53431547D01*
X60277836Y-53712606D01*
X60260315Y-53754800D01*
X58077100Y-53754800D01*
X57876191Y-53794763D01*
X57705869Y-53908569D01*
X56956569Y-54657869D01*
X56842763Y-54828191D01*
X56802800Y-55029100D01*
X56661080Y-55029100D01*
X56644826Y-39137902D01*
X57125634Y-39137902D01*
X57376254Y-39744448D01*
X57839911Y-40208915D01*
X58446019Y-40460593D01*
X59102302Y-40461166D01*
X59708848Y-40210546D01*
X60173315Y-39746889D01*
X60424993Y-39140781D01*
X60425566Y-38484498D01*
X60174946Y-37877952D01*
X59711289Y-37413485D01*
X59105181Y-37161807D01*
X58448898Y-37161234D01*
X57842352Y-37411854D01*
X57377885Y-37875511D01*
X57126207Y-38481619D01*
X57125634Y-39137902D01*
X56644826Y-39137902D01*
X56636393Y-30893180D01*
X71830600Y-30893180D01*
X71830600Y-31489220D01*
X71899108Y-31833635D01*
X72094204Y-32125616D01*
X72386185Y-32320712D01*
X72730600Y-32389220D01*
X73075015Y-32320712D01*
X73366996Y-32125616D01*
X73562092Y-31833635D01*
X73630600Y-31489220D01*
X73630600Y-30893180D01*
X78830600Y-30893180D01*
X78830600Y-31489220D01*
X78899108Y-31833635D01*
X79094204Y-32125616D01*
X79386185Y-32320712D01*
X79730600Y-32389220D01*
X80075015Y-32320712D01*
X80366996Y-32125616D01*
X80562092Y-31833635D01*
X80630600Y-31489220D01*
X80630600Y-30893180D01*
X80562092Y-30548765D01*
X80366996Y-30256784D01*
X80075015Y-30061688D01*
X79730600Y-29993180D01*
X79386185Y-30061688D01*
X79094204Y-30256784D01*
X78899108Y-30548765D01*
X78830600Y-30893180D01*
X73630600Y-30893180D01*
X73562092Y-30548765D01*
X73366996Y-30256784D01*
X73075015Y-30061688D01*
X72730600Y-29993180D01*
X72386185Y-30061688D01*
X72094204Y-30256784D01*
X71899108Y-30548765D01*
X71830600Y-30893180D01*
X56636393Y-30893180D01*
X56635261Y-29787000D01*
X90959000Y-29787000D01*
X90959000Y-103372795D01*
X90959000Y-103372795D01*
G37*
X90959000Y-103372795D02*
X56710540Y-103385039D01*
X56689360Y-82677000D01*
X59510440Y-82677000D01*
X59598215Y-83118276D01*
X59848178Y-83492372D01*
X60222274Y-83742335D01*
X60663550Y-83830110D01*
X62247050Y-83830110D01*
X62688326Y-83742335D01*
X63062422Y-83492372D01*
X63312385Y-83118276D01*
X63400160Y-82677000D01*
X63312385Y-82235724D01*
X63062422Y-81861628D01*
X62688326Y-81611665D01*
X62247050Y-81523890D01*
X60663550Y-81523890D01*
X60222274Y-81611665D01*
X59848178Y-81861628D01*
X59598215Y-82235724D01*
X59510440Y-82677000D01*
X56689360Y-82677000D01*
X56682865Y-76327000D01*
X59396140Y-76327000D01*
X59483915Y-76768276D01*
X59733878Y-77142372D01*
X60107974Y-77392335D01*
X60549250Y-77480110D01*
X62132750Y-77480110D01*
X62574026Y-77392335D01*
X62948122Y-77142372D01*
X63198085Y-76768276D01*
X63285860Y-76327000D01*
X63198085Y-75885724D01*
X62948122Y-75511628D01*
X62574026Y-75261665D01*
X62132750Y-75173890D01*
X60549250Y-75173890D01*
X60107974Y-75261665D01*
X59733878Y-75511628D01*
X59483915Y-75885724D01*
X59396140Y-76327000D01*
X56682865Y-76327000D01*
X56661080Y-55029100D01*
X56802800Y-55029100D01*
X56802800Y-67589400D01*
X56842763Y-67790309D01*
X56956569Y-67960631D01*
X58226569Y-69230631D01*
X58396891Y-69344437D01*
X58597800Y-69384400D01*
X59116938Y-69384400D01*
X59520600Y-69788062D01*
X59520600Y-70827900D01*
X59560563Y-71028809D01*
X59674369Y-71199131D01*
X60124338Y-71649100D01*
X59361362Y-71649100D01*
X59047396Y-71335134D01*
X59292664Y-71090294D01*
X59445226Y-70722885D01*
X59445573Y-70325060D01*
X59293653Y-69957386D01*
X59012594Y-69675836D01*
X58645185Y-69523274D01*
X58247360Y-69522927D01*
X57879686Y-69674847D01*
X57598136Y-69955906D01*
X57445574Y-70323315D01*
X57445227Y-70721140D01*
X57597147Y-71088814D01*
X57878206Y-71370364D01*
X57920400Y-71387885D01*
X57920400Y-71475600D01*
X57960363Y-71676509D01*
X58074169Y-71846831D01*
X58772669Y-72545331D01*
X58942991Y-72659137D01*
X59143900Y-72699100D01*
X60221416Y-72699100D01*
X60107974Y-72721665D01*
X59733878Y-72971628D01*
X59483915Y-73345724D01*
X59396140Y-73787000D01*
X59483915Y-74228276D01*
X59733878Y-74602372D01*
X60107974Y-74852335D01*
X60549250Y-74940110D01*
X62132750Y-74940110D01*
X62574026Y-74852335D01*
X62948122Y-74602372D01*
X63198085Y-74228276D01*
X63274060Y-73846322D01*
X64093969Y-74666231D01*
X64264291Y-74780037D01*
X64465200Y-74820000D01*
X71479701Y-74820000D01*
X71479701Y-74995287D01*
X71486540Y-75031633D01*
X71508020Y-75065014D01*
X71540795Y-75087408D01*
X71579701Y-75095287D01*
X71711164Y-75095287D01*
X71711164Y-76090000D01*
X71739056Y-76238231D01*
X71826660Y-76374372D01*
X71960329Y-76465704D01*
X72119000Y-76497836D01*
X72119000Y-77914500D01*
X72158963Y-78115409D01*
X72272769Y-78285731D01*
X73007268Y-79020230D01*
X72990374Y-79060915D01*
X72990027Y-79458740D01*
X73141947Y-79826414D01*
X73423006Y-80107964D01*
X73790415Y-80260526D01*
X74188240Y-80260873D01*
X74555914Y-80108953D01*
X74837464Y-79827894D01*
X74990026Y-79460485D01*
X74990373Y-79062660D01*
X74838453Y-78694986D01*
X74557394Y-78413436D01*
X74189985Y-78260874D01*
X73792160Y-78260527D01*
X73749936Y-78277974D01*
X73169000Y-77697038D01*
X73169000Y-76497836D01*
X73317231Y-76469944D01*
X73453372Y-76382340D01*
X73544704Y-76248671D01*
X73576836Y-76090000D01*
X73576836Y-75156573D01*
X73729199Y-75219839D01*
X74097187Y-75220160D01*
X74399403Y-75095287D01*
X74699243Y-75095287D01*
X74999199Y-75219839D01*
X75367187Y-75220160D01*
X75642923Y-75106228D01*
X75529161Y-75380199D01*
X75528840Y-75748187D01*
X75669366Y-76088286D01*
X75929000Y-76348374D01*
X75929000Y-78954338D01*
X74369638Y-80513700D01*
X72696362Y-80513700D01*
X70805431Y-78622769D01*
X70635109Y-78508963D01*
X70434200Y-78469000D01*
X69367400Y-78469000D01*
X69175857Y-78507100D01*
X63314580Y-78507100D01*
X63113671Y-78547063D01*
X62943349Y-78660869D01*
X62558397Y-79045821D01*
X62247050Y-78983890D01*
X60663550Y-78983890D01*
X60222274Y-79071665D01*
X59848178Y-79321628D01*
X59598215Y-79695724D01*
X59510440Y-80137000D01*
X59598215Y-80578276D01*
X59848178Y-80952372D01*
X60222274Y-81202335D01*
X60663550Y-81290110D01*
X62247050Y-81290110D01*
X62688326Y-81202335D01*
X63062422Y-80952372D01*
X63312385Y-80578276D01*
X63400160Y-80137000D01*
X63325829Y-79763313D01*
X63532042Y-79557100D01*
X68061838Y-79557100D01*
X68005569Y-79613369D01*
X67891763Y-79783691D01*
X67851800Y-79984600D01*
X67851800Y-82791300D01*
X67891763Y-82992209D01*
X68005569Y-83162531D01*
X70708570Y-85865532D01*
X70878892Y-85979338D01*
X71079801Y-86019301D01*
X76557699Y-86019301D01*
X76758608Y-85979338D01*
X76928930Y-85865532D01*
X80523301Y-82271161D01*
X80523301Y-83300837D01*
X74941138Y-88883000D01*
X64149176Y-88883000D01*
X64132353Y-88842286D01*
X63851294Y-88560736D01*
X63483885Y-88408174D01*
X63086060Y-88407827D01*
X62718386Y-88559747D01*
X62436836Y-88840806D01*
X62284274Y-89208215D01*
X62283927Y-89606040D01*
X62435847Y-89973714D01*
X62716906Y-90255264D01*
X63084315Y-90407826D01*
X63482140Y-90408173D01*
X63849814Y-90256253D01*
X64131364Y-89975194D01*
X64148885Y-89933000D01*
X75158600Y-89933000D01*
X75359509Y-89893037D01*
X75529831Y-89779231D01*
X80973311Y-84335751D01*
X80973311Y-84834438D01*
X77238469Y-88569280D01*
X77124663Y-88739602D01*
X77084700Y-88940511D01*
X77084700Y-98588624D01*
X77043986Y-98605447D01*
X76762436Y-98886506D01*
X76609874Y-99253915D01*
X76609527Y-99651740D01*
X76761447Y-100019414D01*
X77042506Y-100300964D01*
X77409915Y-100453526D01*
X77807740Y-100453873D01*
X78175414Y-100301953D01*
X78456964Y-100020894D01*
X78609526Y-99653485D01*
X78609873Y-99255660D01*
X78457953Y-98887986D01*
X78176894Y-98606436D01*
X78134700Y-98588915D01*
X78134700Y-89157973D01*
X81869542Y-85423131D01*
X81898321Y-85380060D01*
X81898321Y-86249897D01*
X81566169Y-86387140D01*
X81284619Y-86668199D01*
X81132057Y-87035608D01*
X81131710Y-87433433D01*
X81283630Y-87801107D01*
X81564689Y-88082657D01*
X81932098Y-88235219D01*
X82329923Y-88235566D01*
X82697597Y-88083646D01*
X82979147Y-87802587D01*
X83131709Y-87435178D01*
X83132056Y-87037353D01*
X82980136Y-86669679D01*
X82948321Y-86637808D01*
X82948321Y-81931266D01*
X82989035Y-81914443D01*
X83270585Y-81633384D01*
X83423147Y-81265975D01*
X83423381Y-80997230D01*
X83700539Y-80997472D01*
X84068213Y-80845552D01*
X84349763Y-80564493D01*
X84502325Y-80197084D01*
X84502672Y-79799259D01*
X84485225Y-79757035D01*
X85181831Y-79060429D01*
X85295637Y-78890107D01*
X85335600Y-78689198D01*
X85335600Y-75844400D01*
X85295637Y-75643491D01*
X85181831Y-75473169D01*
X82900640Y-73191978D01*
X83163015Y-73300926D01*
X83560840Y-73301273D01*
X83603064Y-73283826D01*
X86496769Y-76177531D01*
X86667091Y-76291337D01*
X86868000Y-76331300D01*
X88936624Y-76331300D01*
X88953447Y-76372014D01*
X89234506Y-76653564D01*
X89601915Y-76806126D01*
X89999740Y-76806473D01*
X90367414Y-76654553D01*
X90648964Y-76373494D01*
X90801526Y-76006085D01*
X90801873Y-75608260D01*
X90649953Y-75240586D01*
X90368894Y-74959036D01*
X90001485Y-74806474D01*
X89603660Y-74806127D01*
X89235986Y-74958047D01*
X88954436Y-75239106D01*
X88936915Y-75281300D01*
X87085462Y-75281300D01*
X84345732Y-72541570D01*
X84362626Y-72500885D01*
X84362973Y-72103060D01*
X84211053Y-71735386D01*
X83929994Y-71453836D01*
X83562585Y-71301274D01*
X83543005Y-71301257D01*
X85067531Y-69776731D01*
X85181337Y-69606409D01*
X85221300Y-69405500D01*
X85221300Y-60998100D01*
X85181337Y-60797191D01*
X85067531Y-60626869D01*
X82668599Y-58227937D01*
X82668599Y-52820776D01*
X82709313Y-52803953D01*
X82990863Y-52522894D01*
X83143425Y-52155485D01*
X83143772Y-51757660D01*
X82991852Y-51389986D01*
X82710793Y-51108436D01*
X82343384Y-50955874D01*
X81945559Y-50955527D01*
X81903335Y-50972974D01*
X81803630Y-50873269D01*
X81633308Y-50759463D01*
X81432399Y-50719500D01*
X76531676Y-50719500D01*
X76514853Y-50678786D01*
X76233794Y-50397236D01*
X75866385Y-50244674D01*
X75468560Y-50244327D01*
X75100886Y-50396247D01*
X75031512Y-50465500D01*
X74372762Y-50465500D01*
X72177031Y-48269769D01*
X72006709Y-48155963D01*
X71805800Y-48116000D01*
X71428960Y-48116000D01*
X70680293Y-47367333D01*
X70923714Y-47266753D01*
X71205264Y-46985694D01*
X71357826Y-46618285D01*
X71358049Y-46362540D01*
X74094927Y-46362540D01*
X74246847Y-46730214D01*
X74527906Y-47011764D01*
X74895315Y-47164326D01*
X75293140Y-47164673D01*
X75660814Y-47012753D01*
X75909501Y-46764500D01*
X78770872Y-46764500D01*
X83474000Y-51467628D01*
X83474000Y-55524400D01*
X83519672Y-55754010D01*
X83649736Y-55948664D01*
X83726284Y-55999812D01*
X84462536Y-56736064D01*
X84657190Y-56866128D01*
X84886800Y-56911800D01*
X88731800Y-56911800D01*
X88731800Y-60680913D01*
X88598674Y-61001515D01*
X88598327Y-61399340D01*
X88750247Y-61767014D01*
X89031306Y-62048564D01*
X89398715Y-62201126D01*
X89796540Y-62201473D01*
X90164214Y-62049553D01*
X90445764Y-61768494D01*
X90598326Y-61401085D01*
X90598673Y-61003260D01*
X90446753Y-60635586D01*
X90165694Y-60354036D01*
X89931800Y-60256914D01*
X89931800Y-56311800D01*
X89886128Y-56082190D01*
X89756064Y-55887536D01*
X89561410Y-55757472D01*
X89331800Y-55711800D01*
X85135328Y-55711800D01*
X84674000Y-55250472D01*
X84674000Y-55097730D01*
X84740178Y-55196772D01*
X85114274Y-55446735D01*
X85555550Y-55534510D01*
X87139050Y-55534510D01*
X87580326Y-55446735D01*
X87954422Y-55196772D01*
X88204385Y-54822676D01*
X88292160Y-54381400D01*
X88204385Y-53940124D01*
X87954422Y-53566028D01*
X87580326Y-53316065D01*
X87139050Y-53228290D01*
X85555550Y-53228290D01*
X85114274Y-53316065D01*
X84740178Y-53566028D01*
X84674000Y-53665070D01*
X84674000Y-52557730D01*
X84740178Y-52656772D01*
X85114274Y-52906735D01*
X85555550Y-52994510D01*
X87139050Y-52994510D01*
X87580326Y-52906735D01*
X87954422Y-52656772D01*
X88204385Y-52282676D01*
X88292160Y-51841400D01*
X88204385Y-51400124D01*
X87954422Y-51026028D01*
X87580326Y-50776065D01*
X87139050Y-50688290D01*
X85555550Y-50688290D01*
X85114274Y-50776065D01*
X84740178Y-51026028D01*
X84659587Y-51146641D01*
X84628328Y-50989490D01*
X84498264Y-50794836D01*
X82939083Y-49235655D01*
X84896767Y-49235655D01*
X85109378Y-49750212D01*
X85502717Y-50144238D01*
X86016903Y-50357747D01*
X86573655Y-50358233D01*
X87088212Y-50145622D01*
X87482238Y-49752283D01*
X87695747Y-49238097D01*
X87696233Y-48681345D01*
X87483622Y-48166788D01*
X87090283Y-47772762D01*
X86576097Y-47559253D01*
X86019345Y-47558767D01*
X85504788Y-47771378D01*
X85110762Y-48164717D01*
X84897253Y-48678903D01*
X84896767Y-49235655D01*
X82939083Y-49235655D01*
X79443664Y-45740236D01*
X79249010Y-45610172D01*
X79019400Y-45564500D01*
X75909127Y-45564500D01*
X75662294Y-45317236D01*
X75294885Y-45164674D01*
X74897060Y-45164327D01*
X74529386Y-45316247D01*
X74247836Y-45597306D01*
X74095274Y-45964715D01*
X74094927Y-46362540D01*
X71358049Y-46362540D01*
X71358173Y-46220460D01*
X71206253Y-45852786D01*
X70925194Y-45571236D01*
X70883000Y-45553715D01*
X70883000Y-39075655D01*
X84896767Y-39075655D01*
X85109378Y-39590212D01*
X85502717Y-39984238D01*
X86016903Y-40197747D01*
X86573655Y-40198233D01*
X87088212Y-39985622D01*
X87482238Y-39592283D01*
X87695747Y-39078097D01*
X87696233Y-38521345D01*
X87483622Y-38006788D01*
X87090283Y-37612762D01*
X86576097Y-37399253D01*
X86019345Y-37398767D01*
X85504788Y-37611378D01*
X85110762Y-38004717D01*
X84897253Y-38518903D01*
X84896767Y-39075655D01*
X70883000Y-39075655D01*
X70883000Y-35814000D01*
X70843037Y-35613091D01*
X70729231Y-35442769D01*
X70223332Y-34936870D01*
X70240226Y-34896185D01*
X70240573Y-34498360D01*
X70088653Y-34130686D01*
X69849585Y-33891200D01*
X72685519Y-33891200D01*
X72752124Y-34226048D01*
X72941801Y-34509918D01*
X73225671Y-34699595D01*
X73560519Y-34766200D01*
X73900681Y-34766200D01*
X74235529Y-34699595D01*
X74519399Y-34509918D01*
X74709076Y-34226048D01*
X74775681Y-33891200D01*
X77685519Y-33891200D01*
X77752124Y-34226048D01*
X77941801Y-34509918D01*
X78225671Y-34699595D01*
X78560519Y-34766200D01*
X78900681Y-34766200D01*
X79235529Y-34699595D01*
X79519399Y-34509918D01*
X79709076Y-34226048D01*
X79775681Y-33891200D01*
X79709076Y-33556352D01*
X79519399Y-33272482D01*
X79235529Y-33082805D01*
X78900681Y-33016200D01*
X78560519Y-33016200D01*
X78225671Y-33082805D01*
X77941801Y-33272482D01*
X77752124Y-33556352D01*
X77685519Y-33891200D01*
X74775681Y-33891200D01*
X74709076Y-33556352D01*
X74519399Y-33272482D01*
X74235529Y-33082805D01*
X73900681Y-33016200D01*
X73560519Y-33016200D01*
X73225671Y-33082805D01*
X72941801Y-33272482D01*
X72752124Y-33556352D01*
X72685519Y-33891200D01*
X69849585Y-33891200D01*
X69807594Y-33849136D01*
X69440185Y-33696574D01*
X69042360Y-33696227D01*
X68674686Y-33848147D01*
X68393136Y-34129206D01*
X68240574Y-34496615D01*
X68240227Y-34894440D01*
X68392147Y-35262114D01*
X68673206Y-35543664D01*
X69040615Y-35696226D01*
X69438440Y-35696573D01*
X69480664Y-35679126D01*
X69833000Y-36031462D01*
X69833000Y-45553424D01*
X69792286Y-45570247D01*
X69510736Y-45851306D01*
X69409080Y-46096120D01*
X62907400Y-39594440D01*
X62907400Y-34988500D01*
X62867437Y-34787591D01*
X62753631Y-34617269D01*
X61676232Y-33539870D01*
X61693126Y-33499185D01*
X61693473Y-33101360D01*
X61541553Y-32733686D01*
X61260494Y-32452136D01*
X60893085Y-32299574D01*
X60495260Y-32299227D01*
X60127586Y-32451147D01*
X59846036Y-32732206D01*
X59693474Y-33099615D01*
X59693127Y-33497440D01*
X59845047Y-33865114D01*
X60126106Y-34146664D01*
X60493515Y-34299226D01*
X60891340Y-34299573D01*
X60933564Y-34282126D01*
X61857400Y-35205962D01*
X61857400Y-39811902D01*
X61897363Y-40012811D01*
X62011169Y-40183133D01*
X70840267Y-49012231D01*
X71010589Y-49126037D01*
X71211498Y-49166000D01*
X71588338Y-49166000D01*
X75040000Y-52617662D01*
X75040000Y-59066138D01*
X72483040Y-61623098D01*
X72477298Y-60603837D01*
X72470461Y-60568054D01*
X72448981Y-60534673D01*
X72416206Y-60512279D01*
X72377300Y-60504400D01*
X65869662Y-60504400D01*
X64379231Y-59013969D01*
X64208909Y-58900163D01*
X64008000Y-58860200D01*
X61202776Y-58860200D01*
X61185953Y-58819486D01*
X60904894Y-58537936D01*
X60537485Y-58385374D01*
X60139660Y-58385027D01*
X59771986Y-58536947D01*
X59490436Y-58818006D01*
X59337874Y-59185415D01*
X59337527Y-59583240D01*
X59489447Y-59950914D01*
X59770506Y-60232464D01*
X60137915Y-60385026D01*
X60535740Y-60385373D01*
X60903414Y-60233453D01*
X61184964Y-59952394D01*
X61202485Y-59910200D01*
X63790538Y-59910200D01*
X64384738Y-60504400D01*
X61463758Y-60504400D01*
X61458636Y-60500689D01*
X61419963Y-60491738D01*
X61380854Y-60498539D01*
X61347473Y-60520019D01*
X61325079Y-60552794D01*
X61317200Y-60591700D01*
X61317200Y-67398900D01*
X61319252Y-67419056D01*
X61334811Y-67455575D01*
X64906248Y-72647386D01*
X64112531Y-71853669D01*
X63942209Y-71739863D01*
X63741300Y-71699900D01*
X63552362Y-71699900D01*
X62893331Y-71040869D01*
X62723009Y-70927063D01*
X62522100Y-70887100D01*
X60847262Y-70887100D01*
X60570600Y-70610438D01*
X60570600Y-69570600D01*
X60530637Y-69369691D01*
X60416831Y-69199369D01*
X59705631Y-68488169D01*
X59535309Y-68374363D01*
X59334400Y-68334400D01*
X58815262Y-68334400D01*
X57852800Y-67371938D01*
X57852800Y-55397400D01*
X65965400Y-55397400D01*
X65965400Y-58343800D01*
X65971860Y-58379159D01*
X65992986Y-58412766D01*
X67262986Y-59746266D01*
X67296494Y-59769421D01*
X67335400Y-59777300D01*
X72009000Y-59777300D01*
X72044431Y-59770813D01*
X72078021Y-59749661D01*
X72100736Y-59717107D01*
X72108995Y-59678280D01*
X72121695Y-58382880D01*
X72114861Y-58345554D01*
X72093381Y-58312173D01*
X72060606Y-58289779D01*
X72021700Y-58281900D01*
X69380239Y-58281900D01*
X69391185Y-57647024D01*
X69391200Y-57645300D01*
X69391200Y-55346600D01*
X69383777Y-55308792D01*
X69361774Y-55275753D01*
X69328650Y-55253877D01*
X69289625Y-55246612D01*
X68023890Y-55266545D01*
X67994184Y-55260636D01*
X67959370Y-55267561D01*
X66063825Y-55297412D01*
X66029054Y-55304239D01*
X65995673Y-55325719D01*
X65973279Y-55358494D01*
X65965400Y-55397400D01*
X57852800Y-55397400D01*
X57852800Y-55246562D01*
X58294562Y-54804800D01*
X60260024Y-54804800D01*
X60276847Y-54845514D01*
X60557906Y-55127064D01*
X60925315Y-55279626D01*
X61323140Y-55279973D01*
X61690814Y-55128053D01*
X61972364Y-54846994D01*
X62124926Y-54479585D01*
X62125273Y-54081760D01*
X61973353Y-53714086D01*
X61692294Y-53432536D01*
X61324885Y-53279974D01*
X60927060Y-53279627D01*
X60559386Y-53431547D01*
X60277836Y-53712606D01*
X60260315Y-53754800D01*
X58077100Y-53754800D01*
X57876191Y-53794763D01*
X57705869Y-53908569D01*
X56956569Y-54657869D01*
X56842763Y-54828191D01*
X56802800Y-55029100D01*
X56661080Y-55029100D01*
X56644826Y-39137902D01*
X57125634Y-39137902D01*
X57376254Y-39744448D01*
X57839911Y-40208915D01*
X58446019Y-40460593D01*
X59102302Y-40461166D01*
X59708848Y-40210546D01*
X60173315Y-39746889D01*
X60424993Y-39140781D01*
X60425566Y-38484498D01*
X60174946Y-37877952D01*
X59711289Y-37413485D01*
X59105181Y-37161807D01*
X58448898Y-37161234D01*
X57842352Y-37411854D01*
X57377885Y-37875511D01*
X57126207Y-38481619D01*
X57125634Y-39137902D01*
X56644826Y-39137902D01*
X56636393Y-30893180D01*
X71830600Y-30893180D01*
X71830600Y-31489220D01*
X71899108Y-31833635D01*
X72094204Y-32125616D01*
X72386185Y-32320712D01*
X72730600Y-32389220D01*
X73075015Y-32320712D01*
X73366996Y-32125616D01*
X73562092Y-31833635D01*
X73630600Y-31489220D01*
X73630600Y-30893180D01*
X78830600Y-30893180D01*
X78830600Y-31489220D01*
X78899108Y-31833635D01*
X79094204Y-32125616D01*
X79386185Y-32320712D01*
X79730600Y-32389220D01*
X80075015Y-32320712D01*
X80366996Y-32125616D01*
X80562092Y-31833635D01*
X80630600Y-31489220D01*
X80630600Y-30893180D01*
X80562092Y-30548765D01*
X80366996Y-30256784D01*
X80075015Y-30061688D01*
X79730600Y-29993180D01*
X79386185Y-30061688D01*
X79094204Y-30256784D01*
X78899108Y-30548765D01*
X78830600Y-30893180D01*
X73630600Y-30893180D01*
X73562092Y-30548765D01*
X73366996Y-30256784D01*
X73075015Y-30061688D01*
X72730600Y-29993180D01*
X72386185Y-30061688D01*
X72094204Y-30256784D01*
X71899108Y-30548765D01*
X71830600Y-30893180D01*
X56636393Y-30893180D01*
X56635261Y-29787000D01*
X90959000Y-29787000D01*
X90959000Y-103372795D01*
G36*
X78837300Y-72127234D02*
X78837300Y-78128838D01*
X75598439Y-81367699D01*
X75000563Y-81367699D01*
X76825231Y-79543031D01*
X76939037Y-79372709D01*
X76979000Y-79171800D01*
X76979000Y-76347923D01*
X77237720Y-76089655D01*
X77378839Y-75749801D01*
X77379160Y-75381813D01*
X77265228Y-75106077D01*
X77539199Y-75219839D01*
X77907187Y-75220160D01*
X78209403Y-75095287D01*
X78729801Y-75095287D01*
X78766147Y-75088448D01*
X78799528Y-75066968D01*
X78821922Y-75034193D01*
X78829801Y-74995287D01*
X78829801Y-73229987D01*
X78823026Y-73193807D01*
X78801606Y-73160387D01*
X78768870Y-73137935D01*
X78729979Y-73129987D01*
X78088639Y-73128848D01*
X78088639Y-72710739D01*
X78129353Y-72693916D01*
X78410903Y-72412857D01*
X78563465Y-72045448D01*
X78563632Y-71853566D01*
X78837300Y-72127234D01*
X78837300Y-72127234D01*
G37*
X78837300Y-72127234D02*
X78837300Y-78128838D01*
X75598439Y-81367699D01*
X75000563Y-81367699D01*
X76825231Y-79543031D01*
X76939037Y-79372709D01*
X76979000Y-79171800D01*
X76979000Y-76347923D01*
X77237720Y-76089655D01*
X77378839Y-75749801D01*
X77379160Y-75381813D01*
X77265228Y-75106077D01*
X77539199Y-75219839D01*
X77907187Y-75220160D01*
X78209403Y-75095287D01*
X78729801Y-75095287D01*
X78766147Y-75088448D01*
X78799528Y-75066968D01*
X78821922Y-75034193D01*
X78829801Y-74995287D01*
X78829801Y-73229987D01*
X78823026Y-73193807D01*
X78801606Y-73160387D01*
X78768870Y-73137935D01*
X78729979Y-73129987D01*
X78088639Y-73128848D01*
X78088639Y-72710739D01*
X78129353Y-72693916D01*
X78410903Y-72412857D01*
X78563465Y-72045448D01*
X78563632Y-71853566D01*
X78837300Y-72127234D01*
G36*
X81143426Y-52153740D02*
X81295346Y-52521414D01*
X81576405Y-52802964D01*
X81618599Y-52820485D01*
X81618599Y-58445399D01*
X81658562Y-58646308D01*
X81772368Y-58816630D01*
X84171300Y-61215562D01*
X84171300Y-62994538D01*
X82504232Y-61327470D01*
X82521126Y-61286785D01*
X82521473Y-60888960D01*
X82369553Y-60521286D01*
X82088494Y-60239736D01*
X81721085Y-60087174D01*
X81323260Y-60086827D01*
X80955586Y-60238747D01*
X80674036Y-60519806D01*
X80521474Y-60887215D01*
X80521127Y-61285040D01*
X80673047Y-61652714D01*
X80954106Y-61934264D01*
X81321515Y-62086826D01*
X81719340Y-62087173D01*
X81761564Y-62069726D01*
X83599800Y-63907962D01*
X83599800Y-64885900D01*
X78333600Y-64885900D01*
X78297254Y-64892739D01*
X78263873Y-64914219D01*
X78241479Y-64946994D01*
X78233600Y-64985900D01*
X78233600Y-66696100D01*
X78181200Y-66696100D01*
X77980291Y-66736063D01*
X77809969Y-66849869D01*
X76552669Y-68107169D01*
X76438863Y-68277491D01*
X76398900Y-68478400D01*
X76398900Y-68946372D01*
X75715028Y-68946372D01*
X75514119Y-68986335D01*
X75343797Y-69100141D01*
X75041369Y-69402569D01*
X74927563Y-69572891D01*
X74887600Y-69773800D01*
X74887600Y-71767700D01*
X74927563Y-71968609D01*
X75041369Y-72138931D01*
X75929000Y-73026562D01*
X75929000Y-73125012D01*
X74439000Y-73122365D01*
X74439000Y-71843900D01*
X74399037Y-71642991D01*
X74285231Y-71472669D01*
X74063469Y-71250907D01*
X73893147Y-71137101D01*
X73692238Y-71097138D01*
X71325332Y-71097138D01*
X72504838Y-69685520D01*
X72520439Y-69659786D01*
X72528098Y-69620837D01*
X72491359Y-63099703D01*
X75936231Y-59654831D01*
X76050037Y-59484509D01*
X76090000Y-59283600D01*
X76090000Y-52400200D01*
X76050037Y-52199291D01*
X76033688Y-52174824D01*
X76232314Y-52092753D01*
X76513864Y-51811694D01*
X76531385Y-51769500D01*
X81143761Y-51769500D01*
X81143426Y-52153740D01*
X81143426Y-52153740D01*
G37*
X81143426Y-52153740D02*
X81295346Y-52521414D01*
X81576405Y-52802964D01*
X81618599Y-52820485D01*
X81618599Y-58445399D01*
X81658562Y-58646308D01*
X81772368Y-58816630D01*
X84171300Y-61215562D01*
X84171300Y-62994538D01*
X82504232Y-61327470D01*
X82521126Y-61286785D01*
X82521473Y-60888960D01*
X82369553Y-60521286D01*
X82088494Y-60239736D01*
X81721085Y-60087174D01*
X81323260Y-60086827D01*
X80955586Y-60238747D01*
X80674036Y-60519806D01*
X80521474Y-60887215D01*
X80521127Y-61285040D01*
X80673047Y-61652714D01*
X80954106Y-61934264D01*
X81321515Y-62086826D01*
X81719340Y-62087173D01*
X81761564Y-62069726D01*
X83599800Y-63907962D01*
X83599800Y-64885900D01*
X78333600Y-64885900D01*
X78297254Y-64892739D01*
X78263873Y-64914219D01*
X78241479Y-64946994D01*
X78233600Y-64985900D01*
X78233600Y-66696100D01*
X78181200Y-66696100D01*
X77980291Y-66736063D01*
X77809969Y-66849869D01*
X76552669Y-68107169D01*
X76438863Y-68277491D01*
X76398900Y-68478400D01*
X76398900Y-68946372D01*
X75715028Y-68946372D01*
X75514119Y-68986335D01*
X75343797Y-69100141D01*
X75041369Y-69402569D01*
X74927563Y-69572891D01*
X74887600Y-69773800D01*
X74887600Y-71767700D01*
X74927563Y-71968609D01*
X75041369Y-72138931D01*
X75929000Y-73026562D01*
X75929000Y-73125012D01*
X74439000Y-73122365D01*
X74439000Y-71843900D01*
X74399037Y-71642991D01*
X74285231Y-71472669D01*
X74063469Y-71250907D01*
X73893147Y-71137101D01*
X73692238Y-71097138D01*
X71325332Y-71097138D01*
X72504838Y-69685520D01*
X72520439Y-69659786D01*
X72528098Y-69620837D01*
X72491359Y-63099703D01*
X75936231Y-59654831D01*
X76050037Y-59484509D01*
X76090000Y-59283600D01*
X76090000Y-52400200D01*
X76050037Y-52199291D01*
X76033688Y-52174824D01*
X76232314Y-52092753D01*
X76513864Y-51811694D01*
X76531385Y-51769500D01*
X81143761Y-51769500D01*
X81143426Y-52153740D01*
M02*
