G04 #@! TF.FileFunction,Copper,L1,Top,Signal*
%FSLAX46Y46*%
G04 Gerber Fmt 4.6, Leading zero omitted, Abs format (unit mm)*
G04 Created by KiCad (PCBNEW 4.0.2+e4-6225~38~ubuntu16.04.1-stable) date Wed 01 Jun 2016 06:58:51 PM EAT*
%MOMM*%
G01*
G04 APERTURE LIST*
%ADD10C,0.100000*%
%ADD11C,0.150000*%
%ADD12C,0.300000*%
%ADD13C,0.400000*%
%ADD14R,0.250000X0.700000*%
%ADD15R,0.700000X0.250000*%
%ADD16R,4.600000X4.600000*%
%ADD17R,1.600000X2.000000*%
%ADD18R,0.400000X1.350000*%
%ADD19O,1.250000X0.950000*%
%ADD20O,1.000000X1.550000*%
%ADD21C,1.998980*%
%ADD22R,1.000000X1.250000*%
%ADD23R,1.250000X1.000000*%
%ADD24R,0.800100X0.800100*%
%ADD25R,3.657600X2.032000*%
%ADD26R,1.016000X2.032000*%
%ADD27R,0.508000X1.143000*%
%ADD28R,1.150620X1.399540*%
%ADD29R,1.399540X1.150620*%
%ADD30O,3.014980X1.506220*%
%ADD31C,1.000760*%
%ADD32R,0.760000X2.400000*%
%ADD33R,1.050000X1.050000*%
%ADD34C,1.050000*%
%ADD35R,3.000000X2.500000*%
%ADD36R,1.700000X2.000000*%
%ADD37R,0.900000X1.200000*%
%ADD38R,2.000000X1.700000*%
%ADD39R,0.900000X1.700000*%
%ADD40C,2.499360*%
%ADD41C,1.200000*%
%ADD42C,1.000000*%
%ADD43C,0.250000*%
%ADD44C,0.200000*%
G04 APERTURE END LIST*
D10*
D11*
X20004800Y-115994600D02*
X20004800Y-147994600D01*
X128004800Y-147994600D01*
X128004800Y-115994600D01*
X20004800Y-115994600D01*
D10*
D11*
X10000000Y-10000000D02*
X10000000Y-149994600D01*
X130004800Y-149994600D01*
X130004800Y-10000000D01*
X10000000Y-10000000D01*
D10*
D11*
X12000000Y-12000000D02*
X12000000Y-147994600D01*
X128004800Y-147994600D01*
X128004800Y-12000000D01*
X12000000Y-12000000D01*
D10*
D11*
X60000000Y-12000000D02*
X60000000Y-10000000D01*
D10*
D11*
X110000000Y-12000000D02*
X110000000Y-10000000D01*
D10*
D11*
X35990476Y-11588095D02*
X35247619Y-11588095D01*
X35619048Y-11588095D02*
X35619048Y-10288095D01*
X35495238Y-10473810D01*
X35371429Y-10597619D01*
X35247619Y-10659524D01*
D10*
D11*
X85247619Y-10411905D02*
X85309524Y-10350000D01*
X85433333Y-10288095D01*
X85742857Y-10288095D01*
X85866667Y-10350000D01*
X85928571Y-10411905D01*
X85990476Y-10535714D01*
X85990476Y-10659524D01*
X85928571Y-10845238D01*
X85185714Y-11588095D01*
X85990476Y-11588095D01*
D10*
D11*
X60000000Y-147994600D02*
X60000000Y-149994600D01*
D10*
D11*
X110000000Y-147994600D02*
X110000000Y-149994600D01*
D10*
D11*
X35990476Y-149582695D02*
X35247619Y-149582695D01*
X35619048Y-149582695D02*
X35619048Y-148282695D01*
X35495238Y-148468410D01*
X35371429Y-148592219D01*
X35247619Y-148654124D01*
D10*
D11*
X85247619Y-148406505D02*
X85309524Y-148344600D01*
X85433333Y-148282695D01*
X85742857Y-148282695D01*
X85866667Y-148344600D01*
X85928571Y-148406505D01*
X85990476Y-148530314D01*
X85990476Y-148654124D01*
X85928571Y-148839838D01*
X85185714Y-149582695D01*
X85990476Y-149582695D01*
D10*
D11*
X10000000Y-60000000D02*
X12000000Y-60000000D01*
D10*
D11*
X10000000Y-110000000D02*
X12000000Y-110000000D01*
D10*
D11*
X10690476Y-35216667D02*
X11309524Y-35216667D01*
X10566667Y-35588095D02*
X11000000Y-34288095D01*
X11433333Y-35588095D01*
D10*
D11*
X11092857Y-84907143D02*
X11278571Y-84969048D01*
X11340476Y-85030952D01*
X11402381Y-85154762D01*
X11402381Y-85340476D01*
X11340476Y-85464286D01*
X11278571Y-85526190D01*
X11154762Y-85588095D01*
X10659524Y-85588095D01*
X10659524Y-84288095D01*
X11092857Y-84288095D01*
X11216667Y-84350000D01*
X11278571Y-84411905D01*
X11340476Y-84535714D01*
X11340476Y-84659524D01*
X11278571Y-84783333D01*
X11216667Y-84845238D01*
X11092857Y-84907143D01*
X10659524Y-84907143D01*
D10*
D11*
X11402381Y-135464286D02*
X11340476Y-135526190D01*
X11154762Y-135588095D01*
X11030952Y-135588095D01*
X10845238Y-135526190D01*
X10721429Y-135402381D01*
X10659524Y-135278571D01*
X10597619Y-135030952D01*
X10597619Y-134845238D01*
X10659524Y-134597619D01*
X10721429Y-134473810D01*
X10845238Y-134350000D01*
X11030952Y-134288095D01*
X11154762Y-134288095D01*
X11340476Y-134350000D01*
X11402381Y-134411905D01*
D10*
D11*
X130004800Y-60000000D02*
X128004800Y-60000000D01*
D10*
D11*
X130004800Y-110000000D02*
X128004800Y-110000000D01*
D10*
D11*
X128695276Y-35216667D02*
X129314324Y-35216667D01*
X128571467Y-35588095D02*
X129004800Y-34288095D01*
X129438133Y-35588095D01*
D10*
D11*
X129097657Y-84907143D02*
X129283371Y-84969048D01*
X129345276Y-85030952D01*
X129407181Y-85154762D01*
X129407181Y-85340476D01*
X129345276Y-85464286D01*
X129283371Y-85526190D01*
X129159562Y-85588095D01*
X128664324Y-85588095D01*
X128664324Y-84288095D01*
X129097657Y-84288095D01*
X129221467Y-84350000D01*
X129283371Y-84411905D01*
X129345276Y-84535714D01*
X129345276Y-84659524D01*
X129283371Y-84783333D01*
X129221467Y-84845238D01*
X129097657Y-84907143D01*
X128664324Y-84907143D01*
D10*
D11*
X129407181Y-135464286D02*
X129345276Y-135526190D01*
X129159562Y-135588095D01*
X129035752Y-135588095D01*
X128850038Y-135526190D01*
X128726229Y-135402381D01*
X128664324Y-135278571D01*
X128602419Y-135030952D01*
X128602419Y-134845238D01*
X128664324Y-134597619D01*
X128726229Y-134473810D01*
X128850038Y-134350000D01*
X129035752Y-134288095D01*
X129159562Y-134288095D01*
X129345276Y-134350000D01*
X129407181Y-134411905D01*
D10*
D11*
X43361943Y-143773171D02*
X43361943Y-142273171D01*
X43719086Y-142273171D01*
X43933371Y-142344600D01*
X44076229Y-142487457D01*
X44147657Y-142630314D01*
X44219086Y-142916029D01*
X44219086Y-143130314D01*
X44147657Y-143416029D01*
X44076229Y-143558886D01*
X43933371Y-143701743D01*
X43719086Y-143773171D01*
X43361943Y-143773171D01*
X45504800Y-143773171D02*
X45504800Y-142987457D01*
X45433371Y-142844600D01*
X45290514Y-142773171D01*
X45004800Y-142773171D01*
X44861943Y-142844600D01*
X45504800Y-143701743D02*
X45361943Y-143773171D01*
X45004800Y-143773171D01*
X44861943Y-143701743D01*
X44790514Y-143558886D01*
X44790514Y-143416029D01*
X44861943Y-143273171D01*
X45004800Y-143201743D01*
X45361943Y-143201743D01*
X45504800Y-143130314D01*
X46004800Y-142773171D02*
X46576229Y-142773171D01*
X46219086Y-142273171D02*
X46219086Y-143558886D01*
X46290514Y-143701743D01*
X46433372Y-143773171D01*
X46576229Y-143773171D01*
X47647657Y-143701743D02*
X47504800Y-143773171D01*
X47219086Y-143773171D01*
X47076229Y-143701743D01*
X47004800Y-143558886D01*
X47004800Y-142987457D01*
X47076229Y-142844600D01*
X47219086Y-142773171D01*
X47504800Y-142773171D01*
X47647657Y-142844600D01*
X47719086Y-142987457D01*
X47719086Y-143130314D01*
X47004800Y-143273171D01*
X48361943Y-143630314D02*
X48433371Y-143701743D01*
X48361943Y-143773171D01*
X48290514Y-143701743D01*
X48361943Y-143630314D01*
X48361943Y-143773171D01*
X48361943Y-142844600D02*
X48433371Y-142916029D01*
X48361943Y-142987457D01*
X48290514Y-142916029D01*
X48361943Y-142844600D01*
X48361943Y-142987457D01*
X50933372Y-142273171D02*
X50219086Y-142273171D01*
X50147657Y-142987457D01*
X50219086Y-142916029D01*
X50361943Y-142844600D01*
X50719086Y-142844600D01*
X50861943Y-142916029D01*
X50933372Y-142987457D01*
X51004800Y-143130314D01*
X51004800Y-143487457D01*
X50933372Y-143630314D01*
X50861943Y-143701743D01*
X50719086Y-143773171D01*
X50361943Y-143773171D01*
X50219086Y-143701743D01*
X50147657Y-143630314D01*
X52719085Y-142201743D02*
X51433371Y-144130314D01*
X53861943Y-142773171D02*
X53861943Y-143773171D01*
X53504800Y-142201743D02*
X53147657Y-143273171D01*
X54076229Y-143273171D01*
X55719085Y-142201743D02*
X54433371Y-144130314D01*
X56147657Y-142416029D02*
X56219086Y-142344600D01*
X56361943Y-142273171D01*
X56719086Y-142273171D01*
X56861943Y-142344600D01*
X56933372Y-142416029D01*
X57004800Y-142558886D01*
X57004800Y-142701743D01*
X56933372Y-142916029D01*
X56076229Y-143773171D01*
X57004800Y-143773171D01*
X57933371Y-142273171D02*
X58076228Y-142273171D01*
X58219085Y-142344600D01*
X58290514Y-142416029D01*
X58361943Y-142558886D01*
X58433371Y-142844600D01*
X58433371Y-143201743D01*
X58361943Y-143487457D01*
X58290514Y-143630314D01*
X58219085Y-143701743D01*
X58076228Y-143773171D01*
X57933371Y-143773171D01*
X57790514Y-143701743D01*
X57719085Y-143630314D01*
X57647657Y-143487457D01*
X57576228Y-143201743D01*
X57576228Y-142844600D01*
X57647657Y-142558886D01*
X57719085Y-142416029D01*
X57790514Y-142344600D01*
X57933371Y-142273171D01*
X59861942Y-143773171D02*
X59004799Y-143773171D01*
X59433371Y-143773171D02*
X59433371Y-142273171D01*
X59290514Y-142487457D01*
X59147656Y-142630314D01*
X59004799Y-142701743D01*
X61147656Y-142273171D02*
X60861942Y-142273171D01*
X60719085Y-142344600D01*
X60647656Y-142416029D01*
X60504799Y-142630314D01*
X60433370Y-142916029D01*
X60433370Y-143487457D01*
X60504799Y-143630314D01*
X60576227Y-143701743D01*
X60719085Y-143773171D01*
X61004799Y-143773171D01*
X61147656Y-143701743D01*
X61219085Y-143630314D01*
X61290513Y-143487457D01*
X61290513Y-143130314D01*
X61219085Y-142987457D01*
X61147656Y-142916029D01*
X61004799Y-142844600D01*
X60719085Y-142844600D01*
X60576227Y-142916029D01*
X60504799Y-142987457D01*
X60433370Y-143130314D01*
D10*
D11*
X20004800Y-144494600D02*
X128004800Y-144494600D01*
D10*
D11*
X21361943Y-146573171D02*
X21361943Y-145073171D01*
X22219086Y-146573171D02*
X21576229Y-145716029D01*
X22219086Y-145073171D02*
X21361943Y-145930314D01*
X22861943Y-146573171D02*
X22861943Y-145573171D01*
X22861943Y-145073171D02*
X22790514Y-145144600D01*
X22861943Y-145216029D01*
X22933371Y-145144600D01*
X22861943Y-145073171D01*
X22861943Y-145216029D01*
X24433372Y-146430314D02*
X24361943Y-146501743D01*
X24147657Y-146573171D01*
X24004800Y-146573171D01*
X23790515Y-146501743D01*
X23647657Y-146358886D01*
X23576229Y-146216029D01*
X23504800Y-145930314D01*
X23504800Y-145716029D01*
X23576229Y-145430314D01*
X23647657Y-145287457D01*
X23790515Y-145144600D01*
X24004800Y-145073171D01*
X24147657Y-145073171D01*
X24361943Y-145144600D01*
X24433372Y-145216029D01*
X25719086Y-146573171D02*
X25719086Y-145787457D01*
X25647657Y-145644600D01*
X25504800Y-145573171D01*
X25219086Y-145573171D01*
X25076229Y-145644600D01*
X25719086Y-146501743D02*
X25576229Y-146573171D01*
X25219086Y-146573171D01*
X25076229Y-146501743D01*
X25004800Y-146358886D01*
X25004800Y-146216029D01*
X25076229Y-146073171D01*
X25219086Y-146001743D01*
X25576229Y-146001743D01*
X25719086Y-145930314D01*
X27076229Y-146573171D02*
X27076229Y-145073171D01*
X27076229Y-146501743D02*
X26933372Y-146573171D01*
X26647658Y-146573171D01*
X26504800Y-146501743D01*
X26433372Y-146430314D01*
X26361943Y-146287457D01*
X26361943Y-145858886D01*
X26433372Y-145716029D01*
X26504800Y-145644600D01*
X26647658Y-145573171D01*
X26933372Y-145573171D01*
X27076229Y-145644600D01*
X28933372Y-145787457D02*
X29433372Y-145787457D01*
X29647658Y-146573171D02*
X28933372Y-146573171D01*
X28933372Y-145073171D01*
X29647658Y-145073171D01*
X30290515Y-146430314D02*
X30361943Y-146501743D01*
X30290515Y-146573171D01*
X30219086Y-146501743D01*
X30290515Y-146430314D01*
X30290515Y-146573171D01*
X31004801Y-146573171D02*
X31004801Y-145073171D01*
X31361944Y-145073171D01*
X31576229Y-145144600D01*
X31719087Y-145287457D01*
X31790515Y-145430314D01*
X31861944Y-145716029D01*
X31861944Y-145930314D01*
X31790515Y-146216029D01*
X31719087Y-146358886D01*
X31576229Y-146501743D01*
X31361944Y-146573171D01*
X31004801Y-146573171D01*
X32504801Y-146430314D02*
X32576229Y-146501743D01*
X32504801Y-146573171D01*
X32433372Y-146501743D01*
X32504801Y-146430314D01*
X32504801Y-146573171D01*
X33147658Y-146144600D02*
X33861944Y-146144600D01*
X33004801Y-146573171D02*
X33504801Y-145073171D01*
X34004801Y-146573171D01*
X34504801Y-146430314D02*
X34576229Y-146501743D01*
X34504801Y-146573171D01*
X34433372Y-146501743D01*
X34504801Y-146430314D01*
X34504801Y-146573171D01*
X37504801Y-146573171D02*
X37504801Y-145073171D01*
X37647658Y-146001743D02*
X38076229Y-146573171D01*
X38076229Y-145573171D02*
X37504801Y-146144600D01*
X38719087Y-146573171D02*
X38719087Y-145573171D01*
X38719087Y-145073171D02*
X38647658Y-145144600D01*
X38719087Y-145216029D01*
X38790515Y-145144600D01*
X38719087Y-145073171D01*
X38719087Y-145216029D01*
X40076230Y-146501743D02*
X39933373Y-146573171D01*
X39647659Y-146573171D01*
X39504801Y-146501743D01*
X39433373Y-146430314D01*
X39361944Y-146287457D01*
X39361944Y-145858886D01*
X39433373Y-145716029D01*
X39504801Y-145644600D01*
X39647659Y-145573171D01*
X39933373Y-145573171D01*
X40076230Y-145644600D01*
X41361944Y-146573171D02*
X41361944Y-145787457D01*
X41290515Y-145644600D01*
X41147658Y-145573171D01*
X40861944Y-145573171D01*
X40719087Y-145644600D01*
X41361944Y-146501743D02*
X41219087Y-146573171D01*
X40861944Y-146573171D01*
X40719087Y-146501743D01*
X40647658Y-146358886D01*
X40647658Y-146216029D01*
X40719087Y-146073171D01*
X40861944Y-146001743D01*
X41219087Y-146001743D01*
X41361944Y-145930314D01*
X42719087Y-146573171D02*
X42719087Y-145073171D01*
X42719087Y-146501743D02*
X42576230Y-146573171D01*
X42290516Y-146573171D01*
X42147658Y-146501743D01*
X42076230Y-146430314D01*
X42004801Y-146287457D01*
X42004801Y-145858886D01*
X42076230Y-145716029D01*
X42147658Y-145644600D01*
X42290516Y-145573171D01*
X42576230Y-145573171D01*
X42719087Y-145644600D01*
X45219087Y-145573171D02*
X45219087Y-146573171D01*
X44861944Y-145001743D02*
X44504801Y-146073171D01*
X45433373Y-146073171D01*
X46004801Y-146430314D02*
X46076229Y-146501743D01*
X46004801Y-146573171D01*
X45933372Y-146501743D01*
X46004801Y-146430314D01*
X46004801Y-146573171D01*
X47004801Y-145073171D02*
X47147658Y-145073171D01*
X47290515Y-145144600D01*
X47361944Y-145216029D01*
X47433373Y-145358886D01*
X47504801Y-145644600D01*
X47504801Y-146001743D01*
X47433373Y-146287457D01*
X47361944Y-146430314D01*
X47290515Y-146501743D01*
X47147658Y-146573171D01*
X47004801Y-146573171D01*
X46861944Y-146501743D01*
X46790515Y-146430314D01*
X46719087Y-146287457D01*
X46647658Y-146001743D01*
X46647658Y-145644600D01*
X46719087Y-145358886D01*
X46790515Y-145216029D01*
X46861944Y-145144600D01*
X47004801Y-145073171D01*
X48147658Y-146430314D02*
X48219086Y-146501743D01*
X48147658Y-146573171D01*
X48076229Y-146501743D01*
X48147658Y-146430314D01*
X48147658Y-146573171D01*
X48790515Y-145216029D02*
X48861944Y-145144600D01*
X49004801Y-145073171D01*
X49361944Y-145073171D01*
X49504801Y-145144600D01*
X49576230Y-145216029D01*
X49647658Y-145358886D01*
X49647658Y-145501743D01*
X49576230Y-145716029D01*
X48719087Y-146573171D01*
X49647658Y-146573171D01*
X50290515Y-146001743D02*
X51433372Y-146001743D01*
X50861943Y-146573171D02*
X50861943Y-145430314D01*
X52719086Y-146501743D02*
X52576229Y-146573171D01*
X52290515Y-146573171D01*
X52147658Y-146501743D01*
X52076229Y-146358886D01*
X52076229Y-145787457D01*
X52147658Y-145644600D01*
X52290515Y-145573171D01*
X52576229Y-145573171D01*
X52719086Y-145644600D01*
X52790515Y-145787457D01*
X52790515Y-145930314D01*
X52076229Y-146073171D01*
X54076229Y-145573171D02*
X54076229Y-146573171D01*
X53719086Y-145001743D02*
X53361943Y-146073171D01*
X54290515Y-146073171D01*
X54861943Y-146001743D02*
X56004800Y-146001743D01*
X57361943Y-145073171D02*
X57076229Y-145073171D01*
X56933372Y-145144600D01*
X56861943Y-145216029D01*
X56719086Y-145430314D01*
X56647657Y-145716029D01*
X56647657Y-146287457D01*
X56719086Y-146430314D01*
X56790514Y-146501743D01*
X56933372Y-146573171D01*
X57219086Y-146573171D01*
X57361943Y-146501743D01*
X57433372Y-146430314D01*
X57504800Y-146287457D01*
X57504800Y-145930314D01*
X57433372Y-145787457D01*
X57361943Y-145716029D01*
X57219086Y-145644600D01*
X56933372Y-145644600D01*
X56790514Y-145716029D01*
X56719086Y-145787457D01*
X56647657Y-145930314D01*
X58076228Y-145216029D02*
X58147657Y-145144600D01*
X58290514Y-145073171D01*
X58647657Y-145073171D01*
X58790514Y-145144600D01*
X58861943Y-145216029D01*
X58933371Y-145358886D01*
X58933371Y-145501743D01*
X58861943Y-145716029D01*
X58004800Y-146573171D01*
X58933371Y-146573171D01*
X59504799Y-145216029D02*
X59576228Y-145144600D01*
X59719085Y-145073171D01*
X60076228Y-145073171D01*
X60219085Y-145144600D01*
X60290514Y-145216029D01*
X60361942Y-145358886D01*
X60361942Y-145501743D01*
X60290514Y-145716029D01*
X59433371Y-146573171D01*
X60361942Y-146573171D01*
X61719085Y-145073171D02*
X61004799Y-145073171D01*
X60933370Y-145787457D01*
X61004799Y-145716029D01*
X61147656Y-145644600D01*
X61504799Y-145644600D01*
X61647656Y-145716029D01*
X61719085Y-145787457D01*
X61790513Y-145930314D01*
X61790513Y-146287457D01*
X61719085Y-146430314D01*
X61647656Y-146501743D01*
X61504799Y-146573171D01*
X61147656Y-146573171D01*
X61004799Y-146501743D01*
X60933370Y-146430314D01*
X62290513Y-145073171D02*
X63219084Y-145073171D01*
X62719084Y-145644600D01*
X62933370Y-145644600D01*
X63076227Y-145716029D01*
X63147656Y-145787457D01*
X63219084Y-145930314D01*
X63219084Y-146287457D01*
X63147656Y-146430314D01*
X63076227Y-146501743D01*
X62933370Y-146573171D01*
X62504798Y-146573171D01*
X62361941Y-146501743D01*
X62290513Y-146430314D01*
X64076227Y-145716029D02*
X63933369Y-145644600D01*
X63861941Y-145573171D01*
X63790512Y-145430314D01*
X63790512Y-145358886D01*
X63861941Y-145216029D01*
X63933369Y-145144600D01*
X64076227Y-145073171D01*
X64361941Y-145073171D01*
X64504798Y-145144600D01*
X64576227Y-145216029D01*
X64647655Y-145358886D01*
X64647655Y-145430314D01*
X64576227Y-145573171D01*
X64504798Y-145644600D01*
X64361941Y-145716029D01*
X64076227Y-145716029D01*
X63933369Y-145787457D01*
X63861941Y-145858886D01*
X63790512Y-146001743D01*
X63790512Y-146287457D01*
X63861941Y-146430314D01*
X63933369Y-146501743D01*
X64076227Y-146573171D01*
X64361941Y-146573171D01*
X64504798Y-146501743D01*
X64576227Y-146430314D01*
X64647655Y-146287457D01*
X64647655Y-146001743D01*
X64576227Y-145858886D01*
X64504798Y-145787457D01*
X64361941Y-145716029D01*
X62076227Y-144814600D02*
X64933369Y-144814600D01*
X65933369Y-145573171D02*
X65933369Y-146573171D01*
X65290512Y-145573171D02*
X65290512Y-146358886D01*
X65361940Y-146501743D01*
X65504798Y-146573171D01*
X65719083Y-146573171D01*
X65861940Y-146501743D01*
X65933369Y-146430314D01*
X66647655Y-146573171D02*
X66647655Y-145073171D01*
X66647655Y-145644600D02*
X66790512Y-145573171D01*
X67076226Y-145573171D01*
X67219083Y-145644600D01*
X67290512Y-145716029D01*
X67361941Y-145858886D01*
X67361941Y-146287457D01*
X67290512Y-146430314D01*
X67219083Y-146501743D01*
X67076226Y-146573171D01*
X66790512Y-146573171D01*
X66647655Y-146501743D01*
X68647655Y-145573171D02*
X68647655Y-146573171D01*
X68004798Y-145573171D02*
X68004798Y-146358886D01*
X68076226Y-146501743D01*
X68219084Y-146573171D01*
X68433369Y-146573171D01*
X68576226Y-146501743D01*
X68647655Y-146430314D01*
X69361941Y-145573171D02*
X69361941Y-146573171D01*
X69361941Y-145716029D02*
X69433369Y-145644600D01*
X69576227Y-145573171D01*
X69790512Y-145573171D01*
X69933369Y-145644600D01*
X70004798Y-145787457D01*
X70004798Y-146573171D01*
X70504798Y-145573171D02*
X71076227Y-145573171D01*
X70719084Y-145073171D02*
X70719084Y-146358886D01*
X70790512Y-146501743D01*
X70933370Y-146573171D01*
X71076227Y-146573171D01*
X72219084Y-145573171D02*
X72219084Y-146573171D01*
X71576227Y-145573171D02*
X71576227Y-146358886D01*
X71647655Y-146501743D01*
X71790513Y-146573171D01*
X72004798Y-146573171D01*
X72147655Y-146501743D01*
X72219084Y-146430314D01*
X73719084Y-146573171D02*
X72861941Y-146573171D01*
X73290513Y-146573171D02*
X73290513Y-145073171D01*
X73147656Y-145287457D01*
X73004798Y-145430314D01*
X72861941Y-145501743D01*
X75004798Y-145073171D02*
X74719084Y-145073171D01*
X74576227Y-145144600D01*
X74504798Y-145216029D01*
X74361941Y-145430314D01*
X74290512Y-145716029D01*
X74290512Y-146287457D01*
X74361941Y-146430314D01*
X74433369Y-146501743D01*
X74576227Y-146573171D01*
X74861941Y-146573171D01*
X75004798Y-146501743D01*
X75076227Y-146430314D01*
X75147655Y-146287457D01*
X75147655Y-145930314D01*
X75076227Y-145787457D01*
X75004798Y-145716029D01*
X74861941Y-145644600D01*
X74576227Y-145644600D01*
X74433369Y-145716029D01*
X74361941Y-145787457D01*
X74290512Y-145930314D01*
X75790512Y-146430314D02*
X75861940Y-146501743D01*
X75790512Y-146573171D01*
X75719083Y-146501743D01*
X75790512Y-146430314D01*
X75790512Y-146573171D01*
X76790512Y-145073171D02*
X76933369Y-145073171D01*
X77076226Y-145144600D01*
X77147655Y-145216029D01*
X77219084Y-145358886D01*
X77290512Y-145644600D01*
X77290512Y-146001743D01*
X77219084Y-146287457D01*
X77147655Y-146430314D01*
X77076226Y-146501743D01*
X76933369Y-146573171D01*
X76790512Y-146573171D01*
X76647655Y-146501743D01*
X76576226Y-146430314D01*
X76504798Y-146287457D01*
X76433369Y-146001743D01*
X76433369Y-145644600D01*
X76504798Y-145358886D01*
X76576226Y-145216029D01*
X76647655Y-145144600D01*
X76790512Y-145073171D01*
X78576226Y-145573171D02*
X78576226Y-146573171D01*
X78219083Y-145001743D02*
X77861940Y-146073171D01*
X78790512Y-146073171D01*
X79361940Y-146430314D02*
X79433368Y-146501743D01*
X79361940Y-146573171D01*
X79290511Y-146501743D01*
X79361940Y-146430314D01*
X79361940Y-146573171D01*
X80861940Y-146573171D02*
X80004797Y-146573171D01*
X80433369Y-146573171D02*
X80433369Y-145073171D01*
X80290512Y-145287457D01*
X80147654Y-145430314D01*
X80004797Y-145501743D01*
X81504797Y-146001743D02*
X82647654Y-146001743D01*
X83290511Y-146501743D02*
X83433368Y-146573171D01*
X83719083Y-146573171D01*
X83861940Y-146501743D01*
X83933368Y-146358886D01*
X83933368Y-146287457D01*
X83861940Y-146144600D01*
X83719083Y-146073171D01*
X83504797Y-146073171D01*
X83361940Y-146001743D01*
X83290511Y-145858886D01*
X83290511Y-145787457D01*
X83361940Y-145644600D01*
X83504797Y-145573171D01*
X83719083Y-145573171D01*
X83861940Y-145644600D01*
X84361940Y-145573171D02*
X84933369Y-145573171D01*
X84576226Y-145073171D02*
X84576226Y-146358886D01*
X84647654Y-146501743D01*
X84790512Y-146573171D01*
X84933369Y-146573171D01*
X86076226Y-146573171D02*
X86076226Y-145787457D01*
X86004797Y-145644600D01*
X85861940Y-145573171D01*
X85576226Y-145573171D01*
X85433369Y-145644600D01*
X86076226Y-146501743D02*
X85933369Y-146573171D01*
X85576226Y-146573171D01*
X85433369Y-146501743D01*
X85361940Y-146358886D01*
X85361940Y-146216029D01*
X85433369Y-146073171D01*
X85576226Y-146001743D01*
X85933369Y-146001743D01*
X86076226Y-145930314D01*
X86790512Y-146573171D02*
X86790512Y-145073171D01*
X86790512Y-145644600D02*
X86933369Y-145573171D01*
X87219083Y-145573171D01*
X87361940Y-145644600D01*
X87433369Y-145716029D01*
X87504798Y-145858886D01*
X87504798Y-146287457D01*
X87433369Y-146430314D01*
X87361940Y-146501743D01*
X87219083Y-146573171D01*
X86933369Y-146573171D01*
X86790512Y-146501743D01*
X88361941Y-146573171D02*
X88219083Y-146501743D01*
X88147655Y-146358886D01*
X88147655Y-145073171D01*
X89504797Y-146501743D02*
X89361940Y-146573171D01*
X89076226Y-146573171D01*
X88933369Y-146501743D01*
X88861940Y-146358886D01*
X88861940Y-145787457D01*
X88933369Y-145644600D01*
X89076226Y-145573171D01*
X89361940Y-145573171D01*
X89504797Y-145644600D01*
X89576226Y-145787457D01*
X89576226Y-145930314D01*
X88861940Y-146073171D01*
D10*
D11*
X20004800Y-141494600D02*
X128004800Y-141494600D01*
D10*
D12*
X107219086Y-143773171D02*
X106719086Y-143058886D01*
X106361943Y-143773171D02*
X106361943Y-142273171D01*
X106933371Y-142273171D01*
X107076229Y-142344600D01*
X107147657Y-142416029D01*
X107219086Y-142558886D01*
X107219086Y-142773171D01*
X107147657Y-142916029D01*
X107076229Y-142987457D01*
X106933371Y-143058886D01*
X106361943Y-143058886D01*
X108433371Y-143701743D02*
X108290514Y-143773171D01*
X108004800Y-143773171D01*
X107861943Y-143701743D01*
X107790514Y-143558886D01*
X107790514Y-142987457D01*
X107861943Y-142844600D01*
X108004800Y-142773171D01*
X108290514Y-142773171D01*
X108433371Y-142844600D01*
X108504800Y-142987457D01*
X108504800Y-143130314D01*
X107790514Y-143273171D01*
X109004800Y-142773171D02*
X109361943Y-143773171D01*
X109719085Y-142773171D01*
X110290514Y-143630314D02*
X110361942Y-143701743D01*
X110290514Y-143773171D01*
X110219085Y-143701743D01*
X110290514Y-143630314D01*
X110290514Y-143773171D01*
X110290514Y-142844600D02*
X110361942Y-142916029D01*
X110290514Y-142987457D01*
X110219085Y-142916029D01*
X110290514Y-142844600D01*
X110290514Y-142987457D01*
X112933371Y-143773171D02*
X112076228Y-143773171D01*
X112504800Y-143773171D02*
X112504800Y-142273171D01*
X112361943Y-142487457D01*
X112219085Y-142630314D01*
X112076228Y-142701743D01*
D10*
D11*
X21290514Y-143701743D02*
X21504800Y-143773171D01*
X21861943Y-143773171D01*
X22004800Y-143701743D01*
X22076229Y-143630314D01*
X22147657Y-143487457D01*
X22147657Y-143344600D01*
X22076229Y-143201743D01*
X22004800Y-143130314D01*
X21861943Y-143058886D01*
X21576229Y-142987457D01*
X21433371Y-142916029D01*
X21361943Y-142844600D01*
X21290514Y-142701743D01*
X21290514Y-142558886D01*
X21361943Y-142416029D01*
X21433371Y-142344600D01*
X21576229Y-142273171D01*
X21933371Y-142273171D01*
X22147657Y-142344600D01*
X22790514Y-143773171D02*
X22790514Y-142773171D01*
X22790514Y-142273171D02*
X22719085Y-142344600D01*
X22790514Y-142416029D01*
X22861942Y-142344600D01*
X22790514Y-142273171D01*
X22790514Y-142416029D01*
X23361943Y-142773171D02*
X24147657Y-142773171D01*
X23361943Y-143773171D01*
X24147657Y-143773171D01*
X25290514Y-143701743D02*
X25147657Y-143773171D01*
X24861943Y-143773171D01*
X24719086Y-143701743D01*
X24647657Y-143558886D01*
X24647657Y-142987457D01*
X24719086Y-142844600D01*
X24861943Y-142773171D01*
X25147657Y-142773171D01*
X25290514Y-142844600D01*
X25361943Y-142987457D01*
X25361943Y-143130314D01*
X24647657Y-143273171D01*
X26004800Y-143630314D02*
X26076228Y-143701743D01*
X26004800Y-143773171D01*
X25933371Y-143701743D01*
X26004800Y-143630314D01*
X26004800Y-143773171D01*
X26004800Y-142844600D02*
X26076228Y-142916029D01*
X26004800Y-142987457D01*
X25933371Y-142916029D01*
X26004800Y-142844600D01*
X26004800Y-142987457D01*
X27861943Y-142273171D02*
X27861943Y-143487457D01*
X27933371Y-143630314D01*
X28004800Y-143701743D01*
X28147657Y-143773171D01*
X28433371Y-143773171D01*
X28576229Y-143701743D01*
X28647657Y-143630314D01*
X28719086Y-143487457D01*
X28719086Y-142273171D01*
X29361943Y-143701743D02*
X29504800Y-143773171D01*
X29790515Y-143773171D01*
X29933372Y-143701743D01*
X30004800Y-143558886D01*
X30004800Y-143487457D01*
X29933372Y-143344600D01*
X29790515Y-143273171D01*
X29576229Y-143273171D01*
X29433372Y-143201743D01*
X29361943Y-143058886D01*
X29361943Y-142987457D01*
X29433372Y-142844600D01*
X29576229Y-142773171D01*
X29790515Y-142773171D01*
X29933372Y-142844600D01*
X31219086Y-143701743D02*
X31076229Y-143773171D01*
X30790515Y-143773171D01*
X30647658Y-143701743D01*
X30576229Y-143558886D01*
X30576229Y-142987457D01*
X30647658Y-142844600D01*
X30790515Y-142773171D01*
X31076229Y-142773171D01*
X31219086Y-142844600D01*
X31290515Y-142987457D01*
X31290515Y-143130314D01*
X30576229Y-143273171D01*
X31933372Y-143773171D02*
X31933372Y-142773171D01*
X31933372Y-143058886D02*
X32004800Y-142916029D01*
X32076229Y-142844600D01*
X32219086Y-142773171D01*
X32361943Y-142773171D01*
D10*
D11*
X106361943Y-146573171D02*
X106361943Y-145073171D01*
X107719086Y-146573171D02*
X107719086Y-145073171D01*
X107719086Y-146501743D02*
X107576229Y-146573171D01*
X107290515Y-146573171D01*
X107147657Y-146501743D01*
X107076229Y-146430314D01*
X107004800Y-146287457D01*
X107004800Y-145858886D01*
X107076229Y-145716029D01*
X107147657Y-145644600D01*
X107290515Y-145573171D01*
X107576229Y-145573171D01*
X107719086Y-145644600D01*
X108433372Y-146430314D02*
X108504800Y-146501743D01*
X108433372Y-146573171D01*
X108361943Y-146501743D01*
X108433372Y-146430314D01*
X108433372Y-146573171D01*
X108433372Y-145644600D02*
X108504800Y-145716029D01*
X108433372Y-145787457D01*
X108361943Y-145716029D01*
X108433372Y-145644600D01*
X108433372Y-145787457D01*
X111076229Y-146573171D02*
X110219086Y-146573171D01*
X110647658Y-146573171D02*
X110647658Y-145073171D01*
X110504801Y-145287457D01*
X110361943Y-145430314D01*
X110219086Y-145501743D01*
X112790514Y-145001743D02*
X111504800Y-146930314D01*
X114076229Y-146573171D02*
X113219086Y-146573171D01*
X113647658Y-146573171D02*
X113647658Y-145073171D01*
X113504801Y-145287457D01*
X113361943Y-145430314D01*
X113219086Y-145501743D01*
D10*
D11*
X20004800Y-137494600D02*
X128004800Y-137494600D01*
D10*
D13*
X21457181Y-138199362D02*
X22600038Y-138199362D01*
X21778610Y-140199362D02*
X22028610Y-138199362D01*
X23016705Y-140199362D02*
X23183371Y-138866029D01*
X23266705Y-138199362D02*
X23159562Y-138294600D01*
X23242895Y-138389838D01*
X23350039Y-138294600D01*
X23266705Y-138199362D01*
X23242895Y-138389838D01*
X23850038Y-138866029D02*
X24611943Y-138866029D01*
X24219086Y-138199362D02*
X24004800Y-139913648D01*
X24076230Y-140104124D01*
X24254801Y-140199362D01*
X24445277Y-140199362D01*
X25397658Y-140199362D02*
X25219087Y-140104124D01*
X25147657Y-139913648D01*
X25361943Y-138199362D01*
X26933372Y-140104124D02*
X26730991Y-140199362D01*
X26350039Y-140199362D01*
X26171467Y-140104124D01*
X26100038Y-139913648D01*
X26195276Y-139151743D01*
X26314324Y-138961267D01*
X26516705Y-138866029D01*
X26897657Y-138866029D01*
X27076229Y-138961267D01*
X27147657Y-139151743D01*
X27123848Y-139342219D01*
X26147657Y-139532695D01*
X27897657Y-140008886D02*
X27980992Y-140104124D01*
X27873848Y-140199362D01*
X27790515Y-140104124D01*
X27897657Y-140008886D01*
X27873848Y-140199362D01*
X28028610Y-138961267D02*
X28111944Y-139056505D01*
X28004800Y-139151743D01*
X27921467Y-139056505D01*
X28028610Y-138961267D01*
X28004800Y-139151743D01*
X30314325Y-138199362D02*
X31457182Y-138199362D01*
X30635754Y-140199362D02*
X30885754Y-138199362D01*
X31873849Y-140199362D02*
X32040515Y-138866029D01*
X32123849Y-138199362D02*
X32016706Y-138294600D01*
X32100039Y-138389838D01*
X32207183Y-138294600D01*
X32123849Y-138199362D01*
X32100039Y-138389838D01*
X32992896Y-138866029D02*
X32826230Y-140199362D01*
X32969087Y-139056505D02*
X33076231Y-138961267D01*
X33278611Y-138866029D01*
X33564325Y-138866029D01*
X33742897Y-138961267D01*
X33814325Y-139151743D01*
X33683373Y-140199362D01*
X34611944Y-138866029D02*
X34921469Y-140199362D01*
X35564325Y-138866029D02*
X34921469Y-140199362D01*
X34671469Y-140675552D01*
X34564325Y-140770790D01*
X34361944Y-140866029D01*
X37683374Y-140199362D02*
X37933374Y-138199362D01*
X38826232Y-140199362D02*
X38111946Y-139056505D01*
X39076232Y-138199362D02*
X37790517Y-139342219D01*
X39814326Y-138389838D02*
X39921469Y-138294600D01*
X40123851Y-138199362D01*
X40600041Y-138199362D01*
X40778612Y-138294600D01*
X40861945Y-138389838D01*
X40933375Y-138580314D01*
X40909565Y-138770790D01*
X40778612Y-139056505D01*
X39492898Y-140199362D01*
X40730994Y-140199362D01*
X42219089Y-138199362D02*
X42409565Y-138199362D01*
X42588136Y-138294600D01*
X42671469Y-138389838D01*
X42742898Y-138580314D01*
X42790518Y-138961267D01*
X42730994Y-139437457D01*
X42588136Y-139818410D01*
X42469088Y-140008886D01*
X42361946Y-140104124D01*
X42159565Y-140199362D01*
X41969089Y-140199362D01*
X41790518Y-140104124D01*
X41707184Y-140008886D01*
X41635755Y-139818410D01*
X41588136Y-139437457D01*
X41647660Y-138961267D01*
X41790517Y-138580314D01*
X41909565Y-138389838D01*
X42016708Y-138294600D01*
X42219089Y-138199362D01*
X45016708Y-140199362D02*
X45266708Y-138199362D01*
X46028613Y-138199362D01*
X46207184Y-138294600D01*
X46290518Y-138389838D01*
X46361947Y-138580314D01*
X46326232Y-138866029D01*
X46207185Y-139056505D01*
X46100041Y-139151743D01*
X45897660Y-139246981D01*
X45135755Y-139246981D01*
X48183375Y-140008886D02*
X48076233Y-140104124D01*
X47778613Y-140199362D01*
X47588137Y-140199362D01*
X47314328Y-140104124D01*
X47147661Y-139913648D01*
X47076232Y-139723171D01*
X47028613Y-139342219D01*
X47064327Y-139056505D01*
X47207184Y-138675552D01*
X47326233Y-138485076D01*
X47540518Y-138294600D01*
X47838137Y-138199362D01*
X48028613Y-138199362D01*
X48302423Y-138294600D01*
X48385756Y-138389838D01*
X49814327Y-139151743D02*
X50088136Y-139246981D01*
X50171471Y-139342219D01*
X50242899Y-139532695D01*
X50207185Y-139818410D01*
X50088137Y-140008886D01*
X49980994Y-140104124D01*
X49778613Y-140199362D01*
X49016708Y-140199362D01*
X49266708Y-138199362D01*
X49933375Y-138199362D01*
X50111946Y-138294600D01*
X50195279Y-138389838D01*
X50266709Y-138580314D01*
X50242899Y-138770790D01*
X50123851Y-138961267D01*
X50016708Y-139056505D01*
X49814327Y-139151743D01*
X49147660Y-139151743D01*
D10*
D11*
X21861943Y-135587457D02*
X21361943Y-135587457D01*
X21361943Y-136373171D02*
X21361943Y-134873171D01*
X22076229Y-134873171D01*
X22647657Y-136373171D02*
X22647657Y-135373171D01*
X22647657Y-134873171D02*
X22576228Y-134944600D01*
X22647657Y-135016029D01*
X22719085Y-134944600D01*
X22647657Y-134873171D01*
X22647657Y-135016029D01*
X23576229Y-136373171D02*
X23433371Y-136301743D01*
X23361943Y-136158886D01*
X23361943Y-134873171D01*
X24719085Y-136301743D02*
X24576228Y-136373171D01*
X24290514Y-136373171D01*
X24147657Y-136301743D01*
X24076228Y-136158886D01*
X24076228Y-135587457D01*
X24147657Y-135444600D01*
X24290514Y-135373171D01*
X24576228Y-135373171D01*
X24719085Y-135444600D01*
X24790514Y-135587457D01*
X24790514Y-135730314D01*
X24076228Y-135873171D01*
X25433371Y-136230314D02*
X25504799Y-136301743D01*
X25433371Y-136373171D01*
X25361942Y-136301743D01*
X25433371Y-136230314D01*
X25433371Y-136373171D01*
X25433371Y-135444600D02*
X25504799Y-135516029D01*
X25433371Y-135587457D01*
X25361942Y-135516029D01*
X25433371Y-135444600D01*
X25433371Y-135587457D01*
X27076228Y-135373171D02*
X27647657Y-135373171D01*
X27290514Y-134873171D02*
X27290514Y-136158886D01*
X27361942Y-136301743D01*
X27504800Y-136373171D01*
X27647657Y-136373171D01*
X28147657Y-136373171D02*
X28147657Y-135373171D01*
X28147657Y-134873171D02*
X28076228Y-134944600D01*
X28147657Y-135016029D01*
X28219085Y-134944600D01*
X28147657Y-134873171D01*
X28147657Y-135016029D01*
X28861943Y-135373171D02*
X28861943Y-136373171D01*
X28861943Y-135516029D02*
X28933371Y-135444600D01*
X29076229Y-135373171D01*
X29290514Y-135373171D01*
X29433371Y-135444600D01*
X29504800Y-135587457D01*
X29504800Y-136373171D01*
X30076229Y-135373171D02*
X30433372Y-136373171D01*
X30790514Y-135373171D02*
X30433372Y-136373171D01*
X30290514Y-136730314D01*
X30219086Y-136801743D01*
X30076229Y-136873171D01*
X31361943Y-136373171D02*
X31361943Y-134873171D01*
X32219086Y-136373171D02*
X31576229Y-135516029D01*
X32219086Y-134873171D02*
X31361943Y-135730314D01*
X32790514Y-135016029D02*
X32861943Y-134944600D01*
X33004800Y-134873171D01*
X33361943Y-134873171D01*
X33504800Y-134944600D01*
X33576229Y-135016029D01*
X33647657Y-135158886D01*
X33647657Y-135301743D01*
X33576229Y-135516029D01*
X32719086Y-136373171D01*
X33647657Y-136373171D01*
X34576228Y-134873171D02*
X34719085Y-134873171D01*
X34861942Y-134944600D01*
X34933371Y-135016029D01*
X35004800Y-135158886D01*
X35076228Y-135444600D01*
X35076228Y-135801743D01*
X35004800Y-136087457D01*
X34933371Y-136230314D01*
X34861942Y-136301743D01*
X34719085Y-136373171D01*
X34576228Y-136373171D01*
X34433371Y-136301743D01*
X34361942Y-136230314D01*
X34290514Y-136087457D01*
X34219085Y-135801743D01*
X34219085Y-135444600D01*
X34290514Y-135158886D01*
X34361942Y-135016029D01*
X34433371Y-134944600D01*
X34576228Y-134873171D01*
X35719085Y-136230314D02*
X35790513Y-136301743D01*
X35719085Y-136373171D01*
X35647656Y-136301743D01*
X35719085Y-136230314D01*
X35719085Y-136373171D01*
X36433371Y-136373171D02*
X36433371Y-134873171D01*
X36576228Y-135801743D02*
X37004799Y-136373171D01*
X37004799Y-135373171D02*
X36433371Y-135944600D01*
X37647657Y-136373171D02*
X37647657Y-135373171D01*
X37647657Y-134873171D02*
X37576228Y-134944600D01*
X37647657Y-135016029D01*
X37719085Y-134944600D01*
X37647657Y-134873171D01*
X37647657Y-135016029D01*
X39004800Y-136301743D02*
X38861943Y-136373171D01*
X38576229Y-136373171D01*
X38433371Y-136301743D01*
X38361943Y-136230314D01*
X38290514Y-136087457D01*
X38290514Y-135658886D01*
X38361943Y-135516029D01*
X38433371Y-135444600D01*
X38576229Y-135373171D01*
X38861943Y-135373171D01*
X39004800Y-135444600D01*
X40290514Y-136373171D02*
X40290514Y-135587457D01*
X40219085Y-135444600D01*
X40076228Y-135373171D01*
X39790514Y-135373171D01*
X39647657Y-135444600D01*
X40290514Y-136301743D02*
X40147657Y-136373171D01*
X39790514Y-136373171D01*
X39647657Y-136301743D01*
X39576228Y-136158886D01*
X39576228Y-136016029D01*
X39647657Y-135873171D01*
X39790514Y-135801743D01*
X40147657Y-135801743D01*
X40290514Y-135730314D01*
X41647657Y-136373171D02*
X41647657Y-134873171D01*
X41647657Y-136301743D02*
X41504800Y-136373171D01*
X41219086Y-136373171D01*
X41076228Y-136301743D01*
X41004800Y-136230314D01*
X40933371Y-136087457D01*
X40933371Y-135658886D01*
X41004800Y-135516029D01*
X41076228Y-135444600D01*
X41219086Y-135373171D01*
X41504800Y-135373171D01*
X41647657Y-135444600D01*
X42004800Y-136516029D02*
X43147657Y-136516029D01*
X43504800Y-135373171D02*
X43504800Y-136873171D01*
X43504800Y-135444600D02*
X43647657Y-135373171D01*
X43933371Y-135373171D01*
X44076228Y-135444600D01*
X44147657Y-135516029D01*
X44219086Y-135658886D01*
X44219086Y-136087457D01*
X44147657Y-136230314D01*
X44076228Y-136301743D01*
X43933371Y-136373171D01*
X43647657Y-136373171D01*
X43504800Y-136301743D01*
X45504800Y-136301743D02*
X45361943Y-136373171D01*
X45076229Y-136373171D01*
X44933371Y-136301743D01*
X44861943Y-136230314D01*
X44790514Y-136087457D01*
X44790514Y-135658886D01*
X44861943Y-135516029D01*
X44933371Y-135444600D01*
X45076229Y-135373171D01*
X45361943Y-135373171D01*
X45504800Y-135444600D01*
X46147657Y-136373171D02*
X46147657Y-134873171D01*
X46147657Y-135444600D02*
X46290514Y-135373171D01*
X46576228Y-135373171D01*
X46719085Y-135444600D01*
X46790514Y-135516029D01*
X46861943Y-135658886D01*
X46861943Y-136087457D01*
X46790514Y-136230314D01*
X46719085Y-136301743D01*
X46576228Y-136373171D01*
X46290514Y-136373171D01*
X46147657Y-136301743D01*
D10*
D11*
X20004800Y-131494600D02*
X128004800Y-131494600D01*
D10*
D11*
X21290514Y-133601743D02*
X21504800Y-133673171D01*
X21861943Y-133673171D01*
X22004800Y-133601743D01*
X22076229Y-133530314D01*
X22147657Y-133387457D01*
X22147657Y-133244600D01*
X22076229Y-133101743D01*
X22004800Y-133030314D01*
X21861943Y-132958886D01*
X21576229Y-132887457D01*
X21433371Y-132816029D01*
X21361943Y-132744600D01*
X21290514Y-132601743D01*
X21290514Y-132458886D01*
X21361943Y-132316029D01*
X21433371Y-132244600D01*
X21576229Y-132173171D01*
X21933371Y-132173171D01*
X22147657Y-132244600D01*
X22790514Y-133673171D02*
X22790514Y-132173171D01*
X23433371Y-133673171D02*
X23433371Y-132887457D01*
X23361942Y-132744600D01*
X23219085Y-132673171D01*
X23004800Y-132673171D01*
X22861942Y-132744600D01*
X22790514Y-132816029D01*
X24719085Y-133601743D02*
X24576228Y-133673171D01*
X24290514Y-133673171D01*
X24147657Y-133601743D01*
X24076228Y-133458886D01*
X24076228Y-132887457D01*
X24147657Y-132744600D01*
X24290514Y-132673171D01*
X24576228Y-132673171D01*
X24719085Y-132744600D01*
X24790514Y-132887457D01*
X24790514Y-133030314D01*
X24076228Y-133173171D01*
X26004799Y-133601743D02*
X25861942Y-133673171D01*
X25576228Y-133673171D01*
X25433371Y-133601743D01*
X25361942Y-133458886D01*
X25361942Y-132887457D01*
X25433371Y-132744600D01*
X25576228Y-132673171D01*
X25861942Y-132673171D01*
X26004799Y-132744600D01*
X26076228Y-132887457D01*
X26076228Y-133030314D01*
X25361942Y-133173171D01*
X26504799Y-132673171D02*
X27076228Y-132673171D01*
X26719085Y-132173171D02*
X26719085Y-133458886D01*
X26790513Y-133601743D01*
X26933371Y-133673171D01*
X27076228Y-133673171D01*
X27576228Y-133530314D02*
X27647656Y-133601743D01*
X27576228Y-133673171D01*
X27504799Y-133601743D01*
X27576228Y-133530314D01*
X27576228Y-133673171D01*
X27576228Y-132744600D02*
X27647656Y-132816029D01*
X27576228Y-132887457D01*
X27504799Y-132816029D01*
X27576228Y-132744600D01*
X27576228Y-132887457D01*
D10*
D12*
X21361943Y-130673171D02*
X21361943Y-129173171D01*
X22219086Y-130673171D02*
X21576229Y-129816029D01*
X22219086Y-129173171D02*
X21361943Y-130030314D01*
X23504800Y-130673171D02*
X23504800Y-129887457D01*
X23433371Y-129744600D01*
X23290514Y-129673171D01*
X23004800Y-129673171D01*
X22861943Y-129744600D01*
X23504800Y-130601743D02*
X23361943Y-130673171D01*
X23004800Y-130673171D01*
X22861943Y-130601743D01*
X22790514Y-130458886D01*
X22790514Y-130316029D01*
X22861943Y-130173171D01*
X23004800Y-130101743D01*
X23361943Y-130101743D01*
X23504800Y-130030314D01*
X24219086Y-130673171D02*
X24219086Y-129673171D01*
X24219086Y-129958886D02*
X24290514Y-129816029D01*
X24361943Y-129744600D01*
X24504800Y-129673171D01*
X24647657Y-129673171D01*
X25147657Y-130673171D02*
X25147657Y-129673171D01*
X25147657Y-129173171D02*
X25076228Y-129244600D01*
X25147657Y-129316029D01*
X25219085Y-129244600D01*
X25147657Y-129173171D01*
X25147657Y-129316029D01*
X25861943Y-130673171D02*
X25861943Y-129173171D01*
X25861943Y-129744600D02*
X26004800Y-129673171D01*
X26290514Y-129673171D01*
X26433371Y-129744600D01*
X26504800Y-129816029D01*
X26576229Y-129958886D01*
X26576229Y-130387457D01*
X26504800Y-130530314D01*
X26433371Y-130601743D01*
X26290514Y-130673171D01*
X26004800Y-130673171D01*
X25861943Y-130601743D01*
X27790514Y-130601743D02*
X27647657Y-130673171D01*
X27361943Y-130673171D01*
X27219086Y-130601743D01*
X27147657Y-130458886D01*
X27147657Y-129887457D01*
X27219086Y-129744600D01*
X27361943Y-129673171D01*
X27647657Y-129673171D01*
X27790514Y-129744600D01*
X27861943Y-129887457D01*
X27861943Y-130030314D01*
X27147657Y-130173171D01*
D10*
D11*
X21361943Y-127673171D02*
X21361943Y-126173171D01*
X21504800Y-127101743D02*
X21933371Y-127673171D01*
X21933371Y-126673171D02*
X21361943Y-127244600D01*
X23219086Y-127673171D02*
X23219086Y-126887457D01*
X23147657Y-126744600D01*
X23004800Y-126673171D01*
X22719086Y-126673171D01*
X22576229Y-126744600D01*
X23219086Y-127601743D02*
X23076229Y-127673171D01*
X22719086Y-127673171D01*
X22576229Y-127601743D01*
X22504800Y-127458886D01*
X22504800Y-127316029D01*
X22576229Y-127173171D01*
X22719086Y-127101743D01*
X23076229Y-127101743D01*
X23219086Y-127030314D01*
X23933372Y-127673171D02*
X23933372Y-126673171D01*
X23933372Y-126958886D02*
X24004800Y-126816029D01*
X24076229Y-126744600D01*
X24219086Y-126673171D01*
X24361943Y-126673171D01*
X24647657Y-126673171D02*
X25219086Y-126673171D01*
X24861943Y-127673171D02*
X24861943Y-126387457D01*
X24933371Y-126244600D01*
X25076229Y-126173171D01*
X25219086Y-126173171D01*
X26290514Y-127601743D02*
X26147657Y-127673171D01*
X25861943Y-127673171D01*
X25719086Y-127601743D01*
X25647657Y-127458886D01*
X25647657Y-126887457D01*
X25719086Y-126744600D01*
X25861943Y-126673171D01*
X26147657Y-126673171D01*
X26290514Y-126744600D01*
X26361943Y-126887457D01*
X26361943Y-127030314D01*
X25647657Y-127173171D01*
X26933371Y-127601743D02*
X27076228Y-127673171D01*
X27361943Y-127673171D01*
X27504800Y-127601743D01*
X27576228Y-127458886D01*
X27576228Y-127387457D01*
X27504800Y-127244600D01*
X27361943Y-127173171D01*
X27147657Y-127173171D01*
X27004800Y-127101743D01*
X26933371Y-126958886D01*
X26933371Y-126887457D01*
X27004800Y-126744600D01*
X27147657Y-126673171D01*
X27361943Y-126673171D01*
X27504800Y-126744600D01*
X29147657Y-126958886D02*
X29076229Y-126887457D01*
X28933372Y-126816029D01*
X28790514Y-126816029D01*
X28647657Y-126887457D01*
X28576229Y-126958886D01*
X28504800Y-127101743D01*
X28504800Y-127244600D01*
X28576229Y-127387457D01*
X28647657Y-127458886D01*
X28790514Y-127530314D01*
X28933372Y-127530314D01*
X29076229Y-127458886D01*
X29147657Y-127387457D01*
X29147657Y-126816029D02*
X29147657Y-127387457D01*
X29219086Y-127458886D01*
X29290514Y-127458886D01*
X29433372Y-127387457D01*
X29504800Y-127244600D01*
X29504800Y-126887457D01*
X29361943Y-126673171D01*
X29147657Y-126530314D01*
X28861943Y-126458886D01*
X28576229Y-126530314D01*
X28361943Y-126673171D01*
X28219086Y-126887457D01*
X28147657Y-127173171D01*
X28219086Y-127458886D01*
X28361943Y-127673171D01*
X28576229Y-127816029D01*
X28861943Y-127887457D01*
X29147657Y-127816029D01*
X29361943Y-127673171D01*
X30790514Y-126673171D02*
X30790514Y-127887457D01*
X30719085Y-128030314D01*
X30647657Y-128101743D01*
X30504800Y-128173171D01*
X30290514Y-128173171D01*
X30147657Y-128101743D01*
X30790514Y-127601743D02*
X30647657Y-127673171D01*
X30361943Y-127673171D01*
X30219085Y-127601743D01*
X30147657Y-127530314D01*
X30076228Y-127387457D01*
X30076228Y-126958886D01*
X30147657Y-126816029D01*
X30219085Y-126744600D01*
X30361943Y-126673171D01*
X30647657Y-126673171D01*
X30790514Y-126744600D01*
X31504800Y-127673171D02*
X31504800Y-126673171D01*
X31504800Y-126816029D02*
X31576228Y-126744600D01*
X31719086Y-126673171D01*
X31933371Y-126673171D01*
X32076228Y-126744600D01*
X32147657Y-126887457D01*
X32147657Y-127673171D01*
X32147657Y-126887457D02*
X32219086Y-126744600D01*
X32361943Y-126673171D01*
X32576228Y-126673171D01*
X32719086Y-126744600D01*
X32790514Y-126887457D01*
X32790514Y-127673171D01*
X34147657Y-127673171D02*
X34147657Y-126887457D01*
X34076228Y-126744600D01*
X33933371Y-126673171D01*
X33647657Y-126673171D01*
X33504800Y-126744600D01*
X34147657Y-127601743D02*
X34004800Y-127673171D01*
X33647657Y-127673171D01*
X33504800Y-127601743D01*
X33433371Y-127458886D01*
X33433371Y-127316029D01*
X33504800Y-127173171D01*
X33647657Y-127101743D01*
X34004800Y-127101743D01*
X34147657Y-127030314D01*
X34861943Y-127673171D02*
X34861943Y-126673171D01*
X34861943Y-126173171D02*
X34790514Y-126244600D01*
X34861943Y-126316029D01*
X34933371Y-126244600D01*
X34861943Y-126173171D01*
X34861943Y-126316029D01*
X35790515Y-127673171D02*
X35647657Y-127601743D01*
X35576229Y-127458886D01*
X35576229Y-126173171D01*
X36361943Y-127530314D02*
X36433371Y-127601743D01*
X36361943Y-127673171D01*
X36290514Y-127601743D01*
X36361943Y-127530314D01*
X36361943Y-127673171D01*
X37719086Y-127601743D02*
X37576229Y-127673171D01*
X37290515Y-127673171D01*
X37147657Y-127601743D01*
X37076229Y-127530314D01*
X37004800Y-127387457D01*
X37004800Y-126958886D01*
X37076229Y-126816029D01*
X37147657Y-126744600D01*
X37290515Y-126673171D01*
X37576229Y-126673171D01*
X37719086Y-126744600D01*
X38576229Y-127673171D02*
X38433371Y-127601743D01*
X38361943Y-127530314D01*
X38290514Y-127387457D01*
X38290514Y-126958886D01*
X38361943Y-126816029D01*
X38433371Y-126744600D01*
X38576229Y-126673171D01*
X38790514Y-126673171D01*
X38933371Y-126744600D01*
X39004800Y-126816029D01*
X39076229Y-126958886D01*
X39076229Y-127387457D01*
X39004800Y-127530314D01*
X38933371Y-127601743D01*
X38790514Y-127673171D01*
X38576229Y-127673171D01*
X39719086Y-127673171D02*
X39719086Y-126673171D01*
X39719086Y-126816029D02*
X39790514Y-126744600D01*
X39933372Y-126673171D01*
X40147657Y-126673171D01*
X40290514Y-126744600D01*
X40361943Y-126887457D01*
X40361943Y-127673171D01*
X40361943Y-126887457D02*
X40433372Y-126744600D01*
X40576229Y-126673171D01*
X40790514Y-126673171D01*
X40933372Y-126744600D01*
X41004800Y-126887457D01*
X41004800Y-127673171D01*
D10*
D11*
X40004800Y-141494600D02*
X40004800Y-144494600D01*
D10*
D11*
X104004800Y-141494600D02*
X104004800Y-147994600D01*
D10*
X56261000Y-103835200D02*
X56184800Y-29337000D01*
X91782900Y-103822500D02*
X56261000Y-103835200D01*
X91744800Y-29337000D02*
X91782900Y-103822500D01*
X56184800Y-29337000D02*
X91744800Y-29337000D01*
D14*
X77539600Y-57734200D03*
X77039600Y-57734200D03*
X76539600Y-57734200D03*
X76039600Y-57734200D03*
X75539600Y-57734200D03*
X75039600Y-57734200D03*
X74539600Y-57734200D03*
X74039600Y-57734200D03*
X73539600Y-57734200D03*
X73039600Y-57734200D03*
X72539600Y-57734200D03*
X72039600Y-57734200D03*
D15*
X71389600Y-58384200D03*
X71389600Y-58884200D03*
X71389600Y-59384200D03*
X71389600Y-59884200D03*
X71389600Y-60384200D03*
X71389600Y-60884200D03*
X71389600Y-61384200D03*
X71389600Y-61884200D03*
X71389600Y-62384200D03*
X71389600Y-62884200D03*
X71389600Y-63384200D03*
X71389600Y-63884200D03*
D14*
X72039600Y-64534200D03*
X72539600Y-64534200D03*
X73039600Y-64534200D03*
X73539600Y-64534200D03*
X74039600Y-64534200D03*
X74539600Y-64534200D03*
X75039600Y-64534200D03*
X75539600Y-64534200D03*
X76039600Y-64534200D03*
X76539600Y-64534200D03*
X77039600Y-64534200D03*
X77539600Y-64534200D03*
D15*
X78189600Y-63884200D03*
X78189600Y-63384200D03*
X78189600Y-62884200D03*
X78189600Y-62384200D03*
X78189600Y-61884200D03*
X78189600Y-61384200D03*
X78189600Y-60884200D03*
X78189600Y-60384200D03*
X78189600Y-59884200D03*
X78189600Y-59384200D03*
X78189600Y-58884200D03*
X78189600Y-58384200D03*
D16*
X74789600Y-61134200D03*
D17*
X87287100Y-76606400D03*
X87287100Y-82006400D03*
D18*
X77530600Y-33891200D03*
X76880600Y-33891200D03*
X76230600Y-33891200D03*
X75580600Y-33891200D03*
X74930600Y-33891200D03*
D19*
X78730600Y-33891200D03*
X73730600Y-33891200D03*
D20*
X79730600Y-31191200D03*
X72730600Y-31191200D03*
D21*
X86296500Y-38798500D03*
X86296500Y-48958500D03*
D22*
X73736200Y-48145700D03*
X71736200Y-48145700D03*
D23*
X72872600Y-40335200D03*
X72872600Y-38335200D03*
X69748400Y-44488100D03*
X69748400Y-42488100D03*
D22*
X79457800Y-39928800D03*
X81457800Y-39928800D03*
X79457800Y-44754800D03*
X81457800Y-44754800D03*
X79495900Y-42316400D03*
X81495900Y-42316400D03*
X70192900Y-51155600D03*
X68192900Y-51155600D03*
D23*
X74295000Y-43846500D03*
X74295000Y-41846500D03*
X66052700Y-43767500D03*
X66052700Y-45767500D03*
X62572900Y-43643800D03*
X62572900Y-45643800D03*
X87045800Y-70027800D03*
X87045800Y-68027800D03*
D22*
X72351900Y-85471000D03*
X70351900Y-85471000D03*
D24*
X86405720Y-43474600D03*
X86405720Y-45374600D03*
X88404700Y-44424600D03*
X63741300Y-38049200D03*
X63741300Y-36149200D03*
X61742320Y-37099200D03*
D25*
X85737700Y-65011300D03*
D26*
X85737700Y-58407300D03*
X83451700Y-58407300D03*
X88023700Y-58407300D03*
D27*
X85572600Y-89725500D03*
X84302600Y-89725500D03*
X83032600Y-89725500D03*
X81762600Y-89725500D03*
X80492600Y-89725500D03*
X79222600Y-89725500D03*
X77952600Y-89725500D03*
X77952600Y-96075500D03*
X79222600Y-96075500D03*
X81762600Y-96075500D03*
X83032600Y-96075500D03*
X84302600Y-96075500D03*
X85572600Y-96075500D03*
X80492600Y-96075500D03*
D28*
X78955900Y-37477700D03*
X82207100Y-37477700D03*
D29*
X69507100Y-40119300D03*
X69507100Y-36868100D03*
D28*
X63004700Y-32524700D03*
X66255900Y-32524700D03*
D30*
X86347300Y-51841400D03*
X86347300Y-54381400D03*
X61341000Y-73787000D03*
X61341000Y-76327000D03*
X61455300Y-80137000D03*
X61455300Y-82677000D03*
D31*
X67978245Y-58453245D02*
X67624423Y-58099423D01*
X67624423Y-56530777D02*
X67978245Y-56176955D01*
D23*
X63233300Y-60934600D03*
X63233300Y-62934600D03*
X59512200Y-62131700D03*
X59512200Y-64131700D03*
D32*
X72390000Y-90030300D03*
X72390000Y-94030300D03*
X71120000Y-90030300D03*
X71120000Y-94030300D03*
X69850000Y-90030300D03*
X69850000Y-94030300D03*
X68580000Y-90030300D03*
X68580000Y-94030300D03*
X67310000Y-90030300D03*
X67310000Y-94030300D03*
D33*
X72644000Y-75565000D03*
D34*
X73914000Y-75565000D03*
X75184000Y-75565000D03*
X76454000Y-75565000D03*
X77724000Y-75565000D03*
X73914000Y-74295000D03*
X75184000Y-74295000D03*
X76454000Y-74295000D03*
X77724000Y-74295000D03*
X72644000Y-74295000D03*
D35*
X67449700Y-71778000D03*
X67449700Y-65278000D03*
D36*
X66255900Y-35030700D03*
X66255900Y-39030700D03*
D37*
X76555600Y-47759400D03*
X76555600Y-49959400D03*
X78663800Y-47759400D03*
X78663800Y-49959400D03*
D36*
X79387700Y-79819500D03*
X79387700Y-83819500D03*
D38*
X70872600Y-99072700D03*
X74872600Y-99072700D03*
X59531500Y-67094100D03*
X63531500Y-67094100D03*
D39*
X89689600Y-72402700D03*
X86789600Y-72402700D03*
X82674800Y-84836000D03*
X85574800Y-84836000D03*
D40*
X58775600Y-38811200D03*
D41*
X66052700Y-81026000D03*
D42*
X76250800Y-60807600D03*
X74358500Y-62636400D03*
X76250800Y-62611000D03*
D41*
X84416900Y-41770300D03*
X78041500Y-41160700D03*
X69240400Y-34696400D03*
X70358000Y-46418500D03*
X82143599Y-51955700D03*
X75666600Y-51244500D03*
X83502499Y-79997299D03*
X60693300Y-33299400D03*
X73990200Y-79260700D03*
X60337700Y-59385200D03*
X83362800Y-72301100D03*
X77563639Y-71845663D03*
X89801700Y-75806300D03*
X61125100Y-54279800D03*
X58445400Y-70523100D03*
X77609700Y-99453700D03*
X81521300Y-61087000D03*
X82131883Y-87235393D03*
X82423321Y-81066190D03*
X70142100Y-81292700D03*
X80975200Y-66103500D03*
X81965800Y-68402200D03*
X82130900Y-76187300D03*
X63284100Y-89408000D03*
X76174600Y-83273900D03*
X79228278Y-69535914D03*
X75095100Y-46164500D03*
X89598500Y-61201300D03*
D43*
X78189600Y-61884200D02*
X79892800Y-61884200D01*
X78189600Y-61384200D02*
X79789000Y-61384200D01*
X78790000Y-60883800D02*
X79895700Y-60883800D01*
X78189600Y-60884200D02*
X78789600Y-60884200D01*
X78789600Y-60884200D02*
X78790000Y-60883800D01*
X78793900Y-60388500D02*
X79997300Y-60388500D01*
X78189600Y-60384200D02*
X78789600Y-60384200D01*
X78789600Y-60384200D02*
X78793900Y-60388500D01*
X78816000Y-59410600D02*
X82016600Y-59410600D01*
X78189600Y-59384200D02*
X78789600Y-59384200D01*
X78789600Y-59384200D02*
X78816000Y-59410600D01*
X81699100Y-57950100D02*
X81699100Y-55346600D01*
X80772000Y-58877200D02*
X81699100Y-57950100D01*
X78796600Y-58877200D02*
X80772000Y-58877200D01*
X78189600Y-58884200D02*
X78789600Y-58884200D01*
X78789600Y-58884200D02*
X78796600Y-58877200D01*
X81102200Y-57708800D02*
X81102200Y-54838600D01*
X80429100Y-58381900D02*
X81102200Y-57708800D01*
X78791900Y-58381900D02*
X80429100Y-58381900D01*
X78189600Y-58384200D02*
X78789600Y-58384200D01*
X78789600Y-58384200D02*
X78791900Y-58381900D01*
X71389600Y-62384200D02*
X68975500Y-62384200D01*
X70789200Y-60883800D02*
X68732400Y-60883800D01*
X71389600Y-60884200D02*
X70789600Y-60884200D01*
X70789600Y-60884200D02*
X70789200Y-60883800D01*
X70782000Y-61391800D02*
X68707000Y-61391800D01*
X71389600Y-61384200D02*
X70789600Y-61384200D01*
X70789600Y-61384200D02*
X70782000Y-61391800D01*
X77039600Y-64534200D02*
X77039600Y-67413000D01*
X76542900Y-65137500D02*
X76542900Y-67322700D01*
X76539600Y-64534200D02*
X76539600Y-65134200D01*
X76539600Y-65134200D02*
X76542900Y-65137500D01*
X76039600Y-64534200D02*
X76039600Y-67521200D01*
X75539600Y-64534200D02*
X75539600Y-67538600D01*
X75031600Y-65142200D02*
X75031600Y-67614800D01*
X75039600Y-64534200D02*
X75039600Y-65134200D01*
X75039600Y-65134200D02*
X75031600Y-65142200D01*
X74539600Y-64534200D02*
X74539600Y-67548000D01*
X74041000Y-65135600D02*
X74041000Y-67627500D01*
X74039600Y-64534200D02*
X74039600Y-65134200D01*
X74039600Y-65134200D02*
X74041000Y-65135600D01*
X74039600Y-57734200D02*
X74039600Y-53697000D01*
X74039600Y-53697000D02*
X74053700Y-53682900D01*
X74539600Y-57734200D02*
X74539600Y-53673500D01*
X66652699Y-81625999D02*
X66052700Y-81026000D01*
X69850000Y-84823300D02*
X66652699Y-81625999D01*
X69850000Y-90030300D02*
X69850000Y-84823300D01*
X75402272Y-60807600D02*
X76250800Y-60807600D01*
X75116200Y-60807600D02*
X75402272Y-60807600D01*
X74789600Y-61134200D02*
X75116200Y-60807600D01*
X74358500Y-61787872D02*
X74358500Y-62636400D01*
X74358500Y-61565300D02*
X74358500Y-61787872D01*
X74789600Y-61134200D02*
X74358500Y-61565300D01*
X75650801Y-62011001D02*
X76250800Y-62611000D01*
X74789600Y-61149800D02*
X75650801Y-62011001D01*
X74789600Y-61134200D02*
X74789600Y-61149800D01*
X77039600Y-57734200D02*
X77039600Y-53630700D01*
X77039600Y-53630700D02*
X78912290Y-51758010D01*
X78912290Y-51758010D02*
X80183701Y-51758009D01*
X80183701Y-51758009D02*
X80904510Y-51037200D01*
X80904510Y-51037200D02*
X80904510Y-48565108D01*
X80904510Y-48565108D02*
X78041500Y-45702098D01*
X78041500Y-45702098D02*
X78041500Y-41160700D01*
X71389600Y-63384200D02*
X72539600Y-63384200D01*
X72539600Y-63384200D02*
X74789600Y-61134200D01*
X77039600Y-57734200D02*
X77039600Y-58884200D01*
X77039600Y-58884200D02*
X74789600Y-61134200D01*
X66775100Y-63384200D02*
X65493900Y-62103000D01*
X71389600Y-63384200D02*
X66775100Y-63384200D01*
X66255900Y-32524700D02*
X66255900Y-32575500D01*
X66255900Y-32575500D02*
X66344800Y-32664400D01*
X66344800Y-32664400D02*
X66255900Y-32753300D01*
X66255900Y-32753300D02*
X66255900Y-34880700D01*
X66255900Y-34880700D02*
X66255900Y-35030700D01*
X66255900Y-32524700D02*
X69850000Y-32524700D01*
X69850000Y-32524700D02*
X71056500Y-33731200D01*
X71056500Y-33731200D02*
X71056500Y-35052000D01*
X71056500Y-35052000D02*
X71704200Y-35699700D01*
X71704200Y-35699700D02*
X72910700Y-35699700D01*
X72910700Y-35699700D02*
X74536300Y-37325300D01*
X74536300Y-37325300D02*
X74536300Y-39546500D01*
X74536300Y-39546500D02*
X73747600Y-40335200D01*
X73747600Y-40335200D02*
X72872600Y-40335200D01*
X72885300Y-52311300D02*
X72885300Y-40386000D01*
X72899300Y-40386000D02*
X72885300Y-40386000D01*
X73539600Y-57734200D02*
X73539600Y-52965600D01*
X73539600Y-52965600D02*
X72885300Y-52311300D01*
X72039600Y-53294400D02*
X72539600Y-53794400D01*
X72539600Y-53794400D02*
X72539600Y-57734200D01*
X72039600Y-53127300D02*
X72039600Y-53294400D01*
X70459600Y-38341490D02*
X69507100Y-39293990D01*
X72872600Y-38335200D02*
X71997600Y-38335200D01*
X71997600Y-38335200D02*
X71991310Y-38341490D01*
X71991310Y-38341490D02*
X70459600Y-38341490D01*
X70192900Y-51155600D02*
X70192900Y-50280600D01*
X70192900Y-50280600D02*
X68033900Y-48121600D01*
X68033900Y-48121600D02*
X68033900Y-44077600D01*
X68033900Y-44077600D02*
X69623400Y-42488100D01*
X69623400Y-42488100D02*
X69748400Y-42488100D01*
X69748400Y-42488100D02*
X69748400Y-40360600D01*
X69748400Y-40360600D02*
X69507100Y-40119300D01*
X69507100Y-39293990D02*
X69507100Y-40119300D01*
X70192900Y-51155600D02*
X70192900Y-51280600D01*
X70192900Y-51280600D02*
X72039600Y-53127300D01*
X72039600Y-53127300D02*
X72039600Y-57734200D01*
X66255900Y-39030700D02*
X66255900Y-37680900D01*
X66255900Y-37680900D02*
X67005200Y-36931600D01*
X67005200Y-36931600D02*
X67856100Y-36931600D01*
X67856100Y-36931600D02*
X68046600Y-36741100D01*
X68046600Y-36741100D02*
X68046600Y-35267900D01*
X68046600Y-35267900D02*
X68618100Y-34696400D01*
X68618100Y-34696400D02*
X69240400Y-34696400D01*
X68961000Y-46088300D02*
X68961000Y-45275500D01*
X68961000Y-47663100D02*
X68961000Y-46088300D01*
X68961000Y-46088300D02*
X70027800Y-46088300D01*
X70027800Y-46088300D02*
X70358000Y-46418500D01*
X73039600Y-57734200D02*
X73039600Y-53127990D01*
X71412100Y-51474510D02*
X71412100Y-50114200D01*
X73039600Y-53127990D02*
X72489610Y-52578000D01*
X72489610Y-52578000D02*
X72489610Y-52552020D01*
X72489610Y-52552020D02*
X71412100Y-51474510D01*
X71412100Y-50114200D02*
X68961000Y-47663100D01*
X68961000Y-45275500D02*
X69748400Y-44488100D01*
X89839800Y-69202300D02*
X89839800Y-69329300D01*
X89839800Y-63881000D02*
X89839800Y-69202300D01*
X89839800Y-69202300D02*
X89689600Y-69352500D01*
X89689600Y-69352500D02*
X89689600Y-72402700D01*
X66052700Y-42633900D02*
X63741300Y-40322500D01*
X66052700Y-43767500D02*
X66052700Y-43017500D01*
X66052700Y-43017500D02*
X66052700Y-42633900D01*
X63741300Y-40322500D02*
X63741300Y-38049200D01*
X77539600Y-57734200D02*
X77539600Y-53930800D01*
X81543600Y-52555699D02*
X82143599Y-51955700D01*
X77539600Y-53930800D02*
X78914701Y-52555699D01*
X78914701Y-52555699D02*
X81543600Y-52555699D01*
X82143599Y-51107172D02*
X82143599Y-51955700D01*
X79457800Y-44754800D02*
X79457800Y-44879800D01*
X82743598Y-52555699D02*
X82143599Y-51955700D01*
X83451700Y-58407300D02*
X83451700Y-53263801D01*
X82143599Y-47565599D02*
X82143599Y-51107172D01*
X79457800Y-44879800D02*
X82143599Y-47565599D01*
X83451700Y-53263801D02*
X82743598Y-52555699D01*
X75539600Y-57734200D02*
X75539600Y-53530500D01*
X75539600Y-53530500D02*
X75565000Y-53505100D01*
X72351900Y-85471000D02*
X72351900Y-80886300D01*
X72351900Y-80886300D02*
X73377501Y-79860699D01*
X73377501Y-79860699D02*
X73390201Y-79860699D01*
X73390201Y-79860699D02*
X73990200Y-79260700D01*
X75565000Y-53505100D02*
X75565000Y-52400200D01*
X75666600Y-51244500D02*
X75666600Y-52093028D01*
X75666600Y-52093028D02*
X75565000Y-52194628D01*
X75565000Y-52194628D02*
X75565000Y-53505100D01*
X83451700Y-58407300D02*
X83451700Y-59673300D01*
X83451700Y-59673300D02*
X84687600Y-60909200D01*
X84687600Y-60909200D02*
X86868000Y-60909200D01*
X86868000Y-60909200D02*
X89839800Y-63881000D01*
X82902500Y-79397300D02*
X83502499Y-79997299D01*
X82765900Y-79260700D02*
X82902500Y-79397300D01*
X79629000Y-79260700D02*
X82765900Y-79260700D01*
X73990200Y-79260700D02*
X79629000Y-79260700D01*
X60693300Y-33299400D02*
X61468000Y-32524700D01*
X61468000Y-32524700D02*
X63004700Y-32524700D01*
X72390000Y-90030300D02*
X72390000Y-85509100D01*
X72390000Y-85509100D02*
X72351900Y-85471000D01*
X63004700Y-32524700D02*
X63004700Y-37962650D01*
X63004700Y-37962650D02*
X63091250Y-38049200D01*
X63091250Y-38049200D02*
X63741300Y-38049200D01*
X79495900Y-42316400D02*
X79495900Y-44716700D01*
X79495900Y-44716700D02*
X79457800Y-44754800D01*
X79457800Y-39928800D02*
X79457800Y-42278300D01*
X79457800Y-42278300D02*
X79495900Y-42316400D01*
X61186228Y-59385200D02*
X60337700Y-59385200D01*
X64008000Y-59385200D02*
X61186228Y-59385200D01*
X67507000Y-62884200D02*
X64008000Y-59385200D01*
X71389600Y-62884200D02*
X67507000Y-62884200D01*
X68192900Y-51155600D02*
X68192900Y-55061100D01*
X68192900Y-55061100D02*
X69201739Y-56069939D01*
X69201739Y-56069939D02*
X69201739Y-58101939D01*
X69201739Y-58101939D02*
X69484000Y-58384200D01*
X69484000Y-58384200D02*
X71389600Y-58384200D01*
X71389600Y-59884200D02*
X67367320Y-59884200D01*
X67367320Y-59884200D02*
X64325500Y-56842380D01*
X64325500Y-56842380D02*
X64325500Y-44521400D01*
X64325500Y-44521400D02*
X63447900Y-43643800D01*
X63447900Y-43643800D02*
X62572900Y-43643800D01*
X61742320Y-40626820D02*
X62572900Y-41457400D01*
X62572900Y-43643800D02*
X62572900Y-42893800D01*
X62572900Y-42893800D02*
X62572900Y-41457400D01*
X61742320Y-37099200D02*
X61742320Y-40626820D01*
X86789600Y-72402700D02*
X86789600Y-76108900D01*
X86789600Y-76108900D02*
X87287100Y-76606400D01*
X87045800Y-70027800D02*
X87045800Y-72146500D01*
X87045800Y-72146500D02*
X86789600Y-72402700D01*
X83362800Y-76962000D02*
X83362800Y-73149628D01*
X83362800Y-73149628D02*
X83362800Y-72301100D01*
X82054700Y-78270100D02*
X83362800Y-76962000D01*
X80467200Y-78270100D02*
X82054700Y-78270100D01*
X79806800Y-72110600D02*
X79806800Y-77609700D01*
X77683801Y-69987601D02*
X79806800Y-72110600D01*
X79806800Y-77609700D02*
X80467200Y-78270100D01*
X77683801Y-69987601D02*
X77683801Y-71725501D01*
X77683801Y-71725501D02*
X77563639Y-71845663D01*
X86682500Y-76001800D02*
X87287100Y-76606400D01*
X89801700Y-75806300D02*
X89001600Y-76606400D01*
X89001600Y-76606400D02*
X87287100Y-76606400D01*
X76632601Y-69987601D02*
X77683801Y-69987601D01*
X72539600Y-64534200D02*
X72539600Y-69313800D01*
X72539600Y-69313800D02*
X73213401Y-69987601D01*
X73213401Y-69987601D02*
X76632601Y-69987601D01*
X77719000Y-74290000D02*
X77724000Y-74295000D01*
X76880600Y-33891200D02*
X76880600Y-45526200D01*
X76880600Y-45526200D02*
X78663800Y-47309400D01*
X78663800Y-47309400D02*
X78663800Y-47909400D01*
X76230600Y-33891200D02*
X76230600Y-47584400D01*
X76230600Y-47584400D02*
X76555600Y-47909400D01*
X72730600Y-31191200D02*
X73480600Y-31191200D01*
X73480600Y-31191200D02*
X79730600Y-31191200D01*
X78730600Y-33891200D02*
X78730600Y-37252400D01*
X78730600Y-37252400D02*
X78955900Y-37477700D01*
X72730600Y-31191200D02*
X72730600Y-33041200D01*
X72730600Y-33041200D02*
X73580600Y-33891200D01*
X73580600Y-33891200D02*
X73730600Y-33891200D01*
X79730600Y-31191200D02*
X79730600Y-33041200D01*
X79730600Y-33041200D02*
X78880600Y-33891200D01*
X78880600Y-33891200D02*
X78730600Y-33891200D01*
D13*
X86347300Y-54381400D02*
X86347300Y-51841400D01*
X86296500Y-48958500D02*
X87709992Y-48958500D01*
X87709992Y-48958500D02*
X87722692Y-48971200D01*
X88150700Y-48971200D02*
X89179400Y-49999900D01*
X87722692Y-48971200D02*
X88150700Y-48971200D01*
X89179400Y-49999900D02*
X89179400Y-53695600D01*
X89179400Y-53695600D02*
X88493600Y-54381400D01*
X88493600Y-54381400D02*
X86347300Y-54381400D01*
X86405720Y-45374600D02*
X85755670Y-45374600D01*
X85755670Y-45374600D02*
X83911670Y-47218600D01*
X83911670Y-47218600D02*
X83911670Y-50160150D01*
X83911670Y-50160150D02*
X85592920Y-51841400D01*
X85592920Y-51841400D02*
X86347300Y-51841400D01*
X86296500Y-51790600D02*
X86347300Y-51841400D01*
X86405720Y-48849280D02*
X86296500Y-48958500D01*
X86405720Y-43474600D02*
X86405720Y-45374600D01*
D43*
X84480400Y-82689700D02*
X84480400Y-83858100D01*
X84480400Y-83858100D02*
X84480400Y-84441600D01*
X84480400Y-84441600D02*
X84874800Y-84836000D01*
X84874800Y-84836000D02*
X85574800Y-84836000D01*
X78189600Y-59884200D02*
X82502900Y-59884200D01*
X82502900Y-59884200D02*
X84168099Y-61549399D01*
X84168099Y-61549399D02*
X86339799Y-61549399D01*
X86339799Y-61549399D02*
X89128600Y-64338200D01*
X85293200Y-68338700D02*
X85844811Y-68890311D01*
X89128600Y-64338200D02*
X89128600Y-66370200D01*
X89128600Y-66370200D02*
X88684100Y-66814700D01*
X88684100Y-66814700D02*
X85763100Y-66814700D01*
X85844811Y-68890311D02*
X85844811Y-81325289D01*
X85763100Y-66814700D02*
X85293200Y-67284600D01*
X85293200Y-67284600D02*
X85293200Y-68338700D01*
X85844811Y-81325289D02*
X84670900Y-82499200D01*
X84670900Y-82499200D02*
X84493100Y-82677000D01*
X84493100Y-82677000D02*
X84493100Y-82804000D01*
X84493100Y-82677000D02*
X84480400Y-82689700D01*
X82674800Y-84836000D02*
X80404200Y-84836000D01*
X80404200Y-84836000D02*
X79387700Y-83819500D01*
X65279680Y-58434380D02*
X61125100Y-54279800D01*
X65281091Y-58434380D02*
X65279680Y-58434380D01*
X67230911Y-60384200D02*
X65281091Y-58434380D01*
X71389600Y-60384200D02*
X67230911Y-60384200D01*
X71389600Y-61884200D02*
X68093090Y-61884200D01*
X58445400Y-69674572D02*
X58445400Y-70523100D01*
X68093090Y-61884200D02*
X63461900Y-57253010D01*
X63461900Y-57253010D02*
X59129790Y-57253010D01*
X59129790Y-57253010D02*
X57327800Y-59055000D01*
X57327800Y-59055000D02*
X57327800Y-68556972D01*
X57327800Y-68556972D02*
X58445400Y-69674572D01*
X70872600Y-99072700D02*
X72122600Y-99072700D01*
X72122600Y-99072700D02*
X72339200Y-99289300D01*
X72885300Y-101053900D02*
X77152500Y-101053900D01*
X72339200Y-99289300D02*
X72339200Y-100507800D01*
X72339200Y-100507800D02*
X72885300Y-101053900D01*
X77152500Y-101053900D02*
X77609700Y-100596700D01*
X77609700Y-100596700D02*
X77609700Y-99453700D01*
X81900500Y-62384200D02*
X81900500Y-61466200D01*
X81900500Y-61466200D02*
X81521300Y-61087000D01*
X78189600Y-62384200D02*
X81900500Y-62384200D01*
X78189600Y-62884200D02*
X82136890Y-62884200D01*
X80873600Y-81991200D02*
X75082400Y-81991200D01*
X82136890Y-62884200D02*
X83081301Y-63828611D01*
X75653900Y-88023700D02*
X75653900Y-90765490D01*
X83081301Y-63828611D02*
X83081301Y-66368101D01*
X83081301Y-66368101D02*
X84697710Y-67984510D01*
X81673700Y-82791300D02*
X80873600Y-81991200D01*
X84697710Y-67984510D02*
X84697710Y-69303900D01*
X74777600Y-82296000D02*
X74777600Y-87147400D01*
X85394800Y-80886300D02*
X83489800Y-82791300D01*
X84697710Y-69303900D02*
X85394800Y-70000990D01*
X85394800Y-70000990D02*
X85394800Y-80886300D01*
X83489800Y-82791300D02*
X81673700Y-82791300D01*
X75082400Y-81991200D02*
X74777600Y-82296000D01*
X74777600Y-87147400D02*
X75653900Y-88023700D01*
X75653900Y-90765490D02*
X77915910Y-93027500D01*
X77915910Y-93027500D02*
X79146400Y-93027500D01*
X79146400Y-93027500D02*
X79222600Y-93103700D01*
X79222600Y-93103700D02*
X79222600Y-94334190D01*
X79222600Y-94334190D02*
X79222600Y-96075500D01*
X82131883Y-87235393D02*
X86943293Y-87235393D01*
X86943293Y-87235393D02*
X88265000Y-88557100D01*
X88265000Y-88557100D02*
X88265000Y-98933000D01*
X84950300Y-102247700D02*
X70231000Y-102247700D01*
X69392800Y-97358200D02*
X69824600Y-96926400D01*
X88265000Y-98933000D02*
X84950300Y-102247700D01*
X70231000Y-102247700D02*
X69392800Y-101409500D01*
X71120000Y-96824800D02*
X71120000Y-94030300D01*
X69392800Y-101409500D02*
X69392800Y-97358200D01*
X69824600Y-96926400D02*
X71018400Y-96926400D01*
X71018400Y-96926400D02*
X71120000Y-96824800D01*
X80594110Y-63384200D02*
X81850000Y-63384200D01*
X84785200Y-80083600D02*
X83741200Y-81127600D01*
X81850000Y-63384200D02*
X82631291Y-64165491D01*
X82631291Y-64165491D02*
X82631291Y-66578491D01*
X82631291Y-66578491D02*
X84247700Y-68194900D01*
X84247700Y-68194900D02*
X84247700Y-69490300D01*
X83741200Y-81127600D02*
X82423321Y-81066190D01*
X84247700Y-69490300D02*
X84785200Y-70027800D01*
X84785200Y-70027800D02*
X84785200Y-80083600D01*
X82423321Y-81066190D02*
X82219800Y-81127600D01*
X78189600Y-63384200D02*
X80594110Y-63384200D01*
X80594110Y-63384200D02*
X80608310Y-63398400D01*
X62095380Y-73787000D02*
X69601080Y-81292700D01*
X69601080Y-81292700D02*
X70142100Y-81292700D01*
X61341000Y-73787000D02*
X62095380Y-73787000D01*
X61341000Y-76327000D02*
X59410600Y-76327000D01*
X59410600Y-76327000D02*
X58966100Y-76771500D01*
X68580000Y-97459800D02*
X68580000Y-94030300D01*
X58966100Y-76771500D02*
X58966100Y-95478600D01*
X58966100Y-95478600D02*
X61595000Y-98107500D01*
X61595000Y-98107500D02*
X67932300Y-98107500D01*
X67932300Y-98107500D02*
X68580000Y-97459800D01*
X78189600Y-63884200D02*
X80724400Y-63884200D01*
X80724400Y-63884200D02*
X80975200Y-64135000D01*
X80975200Y-64135000D02*
X80975200Y-66103500D01*
X61341000Y-73787000D02*
X61341000Y-74790110D01*
X61341000Y-74790110D02*
X61341000Y-76327000D01*
X77539600Y-64534200D02*
X77539600Y-67265300D01*
X77539600Y-67265300D02*
X77978000Y-67703700D01*
X77978000Y-67703700D02*
X79857600Y-67703700D01*
X79857600Y-67703700D02*
X80556100Y-68402200D01*
X80556100Y-68402200D02*
X81965800Y-68402200D01*
X61455300Y-80137000D02*
X61455300Y-81140110D01*
X61455300Y-81140110D02*
X61455300Y-82677000D01*
X68580000Y-85681820D02*
X65600580Y-82702400D01*
X61455300Y-82677000D02*
X65575180Y-82677000D01*
X65575180Y-82677000D02*
X65600580Y-82702400D01*
X68580000Y-90030300D02*
X68580000Y-85681820D01*
X73539600Y-64534200D02*
X73539600Y-68078600D01*
X73539600Y-68078600D02*
X73685400Y-68224400D01*
X73685400Y-68224400D02*
X79641700Y-68224400D01*
X81483200Y-70065900D02*
X81483200Y-73164700D01*
X79641700Y-68224400D02*
X81483200Y-70065900D01*
X81483200Y-73164700D02*
X82130900Y-73812400D01*
X82130900Y-73812400D02*
X82130900Y-75338772D01*
X82130900Y-75338772D02*
X82130900Y-76187300D01*
X67310000Y-94030300D02*
X64045600Y-94030300D01*
X64045600Y-94030300D02*
X63284100Y-93268800D01*
X63284100Y-93268800D02*
X63284100Y-89408000D01*
X76174600Y-83273900D02*
X75511101Y-83937399D01*
X75511101Y-83937399D02*
X75511101Y-86852201D01*
X75511101Y-86852201D02*
X76212700Y-87553800D01*
X76212700Y-87553800D02*
X76212700Y-90563700D01*
X76212700Y-90563700D02*
X78079600Y-92430600D01*
X78079600Y-92430600D02*
X80137000Y-92430600D01*
X80137000Y-92430600D02*
X80137000Y-92456000D01*
X80137000Y-92456000D02*
X80492600Y-92811600D01*
X80492600Y-92811600D02*
X80492600Y-96075500D01*
X73039600Y-64534200D02*
X73039600Y-68480300D01*
X78379750Y-69535914D02*
X79228278Y-69535914D01*
X73039600Y-68480300D02*
X73647300Y-69088000D01*
X73647300Y-69088000D02*
X77931836Y-69088000D01*
X77931836Y-69088000D02*
X78379750Y-69535914D01*
X76539600Y-57734200D02*
X76539600Y-53494290D01*
X76539600Y-53494290D02*
X78725890Y-51308000D01*
X78725890Y-51308000D02*
X79997300Y-51308000D01*
X79997300Y-51308000D02*
X80454500Y-50850800D01*
X80454500Y-50850800D02*
X80454500Y-49441100D01*
X80454500Y-49441100D02*
X79857600Y-48844200D01*
X76920800Y-48844200D02*
X76555600Y-49209400D01*
X79857600Y-48844200D02*
X76920800Y-48844200D01*
X76555600Y-49209400D02*
X76555600Y-49809400D01*
X76039600Y-57734200D02*
X76039600Y-53294602D01*
X76039600Y-53294602D02*
X78663800Y-50670402D01*
X78663800Y-50670402D02*
X78663800Y-50409400D01*
X78663800Y-50409400D02*
X78663800Y-49809400D01*
X73375600Y-96972200D02*
X73375600Y-97599500D01*
X75068000Y-97777300D02*
X73553400Y-97777300D01*
X73553400Y-97777300D02*
X73375600Y-97599500D01*
X76098400Y-97777300D02*
X75068000Y-97777300D01*
X75068000Y-97777300D02*
X74872600Y-97972700D01*
X74872600Y-97972700D02*
X74872600Y-99072700D01*
X72390000Y-94030300D02*
X72390000Y-96520000D01*
X72732900Y-96862900D02*
X73266300Y-96862900D01*
X72390000Y-96520000D02*
X72732900Y-96862900D01*
X73266300Y-96862900D02*
X73375600Y-96972200D01*
X76098400Y-97777300D02*
X76098400Y-96494600D01*
X76098400Y-96494600D02*
X76517500Y-96075500D01*
X76517500Y-96075500D02*
X77952600Y-96075500D01*
D13*
X73736200Y-52019200D02*
X74383900Y-52666900D01*
D43*
X75039600Y-57734200D02*
X75039600Y-53322600D01*
X75039600Y-53322600D02*
X74383900Y-52666900D01*
D13*
X88404700Y-44424600D02*
X88404700Y-46812200D01*
X88404700Y-46812200D02*
X90081100Y-48488600D01*
X90081100Y-48488600D02*
X90081100Y-55083900D01*
X90081100Y-55083900D02*
X88023700Y-57141300D01*
X88023700Y-57141300D02*
X88023700Y-58407300D01*
X74495101Y-45564501D02*
X75095100Y-46164500D01*
X74295000Y-43846500D02*
X74295000Y-45364400D01*
X74295000Y-45364400D02*
X74495101Y-45564501D01*
X89598500Y-60490100D02*
X89598500Y-61201300D01*
X88023700Y-58407300D02*
X88023700Y-58915300D01*
X88023700Y-58915300D02*
X89598500Y-60490100D01*
X73736200Y-48145700D02*
X73736200Y-44405300D01*
X73736200Y-44405300D02*
X74295000Y-43846500D01*
X73736200Y-48145700D02*
X73736200Y-52019200D01*
X77530600Y-33891200D02*
X77530600Y-37912482D01*
X77530600Y-37912482D02*
X78416618Y-38798500D01*
X78416618Y-38798500D02*
X84883008Y-38798500D01*
X84883008Y-38798500D02*
X86296500Y-38798500D01*
D44*
X63233300Y-62934600D02*
X63233300Y-66795900D01*
X63233300Y-66795900D02*
X63531500Y-67094100D01*
D43*
X65510300Y-65265300D02*
X65523000Y-65278000D01*
X65523000Y-65278000D02*
X67449700Y-65278000D01*
X63531500Y-67094100D02*
X63681500Y-67094100D01*
X63681500Y-67094100D02*
X65510300Y-65265300D01*
X67449700Y-65278000D02*
X67449700Y-64078000D01*
X67449700Y-64078000D02*
X67643500Y-63884200D01*
X71389600Y-63884200D02*
X67643500Y-63884200D01*
D44*
X59512200Y-64131700D02*
X59512200Y-67074800D01*
X59512200Y-67074800D02*
X59531500Y-67094100D01*
X67449700Y-71778000D02*
X63650000Y-71778000D01*
X63650000Y-71778000D02*
X59531500Y-67659500D01*
X59531500Y-67659500D02*
X59531500Y-67094100D01*
D43*
X67449700Y-71778000D02*
X69776200Y-71778000D01*
X69776200Y-71778000D02*
X72039600Y-69514600D01*
X72039600Y-69514600D02*
X72039600Y-64534200D01*
D44*
X70838600Y-59385200D02*
X68910200Y-59385200D01*
X68910200Y-59385200D02*
X67589400Y-58064400D01*
X71389600Y-59384200D02*
X70839600Y-59384200D01*
X70839600Y-59384200D02*
X70838600Y-59385200D01*
X68776731Y-58119807D02*
X67589400Y-56932476D01*
X68776731Y-58413531D02*
X68776731Y-58119807D01*
X71389600Y-58884200D02*
X69247400Y-58884200D01*
X67589400Y-56932476D02*
X67589400Y-56565800D01*
X69247400Y-58884200D02*
X68776731Y-58413531D01*
D43*
X63741300Y-36149200D02*
X63741300Y-35499150D01*
X63741300Y-35499150D02*
X64287400Y-34953050D01*
X64287400Y-34953050D02*
X64287400Y-31356300D01*
X64287400Y-31356300D02*
X63639700Y-30708600D01*
X63639700Y-30708600D02*
X59296300Y-30708600D01*
X59296300Y-30708600D02*
X58775600Y-31229300D01*
X58775600Y-31229300D02*
X58775600Y-38811200D01*
D11*
G36*
X91357683Y-103397652D02*
X56685566Y-103410048D01*
X56640198Y-59055000D01*
X56827800Y-59055000D01*
X56827800Y-68556972D01*
X56858014Y-68708868D01*
X56865860Y-68748314D01*
X56974247Y-68910525D01*
X57826744Y-69763022D01*
X57619318Y-69970086D01*
X57470570Y-70328310D01*
X57470231Y-70716189D01*
X57618354Y-71074671D01*
X57892386Y-71349182D01*
X58250610Y-71497930D01*
X58638489Y-71498269D01*
X58996971Y-71350146D01*
X59271482Y-71076114D01*
X59420230Y-70717890D01*
X59420569Y-70330011D01*
X59272446Y-69971529D01*
X58998414Y-69697018D01*
X58945400Y-69675005D01*
X58945400Y-69674572D01*
X58907340Y-69483230D01*
X58798953Y-69321019D01*
X57827800Y-68349866D01*
X57827800Y-59262106D01*
X59336897Y-57753010D01*
X63254794Y-57753010D01*
X67739537Y-62237754D01*
X67826161Y-62295634D01*
X67901748Y-62346140D01*
X68093090Y-62384200D01*
X67714107Y-62384200D01*
X64361553Y-59031647D01*
X64199342Y-58923260D01*
X64008000Y-58885200D01*
X61186055Y-58885200D01*
X61164746Y-58833629D01*
X60890714Y-58559118D01*
X60532490Y-58410370D01*
X60144611Y-58410031D01*
X59786129Y-58558154D01*
X59511618Y-58832186D01*
X59362870Y-59190410D01*
X59362531Y-59578289D01*
X59510654Y-59936771D01*
X59784686Y-60211282D01*
X60142910Y-60360030D01*
X60530789Y-60360369D01*
X60889271Y-60212246D01*
X61163782Y-59938214D01*
X61185795Y-59885200D01*
X63800894Y-59885200D01*
X67153446Y-63237753D01*
X67232226Y-63290392D01*
X67315658Y-63346140D01*
X67507000Y-63384200D01*
X67643500Y-63384200D01*
X67452158Y-63422260D01*
X67429051Y-63437700D01*
X64240018Y-63437700D01*
X64240646Y-63434600D01*
X64240646Y-62434600D01*
X64214755Y-62297002D01*
X64209998Y-61569110D01*
X64205416Y-61543782D01*
X64189824Y-61518420D01*
X64165592Y-61501123D01*
X64136541Y-61494616D01*
X62282341Y-61456516D01*
X62244741Y-61465737D01*
X62221996Y-61484948D01*
X62208518Y-61511493D01*
X61829880Y-62879474D01*
X60629438Y-62891600D01*
X58153300Y-62891600D01*
X58125882Y-62896791D01*
X58100882Y-62912959D01*
X58084143Y-62937578D01*
X58078300Y-62966771D01*
X58091000Y-68542071D01*
X58103808Y-68583819D01*
X58125017Y-68604712D01*
X62959037Y-71758788D01*
X63314122Y-72113873D01*
X63314124Y-72113876D01*
X63417092Y-72182677D01*
X63468226Y-72216844D01*
X63650000Y-72253001D01*
X63650005Y-72253000D01*
X63716479Y-72253000D01*
X65485297Y-73407109D01*
X65525770Y-73419295D01*
X69259570Y-73444695D01*
X69294389Y-73436389D01*
X69317633Y-73417787D01*
X69486658Y-73215500D01*
X71514900Y-73215500D01*
X71514900Y-74993500D01*
X71520029Y-75020759D01*
X71536139Y-75045795D01*
X71560721Y-75062591D01*
X71589900Y-75068500D01*
X71736654Y-75068500D01*
X71736654Y-76090000D01*
X71762802Y-76228966D01*
X71844931Y-76356599D01*
X71970246Y-76442223D01*
X72119000Y-76472346D01*
X73169000Y-76472346D01*
X73307966Y-76446198D01*
X73435599Y-76364069D01*
X73521223Y-76238754D01*
X73551346Y-76090000D01*
X73551346Y-75118918D01*
X73734194Y-75194843D01*
X74092236Y-75195156D01*
X74398767Y-75068500D01*
X74699925Y-75068500D01*
X75004194Y-75194843D01*
X75362236Y-75195156D01*
X75668767Y-75068500D01*
X75685659Y-75068500D01*
X75554157Y-75385194D01*
X75553844Y-75743236D01*
X75690572Y-76074143D01*
X75943525Y-76327538D01*
X76274194Y-76464843D01*
X76632236Y-76465156D01*
X76963143Y-76328428D01*
X77216538Y-76075475D01*
X77353843Y-75744806D01*
X77354156Y-75386764D01*
X77222652Y-75068500D01*
X77239925Y-75068500D01*
X77544194Y-75194843D01*
X77902236Y-75195156D01*
X78208767Y-75068500D01*
X78740000Y-75068500D01*
X78767259Y-75063371D01*
X78792295Y-75047261D01*
X78809091Y-75022679D01*
X78815000Y-74993500D01*
X78815000Y-73228200D01*
X78809919Y-73201065D01*
X78793853Y-73176000D01*
X78769302Y-73159161D01*
X78740133Y-73153200D01*
X71590033Y-73140500D01*
X71562641Y-73145629D01*
X71537605Y-73161739D01*
X71520809Y-73186321D01*
X71514900Y-73215500D01*
X69486658Y-73215500D01*
X71726906Y-70534400D01*
X72390000Y-69871306D01*
X72859848Y-70341155D01*
X72957087Y-70406127D01*
X73022059Y-70449541D01*
X73213401Y-70487601D01*
X77183801Y-70487601D01*
X77183801Y-70947658D01*
X77012068Y-71018617D01*
X76737557Y-71292649D01*
X76588809Y-71650873D01*
X76588470Y-72038752D01*
X76736593Y-72397234D01*
X77010625Y-72671745D01*
X77368849Y-72820493D01*
X77756728Y-72820832D01*
X78115210Y-72672709D01*
X78389721Y-72398677D01*
X78538469Y-72040453D01*
X78538808Y-71652574D01*
X78466380Y-71477286D01*
X79306800Y-72317706D01*
X79306800Y-77609700D01*
X79338705Y-77770100D01*
X79344860Y-77801042D01*
X79453247Y-77963253D01*
X79927147Y-78437154D01*
X78537700Y-78437154D01*
X78398734Y-78463302D01*
X78271101Y-78545431D01*
X78185477Y-78670746D01*
X78167261Y-78760700D01*
X74838555Y-78760700D01*
X74817246Y-78709129D01*
X74543214Y-78434618D01*
X74184990Y-78285870D01*
X73797111Y-78285531D01*
X73438629Y-78433654D01*
X73164118Y-78707686D01*
X73015370Y-79065910D01*
X73015031Y-79453789D01*
X73034237Y-79500270D01*
X73023948Y-79507145D01*
X71998348Y-80532746D01*
X71998347Y-80532747D01*
X71889960Y-80694958D01*
X71851900Y-80886300D01*
X71851900Y-84463654D01*
X71712934Y-84489802D01*
X71585301Y-84571931D01*
X71499677Y-84697246D01*
X71469554Y-84846000D01*
X71469554Y-86096000D01*
X71495702Y-86234966D01*
X71577831Y-86362599D01*
X71703146Y-86448223D01*
X71851900Y-86478346D01*
X71890000Y-86478346D01*
X71890000Y-88470533D01*
X71871034Y-88474102D01*
X71743401Y-88556231D01*
X71657777Y-88681546D01*
X71627654Y-88830300D01*
X71627654Y-91230300D01*
X71653802Y-91369266D01*
X71735931Y-91496899D01*
X71861246Y-91582523D01*
X72010000Y-91612646D01*
X72770000Y-91612646D01*
X72908966Y-91586498D01*
X73036599Y-91504369D01*
X73122223Y-91379054D01*
X73152346Y-91230300D01*
X73152346Y-88830300D01*
X73126198Y-88691334D01*
X73044069Y-88563701D01*
X72918754Y-88478077D01*
X72890000Y-88472254D01*
X72890000Y-86471177D01*
X72990866Y-86452198D01*
X73118499Y-86370069D01*
X73204123Y-86244754D01*
X73234246Y-86096000D01*
X73234246Y-84846000D01*
X73208098Y-84707034D01*
X73125969Y-84579401D01*
X73000654Y-84493777D01*
X72851900Y-84463654D01*
X72851900Y-81093406D01*
X73705483Y-80239824D01*
X73743754Y-80214252D01*
X73743875Y-80214131D01*
X73795410Y-80235530D01*
X74183289Y-80235869D01*
X74541771Y-80087746D01*
X74816282Y-79813714D01*
X74838295Y-79760700D01*
X78155354Y-79760700D01*
X78155354Y-80819500D01*
X78181502Y-80958466D01*
X78263631Y-81086099D01*
X78388946Y-81171723D01*
X78537700Y-81201846D01*
X80237700Y-81201846D01*
X80376666Y-81175698D01*
X80504299Y-81093569D01*
X80589923Y-80968254D01*
X80620046Y-80819500D01*
X80620046Y-79760700D01*
X82545030Y-79760700D01*
X82527669Y-79802509D01*
X82527417Y-80091281D01*
X82230232Y-80091021D01*
X81871750Y-80239144D01*
X81597239Y-80513176D01*
X81448491Y-80871400D01*
X81448152Y-81259279D01*
X81596275Y-81617761D01*
X81870307Y-81892272D01*
X82228531Y-82041020D01*
X82616410Y-82041359D01*
X82974892Y-81893236D01*
X83249403Y-81619204D01*
X83255097Y-81605491D01*
X83717926Y-81627058D01*
X83729613Y-81625294D01*
X83741200Y-81627599D01*
X83825656Y-81610800D01*
X83910833Y-81597946D01*
X83920954Y-81591845D01*
X83932542Y-81589540D01*
X84004148Y-81541694D01*
X84075026Y-81498967D01*
X83282694Y-82291300D01*
X81880807Y-82291300D01*
X81227153Y-81637647D01*
X81064942Y-81529260D01*
X80873600Y-81491200D01*
X75082400Y-81491200D01*
X74891058Y-81529260D01*
X74728846Y-81637647D01*
X74424047Y-81942447D01*
X74315660Y-82104658D01*
X74277600Y-82296000D01*
X74277600Y-87147400D01*
X74295103Y-87235393D01*
X74315660Y-87338742D01*
X74424047Y-87500953D01*
X75153900Y-88230807D01*
X75153900Y-90765490D01*
X75191960Y-90956832D01*
X75300347Y-91119043D01*
X77562356Y-93381053D01*
X77676397Y-93457253D01*
X77724568Y-93489440D01*
X77915910Y-93527500D01*
X78722600Y-93527500D01*
X78722600Y-95216676D01*
X78702001Y-95229931D01*
X78616377Y-95355246D01*
X78587649Y-95497109D01*
X78562798Y-95365034D01*
X78480669Y-95237401D01*
X78355354Y-95151777D01*
X78206600Y-95121654D01*
X77698600Y-95121654D01*
X77559634Y-95147802D01*
X77432001Y-95229931D01*
X77346377Y-95355246D01*
X77316254Y-95504000D01*
X77316254Y-95575500D01*
X76517500Y-95575500D01*
X76326158Y-95613560D01*
X76163947Y-95721947D01*
X75744847Y-96141047D01*
X75636460Y-96303258D01*
X75598400Y-96494600D01*
X75598400Y-97277300D01*
X73875600Y-97277300D01*
X73875600Y-96972200D01*
X73837540Y-96780858D01*
X73774119Y-96685942D01*
X73729154Y-96618647D01*
X73619853Y-96509347D01*
X73457642Y-96400960D01*
X73266300Y-96362900D01*
X72940007Y-96362900D01*
X72890000Y-96312894D01*
X72890000Y-95590067D01*
X72908966Y-95586498D01*
X73036599Y-95504369D01*
X73122223Y-95379054D01*
X73152346Y-95230300D01*
X73152346Y-92830300D01*
X73126198Y-92691334D01*
X73044069Y-92563701D01*
X72918754Y-92478077D01*
X72770000Y-92447954D01*
X72010000Y-92447954D01*
X71871034Y-92474102D01*
X71753565Y-92549691D01*
X71648754Y-92478077D01*
X71500000Y-92447954D01*
X70740000Y-92447954D01*
X70601034Y-92474102D01*
X70483565Y-92549691D01*
X70378754Y-92478077D01*
X70230000Y-92447954D01*
X69470000Y-92447954D01*
X69331034Y-92474102D01*
X69213565Y-92549691D01*
X69108754Y-92478077D01*
X68960000Y-92447954D01*
X68200000Y-92447954D01*
X68061034Y-92474102D01*
X67943565Y-92549691D01*
X67838754Y-92478077D01*
X67690000Y-92447954D01*
X66930000Y-92447954D01*
X66791034Y-92474102D01*
X66663401Y-92556231D01*
X66577777Y-92681546D01*
X66547654Y-92830300D01*
X66547654Y-93530300D01*
X64252707Y-93530300D01*
X63784100Y-93061694D01*
X63784100Y-90256355D01*
X63835671Y-90235046D01*
X64110182Y-89961014D01*
X64258930Y-89602790D01*
X64259269Y-89214911D01*
X64111146Y-88856429D01*
X63837114Y-88581918D01*
X63478890Y-88433170D01*
X63091011Y-88432831D01*
X62732529Y-88580954D01*
X62458018Y-88854986D01*
X62309270Y-89213210D01*
X62308931Y-89601089D01*
X62457054Y-89959571D01*
X62731086Y-90234082D01*
X62784100Y-90256095D01*
X62784100Y-93268800D01*
X62821585Y-93457253D01*
X62822160Y-93460142D01*
X62930547Y-93622353D01*
X63692047Y-94383854D01*
X63789286Y-94448826D01*
X63854258Y-94492240D01*
X64045600Y-94530300D01*
X66547654Y-94530300D01*
X66547654Y-95230300D01*
X66573802Y-95369266D01*
X66655931Y-95496899D01*
X66781246Y-95582523D01*
X66930000Y-95612646D01*
X67690000Y-95612646D01*
X67828966Y-95586498D01*
X67946435Y-95510909D01*
X68051246Y-95582523D01*
X68080000Y-95588346D01*
X68080000Y-97252694D01*
X67725194Y-97607500D01*
X61802106Y-97607500D01*
X59466100Y-95271494D01*
X59466100Y-80137000D01*
X59535930Y-80137000D01*
X59621802Y-80568709D01*
X59866346Y-80934694D01*
X60232331Y-81179238D01*
X60664040Y-81265110D01*
X60955300Y-81265110D01*
X60955300Y-81548890D01*
X60664040Y-81548890D01*
X60232331Y-81634762D01*
X59866346Y-81879306D01*
X59621802Y-82245291D01*
X59535930Y-82677000D01*
X59621802Y-83108709D01*
X59866346Y-83474694D01*
X60232331Y-83719238D01*
X60664040Y-83805110D01*
X62246560Y-83805110D01*
X62678269Y-83719238D01*
X63044254Y-83474694D01*
X63243167Y-83177000D01*
X65368074Y-83177000D01*
X68080000Y-85888927D01*
X68080000Y-88470533D01*
X68061034Y-88474102D01*
X67943565Y-88549691D01*
X67838754Y-88478077D01*
X67690000Y-88447954D01*
X66930000Y-88447954D01*
X66791034Y-88474102D01*
X66663401Y-88556231D01*
X66577777Y-88681546D01*
X66547654Y-88830300D01*
X66547654Y-91230300D01*
X66573802Y-91369266D01*
X66655931Y-91496899D01*
X66781246Y-91582523D01*
X66930000Y-91612646D01*
X67690000Y-91612646D01*
X67828966Y-91586498D01*
X67946435Y-91510909D01*
X68051246Y-91582523D01*
X68200000Y-91612646D01*
X68960000Y-91612646D01*
X69098966Y-91586498D01*
X69226599Y-91504369D01*
X69312223Y-91379054D01*
X69342346Y-91230300D01*
X69342346Y-88830300D01*
X69316198Y-88691334D01*
X69234069Y-88563701D01*
X69108754Y-88478077D01*
X69080000Y-88472254D01*
X69080000Y-85681820D01*
X69041940Y-85490478D01*
X69028925Y-85471000D01*
X68933553Y-85328266D01*
X65954133Y-82348847D01*
X65928733Y-82323447D01*
X65766522Y-82215060D01*
X65575180Y-82177000D01*
X63243167Y-82177000D01*
X63044254Y-81879306D01*
X62678269Y-81634762D01*
X62246560Y-81548890D01*
X61955300Y-81548890D01*
X61955300Y-81265110D01*
X62246560Y-81265110D01*
X62678269Y-81179238D01*
X63044254Y-80934694D01*
X63288798Y-80568709D01*
X63374670Y-80137000D01*
X63288798Y-79705291D01*
X63044254Y-79339306D01*
X62678269Y-79094762D01*
X62246560Y-79008890D01*
X60664040Y-79008890D01*
X60232331Y-79094762D01*
X59866346Y-79339306D01*
X59621802Y-79705291D01*
X59535930Y-80137000D01*
X59466100Y-80137000D01*
X59466100Y-76978606D01*
X59578997Y-76865709D01*
X59752046Y-77124694D01*
X60118031Y-77369238D01*
X60549740Y-77455110D01*
X62132260Y-77455110D01*
X62563969Y-77369238D01*
X62929954Y-77124694D01*
X63174498Y-76758709D01*
X63260370Y-76327000D01*
X63174498Y-75895291D01*
X62929954Y-75529306D01*
X62563969Y-75284762D01*
X62132260Y-75198890D01*
X61841000Y-75198890D01*
X61841000Y-74915110D01*
X62132260Y-74915110D01*
X62452654Y-74851380D01*
X69223170Y-81621897D01*
X69315054Y-81844271D01*
X69589086Y-82118782D01*
X69947310Y-82267530D01*
X70335189Y-82267869D01*
X70693671Y-82119746D01*
X70968182Y-81845714D01*
X71116930Y-81487490D01*
X71117269Y-81099611D01*
X70969146Y-80741129D01*
X70695114Y-80466618D01*
X70336890Y-80317870D01*
X69949011Y-80317531D01*
X69590529Y-80465654D01*
X69535787Y-80520300D01*
X63184402Y-74168916D01*
X63260370Y-73787000D01*
X63174498Y-73355291D01*
X62929954Y-72989306D01*
X62563969Y-72744762D01*
X62132260Y-72658890D01*
X60549740Y-72658890D01*
X60118031Y-72744762D01*
X59752046Y-72989306D01*
X59507502Y-73355291D01*
X59421630Y-73787000D01*
X59507502Y-74218709D01*
X59752046Y-74584694D01*
X60118031Y-74829238D01*
X60549740Y-74915110D01*
X60841000Y-74915110D01*
X60841000Y-75198890D01*
X60549740Y-75198890D01*
X60118031Y-75284762D01*
X59752046Y-75529306D01*
X59553133Y-75827000D01*
X59410600Y-75827000D01*
X59219258Y-75865060D01*
X59057047Y-75973447D01*
X58612547Y-76417947D01*
X58504160Y-76580158D01*
X58466100Y-76771500D01*
X58466100Y-95478600D01*
X58492945Y-95613560D01*
X58504160Y-95669942D01*
X58612547Y-95832153D01*
X61241447Y-98461053D01*
X61403658Y-98569440D01*
X61595000Y-98607500D01*
X67932300Y-98607500D01*
X68123642Y-98569440D01*
X68285853Y-98461053D01*
X68892800Y-97854106D01*
X68892800Y-101409500D01*
X68921523Y-101553899D01*
X68930860Y-101600842D01*
X69039247Y-101763053D01*
X69877447Y-102601254D01*
X70039658Y-102709640D01*
X70231000Y-102747700D01*
X84950300Y-102747700D01*
X85141642Y-102709640D01*
X85303853Y-102601253D01*
X88618554Y-99286553D01*
X88683526Y-99189314D01*
X88726940Y-99124342D01*
X88765000Y-98933000D01*
X88765000Y-88557100D01*
X88726940Y-88365758D01*
X88618553Y-88203547D01*
X87296846Y-86881840D01*
X87134635Y-86773453D01*
X86943293Y-86735393D01*
X82980238Y-86735393D01*
X82958929Y-86683822D01*
X82684897Y-86409311D01*
X82326673Y-86260563D01*
X81938794Y-86260224D01*
X81580312Y-86408347D01*
X81305801Y-86682379D01*
X81157053Y-87040603D01*
X81156714Y-87428482D01*
X81304837Y-87786964D01*
X81578869Y-88061475D01*
X81937093Y-88210223D01*
X82324972Y-88210562D01*
X82683454Y-88062439D01*
X82957965Y-87788407D01*
X82979978Y-87735393D01*
X86736187Y-87735393D01*
X87765000Y-88764206D01*
X87765000Y-98725893D01*
X84743194Y-101747700D01*
X70438107Y-101747700D01*
X69892800Y-101202394D01*
X69892800Y-100305046D01*
X71839200Y-100305046D01*
X71839200Y-100507800D01*
X71877260Y-100699142D01*
X71985647Y-100861353D01*
X72531747Y-101407453D01*
X72693958Y-101515840D01*
X72885300Y-101553900D01*
X77152500Y-101553900D01*
X77343842Y-101515840D01*
X77506053Y-101407453D01*
X77963253Y-100950254D01*
X78071640Y-100788042D01*
X78089323Y-100699142D01*
X78109700Y-100596700D01*
X78109700Y-100302055D01*
X78161271Y-100280746D01*
X78435782Y-100006714D01*
X78584530Y-99648490D01*
X78584869Y-99260611D01*
X78436746Y-98902129D01*
X78162714Y-98627618D01*
X77804490Y-98478870D01*
X77416611Y-98478531D01*
X77058129Y-98626654D01*
X76783618Y-98900686D01*
X76634870Y-99258910D01*
X76634531Y-99646789D01*
X76782654Y-100005271D01*
X77056686Y-100279782D01*
X77109700Y-100301795D01*
X77109700Y-100389593D01*
X76945394Y-100553900D01*
X73092406Y-100553900D01*
X72839200Y-100300694D01*
X72839200Y-99289300D01*
X72801140Y-99097958D01*
X72730180Y-98991760D01*
X72692754Y-98935747D01*
X72476153Y-98719147D01*
X72313942Y-98610760D01*
X72254946Y-98599025D01*
X72254946Y-98222700D01*
X72228798Y-98083734D01*
X72146669Y-97956101D01*
X72021354Y-97870477D01*
X71872600Y-97840354D01*
X69892800Y-97840354D01*
X69892800Y-97565306D01*
X70031707Y-97426400D01*
X71018400Y-97426400D01*
X71209742Y-97388340D01*
X71371953Y-97279953D01*
X71473553Y-97178353D01*
X71581940Y-97016142D01*
X71588743Y-96981940D01*
X71620000Y-96824800D01*
X71620000Y-95590067D01*
X71638966Y-95586498D01*
X71756435Y-95510909D01*
X71861246Y-95582523D01*
X71890000Y-95588346D01*
X71890000Y-96520000D01*
X71901040Y-96575500D01*
X71928060Y-96711342D01*
X72036447Y-96873553D01*
X72379347Y-97216454D01*
X72527370Y-97315360D01*
X72541558Y-97324840D01*
X72732900Y-97362900D01*
X72875600Y-97362900D01*
X72875600Y-97599500D01*
X72906321Y-97753947D01*
X72913660Y-97790842D01*
X73022047Y-97953053D01*
X73199846Y-98130853D01*
X73249517Y-98164042D01*
X73362058Y-98239240D01*
X73490254Y-98264740D01*
X73490254Y-99922700D01*
X73516402Y-100061666D01*
X73598531Y-100189299D01*
X73723846Y-100274923D01*
X73872600Y-100305046D01*
X75872600Y-100305046D01*
X76011566Y-100278898D01*
X76139199Y-100196769D01*
X76224823Y-100071454D01*
X76254946Y-99922700D01*
X76254946Y-98246161D01*
X76289742Y-98239240D01*
X76451953Y-98130853D01*
X76560340Y-97968642D01*
X76598400Y-97777300D01*
X76598400Y-96701706D01*
X76724606Y-96575500D01*
X77316254Y-96575500D01*
X77316254Y-96647000D01*
X77342402Y-96785966D01*
X77424531Y-96913599D01*
X77549846Y-96999223D01*
X77698600Y-97029346D01*
X78206600Y-97029346D01*
X78345566Y-97003198D01*
X78473199Y-96921069D01*
X78558823Y-96795754D01*
X78587551Y-96653891D01*
X78612402Y-96785966D01*
X78694531Y-96913599D01*
X78819846Y-96999223D01*
X78968600Y-97029346D01*
X79476600Y-97029346D01*
X79615566Y-97003198D01*
X79743199Y-96921069D01*
X79828823Y-96795754D01*
X79857551Y-96653891D01*
X79882402Y-96785966D01*
X79964531Y-96913599D01*
X80089846Y-96999223D01*
X80238600Y-97029346D01*
X80746600Y-97029346D01*
X80885566Y-97003198D01*
X81013199Y-96921069D01*
X81098823Y-96795754D01*
X81127551Y-96653891D01*
X81152402Y-96785966D01*
X81234531Y-96913599D01*
X81359846Y-96999223D01*
X81508600Y-97029346D01*
X82016600Y-97029346D01*
X82155566Y-97003198D01*
X82283199Y-96921069D01*
X82368823Y-96795754D01*
X82397551Y-96653891D01*
X82422402Y-96785966D01*
X82504531Y-96913599D01*
X82629846Y-96999223D01*
X82778600Y-97029346D01*
X83286600Y-97029346D01*
X83425566Y-97003198D01*
X83553199Y-96921069D01*
X83638823Y-96795754D01*
X83667551Y-96653891D01*
X83692402Y-96785966D01*
X83774531Y-96913599D01*
X83899846Y-96999223D01*
X84048600Y-97029346D01*
X84556600Y-97029346D01*
X84695566Y-97003198D01*
X84823199Y-96921069D01*
X84908823Y-96795754D01*
X84937551Y-96653891D01*
X84962402Y-96785966D01*
X85044531Y-96913599D01*
X85169846Y-96999223D01*
X85318600Y-97029346D01*
X85826600Y-97029346D01*
X85965566Y-97003198D01*
X86093199Y-96921069D01*
X86178823Y-96795754D01*
X86208946Y-96647000D01*
X86208946Y-95504000D01*
X86182798Y-95365034D01*
X86100669Y-95237401D01*
X85975354Y-95151777D01*
X85826600Y-95121654D01*
X85318600Y-95121654D01*
X85179634Y-95147802D01*
X85052001Y-95229931D01*
X84966377Y-95355246D01*
X84937649Y-95497109D01*
X84912798Y-95365034D01*
X84830669Y-95237401D01*
X84705354Y-95151777D01*
X84556600Y-95121654D01*
X84048600Y-95121654D01*
X83909634Y-95147802D01*
X83782001Y-95229931D01*
X83696377Y-95355246D01*
X83667649Y-95497109D01*
X83642798Y-95365034D01*
X83560669Y-95237401D01*
X83435354Y-95151777D01*
X83286600Y-95121654D01*
X82778600Y-95121654D01*
X82639634Y-95147802D01*
X82512001Y-95229931D01*
X82426377Y-95355246D01*
X82397649Y-95497109D01*
X82372798Y-95365034D01*
X82290669Y-95237401D01*
X82165354Y-95151777D01*
X82016600Y-95121654D01*
X81508600Y-95121654D01*
X81369634Y-95147802D01*
X81242001Y-95229931D01*
X81156377Y-95355246D01*
X81127649Y-95497109D01*
X81102798Y-95365034D01*
X81020669Y-95237401D01*
X80992600Y-95218222D01*
X80992600Y-92811600D01*
X80954540Y-92620258D01*
X80917992Y-92565560D01*
X80846153Y-92458046D01*
X80541701Y-92153595D01*
X80490553Y-92077047D01*
X80328342Y-91968660D01*
X80137000Y-91930600D01*
X78286707Y-91930600D01*
X76712700Y-90356594D01*
X76712700Y-89154000D01*
X78586254Y-89154000D01*
X78586254Y-90297000D01*
X78612402Y-90435966D01*
X78694531Y-90563599D01*
X78819846Y-90649223D01*
X78968600Y-90679346D01*
X79476600Y-90679346D01*
X79615566Y-90653198D01*
X79743199Y-90571069D01*
X79828823Y-90445754D01*
X79857551Y-90303891D01*
X79882402Y-90435966D01*
X79964531Y-90563599D01*
X80089846Y-90649223D01*
X80238600Y-90679346D01*
X80746600Y-90679346D01*
X80885566Y-90653198D01*
X81013199Y-90571069D01*
X81098823Y-90445754D01*
X81127551Y-90303891D01*
X81152402Y-90435966D01*
X81234531Y-90563599D01*
X81359846Y-90649223D01*
X81508600Y-90679346D01*
X82016600Y-90679346D01*
X82155566Y-90653198D01*
X82283199Y-90571069D01*
X82368823Y-90445754D01*
X82397551Y-90303891D01*
X82422402Y-90435966D01*
X82504531Y-90563599D01*
X82629846Y-90649223D01*
X82778600Y-90679346D01*
X83286600Y-90679346D01*
X83425566Y-90653198D01*
X83553199Y-90571069D01*
X83638823Y-90445754D01*
X83667551Y-90303891D01*
X83692402Y-90435966D01*
X83774531Y-90563599D01*
X83899846Y-90649223D01*
X84048600Y-90679346D01*
X84556600Y-90679346D01*
X84695566Y-90653198D01*
X84823199Y-90571069D01*
X84908823Y-90445754D01*
X84937551Y-90303891D01*
X84962402Y-90435966D01*
X85044531Y-90563599D01*
X85169846Y-90649223D01*
X85318600Y-90679346D01*
X85826600Y-90679346D01*
X85965566Y-90653198D01*
X86093199Y-90571069D01*
X86178823Y-90445754D01*
X86208946Y-90297000D01*
X86208946Y-89154000D01*
X86182798Y-89015034D01*
X86100669Y-88887401D01*
X85975354Y-88801777D01*
X85826600Y-88771654D01*
X85318600Y-88771654D01*
X85179634Y-88797802D01*
X85052001Y-88879931D01*
X84966377Y-89005246D01*
X84937649Y-89147109D01*
X84912798Y-89015034D01*
X84830669Y-88887401D01*
X84705354Y-88801777D01*
X84556600Y-88771654D01*
X84048600Y-88771654D01*
X83909634Y-88797802D01*
X83782001Y-88879931D01*
X83696377Y-89005246D01*
X83667649Y-89147109D01*
X83642798Y-89015034D01*
X83560669Y-88887401D01*
X83435354Y-88801777D01*
X83286600Y-88771654D01*
X82778600Y-88771654D01*
X82639634Y-88797802D01*
X82512001Y-88879931D01*
X82426377Y-89005246D01*
X82397649Y-89147109D01*
X82372798Y-89015034D01*
X82290669Y-88887401D01*
X82165354Y-88801777D01*
X82016600Y-88771654D01*
X81508600Y-88771654D01*
X81369634Y-88797802D01*
X81242001Y-88879931D01*
X81156377Y-89005246D01*
X81127649Y-89147109D01*
X81102798Y-89015034D01*
X81020669Y-88887401D01*
X80895354Y-88801777D01*
X80746600Y-88771654D01*
X80238600Y-88771654D01*
X80099634Y-88797802D01*
X79972001Y-88879931D01*
X79886377Y-89005246D01*
X79857649Y-89147109D01*
X79832798Y-89015034D01*
X79750669Y-88887401D01*
X79625354Y-88801777D01*
X79476600Y-88771654D01*
X78968600Y-88771654D01*
X78829634Y-88797802D01*
X78702001Y-88879931D01*
X78616377Y-89005246D01*
X78586254Y-89154000D01*
X76712700Y-89154000D01*
X76712700Y-87553800D01*
X76674640Y-87362458D01*
X76658793Y-87338742D01*
X76566254Y-87200247D01*
X76011101Y-86645095D01*
X76011101Y-84248757D01*
X76367689Y-84249069D01*
X76726171Y-84100946D01*
X77000682Y-83826914D01*
X77149430Y-83468690D01*
X77149769Y-83080811D01*
X77001646Y-82722329D01*
X76770920Y-82491200D01*
X78355379Y-82491200D01*
X78271101Y-82545431D01*
X78185477Y-82670746D01*
X78155354Y-82819500D01*
X78155354Y-84819500D01*
X78181502Y-84958466D01*
X78263631Y-85086099D01*
X78388946Y-85171723D01*
X78537700Y-85201846D01*
X80069045Y-85201846D01*
X80212858Y-85297940D01*
X80404200Y-85336000D01*
X81842454Y-85336000D01*
X81842454Y-85686000D01*
X81868602Y-85824966D01*
X81950731Y-85952599D01*
X82076046Y-86038223D01*
X82224800Y-86068346D01*
X83124800Y-86068346D01*
X83263766Y-86042198D01*
X83391399Y-85960069D01*
X83477023Y-85834754D01*
X83507146Y-85686000D01*
X83507146Y-83986000D01*
X83480998Y-83847034D01*
X83398869Y-83719401D01*
X83273554Y-83633777D01*
X83124800Y-83603654D01*
X82224800Y-83603654D01*
X82085834Y-83629802D01*
X81958201Y-83711931D01*
X81872577Y-83837246D01*
X81842454Y-83986000D01*
X81842454Y-84336000D01*
X80620046Y-84336000D01*
X80620046Y-82819500D01*
X80593898Y-82680534D01*
X80511769Y-82552901D01*
X80421467Y-82491200D01*
X80666494Y-82491200D01*
X81320146Y-83144853D01*
X81482358Y-83253240D01*
X81673700Y-83291300D01*
X83489800Y-83291300D01*
X83681142Y-83253240D01*
X83843353Y-83144853D01*
X83980400Y-83007806D01*
X83980400Y-84441600D01*
X84007810Y-84579401D01*
X84018460Y-84632942D01*
X84126847Y-84795153D01*
X84521247Y-85189554D01*
X84656097Y-85279658D01*
X84683458Y-85297940D01*
X84742454Y-85309675D01*
X84742454Y-85686000D01*
X84768602Y-85824966D01*
X84850731Y-85952599D01*
X84976046Y-86038223D01*
X85124800Y-86068346D01*
X86024800Y-86068346D01*
X86163766Y-86042198D01*
X86291399Y-85960069D01*
X86377023Y-85834754D01*
X86407146Y-85686000D01*
X86407146Y-83986000D01*
X86380998Y-83847034D01*
X86298869Y-83719401D01*
X86173554Y-83633777D01*
X86024800Y-83603654D01*
X85124800Y-83603654D01*
X84985834Y-83629802D01*
X84980400Y-83633299D01*
X84980400Y-82896807D01*
X85024453Y-82852754D01*
X85024455Y-82852751D01*
X86198364Y-81678842D01*
X86306751Y-81516631D01*
X86344811Y-81325289D01*
X86344811Y-77959932D01*
X86487100Y-77988746D01*
X88087100Y-77988746D01*
X88226066Y-77962598D01*
X88353699Y-77880469D01*
X88439323Y-77755154D01*
X88469446Y-77606400D01*
X88469446Y-77106400D01*
X89001600Y-77106400D01*
X89192942Y-77068340D01*
X89355153Y-76959953D01*
X89555375Y-76759731D01*
X89606910Y-76781130D01*
X89994789Y-76781469D01*
X90353271Y-76633346D01*
X90627782Y-76359314D01*
X90776530Y-76001090D01*
X90776869Y-75613211D01*
X90628746Y-75254729D01*
X90354714Y-74980218D01*
X89996490Y-74831470D01*
X89608611Y-74831131D01*
X89250129Y-74979254D01*
X88975618Y-75253286D01*
X88826870Y-75611510D01*
X88826531Y-75999389D01*
X88848452Y-76052442D01*
X88794494Y-76106400D01*
X88469446Y-76106400D01*
X88469446Y-75606400D01*
X88443298Y-75467434D01*
X88361169Y-75339801D01*
X88235854Y-75254177D01*
X88087100Y-75224054D01*
X87289600Y-75224054D01*
X87289600Y-73625638D01*
X87378566Y-73608898D01*
X87506199Y-73526769D01*
X87591823Y-73401454D01*
X87621946Y-73252700D01*
X87621946Y-71552700D01*
X87595798Y-71413734D01*
X87545800Y-71336034D01*
X87545800Y-70910146D01*
X87670800Y-70910146D01*
X87809766Y-70883998D01*
X87937399Y-70801869D01*
X88023023Y-70676554D01*
X88053146Y-70527800D01*
X88053146Y-69527800D01*
X88026998Y-69388834D01*
X87944869Y-69261201D01*
X87819554Y-69175577D01*
X87670800Y-69145454D01*
X86420800Y-69145454D01*
X86344811Y-69159752D01*
X86344811Y-68890311D01*
X86306751Y-68698969D01*
X86304032Y-68694900D01*
X86198365Y-68536758D01*
X85793200Y-68131594D01*
X85793200Y-67491706D01*
X85970206Y-67314700D01*
X88684100Y-67314700D01*
X88875442Y-67276640D01*
X89037653Y-67168253D01*
X89339800Y-66866106D01*
X89339800Y-68995194D01*
X89336047Y-68998947D01*
X89227660Y-69161158D01*
X89189600Y-69352500D01*
X89189600Y-71179762D01*
X89100634Y-71196502D01*
X88973001Y-71278631D01*
X88887377Y-71403946D01*
X88857254Y-71552700D01*
X88857254Y-73252700D01*
X88883402Y-73391666D01*
X88965531Y-73519299D01*
X89090846Y-73604923D01*
X89239600Y-73635046D01*
X90139600Y-73635046D01*
X90278566Y-73608898D01*
X90406199Y-73526769D01*
X90491823Y-73401454D01*
X90521946Y-73252700D01*
X90521946Y-71552700D01*
X90495798Y-71413734D01*
X90413669Y-71286101D01*
X90288354Y-71200477D01*
X90189600Y-71180479D01*
X90189600Y-69685361D01*
X90193353Y-69682853D01*
X90301740Y-69520642D01*
X90339800Y-69329300D01*
X90339800Y-63881000D01*
X90301740Y-63689658D01*
X90193353Y-63527447D01*
X87221553Y-60555647D01*
X87059342Y-60447260D01*
X86868000Y-60409200D01*
X84894707Y-60409200D01*
X84199877Y-59714371D01*
X84226299Y-59697369D01*
X84311923Y-59572054D01*
X84342046Y-59423300D01*
X84342046Y-57391300D01*
X84315898Y-57252334D01*
X84233769Y-57124701D01*
X84108454Y-57039077D01*
X83959700Y-57008954D01*
X83951700Y-57008954D01*
X83951700Y-53263801D01*
X83913640Y-53072459D01*
X83885604Y-53030500D01*
X83805253Y-52910247D01*
X83097154Y-52202149D01*
X83097152Y-52202146D01*
X83097030Y-52202024D01*
X83118429Y-52150490D01*
X83118768Y-51762611D01*
X82970645Y-51404129D01*
X82696613Y-51129618D01*
X82643599Y-51107605D01*
X82643599Y-47565599D01*
X82605539Y-47374257D01*
X82525253Y-47254101D01*
X82501532Y-47218600D01*
X83336670Y-47218600D01*
X83336670Y-50160150D01*
X83367839Y-50316849D01*
X83380439Y-50380193D01*
X83505084Y-50566736D01*
X84486300Y-51547953D01*
X84427930Y-51841400D01*
X84513802Y-52273109D01*
X84758346Y-52639094D01*
X85124331Y-52883638D01*
X85556040Y-52969510D01*
X85772300Y-52969510D01*
X85772300Y-53253290D01*
X85556040Y-53253290D01*
X85124331Y-53339162D01*
X84758346Y-53583706D01*
X84513802Y-53949691D01*
X84427930Y-54381400D01*
X84513802Y-54813109D01*
X84758346Y-55179094D01*
X85124331Y-55423638D01*
X85556040Y-55509510D01*
X87138560Y-55509510D01*
X87570269Y-55423638D01*
X87936254Y-55179094D01*
X88085054Y-54956400D01*
X88493600Y-54956400D01*
X88713643Y-54912631D01*
X88900186Y-54787986D01*
X89506100Y-54182073D01*
X89506100Y-54845728D01*
X87617114Y-56734714D01*
X87492469Y-56921257D01*
X87473444Y-57016905D01*
X87376734Y-57035102D01*
X87249101Y-57117231D01*
X87163477Y-57242546D01*
X87133354Y-57391300D01*
X87133354Y-59423300D01*
X87159502Y-59562266D01*
X87241631Y-59689899D01*
X87366946Y-59775523D01*
X87515700Y-59805646D01*
X88100874Y-59805646D01*
X88858040Y-60562813D01*
X88772418Y-60648286D01*
X88623670Y-61006510D01*
X88623331Y-61394389D01*
X88771454Y-61752871D01*
X89045486Y-62027382D01*
X89403710Y-62176130D01*
X89791589Y-62176469D01*
X90150071Y-62028346D01*
X90424582Y-61754314D01*
X90573330Y-61396090D01*
X90573669Y-61008211D01*
X90425546Y-60649729D01*
X90151514Y-60375218D01*
X90150571Y-60374826D01*
X90129731Y-60270057D01*
X90005087Y-60083514D01*
X88914046Y-58992474D01*
X88914046Y-57391300D01*
X88887898Y-57252334D01*
X88824446Y-57153726D01*
X90487686Y-55490486D01*
X90612331Y-55303943D01*
X90625325Y-55238618D01*
X90656100Y-55083900D01*
X90656100Y-48488600D01*
X90612331Y-48268557D01*
X90487687Y-48082014D01*
X88979700Y-46574028D01*
X88979700Y-45157693D01*
X89071349Y-45098719D01*
X89156973Y-44973404D01*
X89187096Y-44824650D01*
X89187096Y-44024550D01*
X89160948Y-43885584D01*
X89078819Y-43757951D01*
X88953504Y-43672327D01*
X88804750Y-43642204D01*
X88004650Y-43642204D01*
X87865684Y-43668352D01*
X87738051Y-43750481D01*
X87652427Y-43875796D01*
X87622304Y-44024550D01*
X87622304Y-44824650D01*
X87648452Y-44963616D01*
X87730581Y-45091249D01*
X87829700Y-45158974D01*
X87829700Y-46812200D01*
X87869173Y-47010646D01*
X87873469Y-47032243D01*
X87998114Y-47218786D01*
X89506100Y-48726773D01*
X89506100Y-49513427D01*
X88557286Y-48564614D01*
X88370743Y-48439969D01*
X88150700Y-48396200D01*
X87773840Y-48396200D01*
X87709992Y-48383500D01*
X87546115Y-48383500D01*
X87462415Y-48180931D01*
X87076103Y-47793943D01*
X86571102Y-47584249D01*
X86024296Y-47583772D01*
X85518931Y-47792585D01*
X85131943Y-48178897D01*
X84922249Y-48683898D01*
X84921772Y-49230704D01*
X85130585Y-49736069D01*
X85516897Y-50123057D01*
X86021898Y-50332751D01*
X86568704Y-50333228D01*
X87074069Y-50124415D01*
X87461057Y-49738103D01*
X87546015Y-49533500D01*
X87658844Y-49533500D01*
X87722692Y-49546200D01*
X87912528Y-49546200D01*
X88604400Y-50238073D01*
X88604400Y-53457427D01*
X88255428Y-53806400D01*
X88085054Y-53806400D01*
X87936254Y-53583706D01*
X87570269Y-53339162D01*
X87138560Y-53253290D01*
X86922300Y-53253290D01*
X86922300Y-52969510D01*
X87138560Y-52969510D01*
X87570269Y-52883638D01*
X87936254Y-52639094D01*
X88180798Y-52273109D01*
X88266670Y-51841400D01*
X88180798Y-51409691D01*
X87936254Y-51043706D01*
X87570269Y-50799162D01*
X87138560Y-50713290D01*
X85556040Y-50713290D01*
X85324115Y-50759423D01*
X84486670Y-49921978D01*
X84486670Y-47456772D01*
X85832947Y-46110496D01*
X85856916Y-46126873D01*
X86005670Y-46156996D01*
X86805770Y-46156996D01*
X86944736Y-46130848D01*
X87072369Y-46048719D01*
X87157993Y-45923404D01*
X87188116Y-45774650D01*
X87188116Y-44974550D01*
X87161968Y-44835584D01*
X87079839Y-44707951D01*
X86980720Y-44640226D01*
X86980720Y-44207693D01*
X87072369Y-44148719D01*
X87157993Y-44023404D01*
X87188116Y-43874650D01*
X87188116Y-43074550D01*
X87161968Y-42935584D01*
X87079839Y-42807951D01*
X86954524Y-42722327D01*
X86805770Y-42692204D01*
X86005670Y-42692204D01*
X85866704Y-42718352D01*
X85739071Y-42800481D01*
X85653447Y-42925796D01*
X85623324Y-43074550D01*
X85623324Y-43874650D01*
X85649472Y-44013616D01*
X85731601Y-44141249D01*
X85830720Y-44208974D01*
X85830720Y-44641507D01*
X85739071Y-44700481D01*
X85658083Y-44819011D01*
X85535627Y-44843369D01*
X85349084Y-44968013D01*
X83505084Y-46812014D01*
X83380439Y-46998557D01*
X83336670Y-47218600D01*
X82501532Y-47218600D01*
X82497152Y-47212045D01*
X80340146Y-45055040D01*
X80340146Y-44129800D01*
X80313998Y-43990834D01*
X80231869Y-43863201D01*
X80106554Y-43777577D01*
X79995900Y-43755169D01*
X79995900Y-43323746D01*
X80134866Y-43297598D01*
X80262499Y-43215469D01*
X80348123Y-43090154D01*
X80378246Y-42941400D01*
X80378246Y-41691400D01*
X80352098Y-41552434D01*
X80269969Y-41424801D01*
X80144654Y-41339177D01*
X79995900Y-41309054D01*
X79957800Y-41309054D01*
X79957800Y-40936146D01*
X80096766Y-40909998D01*
X80224399Y-40827869D01*
X80310023Y-40702554D01*
X80340146Y-40553800D01*
X80340146Y-39373500D01*
X85046885Y-39373500D01*
X85130585Y-39576069D01*
X85516897Y-39963057D01*
X86021898Y-40172751D01*
X86568704Y-40173228D01*
X87074069Y-39964415D01*
X87461057Y-39578103D01*
X87670751Y-39073102D01*
X87671228Y-38526296D01*
X87462415Y-38020931D01*
X87076103Y-37633943D01*
X86571102Y-37424249D01*
X86024296Y-37423772D01*
X85518931Y-37632585D01*
X85131943Y-38018897D01*
X85046985Y-38223500D01*
X79904235Y-38223500D01*
X79913556Y-38177470D01*
X79913556Y-36777930D01*
X79887408Y-36638964D01*
X79805279Y-36511331D01*
X79679964Y-36425707D01*
X79531210Y-36395584D01*
X79230600Y-36395584D01*
X79230600Y-34673072D01*
X79501232Y-34492241D01*
X79685489Y-34216481D01*
X79750191Y-33891200D01*
X79723233Y-33755673D01*
X80084154Y-33394753D01*
X80154041Y-33290159D01*
X80192540Y-33232542D01*
X80230600Y-33041200D01*
X80230600Y-32186773D01*
X80349318Y-32107448D01*
X80538995Y-31823578D01*
X80605600Y-31488730D01*
X80605600Y-30893670D01*
X80538995Y-30558822D01*
X80349318Y-30274952D01*
X80065448Y-30085275D01*
X79730600Y-30018670D01*
X79395752Y-30085275D01*
X79111882Y-30274952D01*
X78922205Y-30558822D01*
X78895874Y-30691200D01*
X73565326Y-30691200D01*
X73538995Y-30558822D01*
X73349318Y-30274952D01*
X73065448Y-30085275D01*
X72730600Y-30018670D01*
X72395752Y-30085275D01*
X72111882Y-30274952D01*
X71922205Y-30558822D01*
X71855600Y-30893670D01*
X71855600Y-31488730D01*
X71922205Y-31823578D01*
X72111882Y-32107448D01*
X72230600Y-32186773D01*
X72230600Y-33041200D01*
X72265409Y-33216200D01*
X72268660Y-33232542D01*
X72377047Y-33394753D01*
X72737967Y-33755673D01*
X72711009Y-33891200D01*
X72775711Y-34216481D01*
X72959968Y-34492241D01*
X73235728Y-34676498D01*
X73561009Y-34741200D01*
X73900191Y-34741200D01*
X74225472Y-34676498D01*
X74501232Y-34492241D01*
X74685489Y-34216481D01*
X74750191Y-33891200D01*
X74685489Y-33565919D01*
X74501232Y-33290159D01*
X74225472Y-33105902D01*
X73900191Y-33041200D01*
X73561009Y-33041200D01*
X73458164Y-33061657D01*
X73230600Y-32834094D01*
X73230600Y-32186773D01*
X73349318Y-32107448D01*
X73538995Y-31823578D01*
X73565326Y-31691200D01*
X78895874Y-31691200D01*
X78922205Y-31823578D01*
X79111882Y-32107448D01*
X79230600Y-32186773D01*
X79230600Y-32834093D01*
X79003036Y-33061657D01*
X78900191Y-33041200D01*
X78561009Y-33041200D01*
X78235728Y-33105902D01*
X78108223Y-33191098D01*
X78086798Y-33077234D01*
X78004669Y-32949601D01*
X77879354Y-32863977D01*
X77730600Y-32833854D01*
X77330600Y-32833854D01*
X77201011Y-32858238D01*
X77080600Y-32833854D01*
X76680600Y-32833854D01*
X76551011Y-32858238D01*
X76430600Y-32833854D01*
X76030600Y-32833854D01*
X75901011Y-32858238D01*
X75780600Y-32833854D01*
X75380600Y-32833854D01*
X75241634Y-32860002D01*
X75114001Y-32942131D01*
X75028377Y-33067446D01*
X74998254Y-33216200D01*
X74998254Y-34566200D01*
X75024402Y-34705166D01*
X75106531Y-34832799D01*
X75231846Y-34918423D01*
X75380600Y-34948546D01*
X75730600Y-34948546D01*
X75730600Y-45421048D01*
X75648114Y-45338418D01*
X75289890Y-45189670D01*
X74933130Y-45189358D01*
X74901690Y-45157918D01*
X74901688Y-45157915D01*
X74870000Y-45126227D01*
X74870000Y-44728846D01*
X74920000Y-44728846D01*
X75058966Y-44702698D01*
X75186599Y-44620569D01*
X75272223Y-44495254D01*
X75302346Y-44346500D01*
X75302346Y-43346500D01*
X75276198Y-43207534D01*
X75194069Y-43079901D01*
X75068754Y-42994277D01*
X74920000Y-42964154D01*
X73670000Y-42964154D01*
X73531034Y-42990302D01*
X73403401Y-43072431D01*
X73385300Y-43098923D01*
X73385300Y-41217546D01*
X73497600Y-41217546D01*
X73636566Y-41191398D01*
X73764199Y-41109269D01*
X73849823Y-40983954D01*
X73879946Y-40835200D01*
X73879946Y-40808875D01*
X73938942Y-40797140D01*
X74101153Y-40688753D01*
X74889853Y-39900054D01*
X74998240Y-39737842D01*
X75008463Y-39686446D01*
X75036300Y-39546500D01*
X75036300Y-37325300D01*
X74998240Y-37133958D01*
X74949529Y-37061058D01*
X74889854Y-36971747D01*
X73264253Y-35346147D01*
X73102042Y-35237760D01*
X73084411Y-35234253D01*
X72910700Y-35199700D01*
X71911306Y-35199700D01*
X71556500Y-34844894D01*
X71556500Y-33731200D01*
X71518440Y-33539858D01*
X71475026Y-33474886D01*
X71410054Y-33377647D01*
X70203553Y-32171147D01*
X70041342Y-32062760D01*
X69850000Y-32024700D01*
X67213556Y-32024700D01*
X67213556Y-31824930D01*
X67187408Y-31685964D01*
X67105279Y-31558331D01*
X66979964Y-31472707D01*
X66831210Y-31442584D01*
X65680590Y-31442584D01*
X65541624Y-31468732D01*
X65413991Y-31550861D01*
X65328367Y-31676176D01*
X65298244Y-31824930D01*
X65298244Y-33224470D01*
X65324392Y-33363436D01*
X65406521Y-33491069D01*
X65531836Y-33576693D01*
X65680590Y-33606816D01*
X65755900Y-33606816D01*
X65755900Y-33648354D01*
X65405900Y-33648354D01*
X65266934Y-33674502D01*
X65139301Y-33756631D01*
X65053677Y-33881946D01*
X65023554Y-34030700D01*
X65023554Y-36030700D01*
X65049702Y-36169666D01*
X65131831Y-36297299D01*
X65257146Y-36382923D01*
X65405900Y-36413046D01*
X67105900Y-36413046D01*
X67244866Y-36386898D01*
X67372499Y-36304769D01*
X67458123Y-36179454D01*
X67488246Y-36030700D01*
X67488246Y-34030700D01*
X67462098Y-33891734D01*
X67379969Y-33764101D01*
X67254654Y-33678477D01*
X67105900Y-33648354D01*
X66755900Y-33648354D01*
X66755900Y-33606816D01*
X66831210Y-33606816D01*
X66970176Y-33580668D01*
X67097809Y-33498539D01*
X67183433Y-33373224D01*
X67213556Y-33224470D01*
X67213556Y-33024700D01*
X69642894Y-33024700D01*
X70556500Y-33938307D01*
X70556500Y-35052000D01*
X70590323Y-35222042D01*
X70594560Y-35243342D01*
X70702947Y-35405553D01*
X71350647Y-36053253D01*
X71512858Y-36161640D01*
X71704200Y-36199700D01*
X72703594Y-36199700D01*
X74036300Y-37532407D01*
X74036300Y-39339393D01*
X73785539Y-39590155D01*
X73771669Y-39568601D01*
X73646354Y-39482977D01*
X73497600Y-39452854D01*
X72247600Y-39452854D01*
X72108634Y-39479002D01*
X71981001Y-39561131D01*
X71895377Y-39686446D01*
X71865254Y-39835200D01*
X71865254Y-40835200D01*
X71891402Y-40974166D01*
X71973531Y-41101799D01*
X72098846Y-41187423D01*
X72247600Y-41217546D01*
X72385300Y-41217546D01*
X72385300Y-51740603D01*
X71912100Y-51267404D01*
X71912100Y-50114200D01*
X71874040Y-49922858D01*
X71765653Y-49760647D01*
X69461000Y-47455994D01*
X69461000Y-46800771D01*
X69530954Y-46970071D01*
X69804986Y-47244582D01*
X70163210Y-47393330D01*
X70551089Y-47393669D01*
X70909571Y-47245546D01*
X71184082Y-46971514D01*
X71332830Y-46613290D01*
X71333169Y-46225411D01*
X71185046Y-45866929D01*
X70911014Y-45592418D01*
X70552790Y-45443670D01*
X70164911Y-45443331D01*
X69814062Y-45588300D01*
X69461000Y-45588300D01*
X69461000Y-45482606D01*
X69573160Y-45370446D01*
X70373400Y-45370446D01*
X70512366Y-45344298D01*
X70639999Y-45262169D01*
X70725623Y-45136854D01*
X70755746Y-44988100D01*
X70755746Y-43988100D01*
X70729598Y-43849134D01*
X70647469Y-43721501D01*
X70522154Y-43635877D01*
X70373400Y-43605754D01*
X69212853Y-43605754D01*
X69448161Y-43370446D01*
X70373400Y-43370446D01*
X70512366Y-43344298D01*
X70639999Y-43262169D01*
X70725623Y-43136854D01*
X70755746Y-42988100D01*
X70755746Y-41988100D01*
X70729598Y-41849134D01*
X70647469Y-41721501D01*
X70522154Y-41635877D01*
X70373400Y-41605754D01*
X70248400Y-41605754D01*
X70248400Y-41069142D01*
X70345836Y-41050808D01*
X70473469Y-40968679D01*
X70559093Y-40843364D01*
X70589216Y-40694610D01*
X70589216Y-39543990D01*
X70563068Y-39405024D01*
X70480939Y-39277391D01*
X70355624Y-39191767D01*
X70323030Y-39185167D01*
X70666707Y-38841490D01*
X71866438Y-38841490D01*
X71891402Y-38974166D01*
X71973531Y-39101799D01*
X72098846Y-39187423D01*
X72247600Y-39217546D01*
X73497600Y-39217546D01*
X73636566Y-39191398D01*
X73764199Y-39109269D01*
X73849823Y-38983954D01*
X73879946Y-38835200D01*
X73879946Y-37835200D01*
X73853798Y-37696234D01*
X73771669Y-37568601D01*
X73646354Y-37482977D01*
X73497600Y-37452854D01*
X72247600Y-37452854D01*
X72108634Y-37479002D01*
X71981001Y-37561131D01*
X71895377Y-37686446D01*
X71865254Y-37835200D01*
X71865254Y-37841490D01*
X70459600Y-37841490D01*
X70268258Y-37879550D01*
X70106046Y-37987937D01*
X69153547Y-38940437D01*
X69045160Y-39102648D01*
X69033425Y-39161644D01*
X68807330Y-39161644D01*
X68668364Y-39187792D01*
X68540731Y-39269921D01*
X68455107Y-39395236D01*
X68424984Y-39543990D01*
X68424984Y-40694610D01*
X68451132Y-40833576D01*
X68533261Y-40961209D01*
X68658576Y-41046833D01*
X68807330Y-41076956D01*
X69248400Y-41076956D01*
X69248400Y-41605754D01*
X69123400Y-41605754D01*
X68984434Y-41631902D01*
X68856801Y-41714031D01*
X68771177Y-41839346D01*
X68741054Y-41988100D01*
X68741054Y-42663339D01*
X67680347Y-43724047D01*
X67571960Y-43886258D01*
X67533900Y-44077600D01*
X67533900Y-48121600D01*
X67564270Y-48274281D01*
X67571960Y-48312942D01*
X67680347Y-48475153D01*
X69244394Y-50039200D01*
X67360800Y-50039200D01*
X67334225Y-50044066D01*
X67309033Y-50059931D01*
X67291998Y-50084347D01*
X67285804Y-50113467D01*
X67235680Y-55238618D01*
X66060056Y-55322591D01*
X66038141Y-55327529D01*
X66013105Y-55343639D01*
X65996309Y-55368221D01*
X65990400Y-55397400D01*
X65990400Y-57800174D01*
X64825500Y-56635274D01*
X64825500Y-44521400D01*
X64787440Y-44330058D01*
X64679054Y-44167847D01*
X63801453Y-43290247D01*
X63639242Y-43181860D01*
X63580246Y-43170125D01*
X63580246Y-43143800D01*
X63554098Y-43004834D01*
X63471969Y-42877201D01*
X63346654Y-42791577D01*
X63197900Y-42761454D01*
X63072900Y-42761454D01*
X63072900Y-41457400D01*
X63034840Y-41266058D01*
X62982297Y-41187423D01*
X62926454Y-41103847D01*
X62242320Y-40419714D01*
X62242320Y-37862789D01*
X62281336Y-37855448D01*
X62408969Y-37773319D01*
X62494593Y-37648004D01*
X62504700Y-37598093D01*
X62504700Y-37962650D01*
X62521916Y-38049200D01*
X62542760Y-38153992D01*
X62651147Y-38316203D01*
X62737696Y-38402753D01*
X62867445Y-38489449D01*
X62899908Y-38511140D01*
X62973296Y-38525738D01*
X62985052Y-38588216D01*
X63067181Y-38715849D01*
X63192496Y-38801473D01*
X63241300Y-38811356D01*
X63241300Y-40322500D01*
X63271207Y-40472853D01*
X63279360Y-40513842D01*
X63387747Y-40676053D01*
X65552700Y-42841007D01*
X65552700Y-42885154D01*
X65427700Y-42885154D01*
X65288734Y-42911302D01*
X65161101Y-42993431D01*
X65075477Y-43118746D01*
X65045354Y-43267500D01*
X65045354Y-44267500D01*
X65071502Y-44406466D01*
X65153631Y-44534099D01*
X65278946Y-44619723D01*
X65427700Y-44649846D01*
X66677700Y-44649846D01*
X66816666Y-44623698D01*
X66944299Y-44541569D01*
X67029923Y-44416254D01*
X67060046Y-44267500D01*
X67060046Y-43267500D01*
X67033898Y-43128534D01*
X66951769Y-43000901D01*
X66826454Y-42915277D01*
X66677700Y-42885154D01*
X66552700Y-42885154D01*
X66552700Y-42633900D01*
X66514640Y-42442558D01*
X66482061Y-42393800D01*
X66406253Y-42280346D01*
X64241300Y-40115394D01*
X64241300Y-38812789D01*
X64280316Y-38805448D01*
X64407949Y-38723319D01*
X64493573Y-38598004D01*
X64523696Y-38449250D01*
X64523696Y-38030700D01*
X65023554Y-38030700D01*
X65023554Y-40030700D01*
X65049702Y-40169666D01*
X65131831Y-40297299D01*
X65257146Y-40382923D01*
X65405900Y-40413046D01*
X67105900Y-40413046D01*
X67244866Y-40386898D01*
X67372499Y-40304769D01*
X67458123Y-40179454D01*
X67488246Y-40030700D01*
X67488246Y-38030700D01*
X67462098Y-37891734D01*
X67379969Y-37764101D01*
X67254654Y-37678477D01*
X67105900Y-37648354D01*
X66995553Y-37648354D01*
X67212307Y-37431600D01*
X67856100Y-37431600D01*
X68047442Y-37393540D01*
X68209653Y-37285153D01*
X68400154Y-37094653D01*
X68482277Y-36971747D01*
X68508540Y-36932442D01*
X68546600Y-36741100D01*
X68546600Y-35475006D01*
X68593337Y-35428269D01*
X68687386Y-35522482D01*
X69045610Y-35671230D01*
X69433489Y-35671569D01*
X69791971Y-35523446D01*
X70066482Y-35249414D01*
X70215230Y-34891190D01*
X70215569Y-34503311D01*
X70067446Y-34144829D01*
X69793414Y-33870318D01*
X69435190Y-33721570D01*
X69047311Y-33721231D01*
X68688829Y-33869354D01*
X68414318Y-34143386D01*
X68357202Y-34280936D01*
X68264547Y-34342847D01*
X67693047Y-34914347D01*
X67584660Y-35076558D01*
X67546600Y-35267900D01*
X67546600Y-36431600D01*
X67005200Y-36431600D01*
X66813858Y-36469660D01*
X66651646Y-36578047D01*
X65902347Y-37327347D01*
X65793960Y-37489558D01*
X65762374Y-37648354D01*
X65405900Y-37648354D01*
X65266934Y-37674502D01*
X65139301Y-37756631D01*
X65053677Y-37881946D01*
X65023554Y-38030700D01*
X64523696Y-38030700D01*
X64523696Y-37649150D01*
X64497548Y-37510184D01*
X64415419Y-37382551D01*
X64290104Y-37296927D01*
X64141350Y-37266804D01*
X63504700Y-37266804D01*
X63504700Y-36931596D01*
X64141350Y-36931596D01*
X64280316Y-36905448D01*
X64407949Y-36823319D01*
X64493573Y-36698004D01*
X64523696Y-36549250D01*
X64523696Y-35749150D01*
X64497548Y-35610184D01*
X64434834Y-35512722D01*
X64640953Y-35306603D01*
X64749340Y-35144392D01*
X64763731Y-35072042D01*
X64787400Y-34953050D01*
X64787400Y-31356300D01*
X64749340Y-31164958D01*
X64640953Y-31002747D01*
X63993253Y-30355047D01*
X63831042Y-30246660D01*
X63639700Y-30208600D01*
X59296300Y-30208600D01*
X59104958Y-30246660D01*
X58942747Y-30355047D01*
X58422047Y-30875747D01*
X58313660Y-31037958D01*
X58275600Y-31229300D01*
X58275600Y-37259890D01*
X57856495Y-37433061D01*
X57399067Y-37889691D01*
X57151203Y-38486613D01*
X57150639Y-39132951D01*
X57397461Y-39730305D01*
X57854091Y-40187733D01*
X58451013Y-40435597D01*
X59097351Y-40436161D01*
X59694705Y-40189339D01*
X60152133Y-39732709D01*
X60399997Y-39135787D01*
X60400561Y-38489449D01*
X60153739Y-37892095D01*
X59697109Y-37434667D01*
X59275600Y-37259641D01*
X59275600Y-31436406D01*
X59503406Y-31208600D01*
X63432594Y-31208600D01*
X63688560Y-31464566D01*
X63580010Y-31442584D01*
X62429390Y-31442584D01*
X62290424Y-31468732D01*
X62162791Y-31550861D01*
X62077167Y-31676176D01*
X62047044Y-31824930D01*
X62047044Y-32024700D01*
X61468000Y-32024700D01*
X61276658Y-32062760D01*
X61114446Y-32171147D01*
X60939624Y-32345969D01*
X60888090Y-32324570D01*
X60500211Y-32324231D01*
X60141729Y-32472354D01*
X59867218Y-32746386D01*
X59718470Y-33104610D01*
X59718131Y-33492489D01*
X59866254Y-33850971D01*
X60140286Y-34125482D01*
X60498510Y-34274230D01*
X60886389Y-34274569D01*
X61244871Y-34126446D01*
X61519382Y-33852414D01*
X61668130Y-33494190D01*
X61668469Y-33106311D01*
X61646548Y-33053259D01*
X61675107Y-33024700D01*
X62047044Y-33024700D01*
X62047044Y-33224470D01*
X62073192Y-33363436D01*
X62155321Y-33491069D01*
X62280636Y-33576693D01*
X62429390Y-33606816D01*
X62504700Y-33606816D01*
X62504700Y-36592773D01*
X62498568Y-36560184D01*
X62416439Y-36432551D01*
X62291124Y-36346927D01*
X62142370Y-36316804D01*
X61342270Y-36316804D01*
X61203304Y-36342952D01*
X61075671Y-36425081D01*
X60990047Y-36550396D01*
X60959924Y-36699150D01*
X60959924Y-37499250D01*
X60986072Y-37638216D01*
X61068201Y-37765849D01*
X61193516Y-37851473D01*
X61242320Y-37861356D01*
X61242320Y-40626820D01*
X61280380Y-40818162D01*
X61388767Y-40980373D01*
X62072900Y-41664507D01*
X62072900Y-42761454D01*
X61947900Y-42761454D01*
X61808934Y-42787602D01*
X61681301Y-42869731D01*
X61595677Y-42995046D01*
X61565554Y-43143800D01*
X61565554Y-44143800D01*
X61591702Y-44282766D01*
X61673831Y-44410399D01*
X61799146Y-44496023D01*
X61947900Y-44526146D01*
X63197900Y-44526146D01*
X63336866Y-44499998D01*
X63464499Y-44417869D01*
X63484942Y-44387949D01*
X63825500Y-44728507D01*
X63825500Y-56273093D01*
X62078531Y-54526125D01*
X62099930Y-54474590D01*
X62100269Y-54086711D01*
X61952146Y-53728229D01*
X61678114Y-53453718D01*
X61319890Y-53304970D01*
X60932011Y-53304631D01*
X60573529Y-53452754D01*
X60299018Y-53726786D01*
X60150270Y-54085010D01*
X60149931Y-54472889D01*
X60298054Y-54831371D01*
X60572086Y-55105882D01*
X60930310Y-55254630D01*
X61318189Y-55254969D01*
X61371242Y-55233048D01*
X62891203Y-56753010D01*
X59129790Y-56753010D01*
X58938448Y-56791070D01*
X58873476Y-56834484D01*
X58776237Y-56899456D01*
X56974247Y-58701447D01*
X56865860Y-58863658D01*
X56827800Y-59055000D01*
X56640198Y-59055000D01*
X56610235Y-29762000D01*
X91320017Y-29762000D01*
X91357683Y-103397652D01*
X91357683Y-103397652D01*
G37*
X91357683Y-103397652D02*
X56685566Y-103410048D01*
X56640198Y-59055000D01*
X56827800Y-59055000D01*
X56827800Y-68556972D01*
X56858014Y-68708868D01*
X56865860Y-68748314D01*
X56974247Y-68910525D01*
X57826744Y-69763022D01*
X57619318Y-69970086D01*
X57470570Y-70328310D01*
X57470231Y-70716189D01*
X57618354Y-71074671D01*
X57892386Y-71349182D01*
X58250610Y-71497930D01*
X58638489Y-71498269D01*
X58996971Y-71350146D01*
X59271482Y-71076114D01*
X59420230Y-70717890D01*
X59420569Y-70330011D01*
X59272446Y-69971529D01*
X58998414Y-69697018D01*
X58945400Y-69675005D01*
X58945400Y-69674572D01*
X58907340Y-69483230D01*
X58798953Y-69321019D01*
X57827800Y-68349866D01*
X57827800Y-59262106D01*
X59336897Y-57753010D01*
X63254794Y-57753010D01*
X67739537Y-62237754D01*
X67826161Y-62295634D01*
X67901748Y-62346140D01*
X68093090Y-62384200D01*
X67714107Y-62384200D01*
X64361553Y-59031647D01*
X64199342Y-58923260D01*
X64008000Y-58885200D01*
X61186055Y-58885200D01*
X61164746Y-58833629D01*
X60890714Y-58559118D01*
X60532490Y-58410370D01*
X60144611Y-58410031D01*
X59786129Y-58558154D01*
X59511618Y-58832186D01*
X59362870Y-59190410D01*
X59362531Y-59578289D01*
X59510654Y-59936771D01*
X59784686Y-60211282D01*
X60142910Y-60360030D01*
X60530789Y-60360369D01*
X60889271Y-60212246D01*
X61163782Y-59938214D01*
X61185795Y-59885200D01*
X63800894Y-59885200D01*
X67153446Y-63237753D01*
X67232226Y-63290392D01*
X67315658Y-63346140D01*
X67507000Y-63384200D01*
X67643500Y-63384200D01*
X67452158Y-63422260D01*
X67429051Y-63437700D01*
X64240018Y-63437700D01*
X64240646Y-63434600D01*
X64240646Y-62434600D01*
X64214755Y-62297002D01*
X64209998Y-61569110D01*
X64205416Y-61543782D01*
X64189824Y-61518420D01*
X64165592Y-61501123D01*
X64136541Y-61494616D01*
X62282341Y-61456516D01*
X62244741Y-61465737D01*
X62221996Y-61484948D01*
X62208518Y-61511493D01*
X61829880Y-62879474D01*
X60629438Y-62891600D01*
X58153300Y-62891600D01*
X58125882Y-62896791D01*
X58100882Y-62912959D01*
X58084143Y-62937578D01*
X58078300Y-62966771D01*
X58091000Y-68542071D01*
X58103808Y-68583819D01*
X58125017Y-68604712D01*
X62959037Y-71758788D01*
X63314122Y-72113873D01*
X63314124Y-72113876D01*
X63417092Y-72182677D01*
X63468226Y-72216844D01*
X63650000Y-72253001D01*
X63650005Y-72253000D01*
X63716479Y-72253000D01*
X65485297Y-73407109D01*
X65525770Y-73419295D01*
X69259570Y-73444695D01*
X69294389Y-73436389D01*
X69317633Y-73417787D01*
X69486658Y-73215500D01*
X71514900Y-73215500D01*
X71514900Y-74993500D01*
X71520029Y-75020759D01*
X71536139Y-75045795D01*
X71560721Y-75062591D01*
X71589900Y-75068500D01*
X71736654Y-75068500D01*
X71736654Y-76090000D01*
X71762802Y-76228966D01*
X71844931Y-76356599D01*
X71970246Y-76442223D01*
X72119000Y-76472346D01*
X73169000Y-76472346D01*
X73307966Y-76446198D01*
X73435599Y-76364069D01*
X73521223Y-76238754D01*
X73551346Y-76090000D01*
X73551346Y-75118918D01*
X73734194Y-75194843D01*
X74092236Y-75195156D01*
X74398767Y-75068500D01*
X74699925Y-75068500D01*
X75004194Y-75194843D01*
X75362236Y-75195156D01*
X75668767Y-75068500D01*
X75685659Y-75068500D01*
X75554157Y-75385194D01*
X75553844Y-75743236D01*
X75690572Y-76074143D01*
X75943525Y-76327538D01*
X76274194Y-76464843D01*
X76632236Y-76465156D01*
X76963143Y-76328428D01*
X77216538Y-76075475D01*
X77353843Y-75744806D01*
X77354156Y-75386764D01*
X77222652Y-75068500D01*
X77239925Y-75068500D01*
X77544194Y-75194843D01*
X77902236Y-75195156D01*
X78208767Y-75068500D01*
X78740000Y-75068500D01*
X78767259Y-75063371D01*
X78792295Y-75047261D01*
X78809091Y-75022679D01*
X78815000Y-74993500D01*
X78815000Y-73228200D01*
X78809919Y-73201065D01*
X78793853Y-73176000D01*
X78769302Y-73159161D01*
X78740133Y-73153200D01*
X71590033Y-73140500D01*
X71562641Y-73145629D01*
X71537605Y-73161739D01*
X71520809Y-73186321D01*
X71514900Y-73215500D01*
X69486658Y-73215500D01*
X71726906Y-70534400D01*
X72390000Y-69871306D01*
X72859848Y-70341155D01*
X72957087Y-70406127D01*
X73022059Y-70449541D01*
X73213401Y-70487601D01*
X77183801Y-70487601D01*
X77183801Y-70947658D01*
X77012068Y-71018617D01*
X76737557Y-71292649D01*
X76588809Y-71650873D01*
X76588470Y-72038752D01*
X76736593Y-72397234D01*
X77010625Y-72671745D01*
X77368849Y-72820493D01*
X77756728Y-72820832D01*
X78115210Y-72672709D01*
X78389721Y-72398677D01*
X78538469Y-72040453D01*
X78538808Y-71652574D01*
X78466380Y-71477286D01*
X79306800Y-72317706D01*
X79306800Y-77609700D01*
X79338705Y-77770100D01*
X79344860Y-77801042D01*
X79453247Y-77963253D01*
X79927147Y-78437154D01*
X78537700Y-78437154D01*
X78398734Y-78463302D01*
X78271101Y-78545431D01*
X78185477Y-78670746D01*
X78167261Y-78760700D01*
X74838555Y-78760700D01*
X74817246Y-78709129D01*
X74543214Y-78434618D01*
X74184990Y-78285870D01*
X73797111Y-78285531D01*
X73438629Y-78433654D01*
X73164118Y-78707686D01*
X73015370Y-79065910D01*
X73015031Y-79453789D01*
X73034237Y-79500270D01*
X73023948Y-79507145D01*
X71998348Y-80532746D01*
X71998347Y-80532747D01*
X71889960Y-80694958D01*
X71851900Y-80886300D01*
X71851900Y-84463654D01*
X71712934Y-84489802D01*
X71585301Y-84571931D01*
X71499677Y-84697246D01*
X71469554Y-84846000D01*
X71469554Y-86096000D01*
X71495702Y-86234966D01*
X71577831Y-86362599D01*
X71703146Y-86448223D01*
X71851900Y-86478346D01*
X71890000Y-86478346D01*
X71890000Y-88470533D01*
X71871034Y-88474102D01*
X71743401Y-88556231D01*
X71657777Y-88681546D01*
X71627654Y-88830300D01*
X71627654Y-91230300D01*
X71653802Y-91369266D01*
X71735931Y-91496899D01*
X71861246Y-91582523D01*
X72010000Y-91612646D01*
X72770000Y-91612646D01*
X72908966Y-91586498D01*
X73036599Y-91504369D01*
X73122223Y-91379054D01*
X73152346Y-91230300D01*
X73152346Y-88830300D01*
X73126198Y-88691334D01*
X73044069Y-88563701D01*
X72918754Y-88478077D01*
X72890000Y-88472254D01*
X72890000Y-86471177D01*
X72990866Y-86452198D01*
X73118499Y-86370069D01*
X73204123Y-86244754D01*
X73234246Y-86096000D01*
X73234246Y-84846000D01*
X73208098Y-84707034D01*
X73125969Y-84579401D01*
X73000654Y-84493777D01*
X72851900Y-84463654D01*
X72851900Y-81093406D01*
X73705483Y-80239824D01*
X73743754Y-80214252D01*
X73743875Y-80214131D01*
X73795410Y-80235530D01*
X74183289Y-80235869D01*
X74541771Y-80087746D01*
X74816282Y-79813714D01*
X74838295Y-79760700D01*
X78155354Y-79760700D01*
X78155354Y-80819500D01*
X78181502Y-80958466D01*
X78263631Y-81086099D01*
X78388946Y-81171723D01*
X78537700Y-81201846D01*
X80237700Y-81201846D01*
X80376666Y-81175698D01*
X80504299Y-81093569D01*
X80589923Y-80968254D01*
X80620046Y-80819500D01*
X80620046Y-79760700D01*
X82545030Y-79760700D01*
X82527669Y-79802509D01*
X82527417Y-80091281D01*
X82230232Y-80091021D01*
X81871750Y-80239144D01*
X81597239Y-80513176D01*
X81448491Y-80871400D01*
X81448152Y-81259279D01*
X81596275Y-81617761D01*
X81870307Y-81892272D01*
X82228531Y-82041020D01*
X82616410Y-82041359D01*
X82974892Y-81893236D01*
X83249403Y-81619204D01*
X83255097Y-81605491D01*
X83717926Y-81627058D01*
X83729613Y-81625294D01*
X83741200Y-81627599D01*
X83825656Y-81610800D01*
X83910833Y-81597946D01*
X83920954Y-81591845D01*
X83932542Y-81589540D01*
X84004148Y-81541694D01*
X84075026Y-81498967D01*
X83282694Y-82291300D01*
X81880807Y-82291300D01*
X81227153Y-81637647D01*
X81064942Y-81529260D01*
X80873600Y-81491200D01*
X75082400Y-81491200D01*
X74891058Y-81529260D01*
X74728846Y-81637647D01*
X74424047Y-81942447D01*
X74315660Y-82104658D01*
X74277600Y-82296000D01*
X74277600Y-87147400D01*
X74295103Y-87235393D01*
X74315660Y-87338742D01*
X74424047Y-87500953D01*
X75153900Y-88230807D01*
X75153900Y-90765490D01*
X75191960Y-90956832D01*
X75300347Y-91119043D01*
X77562356Y-93381053D01*
X77676397Y-93457253D01*
X77724568Y-93489440D01*
X77915910Y-93527500D01*
X78722600Y-93527500D01*
X78722600Y-95216676D01*
X78702001Y-95229931D01*
X78616377Y-95355246D01*
X78587649Y-95497109D01*
X78562798Y-95365034D01*
X78480669Y-95237401D01*
X78355354Y-95151777D01*
X78206600Y-95121654D01*
X77698600Y-95121654D01*
X77559634Y-95147802D01*
X77432001Y-95229931D01*
X77346377Y-95355246D01*
X77316254Y-95504000D01*
X77316254Y-95575500D01*
X76517500Y-95575500D01*
X76326158Y-95613560D01*
X76163947Y-95721947D01*
X75744847Y-96141047D01*
X75636460Y-96303258D01*
X75598400Y-96494600D01*
X75598400Y-97277300D01*
X73875600Y-97277300D01*
X73875600Y-96972200D01*
X73837540Y-96780858D01*
X73774119Y-96685942D01*
X73729154Y-96618647D01*
X73619853Y-96509347D01*
X73457642Y-96400960D01*
X73266300Y-96362900D01*
X72940007Y-96362900D01*
X72890000Y-96312894D01*
X72890000Y-95590067D01*
X72908966Y-95586498D01*
X73036599Y-95504369D01*
X73122223Y-95379054D01*
X73152346Y-95230300D01*
X73152346Y-92830300D01*
X73126198Y-92691334D01*
X73044069Y-92563701D01*
X72918754Y-92478077D01*
X72770000Y-92447954D01*
X72010000Y-92447954D01*
X71871034Y-92474102D01*
X71753565Y-92549691D01*
X71648754Y-92478077D01*
X71500000Y-92447954D01*
X70740000Y-92447954D01*
X70601034Y-92474102D01*
X70483565Y-92549691D01*
X70378754Y-92478077D01*
X70230000Y-92447954D01*
X69470000Y-92447954D01*
X69331034Y-92474102D01*
X69213565Y-92549691D01*
X69108754Y-92478077D01*
X68960000Y-92447954D01*
X68200000Y-92447954D01*
X68061034Y-92474102D01*
X67943565Y-92549691D01*
X67838754Y-92478077D01*
X67690000Y-92447954D01*
X66930000Y-92447954D01*
X66791034Y-92474102D01*
X66663401Y-92556231D01*
X66577777Y-92681546D01*
X66547654Y-92830300D01*
X66547654Y-93530300D01*
X64252707Y-93530300D01*
X63784100Y-93061694D01*
X63784100Y-90256355D01*
X63835671Y-90235046D01*
X64110182Y-89961014D01*
X64258930Y-89602790D01*
X64259269Y-89214911D01*
X64111146Y-88856429D01*
X63837114Y-88581918D01*
X63478890Y-88433170D01*
X63091011Y-88432831D01*
X62732529Y-88580954D01*
X62458018Y-88854986D01*
X62309270Y-89213210D01*
X62308931Y-89601089D01*
X62457054Y-89959571D01*
X62731086Y-90234082D01*
X62784100Y-90256095D01*
X62784100Y-93268800D01*
X62821585Y-93457253D01*
X62822160Y-93460142D01*
X62930547Y-93622353D01*
X63692047Y-94383854D01*
X63789286Y-94448826D01*
X63854258Y-94492240D01*
X64045600Y-94530300D01*
X66547654Y-94530300D01*
X66547654Y-95230300D01*
X66573802Y-95369266D01*
X66655931Y-95496899D01*
X66781246Y-95582523D01*
X66930000Y-95612646D01*
X67690000Y-95612646D01*
X67828966Y-95586498D01*
X67946435Y-95510909D01*
X68051246Y-95582523D01*
X68080000Y-95588346D01*
X68080000Y-97252694D01*
X67725194Y-97607500D01*
X61802106Y-97607500D01*
X59466100Y-95271494D01*
X59466100Y-80137000D01*
X59535930Y-80137000D01*
X59621802Y-80568709D01*
X59866346Y-80934694D01*
X60232331Y-81179238D01*
X60664040Y-81265110D01*
X60955300Y-81265110D01*
X60955300Y-81548890D01*
X60664040Y-81548890D01*
X60232331Y-81634762D01*
X59866346Y-81879306D01*
X59621802Y-82245291D01*
X59535930Y-82677000D01*
X59621802Y-83108709D01*
X59866346Y-83474694D01*
X60232331Y-83719238D01*
X60664040Y-83805110D01*
X62246560Y-83805110D01*
X62678269Y-83719238D01*
X63044254Y-83474694D01*
X63243167Y-83177000D01*
X65368074Y-83177000D01*
X68080000Y-85888927D01*
X68080000Y-88470533D01*
X68061034Y-88474102D01*
X67943565Y-88549691D01*
X67838754Y-88478077D01*
X67690000Y-88447954D01*
X66930000Y-88447954D01*
X66791034Y-88474102D01*
X66663401Y-88556231D01*
X66577777Y-88681546D01*
X66547654Y-88830300D01*
X66547654Y-91230300D01*
X66573802Y-91369266D01*
X66655931Y-91496899D01*
X66781246Y-91582523D01*
X66930000Y-91612646D01*
X67690000Y-91612646D01*
X67828966Y-91586498D01*
X67946435Y-91510909D01*
X68051246Y-91582523D01*
X68200000Y-91612646D01*
X68960000Y-91612646D01*
X69098966Y-91586498D01*
X69226599Y-91504369D01*
X69312223Y-91379054D01*
X69342346Y-91230300D01*
X69342346Y-88830300D01*
X69316198Y-88691334D01*
X69234069Y-88563701D01*
X69108754Y-88478077D01*
X69080000Y-88472254D01*
X69080000Y-85681820D01*
X69041940Y-85490478D01*
X69028925Y-85471000D01*
X68933553Y-85328266D01*
X65954133Y-82348847D01*
X65928733Y-82323447D01*
X65766522Y-82215060D01*
X65575180Y-82177000D01*
X63243167Y-82177000D01*
X63044254Y-81879306D01*
X62678269Y-81634762D01*
X62246560Y-81548890D01*
X61955300Y-81548890D01*
X61955300Y-81265110D01*
X62246560Y-81265110D01*
X62678269Y-81179238D01*
X63044254Y-80934694D01*
X63288798Y-80568709D01*
X63374670Y-80137000D01*
X63288798Y-79705291D01*
X63044254Y-79339306D01*
X62678269Y-79094762D01*
X62246560Y-79008890D01*
X60664040Y-79008890D01*
X60232331Y-79094762D01*
X59866346Y-79339306D01*
X59621802Y-79705291D01*
X59535930Y-80137000D01*
X59466100Y-80137000D01*
X59466100Y-76978606D01*
X59578997Y-76865709D01*
X59752046Y-77124694D01*
X60118031Y-77369238D01*
X60549740Y-77455110D01*
X62132260Y-77455110D01*
X62563969Y-77369238D01*
X62929954Y-77124694D01*
X63174498Y-76758709D01*
X63260370Y-76327000D01*
X63174498Y-75895291D01*
X62929954Y-75529306D01*
X62563969Y-75284762D01*
X62132260Y-75198890D01*
X61841000Y-75198890D01*
X61841000Y-74915110D01*
X62132260Y-74915110D01*
X62452654Y-74851380D01*
X69223170Y-81621897D01*
X69315054Y-81844271D01*
X69589086Y-82118782D01*
X69947310Y-82267530D01*
X70335189Y-82267869D01*
X70693671Y-82119746D01*
X70968182Y-81845714D01*
X71116930Y-81487490D01*
X71117269Y-81099611D01*
X70969146Y-80741129D01*
X70695114Y-80466618D01*
X70336890Y-80317870D01*
X69949011Y-80317531D01*
X69590529Y-80465654D01*
X69535787Y-80520300D01*
X63184402Y-74168916D01*
X63260370Y-73787000D01*
X63174498Y-73355291D01*
X62929954Y-72989306D01*
X62563969Y-72744762D01*
X62132260Y-72658890D01*
X60549740Y-72658890D01*
X60118031Y-72744762D01*
X59752046Y-72989306D01*
X59507502Y-73355291D01*
X59421630Y-73787000D01*
X59507502Y-74218709D01*
X59752046Y-74584694D01*
X60118031Y-74829238D01*
X60549740Y-74915110D01*
X60841000Y-74915110D01*
X60841000Y-75198890D01*
X60549740Y-75198890D01*
X60118031Y-75284762D01*
X59752046Y-75529306D01*
X59553133Y-75827000D01*
X59410600Y-75827000D01*
X59219258Y-75865060D01*
X59057047Y-75973447D01*
X58612547Y-76417947D01*
X58504160Y-76580158D01*
X58466100Y-76771500D01*
X58466100Y-95478600D01*
X58492945Y-95613560D01*
X58504160Y-95669942D01*
X58612547Y-95832153D01*
X61241447Y-98461053D01*
X61403658Y-98569440D01*
X61595000Y-98607500D01*
X67932300Y-98607500D01*
X68123642Y-98569440D01*
X68285853Y-98461053D01*
X68892800Y-97854106D01*
X68892800Y-101409500D01*
X68921523Y-101553899D01*
X68930860Y-101600842D01*
X69039247Y-101763053D01*
X69877447Y-102601254D01*
X70039658Y-102709640D01*
X70231000Y-102747700D01*
X84950300Y-102747700D01*
X85141642Y-102709640D01*
X85303853Y-102601253D01*
X88618554Y-99286553D01*
X88683526Y-99189314D01*
X88726940Y-99124342D01*
X88765000Y-98933000D01*
X88765000Y-88557100D01*
X88726940Y-88365758D01*
X88618553Y-88203547D01*
X87296846Y-86881840D01*
X87134635Y-86773453D01*
X86943293Y-86735393D01*
X82980238Y-86735393D01*
X82958929Y-86683822D01*
X82684897Y-86409311D01*
X82326673Y-86260563D01*
X81938794Y-86260224D01*
X81580312Y-86408347D01*
X81305801Y-86682379D01*
X81157053Y-87040603D01*
X81156714Y-87428482D01*
X81304837Y-87786964D01*
X81578869Y-88061475D01*
X81937093Y-88210223D01*
X82324972Y-88210562D01*
X82683454Y-88062439D01*
X82957965Y-87788407D01*
X82979978Y-87735393D01*
X86736187Y-87735393D01*
X87765000Y-88764206D01*
X87765000Y-98725893D01*
X84743194Y-101747700D01*
X70438107Y-101747700D01*
X69892800Y-101202394D01*
X69892800Y-100305046D01*
X71839200Y-100305046D01*
X71839200Y-100507800D01*
X71877260Y-100699142D01*
X71985647Y-100861353D01*
X72531747Y-101407453D01*
X72693958Y-101515840D01*
X72885300Y-101553900D01*
X77152500Y-101553900D01*
X77343842Y-101515840D01*
X77506053Y-101407453D01*
X77963253Y-100950254D01*
X78071640Y-100788042D01*
X78089323Y-100699142D01*
X78109700Y-100596700D01*
X78109700Y-100302055D01*
X78161271Y-100280746D01*
X78435782Y-100006714D01*
X78584530Y-99648490D01*
X78584869Y-99260611D01*
X78436746Y-98902129D01*
X78162714Y-98627618D01*
X77804490Y-98478870D01*
X77416611Y-98478531D01*
X77058129Y-98626654D01*
X76783618Y-98900686D01*
X76634870Y-99258910D01*
X76634531Y-99646789D01*
X76782654Y-100005271D01*
X77056686Y-100279782D01*
X77109700Y-100301795D01*
X77109700Y-100389593D01*
X76945394Y-100553900D01*
X73092406Y-100553900D01*
X72839200Y-100300694D01*
X72839200Y-99289300D01*
X72801140Y-99097958D01*
X72730180Y-98991760D01*
X72692754Y-98935747D01*
X72476153Y-98719147D01*
X72313942Y-98610760D01*
X72254946Y-98599025D01*
X72254946Y-98222700D01*
X72228798Y-98083734D01*
X72146669Y-97956101D01*
X72021354Y-97870477D01*
X71872600Y-97840354D01*
X69892800Y-97840354D01*
X69892800Y-97565306D01*
X70031707Y-97426400D01*
X71018400Y-97426400D01*
X71209742Y-97388340D01*
X71371953Y-97279953D01*
X71473553Y-97178353D01*
X71581940Y-97016142D01*
X71588743Y-96981940D01*
X71620000Y-96824800D01*
X71620000Y-95590067D01*
X71638966Y-95586498D01*
X71756435Y-95510909D01*
X71861246Y-95582523D01*
X71890000Y-95588346D01*
X71890000Y-96520000D01*
X71901040Y-96575500D01*
X71928060Y-96711342D01*
X72036447Y-96873553D01*
X72379347Y-97216454D01*
X72527370Y-97315360D01*
X72541558Y-97324840D01*
X72732900Y-97362900D01*
X72875600Y-97362900D01*
X72875600Y-97599500D01*
X72906321Y-97753947D01*
X72913660Y-97790842D01*
X73022047Y-97953053D01*
X73199846Y-98130853D01*
X73249517Y-98164042D01*
X73362058Y-98239240D01*
X73490254Y-98264740D01*
X73490254Y-99922700D01*
X73516402Y-100061666D01*
X73598531Y-100189299D01*
X73723846Y-100274923D01*
X73872600Y-100305046D01*
X75872600Y-100305046D01*
X76011566Y-100278898D01*
X76139199Y-100196769D01*
X76224823Y-100071454D01*
X76254946Y-99922700D01*
X76254946Y-98246161D01*
X76289742Y-98239240D01*
X76451953Y-98130853D01*
X76560340Y-97968642D01*
X76598400Y-97777300D01*
X76598400Y-96701706D01*
X76724606Y-96575500D01*
X77316254Y-96575500D01*
X77316254Y-96647000D01*
X77342402Y-96785966D01*
X77424531Y-96913599D01*
X77549846Y-96999223D01*
X77698600Y-97029346D01*
X78206600Y-97029346D01*
X78345566Y-97003198D01*
X78473199Y-96921069D01*
X78558823Y-96795754D01*
X78587551Y-96653891D01*
X78612402Y-96785966D01*
X78694531Y-96913599D01*
X78819846Y-96999223D01*
X78968600Y-97029346D01*
X79476600Y-97029346D01*
X79615566Y-97003198D01*
X79743199Y-96921069D01*
X79828823Y-96795754D01*
X79857551Y-96653891D01*
X79882402Y-96785966D01*
X79964531Y-96913599D01*
X80089846Y-96999223D01*
X80238600Y-97029346D01*
X80746600Y-97029346D01*
X80885566Y-97003198D01*
X81013199Y-96921069D01*
X81098823Y-96795754D01*
X81127551Y-96653891D01*
X81152402Y-96785966D01*
X81234531Y-96913599D01*
X81359846Y-96999223D01*
X81508600Y-97029346D01*
X82016600Y-97029346D01*
X82155566Y-97003198D01*
X82283199Y-96921069D01*
X82368823Y-96795754D01*
X82397551Y-96653891D01*
X82422402Y-96785966D01*
X82504531Y-96913599D01*
X82629846Y-96999223D01*
X82778600Y-97029346D01*
X83286600Y-97029346D01*
X83425566Y-97003198D01*
X83553199Y-96921069D01*
X83638823Y-96795754D01*
X83667551Y-96653891D01*
X83692402Y-96785966D01*
X83774531Y-96913599D01*
X83899846Y-96999223D01*
X84048600Y-97029346D01*
X84556600Y-97029346D01*
X84695566Y-97003198D01*
X84823199Y-96921069D01*
X84908823Y-96795754D01*
X84937551Y-96653891D01*
X84962402Y-96785966D01*
X85044531Y-96913599D01*
X85169846Y-96999223D01*
X85318600Y-97029346D01*
X85826600Y-97029346D01*
X85965566Y-97003198D01*
X86093199Y-96921069D01*
X86178823Y-96795754D01*
X86208946Y-96647000D01*
X86208946Y-95504000D01*
X86182798Y-95365034D01*
X86100669Y-95237401D01*
X85975354Y-95151777D01*
X85826600Y-95121654D01*
X85318600Y-95121654D01*
X85179634Y-95147802D01*
X85052001Y-95229931D01*
X84966377Y-95355246D01*
X84937649Y-95497109D01*
X84912798Y-95365034D01*
X84830669Y-95237401D01*
X84705354Y-95151777D01*
X84556600Y-95121654D01*
X84048600Y-95121654D01*
X83909634Y-95147802D01*
X83782001Y-95229931D01*
X83696377Y-95355246D01*
X83667649Y-95497109D01*
X83642798Y-95365034D01*
X83560669Y-95237401D01*
X83435354Y-95151777D01*
X83286600Y-95121654D01*
X82778600Y-95121654D01*
X82639634Y-95147802D01*
X82512001Y-95229931D01*
X82426377Y-95355246D01*
X82397649Y-95497109D01*
X82372798Y-95365034D01*
X82290669Y-95237401D01*
X82165354Y-95151777D01*
X82016600Y-95121654D01*
X81508600Y-95121654D01*
X81369634Y-95147802D01*
X81242001Y-95229931D01*
X81156377Y-95355246D01*
X81127649Y-95497109D01*
X81102798Y-95365034D01*
X81020669Y-95237401D01*
X80992600Y-95218222D01*
X80992600Y-92811600D01*
X80954540Y-92620258D01*
X80917992Y-92565560D01*
X80846153Y-92458046D01*
X80541701Y-92153595D01*
X80490553Y-92077047D01*
X80328342Y-91968660D01*
X80137000Y-91930600D01*
X78286707Y-91930600D01*
X76712700Y-90356594D01*
X76712700Y-89154000D01*
X78586254Y-89154000D01*
X78586254Y-90297000D01*
X78612402Y-90435966D01*
X78694531Y-90563599D01*
X78819846Y-90649223D01*
X78968600Y-90679346D01*
X79476600Y-90679346D01*
X79615566Y-90653198D01*
X79743199Y-90571069D01*
X79828823Y-90445754D01*
X79857551Y-90303891D01*
X79882402Y-90435966D01*
X79964531Y-90563599D01*
X80089846Y-90649223D01*
X80238600Y-90679346D01*
X80746600Y-90679346D01*
X80885566Y-90653198D01*
X81013199Y-90571069D01*
X81098823Y-90445754D01*
X81127551Y-90303891D01*
X81152402Y-90435966D01*
X81234531Y-90563599D01*
X81359846Y-90649223D01*
X81508600Y-90679346D01*
X82016600Y-90679346D01*
X82155566Y-90653198D01*
X82283199Y-90571069D01*
X82368823Y-90445754D01*
X82397551Y-90303891D01*
X82422402Y-90435966D01*
X82504531Y-90563599D01*
X82629846Y-90649223D01*
X82778600Y-90679346D01*
X83286600Y-90679346D01*
X83425566Y-90653198D01*
X83553199Y-90571069D01*
X83638823Y-90445754D01*
X83667551Y-90303891D01*
X83692402Y-90435966D01*
X83774531Y-90563599D01*
X83899846Y-90649223D01*
X84048600Y-90679346D01*
X84556600Y-90679346D01*
X84695566Y-90653198D01*
X84823199Y-90571069D01*
X84908823Y-90445754D01*
X84937551Y-90303891D01*
X84962402Y-90435966D01*
X85044531Y-90563599D01*
X85169846Y-90649223D01*
X85318600Y-90679346D01*
X85826600Y-90679346D01*
X85965566Y-90653198D01*
X86093199Y-90571069D01*
X86178823Y-90445754D01*
X86208946Y-90297000D01*
X86208946Y-89154000D01*
X86182798Y-89015034D01*
X86100669Y-88887401D01*
X85975354Y-88801777D01*
X85826600Y-88771654D01*
X85318600Y-88771654D01*
X85179634Y-88797802D01*
X85052001Y-88879931D01*
X84966377Y-89005246D01*
X84937649Y-89147109D01*
X84912798Y-89015034D01*
X84830669Y-88887401D01*
X84705354Y-88801777D01*
X84556600Y-88771654D01*
X84048600Y-88771654D01*
X83909634Y-88797802D01*
X83782001Y-88879931D01*
X83696377Y-89005246D01*
X83667649Y-89147109D01*
X83642798Y-89015034D01*
X83560669Y-88887401D01*
X83435354Y-88801777D01*
X83286600Y-88771654D01*
X82778600Y-88771654D01*
X82639634Y-88797802D01*
X82512001Y-88879931D01*
X82426377Y-89005246D01*
X82397649Y-89147109D01*
X82372798Y-89015034D01*
X82290669Y-88887401D01*
X82165354Y-88801777D01*
X82016600Y-88771654D01*
X81508600Y-88771654D01*
X81369634Y-88797802D01*
X81242001Y-88879931D01*
X81156377Y-89005246D01*
X81127649Y-89147109D01*
X81102798Y-89015034D01*
X81020669Y-88887401D01*
X80895354Y-88801777D01*
X80746600Y-88771654D01*
X80238600Y-88771654D01*
X80099634Y-88797802D01*
X79972001Y-88879931D01*
X79886377Y-89005246D01*
X79857649Y-89147109D01*
X79832798Y-89015034D01*
X79750669Y-88887401D01*
X79625354Y-88801777D01*
X79476600Y-88771654D01*
X78968600Y-88771654D01*
X78829634Y-88797802D01*
X78702001Y-88879931D01*
X78616377Y-89005246D01*
X78586254Y-89154000D01*
X76712700Y-89154000D01*
X76712700Y-87553800D01*
X76674640Y-87362458D01*
X76658793Y-87338742D01*
X76566254Y-87200247D01*
X76011101Y-86645095D01*
X76011101Y-84248757D01*
X76367689Y-84249069D01*
X76726171Y-84100946D01*
X77000682Y-83826914D01*
X77149430Y-83468690D01*
X77149769Y-83080811D01*
X77001646Y-82722329D01*
X76770920Y-82491200D01*
X78355379Y-82491200D01*
X78271101Y-82545431D01*
X78185477Y-82670746D01*
X78155354Y-82819500D01*
X78155354Y-84819500D01*
X78181502Y-84958466D01*
X78263631Y-85086099D01*
X78388946Y-85171723D01*
X78537700Y-85201846D01*
X80069045Y-85201846D01*
X80212858Y-85297940D01*
X80404200Y-85336000D01*
X81842454Y-85336000D01*
X81842454Y-85686000D01*
X81868602Y-85824966D01*
X81950731Y-85952599D01*
X82076046Y-86038223D01*
X82224800Y-86068346D01*
X83124800Y-86068346D01*
X83263766Y-86042198D01*
X83391399Y-85960069D01*
X83477023Y-85834754D01*
X83507146Y-85686000D01*
X83507146Y-83986000D01*
X83480998Y-83847034D01*
X83398869Y-83719401D01*
X83273554Y-83633777D01*
X83124800Y-83603654D01*
X82224800Y-83603654D01*
X82085834Y-83629802D01*
X81958201Y-83711931D01*
X81872577Y-83837246D01*
X81842454Y-83986000D01*
X81842454Y-84336000D01*
X80620046Y-84336000D01*
X80620046Y-82819500D01*
X80593898Y-82680534D01*
X80511769Y-82552901D01*
X80421467Y-82491200D01*
X80666494Y-82491200D01*
X81320146Y-83144853D01*
X81482358Y-83253240D01*
X81673700Y-83291300D01*
X83489800Y-83291300D01*
X83681142Y-83253240D01*
X83843353Y-83144853D01*
X83980400Y-83007806D01*
X83980400Y-84441600D01*
X84007810Y-84579401D01*
X84018460Y-84632942D01*
X84126847Y-84795153D01*
X84521247Y-85189554D01*
X84656097Y-85279658D01*
X84683458Y-85297940D01*
X84742454Y-85309675D01*
X84742454Y-85686000D01*
X84768602Y-85824966D01*
X84850731Y-85952599D01*
X84976046Y-86038223D01*
X85124800Y-86068346D01*
X86024800Y-86068346D01*
X86163766Y-86042198D01*
X86291399Y-85960069D01*
X86377023Y-85834754D01*
X86407146Y-85686000D01*
X86407146Y-83986000D01*
X86380998Y-83847034D01*
X86298869Y-83719401D01*
X86173554Y-83633777D01*
X86024800Y-83603654D01*
X85124800Y-83603654D01*
X84985834Y-83629802D01*
X84980400Y-83633299D01*
X84980400Y-82896807D01*
X85024453Y-82852754D01*
X85024455Y-82852751D01*
X86198364Y-81678842D01*
X86306751Y-81516631D01*
X86344811Y-81325289D01*
X86344811Y-77959932D01*
X86487100Y-77988746D01*
X88087100Y-77988746D01*
X88226066Y-77962598D01*
X88353699Y-77880469D01*
X88439323Y-77755154D01*
X88469446Y-77606400D01*
X88469446Y-77106400D01*
X89001600Y-77106400D01*
X89192942Y-77068340D01*
X89355153Y-76959953D01*
X89555375Y-76759731D01*
X89606910Y-76781130D01*
X89994789Y-76781469D01*
X90353271Y-76633346D01*
X90627782Y-76359314D01*
X90776530Y-76001090D01*
X90776869Y-75613211D01*
X90628746Y-75254729D01*
X90354714Y-74980218D01*
X89996490Y-74831470D01*
X89608611Y-74831131D01*
X89250129Y-74979254D01*
X88975618Y-75253286D01*
X88826870Y-75611510D01*
X88826531Y-75999389D01*
X88848452Y-76052442D01*
X88794494Y-76106400D01*
X88469446Y-76106400D01*
X88469446Y-75606400D01*
X88443298Y-75467434D01*
X88361169Y-75339801D01*
X88235854Y-75254177D01*
X88087100Y-75224054D01*
X87289600Y-75224054D01*
X87289600Y-73625638D01*
X87378566Y-73608898D01*
X87506199Y-73526769D01*
X87591823Y-73401454D01*
X87621946Y-73252700D01*
X87621946Y-71552700D01*
X87595798Y-71413734D01*
X87545800Y-71336034D01*
X87545800Y-70910146D01*
X87670800Y-70910146D01*
X87809766Y-70883998D01*
X87937399Y-70801869D01*
X88023023Y-70676554D01*
X88053146Y-70527800D01*
X88053146Y-69527800D01*
X88026998Y-69388834D01*
X87944869Y-69261201D01*
X87819554Y-69175577D01*
X87670800Y-69145454D01*
X86420800Y-69145454D01*
X86344811Y-69159752D01*
X86344811Y-68890311D01*
X86306751Y-68698969D01*
X86304032Y-68694900D01*
X86198365Y-68536758D01*
X85793200Y-68131594D01*
X85793200Y-67491706D01*
X85970206Y-67314700D01*
X88684100Y-67314700D01*
X88875442Y-67276640D01*
X89037653Y-67168253D01*
X89339800Y-66866106D01*
X89339800Y-68995194D01*
X89336047Y-68998947D01*
X89227660Y-69161158D01*
X89189600Y-69352500D01*
X89189600Y-71179762D01*
X89100634Y-71196502D01*
X88973001Y-71278631D01*
X88887377Y-71403946D01*
X88857254Y-71552700D01*
X88857254Y-73252700D01*
X88883402Y-73391666D01*
X88965531Y-73519299D01*
X89090846Y-73604923D01*
X89239600Y-73635046D01*
X90139600Y-73635046D01*
X90278566Y-73608898D01*
X90406199Y-73526769D01*
X90491823Y-73401454D01*
X90521946Y-73252700D01*
X90521946Y-71552700D01*
X90495798Y-71413734D01*
X90413669Y-71286101D01*
X90288354Y-71200477D01*
X90189600Y-71180479D01*
X90189600Y-69685361D01*
X90193353Y-69682853D01*
X90301740Y-69520642D01*
X90339800Y-69329300D01*
X90339800Y-63881000D01*
X90301740Y-63689658D01*
X90193353Y-63527447D01*
X87221553Y-60555647D01*
X87059342Y-60447260D01*
X86868000Y-60409200D01*
X84894707Y-60409200D01*
X84199877Y-59714371D01*
X84226299Y-59697369D01*
X84311923Y-59572054D01*
X84342046Y-59423300D01*
X84342046Y-57391300D01*
X84315898Y-57252334D01*
X84233769Y-57124701D01*
X84108454Y-57039077D01*
X83959700Y-57008954D01*
X83951700Y-57008954D01*
X83951700Y-53263801D01*
X83913640Y-53072459D01*
X83885604Y-53030500D01*
X83805253Y-52910247D01*
X83097154Y-52202149D01*
X83097152Y-52202146D01*
X83097030Y-52202024D01*
X83118429Y-52150490D01*
X83118768Y-51762611D01*
X82970645Y-51404129D01*
X82696613Y-51129618D01*
X82643599Y-51107605D01*
X82643599Y-47565599D01*
X82605539Y-47374257D01*
X82525253Y-47254101D01*
X82501532Y-47218600D01*
X83336670Y-47218600D01*
X83336670Y-50160150D01*
X83367839Y-50316849D01*
X83380439Y-50380193D01*
X83505084Y-50566736D01*
X84486300Y-51547953D01*
X84427930Y-51841400D01*
X84513802Y-52273109D01*
X84758346Y-52639094D01*
X85124331Y-52883638D01*
X85556040Y-52969510D01*
X85772300Y-52969510D01*
X85772300Y-53253290D01*
X85556040Y-53253290D01*
X85124331Y-53339162D01*
X84758346Y-53583706D01*
X84513802Y-53949691D01*
X84427930Y-54381400D01*
X84513802Y-54813109D01*
X84758346Y-55179094D01*
X85124331Y-55423638D01*
X85556040Y-55509510D01*
X87138560Y-55509510D01*
X87570269Y-55423638D01*
X87936254Y-55179094D01*
X88085054Y-54956400D01*
X88493600Y-54956400D01*
X88713643Y-54912631D01*
X88900186Y-54787986D01*
X89506100Y-54182073D01*
X89506100Y-54845728D01*
X87617114Y-56734714D01*
X87492469Y-56921257D01*
X87473444Y-57016905D01*
X87376734Y-57035102D01*
X87249101Y-57117231D01*
X87163477Y-57242546D01*
X87133354Y-57391300D01*
X87133354Y-59423300D01*
X87159502Y-59562266D01*
X87241631Y-59689899D01*
X87366946Y-59775523D01*
X87515700Y-59805646D01*
X88100874Y-59805646D01*
X88858040Y-60562813D01*
X88772418Y-60648286D01*
X88623670Y-61006510D01*
X88623331Y-61394389D01*
X88771454Y-61752871D01*
X89045486Y-62027382D01*
X89403710Y-62176130D01*
X89791589Y-62176469D01*
X90150071Y-62028346D01*
X90424582Y-61754314D01*
X90573330Y-61396090D01*
X90573669Y-61008211D01*
X90425546Y-60649729D01*
X90151514Y-60375218D01*
X90150571Y-60374826D01*
X90129731Y-60270057D01*
X90005087Y-60083514D01*
X88914046Y-58992474D01*
X88914046Y-57391300D01*
X88887898Y-57252334D01*
X88824446Y-57153726D01*
X90487686Y-55490486D01*
X90612331Y-55303943D01*
X90625325Y-55238618D01*
X90656100Y-55083900D01*
X90656100Y-48488600D01*
X90612331Y-48268557D01*
X90487687Y-48082014D01*
X88979700Y-46574028D01*
X88979700Y-45157693D01*
X89071349Y-45098719D01*
X89156973Y-44973404D01*
X89187096Y-44824650D01*
X89187096Y-44024550D01*
X89160948Y-43885584D01*
X89078819Y-43757951D01*
X88953504Y-43672327D01*
X88804750Y-43642204D01*
X88004650Y-43642204D01*
X87865684Y-43668352D01*
X87738051Y-43750481D01*
X87652427Y-43875796D01*
X87622304Y-44024550D01*
X87622304Y-44824650D01*
X87648452Y-44963616D01*
X87730581Y-45091249D01*
X87829700Y-45158974D01*
X87829700Y-46812200D01*
X87869173Y-47010646D01*
X87873469Y-47032243D01*
X87998114Y-47218786D01*
X89506100Y-48726773D01*
X89506100Y-49513427D01*
X88557286Y-48564614D01*
X88370743Y-48439969D01*
X88150700Y-48396200D01*
X87773840Y-48396200D01*
X87709992Y-48383500D01*
X87546115Y-48383500D01*
X87462415Y-48180931D01*
X87076103Y-47793943D01*
X86571102Y-47584249D01*
X86024296Y-47583772D01*
X85518931Y-47792585D01*
X85131943Y-48178897D01*
X84922249Y-48683898D01*
X84921772Y-49230704D01*
X85130585Y-49736069D01*
X85516897Y-50123057D01*
X86021898Y-50332751D01*
X86568704Y-50333228D01*
X87074069Y-50124415D01*
X87461057Y-49738103D01*
X87546015Y-49533500D01*
X87658844Y-49533500D01*
X87722692Y-49546200D01*
X87912528Y-49546200D01*
X88604400Y-50238073D01*
X88604400Y-53457427D01*
X88255428Y-53806400D01*
X88085054Y-53806400D01*
X87936254Y-53583706D01*
X87570269Y-53339162D01*
X87138560Y-53253290D01*
X86922300Y-53253290D01*
X86922300Y-52969510D01*
X87138560Y-52969510D01*
X87570269Y-52883638D01*
X87936254Y-52639094D01*
X88180798Y-52273109D01*
X88266670Y-51841400D01*
X88180798Y-51409691D01*
X87936254Y-51043706D01*
X87570269Y-50799162D01*
X87138560Y-50713290D01*
X85556040Y-50713290D01*
X85324115Y-50759423D01*
X84486670Y-49921978D01*
X84486670Y-47456772D01*
X85832947Y-46110496D01*
X85856916Y-46126873D01*
X86005670Y-46156996D01*
X86805770Y-46156996D01*
X86944736Y-46130848D01*
X87072369Y-46048719D01*
X87157993Y-45923404D01*
X87188116Y-45774650D01*
X87188116Y-44974550D01*
X87161968Y-44835584D01*
X87079839Y-44707951D01*
X86980720Y-44640226D01*
X86980720Y-44207693D01*
X87072369Y-44148719D01*
X87157993Y-44023404D01*
X87188116Y-43874650D01*
X87188116Y-43074550D01*
X87161968Y-42935584D01*
X87079839Y-42807951D01*
X86954524Y-42722327D01*
X86805770Y-42692204D01*
X86005670Y-42692204D01*
X85866704Y-42718352D01*
X85739071Y-42800481D01*
X85653447Y-42925796D01*
X85623324Y-43074550D01*
X85623324Y-43874650D01*
X85649472Y-44013616D01*
X85731601Y-44141249D01*
X85830720Y-44208974D01*
X85830720Y-44641507D01*
X85739071Y-44700481D01*
X85658083Y-44819011D01*
X85535627Y-44843369D01*
X85349084Y-44968013D01*
X83505084Y-46812014D01*
X83380439Y-46998557D01*
X83336670Y-47218600D01*
X82501532Y-47218600D01*
X82497152Y-47212045D01*
X80340146Y-45055040D01*
X80340146Y-44129800D01*
X80313998Y-43990834D01*
X80231869Y-43863201D01*
X80106554Y-43777577D01*
X79995900Y-43755169D01*
X79995900Y-43323746D01*
X80134866Y-43297598D01*
X80262499Y-43215469D01*
X80348123Y-43090154D01*
X80378246Y-42941400D01*
X80378246Y-41691400D01*
X80352098Y-41552434D01*
X80269969Y-41424801D01*
X80144654Y-41339177D01*
X79995900Y-41309054D01*
X79957800Y-41309054D01*
X79957800Y-40936146D01*
X80096766Y-40909998D01*
X80224399Y-40827869D01*
X80310023Y-40702554D01*
X80340146Y-40553800D01*
X80340146Y-39373500D01*
X85046885Y-39373500D01*
X85130585Y-39576069D01*
X85516897Y-39963057D01*
X86021898Y-40172751D01*
X86568704Y-40173228D01*
X87074069Y-39964415D01*
X87461057Y-39578103D01*
X87670751Y-39073102D01*
X87671228Y-38526296D01*
X87462415Y-38020931D01*
X87076103Y-37633943D01*
X86571102Y-37424249D01*
X86024296Y-37423772D01*
X85518931Y-37632585D01*
X85131943Y-38018897D01*
X85046985Y-38223500D01*
X79904235Y-38223500D01*
X79913556Y-38177470D01*
X79913556Y-36777930D01*
X79887408Y-36638964D01*
X79805279Y-36511331D01*
X79679964Y-36425707D01*
X79531210Y-36395584D01*
X79230600Y-36395584D01*
X79230600Y-34673072D01*
X79501232Y-34492241D01*
X79685489Y-34216481D01*
X79750191Y-33891200D01*
X79723233Y-33755673D01*
X80084154Y-33394753D01*
X80154041Y-33290159D01*
X80192540Y-33232542D01*
X80230600Y-33041200D01*
X80230600Y-32186773D01*
X80349318Y-32107448D01*
X80538995Y-31823578D01*
X80605600Y-31488730D01*
X80605600Y-30893670D01*
X80538995Y-30558822D01*
X80349318Y-30274952D01*
X80065448Y-30085275D01*
X79730600Y-30018670D01*
X79395752Y-30085275D01*
X79111882Y-30274952D01*
X78922205Y-30558822D01*
X78895874Y-30691200D01*
X73565326Y-30691200D01*
X73538995Y-30558822D01*
X73349318Y-30274952D01*
X73065448Y-30085275D01*
X72730600Y-30018670D01*
X72395752Y-30085275D01*
X72111882Y-30274952D01*
X71922205Y-30558822D01*
X71855600Y-30893670D01*
X71855600Y-31488730D01*
X71922205Y-31823578D01*
X72111882Y-32107448D01*
X72230600Y-32186773D01*
X72230600Y-33041200D01*
X72265409Y-33216200D01*
X72268660Y-33232542D01*
X72377047Y-33394753D01*
X72737967Y-33755673D01*
X72711009Y-33891200D01*
X72775711Y-34216481D01*
X72959968Y-34492241D01*
X73235728Y-34676498D01*
X73561009Y-34741200D01*
X73900191Y-34741200D01*
X74225472Y-34676498D01*
X74501232Y-34492241D01*
X74685489Y-34216481D01*
X74750191Y-33891200D01*
X74685489Y-33565919D01*
X74501232Y-33290159D01*
X74225472Y-33105902D01*
X73900191Y-33041200D01*
X73561009Y-33041200D01*
X73458164Y-33061657D01*
X73230600Y-32834094D01*
X73230600Y-32186773D01*
X73349318Y-32107448D01*
X73538995Y-31823578D01*
X73565326Y-31691200D01*
X78895874Y-31691200D01*
X78922205Y-31823578D01*
X79111882Y-32107448D01*
X79230600Y-32186773D01*
X79230600Y-32834093D01*
X79003036Y-33061657D01*
X78900191Y-33041200D01*
X78561009Y-33041200D01*
X78235728Y-33105902D01*
X78108223Y-33191098D01*
X78086798Y-33077234D01*
X78004669Y-32949601D01*
X77879354Y-32863977D01*
X77730600Y-32833854D01*
X77330600Y-32833854D01*
X77201011Y-32858238D01*
X77080600Y-32833854D01*
X76680600Y-32833854D01*
X76551011Y-32858238D01*
X76430600Y-32833854D01*
X76030600Y-32833854D01*
X75901011Y-32858238D01*
X75780600Y-32833854D01*
X75380600Y-32833854D01*
X75241634Y-32860002D01*
X75114001Y-32942131D01*
X75028377Y-33067446D01*
X74998254Y-33216200D01*
X74998254Y-34566200D01*
X75024402Y-34705166D01*
X75106531Y-34832799D01*
X75231846Y-34918423D01*
X75380600Y-34948546D01*
X75730600Y-34948546D01*
X75730600Y-45421048D01*
X75648114Y-45338418D01*
X75289890Y-45189670D01*
X74933130Y-45189358D01*
X74901690Y-45157918D01*
X74901688Y-45157915D01*
X74870000Y-45126227D01*
X74870000Y-44728846D01*
X74920000Y-44728846D01*
X75058966Y-44702698D01*
X75186599Y-44620569D01*
X75272223Y-44495254D01*
X75302346Y-44346500D01*
X75302346Y-43346500D01*
X75276198Y-43207534D01*
X75194069Y-43079901D01*
X75068754Y-42994277D01*
X74920000Y-42964154D01*
X73670000Y-42964154D01*
X73531034Y-42990302D01*
X73403401Y-43072431D01*
X73385300Y-43098923D01*
X73385300Y-41217546D01*
X73497600Y-41217546D01*
X73636566Y-41191398D01*
X73764199Y-41109269D01*
X73849823Y-40983954D01*
X73879946Y-40835200D01*
X73879946Y-40808875D01*
X73938942Y-40797140D01*
X74101153Y-40688753D01*
X74889853Y-39900054D01*
X74998240Y-39737842D01*
X75008463Y-39686446D01*
X75036300Y-39546500D01*
X75036300Y-37325300D01*
X74998240Y-37133958D01*
X74949529Y-37061058D01*
X74889854Y-36971747D01*
X73264253Y-35346147D01*
X73102042Y-35237760D01*
X73084411Y-35234253D01*
X72910700Y-35199700D01*
X71911306Y-35199700D01*
X71556500Y-34844894D01*
X71556500Y-33731200D01*
X71518440Y-33539858D01*
X71475026Y-33474886D01*
X71410054Y-33377647D01*
X70203553Y-32171147D01*
X70041342Y-32062760D01*
X69850000Y-32024700D01*
X67213556Y-32024700D01*
X67213556Y-31824930D01*
X67187408Y-31685964D01*
X67105279Y-31558331D01*
X66979964Y-31472707D01*
X66831210Y-31442584D01*
X65680590Y-31442584D01*
X65541624Y-31468732D01*
X65413991Y-31550861D01*
X65328367Y-31676176D01*
X65298244Y-31824930D01*
X65298244Y-33224470D01*
X65324392Y-33363436D01*
X65406521Y-33491069D01*
X65531836Y-33576693D01*
X65680590Y-33606816D01*
X65755900Y-33606816D01*
X65755900Y-33648354D01*
X65405900Y-33648354D01*
X65266934Y-33674502D01*
X65139301Y-33756631D01*
X65053677Y-33881946D01*
X65023554Y-34030700D01*
X65023554Y-36030700D01*
X65049702Y-36169666D01*
X65131831Y-36297299D01*
X65257146Y-36382923D01*
X65405900Y-36413046D01*
X67105900Y-36413046D01*
X67244866Y-36386898D01*
X67372499Y-36304769D01*
X67458123Y-36179454D01*
X67488246Y-36030700D01*
X67488246Y-34030700D01*
X67462098Y-33891734D01*
X67379969Y-33764101D01*
X67254654Y-33678477D01*
X67105900Y-33648354D01*
X66755900Y-33648354D01*
X66755900Y-33606816D01*
X66831210Y-33606816D01*
X66970176Y-33580668D01*
X67097809Y-33498539D01*
X67183433Y-33373224D01*
X67213556Y-33224470D01*
X67213556Y-33024700D01*
X69642894Y-33024700D01*
X70556500Y-33938307D01*
X70556500Y-35052000D01*
X70590323Y-35222042D01*
X70594560Y-35243342D01*
X70702947Y-35405553D01*
X71350647Y-36053253D01*
X71512858Y-36161640D01*
X71704200Y-36199700D01*
X72703594Y-36199700D01*
X74036300Y-37532407D01*
X74036300Y-39339393D01*
X73785539Y-39590155D01*
X73771669Y-39568601D01*
X73646354Y-39482977D01*
X73497600Y-39452854D01*
X72247600Y-39452854D01*
X72108634Y-39479002D01*
X71981001Y-39561131D01*
X71895377Y-39686446D01*
X71865254Y-39835200D01*
X71865254Y-40835200D01*
X71891402Y-40974166D01*
X71973531Y-41101799D01*
X72098846Y-41187423D01*
X72247600Y-41217546D01*
X72385300Y-41217546D01*
X72385300Y-51740603D01*
X71912100Y-51267404D01*
X71912100Y-50114200D01*
X71874040Y-49922858D01*
X71765653Y-49760647D01*
X69461000Y-47455994D01*
X69461000Y-46800771D01*
X69530954Y-46970071D01*
X69804986Y-47244582D01*
X70163210Y-47393330D01*
X70551089Y-47393669D01*
X70909571Y-47245546D01*
X71184082Y-46971514D01*
X71332830Y-46613290D01*
X71333169Y-46225411D01*
X71185046Y-45866929D01*
X70911014Y-45592418D01*
X70552790Y-45443670D01*
X70164911Y-45443331D01*
X69814062Y-45588300D01*
X69461000Y-45588300D01*
X69461000Y-45482606D01*
X69573160Y-45370446D01*
X70373400Y-45370446D01*
X70512366Y-45344298D01*
X70639999Y-45262169D01*
X70725623Y-45136854D01*
X70755746Y-44988100D01*
X70755746Y-43988100D01*
X70729598Y-43849134D01*
X70647469Y-43721501D01*
X70522154Y-43635877D01*
X70373400Y-43605754D01*
X69212853Y-43605754D01*
X69448161Y-43370446D01*
X70373400Y-43370446D01*
X70512366Y-43344298D01*
X70639999Y-43262169D01*
X70725623Y-43136854D01*
X70755746Y-42988100D01*
X70755746Y-41988100D01*
X70729598Y-41849134D01*
X70647469Y-41721501D01*
X70522154Y-41635877D01*
X70373400Y-41605754D01*
X70248400Y-41605754D01*
X70248400Y-41069142D01*
X70345836Y-41050808D01*
X70473469Y-40968679D01*
X70559093Y-40843364D01*
X70589216Y-40694610D01*
X70589216Y-39543990D01*
X70563068Y-39405024D01*
X70480939Y-39277391D01*
X70355624Y-39191767D01*
X70323030Y-39185167D01*
X70666707Y-38841490D01*
X71866438Y-38841490D01*
X71891402Y-38974166D01*
X71973531Y-39101799D01*
X72098846Y-39187423D01*
X72247600Y-39217546D01*
X73497600Y-39217546D01*
X73636566Y-39191398D01*
X73764199Y-39109269D01*
X73849823Y-38983954D01*
X73879946Y-38835200D01*
X73879946Y-37835200D01*
X73853798Y-37696234D01*
X73771669Y-37568601D01*
X73646354Y-37482977D01*
X73497600Y-37452854D01*
X72247600Y-37452854D01*
X72108634Y-37479002D01*
X71981001Y-37561131D01*
X71895377Y-37686446D01*
X71865254Y-37835200D01*
X71865254Y-37841490D01*
X70459600Y-37841490D01*
X70268258Y-37879550D01*
X70106046Y-37987937D01*
X69153547Y-38940437D01*
X69045160Y-39102648D01*
X69033425Y-39161644D01*
X68807330Y-39161644D01*
X68668364Y-39187792D01*
X68540731Y-39269921D01*
X68455107Y-39395236D01*
X68424984Y-39543990D01*
X68424984Y-40694610D01*
X68451132Y-40833576D01*
X68533261Y-40961209D01*
X68658576Y-41046833D01*
X68807330Y-41076956D01*
X69248400Y-41076956D01*
X69248400Y-41605754D01*
X69123400Y-41605754D01*
X68984434Y-41631902D01*
X68856801Y-41714031D01*
X68771177Y-41839346D01*
X68741054Y-41988100D01*
X68741054Y-42663339D01*
X67680347Y-43724047D01*
X67571960Y-43886258D01*
X67533900Y-44077600D01*
X67533900Y-48121600D01*
X67564270Y-48274281D01*
X67571960Y-48312942D01*
X67680347Y-48475153D01*
X69244394Y-50039200D01*
X67360800Y-50039200D01*
X67334225Y-50044066D01*
X67309033Y-50059931D01*
X67291998Y-50084347D01*
X67285804Y-50113467D01*
X67235680Y-55238618D01*
X66060056Y-55322591D01*
X66038141Y-55327529D01*
X66013105Y-55343639D01*
X65996309Y-55368221D01*
X65990400Y-55397400D01*
X65990400Y-57800174D01*
X64825500Y-56635274D01*
X64825500Y-44521400D01*
X64787440Y-44330058D01*
X64679054Y-44167847D01*
X63801453Y-43290247D01*
X63639242Y-43181860D01*
X63580246Y-43170125D01*
X63580246Y-43143800D01*
X63554098Y-43004834D01*
X63471969Y-42877201D01*
X63346654Y-42791577D01*
X63197900Y-42761454D01*
X63072900Y-42761454D01*
X63072900Y-41457400D01*
X63034840Y-41266058D01*
X62982297Y-41187423D01*
X62926454Y-41103847D01*
X62242320Y-40419714D01*
X62242320Y-37862789D01*
X62281336Y-37855448D01*
X62408969Y-37773319D01*
X62494593Y-37648004D01*
X62504700Y-37598093D01*
X62504700Y-37962650D01*
X62521916Y-38049200D01*
X62542760Y-38153992D01*
X62651147Y-38316203D01*
X62737696Y-38402753D01*
X62867445Y-38489449D01*
X62899908Y-38511140D01*
X62973296Y-38525738D01*
X62985052Y-38588216D01*
X63067181Y-38715849D01*
X63192496Y-38801473D01*
X63241300Y-38811356D01*
X63241300Y-40322500D01*
X63271207Y-40472853D01*
X63279360Y-40513842D01*
X63387747Y-40676053D01*
X65552700Y-42841007D01*
X65552700Y-42885154D01*
X65427700Y-42885154D01*
X65288734Y-42911302D01*
X65161101Y-42993431D01*
X65075477Y-43118746D01*
X65045354Y-43267500D01*
X65045354Y-44267500D01*
X65071502Y-44406466D01*
X65153631Y-44534099D01*
X65278946Y-44619723D01*
X65427700Y-44649846D01*
X66677700Y-44649846D01*
X66816666Y-44623698D01*
X66944299Y-44541569D01*
X67029923Y-44416254D01*
X67060046Y-44267500D01*
X67060046Y-43267500D01*
X67033898Y-43128534D01*
X66951769Y-43000901D01*
X66826454Y-42915277D01*
X66677700Y-42885154D01*
X66552700Y-42885154D01*
X66552700Y-42633900D01*
X66514640Y-42442558D01*
X66482061Y-42393800D01*
X66406253Y-42280346D01*
X64241300Y-40115394D01*
X64241300Y-38812789D01*
X64280316Y-38805448D01*
X64407949Y-38723319D01*
X64493573Y-38598004D01*
X64523696Y-38449250D01*
X64523696Y-38030700D01*
X65023554Y-38030700D01*
X65023554Y-40030700D01*
X65049702Y-40169666D01*
X65131831Y-40297299D01*
X65257146Y-40382923D01*
X65405900Y-40413046D01*
X67105900Y-40413046D01*
X67244866Y-40386898D01*
X67372499Y-40304769D01*
X67458123Y-40179454D01*
X67488246Y-40030700D01*
X67488246Y-38030700D01*
X67462098Y-37891734D01*
X67379969Y-37764101D01*
X67254654Y-37678477D01*
X67105900Y-37648354D01*
X66995553Y-37648354D01*
X67212307Y-37431600D01*
X67856100Y-37431600D01*
X68047442Y-37393540D01*
X68209653Y-37285153D01*
X68400154Y-37094653D01*
X68482277Y-36971747D01*
X68508540Y-36932442D01*
X68546600Y-36741100D01*
X68546600Y-35475006D01*
X68593337Y-35428269D01*
X68687386Y-35522482D01*
X69045610Y-35671230D01*
X69433489Y-35671569D01*
X69791971Y-35523446D01*
X70066482Y-35249414D01*
X70215230Y-34891190D01*
X70215569Y-34503311D01*
X70067446Y-34144829D01*
X69793414Y-33870318D01*
X69435190Y-33721570D01*
X69047311Y-33721231D01*
X68688829Y-33869354D01*
X68414318Y-34143386D01*
X68357202Y-34280936D01*
X68264547Y-34342847D01*
X67693047Y-34914347D01*
X67584660Y-35076558D01*
X67546600Y-35267900D01*
X67546600Y-36431600D01*
X67005200Y-36431600D01*
X66813858Y-36469660D01*
X66651646Y-36578047D01*
X65902347Y-37327347D01*
X65793960Y-37489558D01*
X65762374Y-37648354D01*
X65405900Y-37648354D01*
X65266934Y-37674502D01*
X65139301Y-37756631D01*
X65053677Y-37881946D01*
X65023554Y-38030700D01*
X64523696Y-38030700D01*
X64523696Y-37649150D01*
X64497548Y-37510184D01*
X64415419Y-37382551D01*
X64290104Y-37296927D01*
X64141350Y-37266804D01*
X63504700Y-37266804D01*
X63504700Y-36931596D01*
X64141350Y-36931596D01*
X64280316Y-36905448D01*
X64407949Y-36823319D01*
X64493573Y-36698004D01*
X64523696Y-36549250D01*
X64523696Y-35749150D01*
X64497548Y-35610184D01*
X64434834Y-35512722D01*
X64640953Y-35306603D01*
X64749340Y-35144392D01*
X64763731Y-35072042D01*
X64787400Y-34953050D01*
X64787400Y-31356300D01*
X64749340Y-31164958D01*
X64640953Y-31002747D01*
X63993253Y-30355047D01*
X63831042Y-30246660D01*
X63639700Y-30208600D01*
X59296300Y-30208600D01*
X59104958Y-30246660D01*
X58942747Y-30355047D01*
X58422047Y-30875747D01*
X58313660Y-31037958D01*
X58275600Y-31229300D01*
X58275600Y-37259890D01*
X57856495Y-37433061D01*
X57399067Y-37889691D01*
X57151203Y-38486613D01*
X57150639Y-39132951D01*
X57397461Y-39730305D01*
X57854091Y-40187733D01*
X58451013Y-40435597D01*
X59097351Y-40436161D01*
X59694705Y-40189339D01*
X60152133Y-39732709D01*
X60399997Y-39135787D01*
X60400561Y-38489449D01*
X60153739Y-37892095D01*
X59697109Y-37434667D01*
X59275600Y-37259641D01*
X59275600Y-31436406D01*
X59503406Y-31208600D01*
X63432594Y-31208600D01*
X63688560Y-31464566D01*
X63580010Y-31442584D01*
X62429390Y-31442584D01*
X62290424Y-31468732D01*
X62162791Y-31550861D01*
X62077167Y-31676176D01*
X62047044Y-31824930D01*
X62047044Y-32024700D01*
X61468000Y-32024700D01*
X61276658Y-32062760D01*
X61114446Y-32171147D01*
X60939624Y-32345969D01*
X60888090Y-32324570D01*
X60500211Y-32324231D01*
X60141729Y-32472354D01*
X59867218Y-32746386D01*
X59718470Y-33104610D01*
X59718131Y-33492489D01*
X59866254Y-33850971D01*
X60140286Y-34125482D01*
X60498510Y-34274230D01*
X60886389Y-34274569D01*
X61244871Y-34126446D01*
X61519382Y-33852414D01*
X61668130Y-33494190D01*
X61668469Y-33106311D01*
X61646548Y-33053259D01*
X61675107Y-33024700D01*
X62047044Y-33024700D01*
X62047044Y-33224470D01*
X62073192Y-33363436D01*
X62155321Y-33491069D01*
X62280636Y-33576693D01*
X62429390Y-33606816D01*
X62504700Y-33606816D01*
X62504700Y-36592773D01*
X62498568Y-36560184D01*
X62416439Y-36432551D01*
X62291124Y-36346927D01*
X62142370Y-36316804D01*
X61342270Y-36316804D01*
X61203304Y-36342952D01*
X61075671Y-36425081D01*
X60990047Y-36550396D01*
X60959924Y-36699150D01*
X60959924Y-37499250D01*
X60986072Y-37638216D01*
X61068201Y-37765849D01*
X61193516Y-37851473D01*
X61242320Y-37861356D01*
X61242320Y-40626820D01*
X61280380Y-40818162D01*
X61388767Y-40980373D01*
X62072900Y-41664507D01*
X62072900Y-42761454D01*
X61947900Y-42761454D01*
X61808934Y-42787602D01*
X61681301Y-42869731D01*
X61595677Y-42995046D01*
X61565554Y-43143800D01*
X61565554Y-44143800D01*
X61591702Y-44282766D01*
X61673831Y-44410399D01*
X61799146Y-44496023D01*
X61947900Y-44526146D01*
X63197900Y-44526146D01*
X63336866Y-44499998D01*
X63464499Y-44417869D01*
X63484942Y-44387949D01*
X63825500Y-44728507D01*
X63825500Y-56273093D01*
X62078531Y-54526125D01*
X62099930Y-54474590D01*
X62100269Y-54086711D01*
X61952146Y-53728229D01*
X61678114Y-53453718D01*
X61319890Y-53304970D01*
X60932011Y-53304631D01*
X60573529Y-53452754D01*
X60299018Y-53726786D01*
X60150270Y-54085010D01*
X60149931Y-54472889D01*
X60298054Y-54831371D01*
X60572086Y-55105882D01*
X60930310Y-55254630D01*
X61318189Y-55254969D01*
X61371242Y-55233048D01*
X62891203Y-56753010D01*
X59129790Y-56753010D01*
X58938448Y-56791070D01*
X58873476Y-56834484D01*
X58776237Y-56899456D01*
X56974247Y-58701447D01*
X56865860Y-58863658D01*
X56827800Y-59055000D01*
X56640198Y-59055000D01*
X56610235Y-29762000D01*
X91320017Y-29762000D01*
X91357683Y-103397652D01*
G36*
X77058402Y-58223166D02*
X77090200Y-58272582D01*
X77090200Y-63437700D01*
X72428100Y-63437700D01*
X72421517Y-63438939D01*
X72415400Y-63437700D01*
X71933319Y-63437700D01*
X71888354Y-63406977D01*
X71777208Y-63384470D01*
X71878566Y-63365398D01*
X71987036Y-63295600D01*
X72478900Y-63295600D01*
X72506359Y-63290392D01*
X72531349Y-63274211D01*
X72548074Y-63249581D01*
X72553900Y-63220385D01*
X72541416Y-58863300D01*
X76873100Y-58863300D01*
X76900359Y-58858171D01*
X76925395Y-58842061D01*
X76942191Y-58817479D01*
X76948100Y-58788300D01*
X76948100Y-58333534D01*
X77016823Y-58232954D01*
X77039330Y-58121808D01*
X77058402Y-58223166D01*
X77058402Y-58223166D01*
G37*
X77058402Y-58223166D02*
X77090200Y-58272582D01*
X77090200Y-63437700D01*
X72428100Y-63437700D01*
X72421517Y-63438939D01*
X72415400Y-63437700D01*
X71933319Y-63437700D01*
X71888354Y-63406977D01*
X71777208Y-63384470D01*
X71878566Y-63365398D01*
X71987036Y-63295600D01*
X72478900Y-63295600D01*
X72506359Y-63290392D01*
X72531349Y-63274211D01*
X72548074Y-63249581D01*
X72553900Y-63220385D01*
X72541416Y-58863300D01*
X76873100Y-58863300D01*
X76900359Y-58858171D01*
X76925395Y-58842061D01*
X76942191Y-58817479D01*
X76948100Y-58788300D01*
X76948100Y-58333534D01*
X77016823Y-58232954D01*
X77039330Y-58121808D01*
X77058402Y-58223166D01*
G36*
X78010032Y-39205087D02*
X78196575Y-39329731D01*
X78416618Y-39373500D01*
X78575454Y-39373500D01*
X78575454Y-40553800D01*
X78601602Y-40692766D01*
X78683731Y-40820399D01*
X78809046Y-40906023D01*
X78957800Y-40936146D01*
X78957800Y-41316223D01*
X78856934Y-41335202D01*
X78729301Y-41417331D01*
X78643677Y-41542646D01*
X78613554Y-41691400D01*
X78613554Y-42941400D01*
X78639702Y-43080366D01*
X78721831Y-43207999D01*
X78847146Y-43293623D01*
X78995900Y-43323746D01*
X78995900Y-43747454D01*
X78957800Y-43747454D01*
X78818834Y-43773602D01*
X78691201Y-43855731D01*
X78605577Y-43981046D01*
X78575454Y-44129800D01*
X78575454Y-45379800D01*
X78601602Y-45518766D01*
X78683731Y-45646399D01*
X78809046Y-45732023D01*
X78957800Y-45762146D01*
X79633040Y-45762146D01*
X81643599Y-47772706D01*
X81643599Y-51107345D01*
X81592028Y-51128654D01*
X81317517Y-51402686D01*
X81168769Y-51760910D01*
X81168511Y-52055699D01*
X78914701Y-52055699D01*
X78741855Y-52090080D01*
X78723359Y-52093759D01*
X78561147Y-52202146D01*
X77186047Y-53577247D01*
X77077660Y-53739458D01*
X77039600Y-53930800D01*
X77039600Y-53701396D01*
X78932996Y-51808000D01*
X79997300Y-51808000D01*
X80188642Y-51769940D01*
X80350853Y-51661553D01*
X80808053Y-51204354D01*
X80916440Y-51042142D01*
X80920057Y-51023956D01*
X80954500Y-50850800D01*
X80954500Y-49441100D01*
X80916440Y-49249758D01*
X80808053Y-49087547D01*
X80211153Y-48490647D01*
X80048942Y-48382260D01*
X79857600Y-48344200D01*
X79496146Y-48344200D01*
X79496146Y-47159400D01*
X79469998Y-47020434D01*
X79387869Y-46892801D01*
X79262554Y-46807177D01*
X79113800Y-46777054D01*
X78838561Y-46777054D01*
X77380600Y-45319094D01*
X77380600Y-38575654D01*
X78010032Y-39205087D01*
X78010032Y-39205087D01*
G37*
X78010032Y-39205087D02*
X78196575Y-39329731D01*
X78416618Y-39373500D01*
X78575454Y-39373500D01*
X78575454Y-40553800D01*
X78601602Y-40692766D01*
X78683731Y-40820399D01*
X78809046Y-40906023D01*
X78957800Y-40936146D01*
X78957800Y-41316223D01*
X78856934Y-41335202D01*
X78729301Y-41417331D01*
X78643677Y-41542646D01*
X78613554Y-41691400D01*
X78613554Y-42941400D01*
X78639702Y-43080366D01*
X78721831Y-43207999D01*
X78847146Y-43293623D01*
X78995900Y-43323746D01*
X78995900Y-43747454D01*
X78957800Y-43747454D01*
X78818834Y-43773602D01*
X78691201Y-43855731D01*
X78605577Y-43981046D01*
X78575454Y-44129800D01*
X78575454Y-45379800D01*
X78601602Y-45518766D01*
X78683731Y-45646399D01*
X78809046Y-45732023D01*
X78957800Y-45762146D01*
X79633040Y-45762146D01*
X81643599Y-47772706D01*
X81643599Y-51107345D01*
X81592028Y-51128654D01*
X81317517Y-51402686D01*
X81168769Y-51760910D01*
X81168511Y-52055699D01*
X78914701Y-52055699D01*
X78741855Y-52090080D01*
X78723359Y-52093759D01*
X78561147Y-52202146D01*
X77186047Y-53577247D01*
X77077660Y-53739458D01*
X77039600Y-53930800D01*
X77039600Y-53701396D01*
X78932996Y-51808000D01*
X79997300Y-51808000D01*
X80188642Y-51769940D01*
X80350853Y-51661553D01*
X80808053Y-51204354D01*
X80916440Y-51042142D01*
X80920057Y-51023956D01*
X80954500Y-50850800D01*
X80954500Y-49441100D01*
X80916440Y-49249758D01*
X80808053Y-49087547D01*
X80211153Y-48490647D01*
X80048942Y-48382260D01*
X79857600Y-48344200D01*
X79496146Y-48344200D01*
X79496146Y-47159400D01*
X79469998Y-47020434D01*
X79387869Y-46892801D01*
X79262554Y-46807177D01*
X79113800Y-46777054D01*
X78838561Y-46777054D01*
X77380600Y-45319094D01*
X77380600Y-38575654D01*
X78010032Y-39205087D01*
M02*
