G04 #@! TF.FileFunction,Paste,Bot*
%FSLAX46Y46*%
G04 Gerber Fmt 4.6, Leading zero omitted, Abs format (unit mm)*
G04 Created by KiCad (PCBNEW 4.0.2+e4-6225~38~ubuntu16.04.1-stable) date Wed 01 Jun 2016 06:58:51 PM EAT*
%MOMM*%
G01*
G04 APERTURE LIST*
%ADD10C,0.100000*%
%ADD11C,0.150000*%
%ADD12C,0.300000*%
%ADD13C,0.400000*%
G04 APERTURE END LIST*
D10*
D11*
X20004800Y-115994600D02*
X20004800Y-147994600D01*
X128004800Y-147994600D01*
X128004800Y-115994600D01*
X20004800Y-115994600D01*
D10*
D11*
X10000000Y-10000000D02*
X10000000Y-149994600D01*
X130004800Y-149994600D01*
X130004800Y-10000000D01*
X10000000Y-10000000D01*
D10*
D11*
X12000000Y-12000000D02*
X12000000Y-147994600D01*
X128004800Y-147994600D01*
X128004800Y-12000000D01*
X12000000Y-12000000D01*
D10*
D11*
X60000000Y-12000000D02*
X60000000Y-10000000D01*
D10*
D11*
X110000000Y-12000000D02*
X110000000Y-10000000D01*
D10*
D11*
X35990476Y-11588095D02*
X35247619Y-11588095D01*
X35619048Y-11588095D02*
X35619048Y-10288095D01*
X35495238Y-10473810D01*
X35371429Y-10597619D01*
X35247619Y-10659524D01*
D10*
D11*
X85247619Y-10411905D02*
X85309524Y-10350000D01*
X85433333Y-10288095D01*
X85742857Y-10288095D01*
X85866667Y-10350000D01*
X85928571Y-10411905D01*
X85990476Y-10535714D01*
X85990476Y-10659524D01*
X85928571Y-10845238D01*
X85185714Y-11588095D01*
X85990476Y-11588095D01*
D10*
D11*
X60000000Y-147994600D02*
X60000000Y-149994600D01*
D10*
D11*
X110000000Y-147994600D02*
X110000000Y-149994600D01*
D10*
D11*
X35990476Y-149582695D02*
X35247619Y-149582695D01*
X35619048Y-149582695D02*
X35619048Y-148282695D01*
X35495238Y-148468410D01*
X35371429Y-148592219D01*
X35247619Y-148654124D01*
D10*
D11*
X85247619Y-148406505D02*
X85309524Y-148344600D01*
X85433333Y-148282695D01*
X85742857Y-148282695D01*
X85866667Y-148344600D01*
X85928571Y-148406505D01*
X85990476Y-148530314D01*
X85990476Y-148654124D01*
X85928571Y-148839838D01*
X85185714Y-149582695D01*
X85990476Y-149582695D01*
D10*
D11*
X10000000Y-60000000D02*
X12000000Y-60000000D01*
D10*
D11*
X10000000Y-110000000D02*
X12000000Y-110000000D01*
D10*
D11*
X10690476Y-35216667D02*
X11309524Y-35216667D01*
X10566667Y-35588095D02*
X11000000Y-34288095D01*
X11433333Y-35588095D01*
D10*
D11*
X11092857Y-84907143D02*
X11278571Y-84969048D01*
X11340476Y-85030952D01*
X11402381Y-85154762D01*
X11402381Y-85340476D01*
X11340476Y-85464286D01*
X11278571Y-85526190D01*
X11154762Y-85588095D01*
X10659524Y-85588095D01*
X10659524Y-84288095D01*
X11092857Y-84288095D01*
X11216667Y-84350000D01*
X11278571Y-84411905D01*
X11340476Y-84535714D01*
X11340476Y-84659524D01*
X11278571Y-84783333D01*
X11216667Y-84845238D01*
X11092857Y-84907143D01*
X10659524Y-84907143D01*
D10*
D11*
X11402381Y-135464286D02*
X11340476Y-135526190D01*
X11154762Y-135588095D01*
X11030952Y-135588095D01*
X10845238Y-135526190D01*
X10721429Y-135402381D01*
X10659524Y-135278571D01*
X10597619Y-135030952D01*
X10597619Y-134845238D01*
X10659524Y-134597619D01*
X10721429Y-134473810D01*
X10845238Y-134350000D01*
X11030952Y-134288095D01*
X11154762Y-134288095D01*
X11340476Y-134350000D01*
X11402381Y-134411905D01*
D10*
D11*
X130004800Y-60000000D02*
X128004800Y-60000000D01*
D10*
D11*
X130004800Y-110000000D02*
X128004800Y-110000000D01*
D10*
D11*
X128695276Y-35216667D02*
X129314324Y-35216667D01*
X128571467Y-35588095D02*
X129004800Y-34288095D01*
X129438133Y-35588095D01*
D10*
D11*
X129097657Y-84907143D02*
X129283371Y-84969048D01*
X129345276Y-85030952D01*
X129407181Y-85154762D01*
X129407181Y-85340476D01*
X129345276Y-85464286D01*
X129283371Y-85526190D01*
X129159562Y-85588095D01*
X128664324Y-85588095D01*
X128664324Y-84288095D01*
X129097657Y-84288095D01*
X129221467Y-84350000D01*
X129283371Y-84411905D01*
X129345276Y-84535714D01*
X129345276Y-84659524D01*
X129283371Y-84783333D01*
X129221467Y-84845238D01*
X129097657Y-84907143D01*
X128664324Y-84907143D01*
D10*
D11*
X129407181Y-135464286D02*
X129345276Y-135526190D01*
X129159562Y-135588095D01*
X129035752Y-135588095D01*
X128850038Y-135526190D01*
X128726229Y-135402381D01*
X128664324Y-135278571D01*
X128602419Y-135030952D01*
X128602419Y-134845238D01*
X128664324Y-134597619D01*
X128726229Y-134473810D01*
X128850038Y-134350000D01*
X129035752Y-134288095D01*
X129159562Y-134288095D01*
X129345276Y-134350000D01*
X129407181Y-134411905D01*
D10*
D11*
X43361943Y-143773171D02*
X43361943Y-142273171D01*
X43719086Y-142273171D01*
X43933371Y-142344600D01*
X44076229Y-142487457D01*
X44147657Y-142630314D01*
X44219086Y-142916029D01*
X44219086Y-143130314D01*
X44147657Y-143416029D01*
X44076229Y-143558886D01*
X43933371Y-143701743D01*
X43719086Y-143773171D01*
X43361943Y-143773171D01*
X45504800Y-143773171D02*
X45504800Y-142987457D01*
X45433371Y-142844600D01*
X45290514Y-142773171D01*
X45004800Y-142773171D01*
X44861943Y-142844600D01*
X45504800Y-143701743D02*
X45361943Y-143773171D01*
X45004800Y-143773171D01*
X44861943Y-143701743D01*
X44790514Y-143558886D01*
X44790514Y-143416029D01*
X44861943Y-143273171D01*
X45004800Y-143201743D01*
X45361943Y-143201743D01*
X45504800Y-143130314D01*
X46004800Y-142773171D02*
X46576229Y-142773171D01*
X46219086Y-142273171D02*
X46219086Y-143558886D01*
X46290514Y-143701743D01*
X46433372Y-143773171D01*
X46576229Y-143773171D01*
X47647657Y-143701743D02*
X47504800Y-143773171D01*
X47219086Y-143773171D01*
X47076229Y-143701743D01*
X47004800Y-143558886D01*
X47004800Y-142987457D01*
X47076229Y-142844600D01*
X47219086Y-142773171D01*
X47504800Y-142773171D01*
X47647657Y-142844600D01*
X47719086Y-142987457D01*
X47719086Y-143130314D01*
X47004800Y-143273171D01*
X48361943Y-143630314D02*
X48433371Y-143701743D01*
X48361943Y-143773171D01*
X48290514Y-143701743D01*
X48361943Y-143630314D01*
X48361943Y-143773171D01*
X48361943Y-142844600D02*
X48433371Y-142916029D01*
X48361943Y-142987457D01*
X48290514Y-142916029D01*
X48361943Y-142844600D01*
X48361943Y-142987457D01*
X50933372Y-142273171D02*
X50219086Y-142273171D01*
X50147657Y-142987457D01*
X50219086Y-142916029D01*
X50361943Y-142844600D01*
X50719086Y-142844600D01*
X50861943Y-142916029D01*
X50933372Y-142987457D01*
X51004800Y-143130314D01*
X51004800Y-143487457D01*
X50933372Y-143630314D01*
X50861943Y-143701743D01*
X50719086Y-143773171D01*
X50361943Y-143773171D01*
X50219086Y-143701743D01*
X50147657Y-143630314D01*
X52719085Y-142201743D02*
X51433371Y-144130314D01*
X53861943Y-142773171D02*
X53861943Y-143773171D01*
X53504800Y-142201743D02*
X53147657Y-143273171D01*
X54076229Y-143273171D01*
X55719085Y-142201743D02*
X54433371Y-144130314D01*
X56147657Y-142416029D02*
X56219086Y-142344600D01*
X56361943Y-142273171D01*
X56719086Y-142273171D01*
X56861943Y-142344600D01*
X56933372Y-142416029D01*
X57004800Y-142558886D01*
X57004800Y-142701743D01*
X56933372Y-142916029D01*
X56076229Y-143773171D01*
X57004800Y-143773171D01*
X57933371Y-142273171D02*
X58076228Y-142273171D01*
X58219085Y-142344600D01*
X58290514Y-142416029D01*
X58361943Y-142558886D01*
X58433371Y-142844600D01*
X58433371Y-143201743D01*
X58361943Y-143487457D01*
X58290514Y-143630314D01*
X58219085Y-143701743D01*
X58076228Y-143773171D01*
X57933371Y-143773171D01*
X57790514Y-143701743D01*
X57719085Y-143630314D01*
X57647657Y-143487457D01*
X57576228Y-143201743D01*
X57576228Y-142844600D01*
X57647657Y-142558886D01*
X57719085Y-142416029D01*
X57790514Y-142344600D01*
X57933371Y-142273171D01*
X59861942Y-143773171D02*
X59004799Y-143773171D01*
X59433371Y-143773171D02*
X59433371Y-142273171D01*
X59290514Y-142487457D01*
X59147656Y-142630314D01*
X59004799Y-142701743D01*
X61147656Y-142273171D02*
X60861942Y-142273171D01*
X60719085Y-142344600D01*
X60647656Y-142416029D01*
X60504799Y-142630314D01*
X60433370Y-142916029D01*
X60433370Y-143487457D01*
X60504799Y-143630314D01*
X60576227Y-143701743D01*
X60719085Y-143773171D01*
X61004799Y-143773171D01*
X61147656Y-143701743D01*
X61219085Y-143630314D01*
X61290513Y-143487457D01*
X61290513Y-143130314D01*
X61219085Y-142987457D01*
X61147656Y-142916029D01*
X61004799Y-142844600D01*
X60719085Y-142844600D01*
X60576227Y-142916029D01*
X60504799Y-142987457D01*
X60433370Y-143130314D01*
D10*
D11*
X20004800Y-144494600D02*
X128004800Y-144494600D01*
D10*
D11*
X21361943Y-146573171D02*
X21361943Y-145073171D01*
X22219086Y-146573171D02*
X21576229Y-145716029D01*
X22219086Y-145073171D02*
X21361943Y-145930314D01*
X22861943Y-146573171D02*
X22861943Y-145573171D01*
X22861943Y-145073171D02*
X22790514Y-145144600D01*
X22861943Y-145216029D01*
X22933371Y-145144600D01*
X22861943Y-145073171D01*
X22861943Y-145216029D01*
X24433372Y-146430314D02*
X24361943Y-146501743D01*
X24147657Y-146573171D01*
X24004800Y-146573171D01*
X23790515Y-146501743D01*
X23647657Y-146358886D01*
X23576229Y-146216029D01*
X23504800Y-145930314D01*
X23504800Y-145716029D01*
X23576229Y-145430314D01*
X23647657Y-145287457D01*
X23790515Y-145144600D01*
X24004800Y-145073171D01*
X24147657Y-145073171D01*
X24361943Y-145144600D01*
X24433372Y-145216029D01*
X25719086Y-146573171D02*
X25719086Y-145787457D01*
X25647657Y-145644600D01*
X25504800Y-145573171D01*
X25219086Y-145573171D01*
X25076229Y-145644600D01*
X25719086Y-146501743D02*
X25576229Y-146573171D01*
X25219086Y-146573171D01*
X25076229Y-146501743D01*
X25004800Y-146358886D01*
X25004800Y-146216029D01*
X25076229Y-146073171D01*
X25219086Y-146001743D01*
X25576229Y-146001743D01*
X25719086Y-145930314D01*
X27076229Y-146573171D02*
X27076229Y-145073171D01*
X27076229Y-146501743D02*
X26933372Y-146573171D01*
X26647658Y-146573171D01*
X26504800Y-146501743D01*
X26433372Y-146430314D01*
X26361943Y-146287457D01*
X26361943Y-145858886D01*
X26433372Y-145716029D01*
X26504800Y-145644600D01*
X26647658Y-145573171D01*
X26933372Y-145573171D01*
X27076229Y-145644600D01*
X28933372Y-145787457D02*
X29433372Y-145787457D01*
X29647658Y-146573171D02*
X28933372Y-146573171D01*
X28933372Y-145073171D01*
X29647658Y-145073171D01*
X30290515Y-146430314D02*
X30361943Y-146501743D01*
X30290515Y-146573171D01*
X30219086Y-146501743D01*
X30290515Y-146430314D01*
X30290515Y-146573171D01*
X31004801Y-146573171D02*
X31004801Y-145073171D01*
X31361944Y-145073171D01*
X31576229Y-145144600D01*
X31719087Y-145287457D01*
X31790515Y-145430314D01*
X31861944Y-145716029D01*
X31861944Y-145930314D01*
X31790515Y-146216029D01*
X31719087Y-146358886D01*
X31576229Y-146501743D01*
X31361944Y-146573171D01*
X31004801Y-146573171D01*
X32504801Y-146430314D02*
X32576229Y-146501743D01*
X32504801Y-146573171D01*
X32433372Y-146501743D01*
X32504801Y-146430314D01*
X32504801Y-146573171D01*
X33147658Y-146144600D02*
X33861944Y-146144600D01*
X33004801Y-146573171D02*
X33504801Y-145073171D01*
X34004801Y-146573171D01*
X34504801Y-146430314D02*
X34576229Y-146501743D01*
X34504801Y-146573171D01*
X34433372Y-146501743D01*
X34504801Y-146430314D01*
X34504801Y-146573171D01*
X37504801Y-146573171D02*
X37504801Y-145073171D01*
X37647658Y-146001743D02*
X38076229Y-146573171D01*
X38076229Y-145573171D02*
X37504801Y-146144600D01*
X38719087Y-146573171D02*
X38719087Y-145573171D01*
X38719087Y-145073171D02*
X38647658Y-145144600D01*
X38719087Y-145216029D01*
X38790515Y-145144600D01*
X38719087Y-145073171D01*
X38719087Y-145216029D01*
X40076230Y-146501743D02*
X39933373Y-146573171D01*
X39647659Y-146573171D01*
X39504801Y-146501743D01*
X39433373Y-146430314D01*
X39361944Y-146287457D01*
X39361944Y-145858886D01*
X39433373Y-145716029D01*
X39504801Y-145644600D01*
X39647659Y-145573171D01*
X39933373Y-145573171D01*
X40076230Y-145644600D01*
X41361944Y-146573171D02*
X41361944Y-145787457D01*
X41290515Y-145644600D01*
X41147658Y-145573171D01*
X40861944Y-145573171D01*
X40719087Y-145644600D01*
X41361944Y-146501743D02*
X41219087Y-146573171D01*
X40861944Y-146573171D01*
X40719087Y-146501743D01*
X40647658Y-146358886D01*
X40647658Y-146216029D01*
X40719087Y-146073171D01*
X40861944Y-146001743D01*
X41219087Y-146001743D01*
X41361944Y-145930314D01*
X42719087Y-146573171D02*
X42719087Y-145073171D01*
X42719087Y-146501743D02*
X42576230Y-146573171D01*
X42290516Y-146573171D01*
X42147658Y-146501743D01*
X42076230Y-146430314D01*
X42004801Y-146287457D01*
X42004801Y-145858886D01*
X42076230Y-145716029D01*
X42147658Y-145644600D01*
X42290516Y-145573171D01*
X42576230Y-145573171D01*
X42719087Y-145644600D01*
X45219087Y-145573171D02*
X45219087Y-146573171D01*
X44861944Y-145001743D02*
X44504801Y-146073171D01*
X45433373Y-146073171D01*
X46004801Y-146430314D02*
X46076229Y-146501743D01*
X46004801Y-146573171D01*
X45933372Y-146501743D01*
X46004801Y-146430314D01*
X46004801Y-146573171D01*
X47004801Y-145073171D02*
X47147658Y-145073171D01*
X47290515Y-145144600D01*
X47361944Y-145216029D01*
X47433373Y-145358886D01*
X47504801Y-145644600D01*
X47504801Y-146001743D01*
X47433373Y-146287457D01*
X47361944Y-146430314D01*
X47290515Y-146501743D01*
X47147658Y-146573171D01*
X47004801Y-146573171D01*
X46861944Y-146501743D01*
X46790515Y-146430314D01*
X46719087Y-146287457D01*
X46647658Y-146001743D01*
X46647658Y-145644600D01*
X46719087Y-145358886D01*
X46790515Y-145216029D01*
X46861944Y-145144600D01*
X47004801Y-145073171D01*
X48147658Y-146430314D02*
X48219086Y-146501743D01*
X48147658Y-146573171D01*
X48076229Y-146501743D01*
X48147658Y-146430314D01*
X48147658Y-146573171D01*
X48790515Y-145216029D02*
X48861944Y-145144600D01*
X49004801Y-145073171D01*
X49361944Y-145073171D01*
X49504801Y-145144600D01*
X49576230Y-145216029D01*
X49647658Y-145358886D01*
X49647658Y-145501743D01*
X49576230Y-145716029D01*
X48719087Y-146573171D01*
X49647658Y-146573171D01*
X50290515Y-146001743D02*
X51433372Y-146001743D01*
X50861943Y-146573171D02*
X50861943Y-145430314D01*
X52719086Y-146501743D02*
X52576229Y-146573171D01*
X52290515Y-146573171D01*
X52147658Y-146501743D01*
X52076229Y-146358886D01*
X52076229Y-145787457D01*
X52147658Y-145644600D01*
X52290515Y-145573171D01*
X52576229Y-145573171D01*
X52719086Y-145644600D01*
X52790515Y-145787457D01*
X52790515Y-145930314D01*
X52076229Y-146073171D01*
X54076229Y-145573171D02*
X54076229Y-146573171D01*
X53719086Y-145001743D02*
X53361943Y-146073171D01*
X54290515Y-146073171D01*
X54861943Y-146001743D02*
X56004800Y-146001743D01*
X57361943Y-145073171D02*
X57076229Y-145073171D01*
X56933372Y-145144600D01*
X56861943Y-145216029D01*
X56719086Y-145430314D01*
X56647657Y-145716029D01*
X56647657Y-146287457D01*
X56719086Y-146430314D01*
X56790514Y-146501743D01*
X56933372Y-146573171D01*
X57219086Y-146573171D01*
X57361943Y-146501743D01*
X57433372Y-146430314D01*
X57504800Y-146287457D01*
X57504800Y-145930314D01*
X57433372Y-145787457D01*
X57361943Y-145716029D01*
X57219086Y-145644600D01*
X56933372Y-145644600D01*
X56790514Y-145716029D01*
X56719086Y-145787457D01*
X56647657Y-145930314D01*
X58076228Y-145216029D02*
X58147657Y-145144600D01*
X58290514Y-145073171D01*
X58647657Y-145073171D01*
X58790514Y-145144600D01*
X58861943Y-145216029D01*
X58933371Y-145358886D01*
X58933371Y-145501743D01*
X58861943Y-145716029D01*
X58004800Y-146573171D01*
X58933371Y-146573171D01*
X59504799Y-145216029D02*
X59576228Y-145144600D01*
X59719085Y-145073171D01*
X60076228Y-145073171D01*
X60219085Y-145144600D01*
X60290514Y-145216029D01*
X60361942Y-145358886D01*
X60361942Y-145501743D01*
X60290514Y-145716029D01*
X59433371Y-146573171D01*
X60361942Y-146573171D01*
X61719085Y-145073171D02*
X61004799Y-145073171D01*
X60933370Y-145787457D01*
X61004799Y-145716029D01*
X61147656Y-145644600D01*
X61504799Y-145644600D01*
X61647656Y-145716029D01*
X61719085Y-145787457D01*
X61790513Y-145930314D01*
X61790513Y-146287457D01*
X61719085Y-146430314D01*
X61647656Y-146501743D01*
X61504799Y-146573171D01*
X61147656Y-146573171D01*
X61004799Y-146501743D01*
X60933370Y-146430314D01*
X62290513Y-145073171D02*
X63219084Y-145073171D01*
X62719084Y-145644600D01*
X62933370Y-145644600D01*
X63076227Y-145716029D01*
X63147656Y-145787457D01*
X63219084Y-145930314D01*
X63219084Y-146287457D01*
X63147656Y-146430314D01*
X63076227Y-146501743D01*
X62933370Y-146573171D01*
X62504798Y-146573171D01*
X62361941Y-146501743D01*
X62290513Y-146430314D01*
X64076227Y-145716029D02*
X63933369Y-145644600D01*
X63861941Y-145573171D01*
X63790512Y-145430314D01*
X63790512Y-145358886D01*
X63861941Y-145216029D01*
X63933369Y-145144600D01*
X64076227Y-145073171D01*
X64361941Y-145073171D01*
X64504798Y-145144600D01*
X64576227Y-145216029D01*
X64647655Y-145358886D01*
X64647655Y-145430314D01*
X64576227Y-145573171D01*
X64504798Y-145644600D01*
X64361941Y-145716029D01*
X64076227Y-145716029D01*
X63933369Y-145787457D01*
X63861941Y-145858886D01*
X63790512Y-146001743D01*
X63790512Y-146287457D01*
X63861941Y-146430314D01*
X63933369Y-146501743D01*
X64076227Y-146573171D01*
X64361941Y-146573171D01*
X64504798Y-146501743D01*
X64576227Y-146430314D01*
X64647655Y-146287457D01*
X64647655Y-146001743D01*
X64576227Y-145858886D01*
X64504798Y-145787457D01*
X64361941Y-145716029D01*
X62076227Y-144814600D02*
X64933369Y-144814600D01*
X65933369Y-145573171D02*
X65933369Y-146573171D01*
X65290512Y-145573171D02*
X65290512Y-146358886D01*
X65361940Y-146501743D01*
X65504798Y-146573171D01*
X65719083Y-146573171D01*
X65861940Y-146501743D01*
X65933369Y-146430314D01*
X66647655Y-146573171D02*
X66647655Y-145073171D01*
X66647655Y-145644600D02*
X66790512Y-145573171D01*
X67076226Y-145573171D01*
X67219083Y-145644600D01*
X67290512Y-145716029D01*
X67361941Y-145858886D01*
X67361941Y-146287457D01*
X67290512Y-146430314D01*
X67219083Y-146501743D01*
X67076226Y-146573171D01*
X66790512Y-146573171D01*
X66647655Y-146501743D01*
X68647655Y-145573171D02*
X68647655Y-146573171D01*
X68004798Y-145573171D02*
X68004798Y-146358886D01*
X68076226Y-146501743D01*
X68219084Y-146573171D01*
X68433369Y-146573171D01*
X68576226Y-146501743D01*
X68647655Y-146430314D01*
X69361941Y-145573171D02*
X69361941Y-146573171D01*
X69361941Y-145716029D02*
X69433369Y-145644600D01*
X69576227Y-145573171D01*
X69790512Y-145573171D01*
X69933369Y-145644600D01*
X70004798Y-145787457D01*
X70004798Y-146573171D01*
X70504798Y-145573171D02*
X71076227Y-145573171D01*
X70719084Y-145073171D02*
X70719084Y-146358886D01*
X70790512Y-146501743D01*
X70933370Y-146573171D01*
X71076227Y-146573171D01*
X72219084Y-145573171D02*
X72219084Y-146573171D01*
X71576227Y-145573171D02*
X71576227Y-146358886D01*
X71647655Y-146501743D01*
X71790513Y-146573171D01*
X72004798Y-146573171D01*
X72147655Y-146501743D01*
X72219084Y-146430314D01*
X73719084Y-146573171D02*
X72861941Y-146573171D01*
X73290513Y-146573171D02*
X73290513Y-145073171D01*
X73147656Y-145287457D01*
X73004798Y-145430314D01*
X72861941Y-145501743D01*
X75004798Y-145073171D02*
X74719084Y-145073171D01*
X74576227Y-145144600D01*
X74504798Y-145216029D01*
X74361941Y-145430314D01*
X74290512Y-145716029D01*
X74290512Y-146287457D01*
X74361941Y-146430314D01*
X74433369Y-146501743D01*
X74576227Y-146573171D01*
X74861941Y-146573171D01*
X75004798Y-146501743D01*
X75076227Y-146430314D01*
X75147655Y-146287457D01*
X75147655Y-145930314D01*
X75076227Y-145787457D01*
X75004798Y-145716029D01*
X74861941Y-145644600D01*
X74576227Y-145644600D01*
X74433369Y-145716029D01*
X74361941Y-145787457D01*
X74290512Y-145930314D01*
X75790512Y-146430314D02*
X75861940Y-146501743D01*
X75790512Y-146573171D01*
X75719083Y-146501743D01*
X75790512Y-146430314D01*
X75790512Y-146573171D01*
X76790512Y-145073171D02*
X76933369Y-145073171D01*
X77076226Y-145144600D01*
X77147655Y-145216029D01*
X77219084Y-145358886D01*
X77290512Y-145644600D01*
X77290512Y-146001743D01*
X77219084Y-146287457D01*
X77147655Y-146430314D01*
X77076226Y-146501743D01*
X76933369Y-146573171D01*
X76790512Y-146573171D01*
X76647655Y-146501743D01*
X76576226Y-146430314D01*
X76504798Y-146287457D01*
X76433369Y-146001743D01*
X76433369Y-145644600D01*
X76504798Y-145358886D01*
X76576226Y-145216029D01*
X76647655Y-145144600D01*
X76790512Y-145073171D01*
X78576226Y-145573171D02*
X78576226Y-146573171D01*
X78219083Y-145001743D02*
X77861940Y-146073171D01*
X78790512Y-146073171D01*
X79361940Y-146430314D02*
X79433368Y-146501743D01*
X79361940Y-146573171D01*
X79290511Y-146501743D01*
X79361940Y-146430314D01*
X79361940Y-146573171D01*
X80861940Y-146573171D02*
X80004797Y-146573171D01*
X80433369Y-146573171D02*
X80433369Y-145073171D01*
X80290512Y-145287457D01*
X80147654Y-145430314D01*
X80004797Y-145501743D01*
X81504797Y-146001743D02*
X82647654Y-146001743D01*
X83290511Y-146501743D02*
X83433368Y-146573171D01*
X83719083Y-146573171D01*
X83861940Y-146501743D01*
X83933368Y-146358886D01*
X83933368Y-146287457D01*
X83861940Y-146144600D01*
X83719083Y-146073171D01*
X83504797Y-146073171D01*
X83361940Y-146001743D01*
X83290511Y-145858886D01*
X83290511Y-145787457D01*
X83361940Y-145644600D01*
X83504797Y-145573171D01*
X83719083Y-145573171D01*
X83861940Y-145644600D01*
X84361940Y-145573171D02*
X84933369Y-145573171D01*
X84576226Y-145073171D02*
X84576226Y-146358886D01*
X84647654Y-146501743D01*
X84790512Y-146573171D01*
X84933369Y-146573171D01*
X86076226Y-146573171D02*
X86076226Y-145787457D01*
X86004797Y-145644600D01*
X85861940Y-145573171D01*
X85576226Y-145573171D01*
X85433369Y-145644600D01*
X86076226Y-146501743D02*
X85933369Y-146573171D01*
X85576226Y-146573171D01*
X85433369Y-146501743D01*
X85361940Y-146358886D01*
X85361940Y-146216029D01*
X85433369Y-146073171D01*
X85576226Y-146001743D01*
X85933369Y-146001743D01*
X86076226Y-145930314D01*
X86790512Y-146573171D02*
X86790512Y-145073171D01*
X86790512Y-145644600D02*
X86933369Y-145573171D01*
X87219083Y-145573171D01*
X87361940Y-145644600D01*
X87433369Y-145716029D01*
X87504798Y-145858886D01*
X87504798Y-146287457D01*
X87433369Y-146430314D01*
X87361940Y-146501743D01*
X87219083Y-146573171D01*
X86933369Y-146573171D01*
X86790512Y-146501743D01*
X88361941Y-146573171D02*
X88219083Y-146501743D01*
X88147655Y-146358886D01*
X88147655Y-145073171D01*
X89504797Y-146501743D02*
X89361940Y-146573171D01*
X89076226Y-146573171D01*
X88933369Y-146501743D01*
X88861940Y-146358886D01*
X88861940Y-145787457D01*
X88933369Y-145644600D01*
X89076226Y-145573171D01*
X89361940Y-145573171D01*
X89504797Y-145644600D01*
X89576226Y-145787457D01*
X89576226Y-145930314D01*
X88861940Y-146073171D01*
D10*
D11*
X20004800Y-141494600D02*
X128004800Y-141494600D01*
D10*
D12*
X107219086Y-143773171D02*
X106719086Y-143058886D01*
X106361943Y-143773171D02*
X106361943Y-142273171D01*
X106933371Y-142273171D01*
X107076229Y-142344600D01*
X107147657Y-142416029D01*
X107219086Y-142558886D01*
X107219086Y-142773171D01*
X107147657Y-142916029D01*
X107076229Y-142987457D01*
X106933371Y-143058886D01*
X106361943Y-143058886D01*
X108433371Y-143701743D02*
X108290514Y-143773171D01*
X108004800Y-143773171D01*
X107861943Y-143701743D01*
X107790514Y-143558886D01*
X107790514Y-142987457D01*
X107861943Y-142844600D01*
X108004800Y-142773171D01*
X108290514Y-142773171D01*
X108433371Y-142844600D01*
X108504800Y-142987457D01*
X108504800Y-143130314D01*
X107790514Y-143273171D01*
X109004800Y-142773171D02*
X109361943Y-143773171D01*
X109719085Y-142773171D01*
X110290514Y-143630314D02*
X110361942Y-143701743D01*
X110290514Y-143773171D01*
X110219085Y-143701743D01*
X110290514Y-143630314D01*
X110290514Y-143773171D01*
X110290514Y-142844600D02*
X110361942Y-142916029D01*
X110290514Y-142987457D01*
X110219085Y-142916029D01*
X110290514Y-142844600D01*
X110290514Y-142987457D01*
X112933371Y-143773171D02*
X112076228Y-143773171D01*
X112504800Y-143773171D02*
X112504800Y-142273171D01*
X112361943Y-142487457D01*
X112219085Y-142630314D01*
X112076228Y-142701743D01*
D10*
D11*
X21290514Y-143701743D02*
X21504800Y-143773171D01*
X21861943Y-143773171D01*
X22004800Y-143701743D01*
X22076229Y-143630314D01*
X22147657Y-143487457D01*
X22147657Y-143344600D01*
X22076229Y-143201743D01*
X22004800Y-143130314D01*
X21861943Y-143058886D01*
X21576229Y-142987457D01*
X21433371Y-142916029D01*
X21361943Y-142844600D01*
X21290514Y-142701743D01*
X21290514Y-142558886D01*
X21361943Y-142416029D01*
X21433371Y-142344600D01*
X21576229Y-142273171D01*
X21933371Y-142273171D01*
X22147657Y-142344600D01*
X22790514Y-143773171D02*
X22790514Y-142773171D01*
X22790514Y-142273171D02*
X22719085Y-142344600D01*
X22790514Y-142416029D01*
X22861942Y-142344600D01*
X22790514Y-142273171D01*
X22790514Y-142416029D01*
X23361943Y-142773171D02*
X24147657Y-142773171D01*
X23361943Y-143773171D01*
X24147657Y-143773171D01*
X25290514Y-143701743D02*
X25147657Y-143773171D01*
X24861943Y-143773171D01*
X24719086Y-143701743D01*
X24647657Y-143558886D01*
X24647657Y-142987457D01*
X24719086Y-142844600D01*
X24861943Y-142773171D01*
X25147657Y-142773171D01*
X25290514Y-142844600D01*
X25361943Y-142987457D01*
X25361943Y-143130314D01*
X24647657Y-143273171D01*
X26004800Y-143630314D02*
X26076228Y-143701743D01*
X26004800Y-143773171D01*
X25933371Y-143701743D01*
X26004800Y-143630314D01*
X26004800Y-143773171D01*
X26004800Y-142844600D02*
X26076228Y-142916029D01*
X26004800Y-142987457D01*
X25933371Y-142916029D01*
X26004800Y-142844600D01*
X26004800Y-142987457D01*
X27861943Y-142273171D02*
X27861943Y-143487457D01*
X27933371Y-143630314D01*
X28004800Y-143701743D01*
X28147657Y-143773171D01*
X28433371Y-143773171D01*
X28576229Y-143701743D01*
X28647657Y-143630314D01*
X28719086Y-143487457D01*
X28719086Y-142273171D01*
X29361943Y-143701743D02*
X29504800Y-143773171D01*
X29790515Y-143773171D01*
X29933372Y-143701743D01*
X30004800Y-143558886D01*
X30004800Y-143487457D01*
X29933372Y-143344600D01*
X29790515Y-143273171D01*
X29576229Y-143273171D01*
X29433372Y-143201743D01*
X29361943Y-143058886D01*
X29361943Y-142987457D01*
X29433372Y-142844600D01*
X29576229Y-142773171D01*
X29790515Y-142773171D01*
X29933372Y-142844600D01*
X31219086Y-143701743D02*
X31076229Y-143773171D01*
X30790515Y-143773171D01*
X30647658Y-143701743D01*
X30576229Y-143558886D01*
X30576229Y-142987457D01*
X30647658Y-142844600D01*
X30790515Y-142773171D01*
X31076229Y-142773171D01*
X31219086Y-142844600D01*
X31290515Y-142987457D01*
X31290515Y-143130314D01*
X30576229Y-143273171D01*
X31933372Y-143773171D02*
X31933372Y-142773171D01*
X31933372Y-143058886D02*
X32004800Y-142916029D01*
X32076229Y-142844600D01*
X32219086Y-142773171D01*
X32361943Y-142773171D01*
D10*
D11*
X106361943Y-146573171D02*
X106361943Y-145073171D01*
X107719086Y-146573171D02*
X107719086Y-145073171D01*
X107719086Y-146501743D02*
X107576229Y-146573171D01*
X107290515Y-146573171D01*
X107147657Y-146501743D01*
X107076229Y-146430314D01*
X107004800Y-146287457D01*
X107004800Y-145858886D01*
X107076229Y-145716029D01*
X107147657Y-145644600D01*
X107290515Y-145573171D01*
X107576229Y-145573171D01*
X107719086Y-145644600D01*
X108433372Y-146430314D02*
X108504800Y-146501743D01*
X108433372Y-146573171D01*
X108361943Y-146501743D01*
X108433372Y-146430314D01*
X108433372Y-146573171D01*
X108433372Y-145644600D02*
X108504800Y-145716029D01*
X108433372Y-145787457D01*
X108361943Y-145716029D01*
X108433372Y-145644600D01*
X108433372Y-145787457D01*
X111076229Y-146573171D02*
X110219086Y-146573171D01*
X110647658Y-146573171D02*
X110647658Y-145073171D01*
X110504801Y-145287457D01*
X110361943Y-145430314D01*
X110219086Y-145501743D01*
X112790514Y-145001743D02*
X111504800Y-146930314D01*
X114076229Y-146573171D02*
X113219086Y-146573171D01*
X113647658Y-146573171D02*
X113647658Y-145073171D01*
X113504801Y-145287457D01*
X113361943Y-145430314D01*
X113219086Y-145501743D01*
D10*
D11*
X20004800Y-137494600D02*
X128004800Y-137494600D01*
D10*
D13*
X21457181Y-138199362D02*
X22600038Y-138199362D01*
X21778610Y-140199362D02*
X22028610Y-138199362D01*
X23016705Y-140199362D02*
X23183371Y-138866029D01*
X23266705Y-138199362D02*
X23159562Y-138294600D01*
X23242895Y-138389838D01*
X23350039Y-138294600D01*
X23266705Y-138199362D01*
X23242895Y-138389838D01*
X23850038Y-138866029D02*
X24611943Y-138866029D01*
X24219086Y-138199362D02*
X24004800Y-139913648D01*
X24076230Y-140104124D01*
X24254801Y-140199362D01*
X24445277Y-140199362D01*
X25397658Y-140199362D02*
X25219087Y-140104124D01*
X25147657Y-139913648D01*
X25361943Y-138199362D01*
X26933372Y-140104124D02*
X26730991Y-140199362D01*
X26350039Y-140199362D01*
X26171467Y-140104124D01*
X26100038Y-139913648D01*
X26195276Y-139151743D01*
X26314324Y-138961267D01*
X26516705Y-138866029D01*
X26897657Y-138866029D01*
X27076229Y-138961267D01*
X27147657Y-139151743D01*
X27123848Y-139342219D01*
X26147657Y-139532695D01*
X27897657Y-140008886D02*
X27980992Y-140104124D01*
X27873848Y-140199362D01*
X27790515Y-140104124D01*
X27897657Y-140008886D01*
X27873848Y-140199362D01*
X28028610Y-138961267D02*
X28111944Y-139056505D01*
X28004800Y-139151743D01*
X27921467Y-139056505D01*
X28028610Y-138961267D01*
X28004800Y-139151743D01*
X30314325Y-138199362D02*
X31457182Y-138199362D01*
X30635754Y-140199362D02*
X30885754Y-138199362D01*
X31873849Y-140199362D02*
X32040515Y-138866029D01*
X32123849Y-138199362D02*
X32016706Y-138294600D01*
X32100039Y-138389838D01*
X32207183Y-138294600D01*
X32123849Y-138199362D01*
X32100039Y-138389838D01*
X32992896Y-138866029D02*
X32826230Y-140199362D01*
X32969087Y-139056505D02*
X33076231Y-138961267D01*
X33278611Y-138866029D01*
X33564325Y-138866029D01*
X33742897Y-138961267D01*
X33814325Y-139151743D01*
X33683373Y-140199362D01*
X34611944Y-138866029D02*
X34921469Y-140199362D01*
X35564325Y-138866029D02*
X34921469Y-140199362D01*
X34671469Y-140675552D01*
X34564325Y-140770790D01*
X34361944Y-140866029D01*
X37683374Y-140199362D02*
X37933374Y-138199362D01*
X38826232Y-140199362D02*
X38111946Y-139056505D01*
X39076232Y-138199362D02*
X37790517Y-139342219D01*
X39814326Y-138389838D02*
X39921469Y-138294600D01*
X40123851Y-138199362D01*
X40600041Y-138199362D01*
X40778612Y-138294600D01*
X40861945Y-138389838D01*
X40933375Y-138580314D01*
X40909565Y-138770790D01*
X40778612Y-139056505D01*
X39492898Y-140199362D01*
X40730994Y-140199362D01*
X42219089Y-138199362D02*
X42409565Y-138199362D01*
X42588136Y-138294600D01*
X42671469Y-138389838D01*
X42742898Y-138580314D01*
X42790518Y-138961267D01*
X42730994Y-139437457D01*
X42588136Y-139818410D01*
X42469088Y-140008886D01*
X42361946Y-140104124D01*
X42159565Y-140199362D01*
X41969089Y-140199362D01*
X41790518Y-140104124D01*
X41707184Y-140008886D01*
X41635755Y-139818410D01*
X41588136Y-139437457D01*
X41647660Y-138961267D01*
X41790517Y-138580314D01*
X41909565Y-138389838D01*
X42016708Y-138294600D01*
X42219089Y-138199362D01*
X45016708Y-140199362D02*
X45266708Y-138199362D01*
X46028613Y-138199362D01*
X46207184Y-138294600D01*
X46290518Y-138389838D01*
X46361947Y-138580314D01*
X46326232Y-138866029D01*
X46207185Y-139056505D01*
X46100041Y-139151743D01*
X45897660Y-139246981D01*
X45135755Y-139246981D01*
X48183375Y-140008886D02*
X48076233Y-140104124D01*
X47778613Y-140199362D01*
X47588137Y-140199362D01*
X47314328Y-140104124D01*
X47147661Y-139913648D01*
X47076232Y-139723171D01*
X47028613Y-139342219D01*
X47064327Y-139056505D01*
X47207184Y-138675552D01*
X47326233Y-138485076D01*
X47540518Y-138294600D01*
X47838137Y-138199362D01*
X48028613Y-138199362D01*
X48302423Y-138294600D01*
X48385756Y-138389838D01*
X49814327Y-139151743D02*
X50088136Y-139246981D01*
X50171471Y-139342219D01*
X50242899Y-139532695D01*
X50207185Y-139818410D01*
X50088137Y-140008886D01*
X49980994Y-140104124D01*
X49778613Y-140199362D01*
X49016708Y-140199362D01*
X49266708Y-138199362D01*
X49933375Y-138199362D01*
X50111946Y-138294600D01*
X50195279Y-138389838D01*
X50266709Y-138580314D01*
X50242899Y-138770790D01*
X50123851Y-138961267D01*
X50016708Y-139056505D01*
X49814327Y-139151743D01*
X49147660Y-139151743D01*
D10*
D11*
X21861943Y-135587457D02*
X21361943Y-135587457D01*
X21361943Y-136373171D02*
X21361943Y-134873171D01*
X22076229Y-134873171D01*
X22647657Y-136373171D02*
X22647657Y-135373171D01*
X22647657Y-134873171D02*
X22576228Y-134944600D01*
X22647657Y-135016029D01*
X22719085Y-134944600D01*
X22647657Y-134873171D01*
X22647657Y-135016029D01*
X23576229Y-136373171D02*
X23433371Y-136301743D01*
X23361943Y-136158886D01*
X23361943Y-134873171D01*
X24719085Y-136301743D02*
X24576228Y-136373171D01*
X24290514Y-136373171D01*
X24147657Y-136301743D01*
X24076228Y-136158886D01*
X24076228Y-135587457D01*
X24147657Y-135444600D01*
X24290514Y-135373171D01*
X24576228Y-135373171D01*
X24719085Y-135444600D01*
X24790514Y-135587457D01*
X24790514Y-135730314D01*
X24076228Y-135873171D01*
X25433371Y-136230314D02*
X25504799Y-136301743D01*
X25433371Y-136373171D01*
X25361942Y-136301743D01*
X25433371Y-136230314D01*
X25433371Y-136373171D01*
X25433371Y-135444600D02*
X25504799Y-135516029D01*
X25433371Y-135587457D01*
X25361942Y-135516029D01*
X25433371Y-135444600D01*
X25433371Y-135587457D01*
X27076228Y-135373171D02*
X27647657Y-135373171D01*
X27290514Y-134873171D02*
X27290514Y-136158886D01*
X27361942Y-136301743D01*
X27504800Y-136373171D01*
X27647657Y-136373171D01*
X28147657Y-136373171D02*
X28147657Y-135373171D01*
X28147657Y-134873171D02*
X28076228Y-134944600D01*
X28147657Y-135016029D01*
X28219085Y-134944600D01*
X28147657Y-134873171D01*
X28147657Y-135016029D01*
X28861943Y-135373171D02*
X28861943Y-136373171D01*
X28861943Y-135516029D02*
X28933371Y-135444600D01*
X29076229Y-135373171D01*
X29290514Y-135373171D01*
X29433371Y-135444600D01*
X29504800Y-135587457D01*
X29504800Y-136373171D01*
X30076229Y-135373171D02*
X30433372Y-136373171D01*
X30790514Y-135373171D02*
X30433372Y-136373171D01*
X30290514Y-136730314D01*
X30219086Y-136801743D01*
X30076229Y-136873171D01*
X31361943Y-136373171D02*
X31361943Y-134873171D01*
X32219086Y-136373171D02*
X31576229Y-135516029D01*
X32219086Y-134873171D02*
X31361943Y-135730314D01*
X32790514Y-135016029D02*
X32861943Y-134944600D01*
X33004800Y-134873171D01*
X33361943Y-134873171D01*
X33504800Y-134944600D01*
X33576229Y-135016029D01*
X33647657Y-135158886D01*
X33647657Y-135301743D01*
X33576229Y-135516029D01*
X32719086Y-136373171D01*
X33647657Y-136373171D01*
X34576228Y-134873171D02*
X34719085Y-134873171D01*
X34861942Y-134944600D01*
X34933371Y-135016029D01*
X35004800Y-135158886D01*
X35076228Y-135444600D01*
X35076228Y-135801743D01*
X35004800Y-136087457D01*
X34933371Y-136230314D01*
X34861942Y-136301743D01*
X34719085Y-136373171D01*
X34576228Y-136373171D01*
X34433371Y-136301743D01*
X34361942Y-136230314D01*
X34290514Y-136087457D01*
X34219085Y-135801743D01*
X34219085Y-135444600D01*
X34290514Y-135158886D01*
X34361942Y-135016029D01*
X34433371Y-134944600D01*
X34576228Y-134873171D01*
X35719085Y-136230314D02*
X35790513Y-136301743D01*
X35719085Y-136373171D01*
X35647656Y-136301743D01*
X35719085Y-136230314D01*
X35719085Y-136373171D01*
X36433371Y-136373171D02*
X36433371Y-134873171D01*
X36576228Y-135801743D02*
X37004799Y-136373171D01*
X37004799Y-135373171D02*
X36433371Y-135944600D01*
X37647657Y-136373171D02*
X37647657Y-135373171D01*
X37647657Y-134873171D02*
X37576228Y-134944600D01*
X37647657Y-135016029D01*
X37719085Y-134944600D01*
X37647657Y-134873171D01*
X37647657Y-135016029D01*
X39004800Y-136301743D02*
X38861943Y-136373171D01*
X38576229Y-136373171D01*
X38433371Y-136301743D01*
X38361943Y-136230314D01*
X38290514Y-136087457D01*
X38290514Y-135658886D01*
X38361943Y-135516029D01*
X38433371Y-135444600D01*
X38576229Y-135373171D01*
X38861943Y-135373171D01*
X39004800Y-135444600D01*
X40290514Y-136373171D02*
X40290514Y-135587457D01*
X40219085Y-135444600D01*
X40076228Y-135373171D01*
X39790514Y-135373171D01*
X39647657Y-135444600D01*
X40290514Y-136301743D02*
X40147657Y-136373171D01*
X39790514Y-136373171D01*
X39647657Y-136301743D01*
X39576228Y-136158886D01*
X39576228Y-136016029D01*
X39647657Y-135873171D01*
X39790514Y-135801743D01*
X40147657Y-135801743D01*
X40290514Y-135730314D01*
X41647657Y-136373171D02*
X41647657Y-134873171D01*
X41647657Y-136301743D02*
X41504800Y-136373171D01*
X41219086Y-136373171D01*
X41076228Y-136301743D01*
X41004800Y-136230314D01*
X40933371Y-136087457D01*
X40933371Y-135658886D01*
X41004800Y-135516029D01*
X41076228Y-135444600D01*
X41219086Y-135373171D01*
X41504800Y-135373171D01*
X41647657Y-135444600D01*
X42004800Y-136516029D02*
X43147657Y-136516029D01*
X43504800Y-135373171D02*
X43504800Y-136873171D01*
X43504800Y-135444600D02*
X43647657Y-135373171D01*
X43933371Y-135373171D01*
X44076228Y-135444600D01*
X44147657Y-135516029D01*
X44219086Y-135658886D01*
X44219086Y-136087457D01*
X44147657Y-136230314D01*
X44076228Y-136301743D01*
X43933371Y-136373171D01*
X43647657Y-136373171D01*
X43504800Y-136301743D01*
X45504800Y-136301743D02*
X45361943Y-136373171D01*
X45076229Y-136373171D01*
X44933371Y-136301743D01*
X44861943Y-136230314D01*
X44790514Y-136087457D01*
X44790514Y-135658886D01*
X44861943Y-135516029D01*
X44933371Y-135444600D01*
X45076229Y-135373171D01*
X45361943Y-135373171D01*
X45504800Y-135444600D01*
X46147657Y-136373171D02*
X46147657Y-134873171D01*
X46147657Y-135444600D02*
X46290514Y-135373171D01*
X46576228Y-135373171D01*
X46719085Y-135444600D01*
X46790514Y-135516029D01*
X46861943Y-135658886D01*
X46861943Y-136087457D01*
X46790514Y-136230314D01*
X46719085Y-136301743D01*
X46576228Y-136373171D01*
X46290514Y-136373171D01*
X46147657Y-136301743D01*
D10*
D11*
X20004800Y-131494600D02*
X128004800Y-131494600D01*
D10*
D11*
X21290514Y-133601743D02*
X21504800Y-133673171D01*
X21861943Y-133673171D01*
X22004800Y-133601743D01*
X22076229Y-133530314D01*
X22147657Y-133387457D01*
X22147657Y-133244600D01*
X22076229Y-133101743D01*
X22004800Y-133030314D01*
X21861943Y-132958886D01*
X21576229Y-132887457D01*
X21433371Y-132816029D01*
X21361943Y-132744600D01*
X21290514Y-132601743D01*
X21290514Y-132458886D01*
X21361943Y-132316029D01*
X21433371Y-132244600D01*
X21576229Y-132173171D01*
X21933371Y-132173171D01*
X22147657Y-132244600D01*
X22790514Y-133673171D02*
X22790514Y-132173171D01*
X23433371Y-133673171D02*
X23433371Y-132887457D01*
X23361942Y-132744600D01*
X23219085Y-132673171D01*
X23004800Y-132673171D01*
X22861942Y-132744600D01*
X22790514Y-132816029D01*
X24719085Y-133601743D02*
X24576228Y-133673171D01*
X24290514Y-133673171D01*
X24147657Y-133601743D01*
X24076228Y-133458886D01*
X24076228Y-132887457D01*
X24147657Y-132744600D01*
X24290514Y-132673171D01*
X24576228Y-132673171D01*
X24719085Y-132744600D01*
X24790514Y-132887457D01*
X24790514Y-133030314D01*
X24076228Y-133173171D01*
X26004799Y-133601743D02*
X25861942Y-133673171D01*
X25576228Y-133673171D01*
X25433371Y-133601743D01*
X25361942Y-133458886D01*
X25361942Y-132887457D01*
X25433371Y-132744600D01*
X25576228Y-132673171D01*
X25861942Y-132673171D01*
X26004799Y-132744600D01*
X26076228Y-132887457D01*
X26076228Y-133030314D01*
X25361942Y-133173171D01*
X26504799Y-132673171D02*
X27076228Y-132673171D01*
X26719085Y-132173171D02*
X26719085Y-133458886D01*
X26790513Y-133601743D01*
X26933371Y-133673171D01*
X27076228Y-133673171D01*
X27576228Y-133530314D02*
X27647656Y-133601743D01*
X27576228Y-133673171D01*
X27504799Y-133601743D01*
X27576228Y-133530314D01*
X27576228Y-133673171D01*
X27576228Y-132744600D02*
X27647656Y-132816029D01*
X27576228Y-132887457D01*
X27504799Y-132816029D01*
X27576228Y-132744600D01*
X27576228Y-132887457D01*
D10*
D12*
X21361943Y-130673171D02*
X21361943Y-129173171D01*
X22219086Y-130673171D02*
X21576229Y-129816029D01*
X22219086Y-129173171D02*
X21361943Y-130030314D01*
X23504800Y-130673171D02*
X23504800Y-129887457D01*
X23433371Y-129744600D01*
X23290514Y-129673171D01*
X23004800Y-129673171D01*
X22861943Y-129744600D01*
X23504800Y-130601743D02*
X23361943Y-130673171D01*
X23004800Y-130673171D01*
X22861943Y-130601743D01*
X22790514Y-130458886D01*
X22790514Y-130316029D01*
X22861943Y-130173171D01*
X23004800Y-130101743D01*
X23361943Y-130101743D01*
X23504800Y-130030314D01*
X24219086Y-130673171D02*
X24219086Y-129673171D01*
X24219086Y-129958886D02*
X24290514Y-129816029D01*
X24361943Y-129744600D01*
X24504800Y-129673171D01*
X24647657Y-129673171D01*
X25147657Y-130673171D02*
X25147657Y-129673171D01*
X25147657Y-129173171D02*
X25076228Y-129244600D01*
X25147657Y-129316029D01*
X25219085Y-129244600D01*
X25147657Y-129173171D01*
X25147657Y-129316029D01*
X25861943Y-130673171D02*
X25861943Y-129173171D01*
X25861943Y-129744600D02*
X26004800Y-129673171D01*
X26290514Y-129673171D01*
X26433371Y-129744600D01*
X26504800Y-129816029D01*
X26576229Y-129958886D01*
X26576229Y-130387457D01*
X26504800Y-130530314D01*
X26433371Y-130601743D01*
X26290514Y-130673171D01*
X26004800Y-130673171D01*
X25861943Y-130601743D01*
X27790514Y-130601743D02*
X27647657Y-130673171D01*
X27361943Y-130673171D01*
X27219086Y-130601743D01*
X27147657Y-130458886D01*
X27147657Y-129887457D01*
X27219086Y-129744600D01*
X27361943Y-129673171D01*
X27647657Y-129673171D01*
X27790514Y-129744600D01*
X27861943Y-129887457D01*
X27861943Y-130030314D01*
X27147657Y-130173171D01*
D10*
D11*
X21361943Y-127673171D02*
X21361943Y-126173171D01*
X21504800Y-127101743D02*
X21933371Y-127673171D01*
X21933371Y-126673171D02*
X21361943Y-127244600D01*
X23219086Y-127673171D02*
X23219086Y-126887457D01*
X23147657Y-126744600D01*
X23004800Y-126673171D01*
X22719086Y-126673171D01*
X22576229Y-126744600D01*
X23219086Y-127601743D02*
X23076229Y-127673171D01*
X22719086Y-127673171D01*
X22576229Y-127601743D01*
X22504800Y-127458886D01*
X22504800Y-127316029D01*
X22576229Y-127173171D01*
X22719086Y-127101743D01*
X23076229Y-127101743D01*
X23219086Y-127030314D01*
X23933372Y-127673171D02*
X23933372Y-126673171D01*
X23933372Y-126958886D02*
X24004800Y-126816029D01*
X24076229Y-126744600D01*
X24219086Y-126673171D01*
X24361943Y-126673171D01*
X24647657Y-126673171D02*
X25219086Y-126673171D01*
X24861943Y-127673171D02*
X24861943Y-126387457D01*
X24933371Y-126244600D01*
X25076229Y-126173171D01*
X25219086Y-126173171D01*
X26290514Y-127601743D02*
X26147657Y-127673171D01*
X25861943Y-127673171D01*
X25719086Y-127601743D01*
X25647657Y-127458886D01*
X25647657Y-126887457D01*
X25719086Y-126744600D01*
X25861943Y-126673171D01*
X26147657Y-126673171D01*
X26290514Y-126744600D01*
X26361943Y-126887457D01*
X26361943Y-127030314D01*
X25647657Y-127173171D01*
X26933371Y-127601743D02*
X27076228Y-127673171D01*
X27361943Y-127673171D01*
X27504800Y-127601743D01*
X27576228Y-127458886D01*
X27576228Y-127387457D01*
X27504800Y-127244600D01*
X27361943Y-127173171D01*
X27147657Y-127173171D01*
X27004800Y-127101743D01*
X26933371Y-126958886D01*
X26933371Y-126887457D01*
X27004800Y-126744600D01*
X27147657Y-126673171D01*
X27361943Y-126673171D01*
X27504800Y-126744600D01*
X29147657Y-126958886D02*
X29076229Y-126887457D01*
X28933372Y-126816029D01*
X28790514Y-126816029D01*
X28647657Y-126887457D01*
X28576229Y-126958886D01*
X28504800Y-127101743D01*
X28504800Y-127244600D01*
X28576229Y-127387457D01*
X28647657Y-127458886D01*
X28790514Y-127530314D01*
X28933372Y-127530314D01*
X29076229Y-127458886D01*
X29147657Y-127387457D01*
X29147657Y-126816029D02*
X29147657Y-127387457D01*
X29219086Y-127458886D01*
X29290514Y-127458886D01*
X29433372Y-127387457D01*
X29504800Y-127244600D01*
X29504800Y-126887457D01*
X29361943Y-126673171D01*
X29147657Y-126530314D01*
X28861943Y-126458886D01*
X28576229Y-126530314D01*
X28361943Y-126673171D01*
X28219086Y-126887457D01*
X28147657Y-127173171D01*
X28219086Y-127458886D01*
X28361943Y-127673171D01*
X28576229Y-127816029D01*
X28861943Y-127887457D01*
X29147657Y-127816029D01*
X29361943Y-127673171D01*
X30790514Y-126673171D02*
X30790514Y-127887457D01*
X30719085Y-128030314D01*
X30647657Y-128101743D01*
X30504800Y-128173171D01*
X30290514Y-128173171D01*
X30147657Y-128101743D01*
X30790514Y-127601743D02*
X30647657Y-127673171D01*
X30361943Y-127673171D01*
X30219085Y-127601743D01*
X30147657Y-127530314D01*
X30076228Y-127387457D01*
X30076228Y-126958886D01*
X30147657Y-126816029D01*
X30219085Y-126744600D01*
X30361943Y-126673171D01*
X30647657Y-126673171D01*
X30790514Y-126744600D01*
X31504800Y-127673171D02*
X31504800Y-126673171D01*
X31504800Y-126816029D02*
X31576228Y-126744600D01*
X31719086Y-126673171D01*
X31933371Y-126673171D01*
X32076228Y-126744600D01*
X32147657Y-126887457D01*
X32147657Y-127673171D01*
X32147657Y-126887457D02*
X32219086Y-126744600D01*
X32361943Y-126673171D01*
X32576228Y-126673171D01*
X32719086Y-126744600D01*
X32790514Y-126887457D01*
X32790514Y-127673171D01*
X34147657Y-127673171D02*
X34147657Y-126887457D01*
X34076228Y-126744600D01*
X33933371Y-126673171D01*
X33647657Y-126673171D01*
X33504800Y-126744600D01*
X34147657Y-127601743D02*
X34004800Y-127673171D01*
X33647657Y-127673171D01*
X33504800Y-127601743D01*
X33433371Y-127458886D01*
X33433371Y-127316029D01*
X33504800Y-127173171D01*
X33647657Y-127101743D01*
X34004800Y-127101743D01*
X34147657Y-127030314D01*
X34861943Y-127673171D02*
X34861943Y-126673171D01*
X34861943Y-126173171D02*
X34790514Y-126244600D01*
X34861943Y-126316029D01*
X34933371Y-126244600D01*
X34861943Y-126173171D01*
X34861943Y-126316029D01*
X35790515Y-127673171D02*
X35647657Y-127601743D01*
X35576229Y-127458886D01*
X35576229Y-126173171D01*
X36361943Y-127530314D02*
X36433371Y-127601743D01*
X36361943Y-127673171D01*
X36290514Y-127601743D01*
X36361943Y-127530314D01*
X36361943Y-127673171D01*
X37719086Y-127601743D02*
X37576229Y-127673171D01*
X37290515Y-127673171D01*
X37147657Y-127601743D01*
X37076229Y-127530314D01*
X37004800Y-127387457D01*
X37004800Y-126958886D01*
X37076229Y-126816029D01*
X37147657Y-126744600D01*
X37290515Y-126673171D01*
X37576229Y-126673171D01*
X37719086Y-126744600D01*
X38576229Y-127673171D02*
X38433371Y-127601743D01*
X38361943Y-127530314D01*
X38290514Y-127387457D01*
X38290514Y-126958886D01*
X38361943Y-126816029D01*
X38433371Y-126744600D01*
X38576229Y-126673171D01*
X38790514Y-126673171D01*
X38933371Y-126744600D01*
X39004800Y-126816029D01*
X39076229Y-126958886D01*
X39076229Y-127387457D01*
X39004800Y-127530314D01*
X38933371Y-127601743D01*
X38790514Y-127673171D01*
X38576229Y-127673171D01*
X39719086Y-127673171D02*
X39719086Y-126673171D01*
X39719086Y-126816029D02*
X39790514Y-126744600D01*
X39933372Y-126673171D01*
X40147657Y-126673171D01*
X40290514Y-126744600D01*
X40361943Y-126887457D01*
X40361943Y-127673171D01*
X40361943Y-126887457D02*
X40433372Y-126744600D01*
X40576229Y-126673171D01*
X40790514Y-126673171D01*
X40933372Y-126744600D01*
X41004800Y-126887457D01*
X41004800Y-127673171D01*
D10*
D11*
X40004800Y-141494600D02*
X40004800Y-144494600D01*
D10*
D11*
X104004800Y-141494600D02*
X104004800Y-147994600D01*
D10*
X56261000Y-103835200D02*
X56184800Y-29337000D01*
X91782900Y-103822500D02*
X56261000Y-103835200D01*
X91744800Y-29337000D02*
X91782900Y-103822500D01*
X56184800Y-29337000D02*
X91744800Y-29337000D01*
M02*
